<?xml version="1.0" encoding="UTF-8"?>
<svg width="146px" height="73px" viewBox="0 0 146 73" version="1.1" xmlns="http://www.w3.org/2000/svg" xmlns:xlink="http://www.w3.org/1999/xlink">
    <!-- Generator: Sketch 43.2 (39069) - http://www.bohemiancoding.com/sketch -->
    <title>Group</title>
    <desc>Created with Sketch.</desc>
    <defs>
        <polygon id="path-1" points="0 73 146 73 146 0 0 0"></polygon>
    </defs>
    <g id="Page---Home-" stroke="none" stroke-width="1" fill="none" fill-rule="evenodd">
        <g id="Home---Desktop-More-Optimized" transform="translate(-39.000000, -1324.000000)">
            <g id="Header---Desktop-Sticky" transform="translate(-1.000000, 1324.000000)">
                <g id="Header">
                    <g id="Logo-Lockup" transform="translate(40.000000, 0.000000)">
                        <g id="Group">
                            <mask id="mask-2" fill="white">
                                <use xlink:href="#path-1"></use>
                            </mask>
                            <use id="Fill-1" fill="#FBF7F1" xlink:href="#path-1"></use>
                            <g id="Logo" mask="url(#mask-2)">
                                <g transform="translate(20.000000, 21.915715)">
                                    <path d="M1.87155658,17.9219617 C1.87155658,17.9219617 5.29072811,16.9393844 8.74785429,16.8374875 C10.18254,16.7938174 11.6215633,16.9019529 12.8285211,17.2949838 C13.4130227,17.4863004 13.9433033,17.7431222 14.3911682,18.0831252 C14.8737344,18.450162 15.2576185,18.9107776 15.5113725,19.4857672 C15.7206652,19.9650986 15.8410357,20.5213725 15.8486266,21.1670661 C15.8518799,21.1992988 15.8551331,21.2252929 15.8551331,21.2564859 C15.8551331,21.9437701 15.7542822,22.5291574 15.5742687,23.0324033 C15.3432876,23.6749777 14.978923,24.1792634 14.512623,24.5712545 C14.1178947,24.89982 13.6526792,25.1504032 13.1343271,25.3302825 C12.4055979,25.5850247 11.5727645,25.7035579 10.6922167,25.7285122 C9.05691356,25.7711425 7.25894769,25.4810483 5.6475018,25.1004945 C2.96139717,24.4714371 0.803404356,23.5928363 0.803404356,23.5928363 L0.787138078,24.0035432 L0.803404356,30.5187064 C0.803404356,30.5187064 2.51027907,31.0749803 4.99901953,31.5532719 C6.64516682,31.8683205 8.62965267,32.1480171 10.6922167,32.2072837 C11.0077824,32.2176813 11.3255171,32.2239199 11.6443361,32.2208006 L11.6443361,32.2166416 C13.4618215,32.2166416 15.1361637,31.905752 16.6131417,31.3442793 C17.8352813,30.8815842 18.9218687,30.2525268 19.8501309,29.4841409 C21.0917901,28.4568538 22.0460784,27.1831425 22.649015,25.747228 C23.1272436,24.6097258 23.3853352,23.3682472 23.3853352,22.0664623 C23.3853352,21.72334 23.3679845,21.3895757 23.3441273,21.0620499 C23.2324322,19.5117613 22.8593922,18.1288748 22.2586244,16.9341856 C21.6199019,15.6698322 20.7317631,14.6165509 19.6332472,13.7930576 C18.5379845,12.9737233 17.2345135,12.3831372 15.7683797,12.0431342 C14.5896167,11.7727955 13.3056652,11.6656998 11.9382135,11.7280856 C11.8308561,11.7322447 11.7234987,11.7364037 11.6150568,11.7436821 C8.51578873,11.9495554 8.14166435,11.9474759 8.11130063,11.9401976 L8.11455388,11.9349987 L8.11455388,6.58125225 L21.9951107,6.58125225 L21.9951107,0.556857779 L21.9788444,0.556857779 L21.9582405,0.576613301 L1.89432937,0.576613301 L1.88565402,0.576613301 L1.88565402,17.9022062 L1.87155658,17.9219617 L1.87155658,17.9219617 Z" id="Fill-6" fill="#211D14"></path>
                                    <polygon id="Fill-8" fill="#E75300" points="98.4563747 15.533727 94.1295449 15.533727 94.1295449 11.3861071 92.6829306 11.3861071 92.6829306 15.533727 88.3561008 15.533727 88.3561008 16.9218124 92.6829306 16.9218124 92.6829306 21.0715118 94.1295449 21.0715118 94.1295449 16.9218124 98.4563747 16.9218124"></polygon>
                                    <path d="M77.0455074,31.9170855 L109.767836,31.9170855 L109.767836,0.541157338 L77.0455074,0.541157338 L77.0455074,31.9170855 Z M107.443927,25.407121 C107.443927,27.7725849 105.444259,29.6888705 102.978291,29.6888705 L83.8415581,29.6888705 C81.3777593,29.6888705 79.379176,27.7725849 79.379176,25.407121 L79.3683318,25.407121 L79.3683318,7.05943986 L79.3813449,7.05943986 C79.3813449,4.69709532 81.3777593,2.77873015 83.8415581,2.77873015 L83.8415581,2.76729275 L102.978291,2.76729275 L102.978291,2.77873015 C105.446428,2.77873015 107.443927,4.69709532 107.443927,7.05943986 L107.44718,7.05943986 L107.44718,25.407121 L107.443927,25.407121 Z" id="Fill-10" fill="#E75300"></path>
                                    <path d="M82.9967961,26.2098191 L103.815463,26.2098191 L103.815463,6.2453044 L82.9967961,6.2453044 L82.9967961,26.2098191 Z M102.174737,21.9613421 C102.174737,23.439887 100.926572,24.6345762 99.3866974,24.6345762 L99.3866974,24.6408147 L87.4385743,24.6408147 L87.4385743,24.6345762 C85.8965312,24.6345762 84.6505344,23.439887 84.6505344,21.9613421 L84.6320992,21.9613421 L84.6320992,10.5062586 L84.6505344,10.5062586 C84.6505344,9.03083301 85.8965312,7.83302451 87.4385743,7.83302451 L87.4385743,7.81534852 L99.3866974,7.81534852 L99.3866974,7.83302451 C100.926572,7.83302451 102.174737,9.03083301 102.174737,10.5062586 L102.180159,10.5062586 L102.180159,21.9613421 L102.174737,21.9613421 Z" id="Fill-12" fill="#E75300"></path>
                                    <path d="M110.986071,2.22328805 C110.986071,1.26566512 111.797216,0.487921404 112.805726,0.487921404 C113.809897,0.487921404 114.61562,1.26566512 114.61562,2.22328805 C114.61562,3.19130864 113.809897,3.96801258 112.805726,3.96801258 C111.797216,3.96801258 110.986071,3.19130864 110.986071,2.22328805 L110.986071,2.22328805 Z M114.296801,2.22328805 C114.296801,1.43722623 113.630968,0.793612114 112.805726,0.793612114 C111.976145,0.793612114 111.30489,1.43722623 111.30489,2.22328805 C111.30489,3.01974752 111.976145,3.66232187 112.805726,3.66232187 C113.630968,3.66232187 114.296801,3.01974752 114.296801,2.22328805 L114.296801,2.22328805 Z M112.419673,2.33974166 L112.419673,3.22354133 L112.086756,3.22354133 L112.086756,1.17832491 L112.776446,1.17832491 C113.167921,1.17832491 113.57241,1.27918205 113.57241,1.74187717 C113.57241,1.97790367 113.42276,2.16298172 113.138642,2.219129 L113.138642,2.22848688 C113.433604,2.28359438 113.467221,2.4083661 113.500838,2.63087567 C113.530117,2.8253116 113.553974,3.03846328 113.62663,3.22354133 L113.201538,3.22354133 C113.177681,3.10708773 113.144064,2.97815695 113.128882,2.85754429 C113.105025,2.68182412 113.105025,2.51962089 113.008512,2.42188304 C112.927181,2.33974166 112.815485,2.34805977 112.700537,2.33974166 L112.419673,2.33974166 Z M112.772109,2.01949425 C113.085506,2.01117613 113.158162,1.88536465 113.158162,1.72836024 C113.158162,1.57551488 113.085506,1.49649279 112.819823,1.49649279 L112.419673,1.49649279 L112.419673,2.01949425 L112.772109,2.01949425 Z" id="Fill-13" fill="#E75300"></path>
                                    <polygon id="Fill-3" fill="#211D14" points="30.9718186 25.8564032 24.6832757 25.8668009 24.6702627 31.9047123 30.9783251 31.9171894"></polygon>
                                    <polygon id="Fill-4" fill="#211D14" points="54.584923 6.64467787 59.720729 6.64467787 59.720729 12.7959236 59.7250667 25.8418465 54.2411623 25.8460056 54.2487533 31.9130304 71.4747411 31.901593 71.5181179 25.8460056 66.0450577 25.8460056 66.0450577 0.596368823 54.6044425 0.576613301"></polygon>
                                    <polygon id="Fill-5" fill="#211D14" points="34.231689 6.64467787 39.3674951 6.64467787 39.3674951 12.7959236 39.3718327 25.8418465 33.8879284 25.8460056 33.8933505 31.9130304 51.1204228 31.901593 51.1648839 25.8460056 45.6918238 25.8460056 45.6918238 0.596368823 34.2490397 0.576613301"></polygon>
                                </g>
                            </g>
                        </g>
                    </g>
                </g>
            </g>
        </g>
    </g>
</svg>