<svg xmlns="http://www.w3.org/2000/svg" viewBox="0 0 89.04 25.05"><defs><style>.cls-1{fill:#fbf8fc;}.cls-2{fill:#e75300;}</style></defs><title>Asset 1</title><g id="Layer_2" data-name="Layer 2"><g id="Layer_1-2" data-name="Layer 1"><g id="Symbols"><g id="Header---Mobile-2"><g id="Header---Mobile"><g id="Logo-Lockup"><g id="Logo"><g id="Group-2"><path id="Fill-6" class="cls-1" d="M.85,13.76a24.79,24.79,0,0,1,5.38-.86,9.55,9.55,0,0,1,3.19.36,4.12,4.12,0,0,1,1.22.62A2.79,2.79,0,0,1,11.52,15a3.41,3.41,0,0,1,.26,1.33.67.67,0,0,1,0,.07,4.17,4.17,0,0,1-.22,1.4A2.78,2.78,0,0,1,10.74,19a3.42,3.42,0,0,1-1.08.6,6.33,6.33,0,0,1-1.91.31,15.86,15.86,0,0,1-3.95-.5A28.2,28.2,0,0,1,0,18.24V23.7a29.7,29.7,0,0,0,3.28.82A28.12,28.12,0,0,0,7.75,25h.74a10.83,10.83,0,0,0,3.89-.69,8.87,8.87,0,0,0,2.53-1.47,7.69,7.69,0,0,0,2.19-2.95A7.53,7.53,0,0,0,17.68,17c0-.27,0-.53,0-.79A8.64,8.64,0,0,0,16.8,13a7,7,0,0,0-2.05-2.48,8,8,0,0,0-3-1.38,11,11,0,0,0-3-.25H8.47C6,9,5.75,9,5.73,9h0V4.81H16.59V.05h0l0,0H.86V13.76Z"/><polygon id="Fill-8" class="cls-2" points="76.4 11.88 73.02 11.88 73.02 8.6 71.89 8.6 71.89 11.88 68.5 11.88 68.5 12.97 71.89 12.97 71.89 16.25 73.02 16.25 73.02 12.97 76.4 12.97 76.4 11.88"/><path id="Fill-10" class="cls-2" d="M59.65,24.81h25.6V0H59.65Zm23.78-5.14A3.44,3.44,0,0,1,79.94,23H65a3.44,3.44,0,0,1-3.49-3.38h0V5.19h0A3.44,3.44,0,0,1,65,1.81h15a3.44,3.44,0,0,1,3.49,3.38h0V19.67Z"/><path id="Fill-12" class="cls-2" d="M64.31,20.3H80.59V4.54H64.31Zm15-3.35a2.15,2.15,0,0,1-2.18,2.11H67.78a2.14,2.14,0,0,1-2.18-2.11h0v-9h0A2.15,2.15,0,0,1,67.78,5.8h9.35a2.15,2.15,0,0,1,2.18,2.11h0v9Z"/><path id="Fill-13" class="cls-2" d="M86.2,1.37a1.42,1.42,0,0,1,2.84,0,1.42,1.42,0,0,1-2.84,0Zm2.59,0a1.17,1.17,0,0,0-2.34,0,1.17,1.17,0,0,0,2.34,0Zm-1.47.09v.7h-.26V.54h.54c.31,0,.62.08.62.44a.38.38,0,0,1-.34.38h0c.23,0,.26.14.28.32a2.2,2.2,0,0,0,.1.47h-.33c0-.09,0-.19-.06-.29a.6.6,0,0,0-.09-.34c-.06-.06-.15-.06-.24-.06Zm.28-.25c.25,0,.3-.11.3-.23S87.85.8,87.64.8h-.31v.41Z"/><polygon id="Fill-3" class="cls-1" points="23.61 20.02 18.69 20.03 18.68 24.8 23.62 24.81 23.61 20.02"/><polygon id="Fill-4" class="cls-1" points="42.08 4.86 46.1 4.86 46.1 9.71 46.1 20.01 41.81 20.02 41.82 24.8 55.3 24.8 55.33 20.02 51.05 20.02 51.05 0.09 42.1 0.07 42.08 4.86"/><polygon id="Fill-5" class="cls-1" points="26.16 4.86 30.18 4.86 30.18 9.71 30.18 20.01 25.89 20.02 25.9 24.8 39.37 24.8 39.41 20.02 35.13 20.02 35.13 0.09 26.18 0.07 26.16 4.86"/></g></g></g></g></g></g></g></g></svg>