<svg id="Layer_1" data-name="Layer 1" xmlns="http://www.w3.org/2000/svg" xmlns:xlink="http://www.w3.org/1999/xlink" viewBox="0 0 324 288"><defs><style>.cls-1,.cls-7{fill:none;}.cls-1,.cls-5,.cls-7{stroke:#231f20;stroke-miterlimit:10;}.cls-1{stroke-width:8.05px;}.cls-2{fill:#231f20;}.cls-3{fill:#fcb116;}.cls-4,.cls-5{fill:#6d6e71;}.cls-5{stroke-width:6.9px;}.cls-6{clip-path:url(#clip-path);}.cls-7{stroke-linecap:round;stroke-width:4.6px;}</style><clipPath id="clip-path"><path class="cls-1" d="M226.5,52.33H170.75a2.59,2.59,0,0,0-2.59,2.59L181.8,65.63v75.43a6.9,6.9,0,0,0,6.9,6.9h37.8a6.9,6.9,0,0,0,6.9-6.9V59.23A6.9,6.9,0,0,0,226.5,52.33Z"/></clipPath></defs><title>biofit</title><path class="cls-2" d="M175.7,197.87H194l-1.37,7.71h-9.49l-1.66,9.48h8.42l-1.3,7.65h-8.48l-2.85,16.08h-8.83Z"/><path class="cls-2" d="M196.81,197.87H214L212.71,205h-4.33l-4.69,26.69H208l-1.24,7.12H189.58l1.24-7.12h4L199.54,205h-4Z"/><path class="cls-2" d="M230.61,205.87l-5.81,32.92H216l5.81-32.92h-6.7l1.42-8H238.5l-1.42,8Z"/><path class="cls-3" d="M77.36,189.35h20.2l6,6-2.3,13-6,6,4.22,4.23L97,232.77l-6,6H68.62Zm5.51,28.88-2.07,12h5.3l.86-.86,1.79-10.25-.86-.85Zm1.65-9h5.23l.86-.86,1.72-9.6-.86-.86H86.53Z"/><path class="cls-3" d="M109.1,189.35h20.7l-1.5,8.6h-5.23l-5.66,32.24h5.15l-1.5,8.6h-20.7l1.5-8.6h4.87L112.39,198h-4.8Z"/><path class="cls-3" d="M126.58,232.77l6.59-37.4,6-6H154.3l6,6-6.59,37.4-6,6H132.6Zm16.26-2.94.86-.86,5.23-29.8-.86-.86H144l-.86.86L137.9,229l.86.86Z"/><path class="cls-2" d="M246.28,123.57c-3.11-12-7.78-23.81-5.08-36.67a74,74,0,0,0,.74-7.78c.3-3-1.19-4.43-4-4.39-15.48.21-37.57.92-53,1.2-3.84.07-10.44.21-12.23,3.86-1.14,2.34,1.24,6-.17,8.18-11.22,17.29-18.65,29.14-35.56,40.7-11.15,7.61-22.4,6.66-37.86,6.13a66.74,66.74,0,0,0-14.67,1.7c-5.12,1.12-10,14.18-10,20.19,0,2.71.15,4.26,1,5.39L75,168.15l5.34,2.27,1.77-5.07c.9.29,1.81.55,2.72.82l1.28,6.39,8.6,2.48,4.18-5.25c.77.2,7.92,1.5,9.07,1.68l1.41,5.93,9.62,1.43,3.57-5.68c1.15.13,7.71.63,9.16.71l.7,5.44,12.88-.08,3.83-5.57c1.09-.07,5.7-.79,6.59-1l1.31,5.09,13.11-1.14,1.9-7.31c2.63-2.08,3.95-5,10.37-6.22a26,26,0,0,1,13.2,1.25l3.07,12.37,7.53-.12,2.46-6,5.49-.21,2,5.82,9.41,0,2.31-6.24,4.3-.31,2.75,5.74,10.2-.28,2.53-14.28c-.14-1.18.92-3.47,1.69-7.29C251.46,143.16,248.82,133.42,246.28,123.57Z"/><path class="cls-4" d="M226.5,52.33H170.75a2.59,2.59,0,0,0-2.59,2.59L181.8,65.63v75.43a6.9,6.9,0,0,0,6.9,6.9h37.8a6.9,6.9,0,0,0,6.9-6.9V59.23A6.9,6.9,0,0,0,226.5,52.33Z"/><path class="cls-5" d="M226.5,52.33H170.75a2.59,2.59,0,0,0-2.59,2.59L181.8,65.63v75.43a6.9,6.9,0,0,0,6.9,6.9h37.8a6.9,6.9,0,0,0,6.9-6.9V59.23A6.9,6.9,0,0,0,226.5,52.33Z"/><g class="cls-6"><rect class="cls-3" x="168.16" y="114.53" width="76.57" height="68.29"/></g><path class="cls-1" d="M226.5,52.33H170.75a2.59,2.59,0,0,0-2.59,2.59L181.8,65.63v75.43a6.9,6.9,0,0,0,6.9,6.9h37.8a6.9,6.9,0,0,0,6.9-6.9V59.23A6.9,6.9,0,0,0,226.5,52.33Z"/><line class="cls-7" x1="195.65" y1="89.67" x2="239.65" y2="89.67"/><line class="cls-7" x1="195.65" y1="116.97" x2="239.65" y2="116.97"/></svg>