<?xml version="1.0" encoding="utf-8"?>
<!-- Generator: Adobe Illustrator 24.3.0, SVG Export Plug-In . SVG Version: 6.00 Build 0)  -->
<svg version="1.1" id="Layer_1" xmlns="http://www.w3.org/2000/svg" xmlns:xlink="http://www.w3.org/1999/xlink" x="0px" y="0px"
	 viewBox="0 0 230 230" style="enable-background:new 0 0 230 230;" xml:space="preserve">
<style type="text/css">
	.st0{enable-background:new    ;}
	.st1{fill-rule:evenodd;clip-rule:evenodd;fill:#00257A;}
	.st2{fill:#CDEEFF;}
	.st3{display:none;}
	.st4{display:inline;fill:#FF0033;}
	.st5{display:inline;fill:#FFFFFF;}
	.st6{font-family:'OpenSans';}
	.st7{font-size:48.8443px;}
</style>
<g id="Layer_1_1_">
	<g class="st0">
		<path class="st1" d="M153.2,8.1l66,63.8c5.6,5.4,8,13.2,6.4,20.8l-18.8,89.9c-1.7,8.1-7.7,14.6-15.7,17l-23.9,7
			c-0.1,0-0.2,0.1-0.3,0.1l-67.9,21c-7.9,2.4-16.4,0.4-22.3-5.3l-65.8-63.8c-5.6-5.4-8-13.2-6.4-20.8l18.9-90
			c1.7-8,7.5-14.4,15.3-16.8l68.4-21.3c0.1,0,0.2-0.1,0.3-0.1l23.8-7C139,0.4,147.4,2.4,153.2,8.1z"/>
	</g>
	<path class="st2" d="M141.4,93.9c3.6,0,6.6,3,6.6,6.6c0,3.4-2.5,6.2-5.8,6.6h-0.8H88.6c-3.6,0-6.6-3-6.6-6.6c0-3.4,2.5-6.2,5.8-6.6
		h0.8H141.4z M121.6,113.8c3.6,0,6.6,3,6.6,6.6c0,3.4-2.5,6.2-5.8,6.6h-0.8h-33c-3.6,0-6.6-3-6.6-6.6c0-3.4,2.5-6.2,5.8-6.6h0.8
		H121.6z M115,67.3c-29.6,0-52.8,19.1-52.8,42.3s23.2,42.3,52.8,42.3c5.8,0,10.5-0.6,14.8-1.9c1.4-0.4,3-0.4,4.4,0.2l21.5,8.8
		l-2-17.1c-0.2-1.7,0.3-3.5,1.3-4.8l0.6-0.6c7.8-7.9,12.1-17.2,12.1-26.8C167.8,86.4,144.6,67.3,115,67.3z M115,54
		c36.3,0,66,24.4,66,55.6c0,12-4.7,23.4-13,33.1l-0.7,0.8l2.9,25.2c0.5,4.8-3.9,8.4-8.3,7.2l-0.7-0.2l-29.8-12.2l-2,0.5
		c-3.7,0.8-7.5,1.2-11.7,1.3h-2.6c-36.3,0-66-24.4-66-55.6S78.7,54,115,54z"/>
</g>
<g id="Layer_2_1_" class="st3">
	<circle class="st4" cx="194" cy="35.5" r="35"/>
	<text transform="matrix(1 0 0 1 180.0366 50.7422)" class="st5 st6 st7">2</text>
</g>
</svg>
