<?xml version="1.0" encoding="UTF-8"?>
<svg width="20px" height="20px" viewBox="0 0 20 20" version="1.1" xmlns="http://www.w3.org/2000/svg" xmlns:xlink="http://www.w3.org/1999/xlink">
    <!-- Generator: sketchtool 63.1 (101010) - https://sketch.com -->
    <title>5C9290DE-3702-4C5A-8172-59C8A4C4C80D</title>
    <desc>Created with sketchtool.</desc>
    <defs>
        <path d="M21,2 C21.5128358,2 21.9355072,2.38604019 21.9932723,2.88337887 L22,3 L22,21 C22,21.5128358 21.6139598,21.9355072 21.1166211,21.9932723 L21,22 L16,22 C15.4477153,22 15,21.5522847 15,21 C15,20.4871642 15.3860402,20.0644928 15.8833789,20.0067277 L16,20 L19.999,19.999 L20,3.999 L16,4 C15.4871642,4 15.0644928,3.61395981 15.0067277,3.11662113 L15,3 C15,2.48716416 15.3860402,2.06449284 15.8833789,2.00672773 L16,2 L21,2 Z M12.6128994,6.20970461 L12.7071068,6.29289322 L17.7071068,11.2928932 C17.7355731,11.3213595 17.7623312,11.3515341 17.787214,11.3832499 L17.7071068,11.2928932 C17.7425008,11.3282873 17.774687,11.3656744 17.8036654,11.4046934 C17.8215099,11.4288693 17.8382813,11.453725 17.8539326,11.4793398 C17.8613931,11.4913869 17.8685012,11.5036056 17.8753288,11.5159379 C17.8862061,11.5357061 17.8966234,11.5561086 17.9063462,11.5769009 C17.914321,11.5939015 17.9218036,11.6112044 17.9287745,11.628664 C17.9366843,11.6484208 17.9438775,11.6682023 17.9504533,11.6882636 C17.9552713,11.7031487 17.9599023,11.7185367 17.9641549,11.734007 C17.9701664,11.7555635 17.9753602,11.7772539 17.9798348,11.7992059 C17.9832978,11.8166247 17.9863719,11.834051 17.9889822,11.8515331 C17.9918878,11.8705042 17.9942339,11.890153 17.996002,11.909968 C17.9981344,11.9343349 17.9994007,11.9579802 17.9998325,11.9816379 C17.9999398,11.9872016 18,11.9935938 18,12 L17.9998139,12.0193545 C17.9993651,12.042681 17.998105,12.0659949 17.9960336,12.0892501 L18,12 C18,12.0506203 17.9962388,12.1003621 17.9889807,12.1489612 C17.9863719,12.165949 17.9832978,12.1833753 17.9797599,12.2007258 C17.9753602,12.2227461 17.9701664,12.2444365 17.964279,12.2658396 C17.9599023,12.2814633 17.9552713,12.2968513 17.9502619,12.3121425 C17.9438775,12.3317977 17.9366843,12.3515792 17.928896,12.3710585 C17.9218036,12.3887956 17.914321,12.4060985 17.9063266,12.4232215 C17.8966234,12.4438914 17.8862061,12.4642939 17.8751242,12.484277 C17.8685012,12.4963944 17.8613931,12.5086131 17.8540045,12.5207088 C17.8382813,12.546275 17.8215099,12.5711307 17.8036865,12.5951593 C17.7992821,12.6012086 17.7948255,12.6070733 17.7902954,12.6128994 C17.7849289,12.6196628 17.7826279,12.6225624 17.7803112,12.625449 L17.7071068,12.7071068 L12.7071068,17.7071068 C12.3165825,18.0976311 11.6834175,18.0976311 11.2928932,17.7071068 C10.9324093,17.3466228 10.9046797,16.7793918 11.2097046,16.3871006 L11.2928932,16.2928932 L14.585,13 L3,13 C2.44771525,13 2,12.5522847 2,12 C2,11.4871642 2.38604019,11.0644928 2.88337887,11.0067277 L3,11 L14.585,11 L11.2928932,7.70710678 C10.9324093,7.34662282 10.9046797,6.77939176 11.2097046,6.38710056 L11.2928932,6.29289322 C11.6533772,5.93240926 12.2206082,5.90467972 12.6128994,6.20970461 Z" id="path-1"></path>
    </defs>
    <g id="Icon-Sheet" stroke="none" stroke-width="1" fill="none" fill-rule="evenodd">
        <g id="Style-Sheet---Icons" transform="translate(-1410.000000, -448.000000)">
            <g id="Interface" transform="translate(960.000000, 282.000000)">
                <g id="Row" transform="translate(0.000000, 164.000000)">
                    <g id="Icon-/-UI-/-Download" transform="translate(448.000000, 0.000000)">
                        <g id="Download" transform="translate(12.000000, 12.000000) rotate(-270.000000) translate(-12.000000, -12.000000) translate(-0.000000, 0.000000)">
                            <mask id="mask-2" fill="white">
                                <use xlink:href="#path-1"></use>
                            </mask>
                            <use id="Combined-Shape" fill="#00257A" fill-rule="nonzero" xlink:href="#path-1"></use>
                            <g id="Color-Fill-/-Core-/-Blue-1" mask="url(#mask-2)" fill="white">
                                <g id="Swatch">
                                    <polygon id="Rectangle" points="0 4.56301663e-14 24 4.56301663e-14 24 24 0 24"></polygon>
                                </g>
                            </g>
                        </g>
                    </g>
                </g>
            </g>
        </g>
    </g>
</svg>