<?xml version="1.0" encoding="UTF-8"?>
<svg width="22px" height="17px" viewBox="0 0 22 17" version="1.1" xmlns="http://www.w3.org/2000/svg" xmlns:xlink="http://www.w3.org/1999/xlink">
    <!-- Generator: sketchtool 63.1 (101010) - https://sketch.com -->
    <title>BB53E10F-1124-4966-ADCC-BF89DF161F1A</title>
    <desc>Created with sketchtool.</desc>
    <defs>
        <path d="M11,-5.68434189e-14 C12.892144,-5.68434189e-14 14.6726494,0.596952024 16.3309155,1.65326126 L17.6928932,0.292893219 C18.0834175,-0.0976310729 18.7165825,-0.0976310729 19.1071068,0.292893219 C19.4675907,0.65337718 19.4953203,1.22060824 19.1902954,1.61289944 L19.1071068,1.70710678 L17.952535,2.86143618 C18.2933138,3.15304339 18.6282069,3.46399333 18.9571068,3.79289322 C19.7645586,4.60034501 20.4788289,5.46239539 21.0949835,6.32501181 C21.3742482,6.71598239 21.5903123,7.04489115 21.7403369,7.28894136 L21.7403369,7.28894136 L21.8682431,7.50386106 C22.043919,7.81129373 22.043919,8.18870627 21.8682431,8.49613894 C21.7625604,8.68108381 21.5898917,8.95848614 21.3530762,9.30554921 L21.3530762,9.30554921 L21.0949835,9.67498819 C20.4788289,10.5376046 19.7645586,11.399655 18.9571068,12.2071068 C16.5995058,14.5647078 13.9339631,16 11,16 C9.29620306,16 7.68292554,15.5159762 6.16790711,14.6483885 L4.70710678,16.1071068 C4.31658249,16.4976311 3.68341751,16.4976311 3.29289322,16.1071068 C2.93240926,15.7466228 2.90467972,15.1793918 3.20970461,14.7871006 L3.29289322,14.6928932 L4.48607812,13.5005212 C3.99303857,13.1085709 3.51187324,12.6760868 3.04289322,12.2071068 C2.23544142,11.399655 1.52117111,10.5376046 0.905016529,9.67498819 C0.625751825,9.28401761 0.409687701,8.95510885 0.259663116,8.71105864 L0.259663116,8.71105864 L0.131756858,8.49613894 C-0.0439189526,8.18870627 -0.0439189526,7.81129373 0.131756858,7.50386106 C0.237439643,7.31891619 0.410108287,7.04151386 0.646923831,6.69445079 L0.646923831,6.69445079 L0.905016529,6.32501181 C1.52117111,5.46239539 2.23544142,4.60034501 3.04289322,3.79289322 C5.40049419,1.43529224 8.06603693,-5.68434189e-14 11,-5.68434189e-14 Z M16.5336325,4.28160765 L14.5870275,6.22777998 C14.8514099,6.76192266 15,7.36359528 15,8 C15,10.2092847 13.2092847,12 11,12 C10.3635953,12 9.76192266,11.8514099 9.22777998,11.5870275 L7.64751879,13.1684493 C8.73194404,13.708155 9.85289959,14 11,14 C13.3160369,14 15.5254942,12.8102922 17.5428932,10.7928932 C18.2666914,10.069095 18.9117961,9.29052039 19.4675165,8.51251181 C19.5644474,8.37680858 19.6549926,8.24618224 19.7390088,8.12149834 L19.7390088,8.12149834 L19.82,8 L19.7390088,7.87850166 L19.4675165,7.48748819 C18.9117961,6.70947961 18.2666914,5.93090499 17.5428932,5.20710678 C17.2115283,4.87574185 16.8749818,4.56670739 16.5336325,4.28160765 Z M11,2 C8.68396307,2 6.47450581,3.18970776 4.45710678,5.20710678 C3.73330858,5.93090499 3.08820389,6.70947961 2.53248347,7.48748819 C2.4355526,7.62319142 2.34500739,7.75381776 2.26099115,7.87850166 L2.26099115,7.87850166 L2.179,8 L2.26099115,8.12149834 L2.53248347,8.51251181 C3.08820389,9.29052039 3.73330858,10.069095 4.45710678,10.7928932 C4.93161905,11.2674055 5.4167567,11.6961268 5.91140741,12.0743464 L7.70928346,10.2747826 C7.26202922,9.62897237 7,8.84511011 7,8 C7,5.79071525 8.79071525,4 11,4 C11.8451101,4 12.6289724,4.26202922 13.2747826,4.70928346 L14.8733995,3.11133383 C13.6283432,2.3933892 12.3317925,2 11,2 Z M12.9923156,7.82342819 L10.8234282,9.99231562 C10.8816065,9.99740282 10.9404995,10 11,10 C12.1047153,10 13,9.10471525 13,8 C13,7.94049946 12.9974028,7.88160647 12.9923156,7.82342819 Z M11,6 C9.89528475,6 9,6.89528475 9,8 C9,8.2894032 9.06144225,8.56443345 9.17199598,8.81275996 L11.81276,6.17199598 C11.5644334,6.06144225 11.2894032,6 11,6 Z" id="path-1"></path>
    </defs>
    <g id="Icon-Sheet" stroke="none" stroke-width="1" fill="none" fill-rule="evenodd">
        <g id="Style-Sheet---Icons" transform="translate(-1217.000000, -450.000000)">
            <g id="Interface" transform="translate(960.000000, 282.000000)">
                <g id="Row" transform="translate(0.000000, 164.000000)">
                    <g id="Icon-/-UI-/-Hide" transform="translate(256.000000, 0.000000)">
                        <g id="Icon" transform="translate(1.000000, 4.000000)">
                            <mask id="mask-2" fill="white">
                                <use xlink:href="#path-1"></use>
                            </mask>
                            <use id="Combined-Shape" fill="#949494" fill-rule="nonzero" xlink:href="#path-1"></use>
                            <g id="Color-Fill-/-Core-/-Blue-1" mask="url(#mask-2)">
                                <g transform="translate(-1.000000, -4.000000)" id="Swatch">
                                    <g>
                                        <polygon id="Rectangle" fill="#949494" points="0 4.56301663e-14 24 4.56301663e-14 24 24 0 24"></polygon>
                                    </g>
                                </g>
                            </g>
                        </g>
                    </g>
                </g>
            </g>
        </g>
    </g>
</svg>