<?xml version="1.0" encoding="UTF-8"?>
<svg width="20px" height="20px" viewBox="0 0 20 20" version="1.1" xmlns="http://www.w3.org/2000/svg" xmlns:xlink="http://www.w3.org/1999/xlink">
    <title>Facebook</title>
    <g id="Homepage" stroke="none" stroke-width="1" fill="none" fill-rule="evenodd">
        <g id="Homepage---Unauthenticated---First-Visit---L" transform="translate(-946.000000, -750.000000)">
            <g id="Form" transform="translate(845.000000, 263.000000)">
                <g id="Register" transform="translate(33.000000, 443.000000)">
                    <g id="Group-9" transform="translate(58.000000, 37.000000)">
                        <g id="Facebook" transform="translate(10.000000, 7.000000)">
                            <polygon id="Fill-1" fill="#4469B0" points="0 20 20 20 20 0 0 0"></polygon>
                            <path d="M11.5714596,6.20006687 L13,6.20006687 L13,4 L11.3552246,4 C9.02613925,4 9.08128352,5.92780288 9.08128352,6.2152236 L9.08128352,7.66670382 L8,7.66670382 L8,9.86665924 L9.08128352,9.86665924 L9.08128352,15 L11.2143245,15 L11.2143245,9.86665924 L12.6428649,9.86665924 L13,7.66670382 L11.2143245,7.66670382 L11.2143245,6.5667261 C11.2143245,6.32611295 11.3482773,6.20006687 11.5714596,6.20006687" id="Fill-2" fill="#FFFFFF"></path>
                        </g>
                    </g>
                </g>
            </g>
        </g>
    </g>
</svg>