<?xml version="1.0" encoding="utf-8"?>
<svg width="230px" height="186px" viewBox="0 0 230 186" version="1.1" xmlns:xlink="http://www.w3.org/1999/xlink" xmlns="http://www.w3.org/2000/svg">
  <desc>Created with Lunacy</desc>
  <g id="Wonder-Sparks" transform="matrix(-0.4999999 0.8660254 -0.8660254 -0.4999999 226.1096 105.1363)">
    <path d="M2.16007 9.09898L16.0357 1.2042Q16.2765 1.06719 16.533 0.962424Q16.7895 0.857655 17.0573 0.786881Q17.3252 0.716106 17.6 0.680511Q17.8747 0.644916 18.1518 0.645097Q18.4288 0.645278 18.7035 0.681231Q18.9782 0.717184 19.246 0.788308Q19.5138 0.859432 19.7701 0.964536Q20.0265 1.06964 20.2671 1.20696L34.099 9.10077Q34.3434 9.24026 34.5674 9.4106Q34.7915 9.58095 34.9912 9.7792Q35.191 9.97745 35.363 10.2002Q35.535 10.4229 35.6763 10.6663Q35.8177 10.9097 35.9258 11.1695Q36.034 11.4293 36.1072 11.701Q36.1804 11.9728 36.2173 12.2518Q36.2542 12.5308 36.2542 12.8122L36.2542 21.1029L36.2543 29.1949Q36.2543 29.476 36.2175 29.7546Q36.1807 30.0332 36.1078 30.3045Q36.0348 30.5759 35.9269 30.8354Q35.819 31.0949 35.6781 31.338Q35.5372 31.5811 35.3656 31.8037Q35.1941 32.0263 34.9949 32.2245Q34.7957 32.4227 34.5722 32.5931Q34.3487 32.7635 34.1049 32.9031L20.3356 40.7897Q20.0952 40.9274 19.839 41.0329Q19.5828 41.1384 19.3151 41.21Q19.0475 41.2815 18.7728 41.3179Q18.4982 41.3543 18.2211 41.3549Q17.944 41.3555 17.6692 41.3203Q17.3944 41.2852 17.1264 41.2148Q16.8585 41.1444 16.6018 41.0401Q16.3452 40.9357 16.1041 40.799L2.16591 32.8971Q1.92042 32.7579 1.69537 32.5877Q1.47031 32.4174 1.2696 32.2191Q1.06889 32.0207 0.896 31.7977Q0.723114 31.5746 0.581058 31.3308Q0.439002 31.087 0.330243 30.8266Q0.221484 30.5662 0.14791 30.2938Q0.0743371 30.0213 0.0372272 29.7416Q0.000117435 29.4618 0.0001157 29.1796L6.54101e-05 20.9991L1.52336e-05 12.8132Q1.35063e-05 12.5314 0.0370124 12.2521Q0.0740113 11.9728 0.14737 11.7007Q0.220729 11.4286 0.329177 11.1685Q0.437626 10.9085 0.579286 10.6649Q0.720946 10.4213 0.893364 10.1984Q1.06578 9.97554 1.26597 9.77724Q1.46616 9.57893 1.69066 9.40863Q1.91516 9.23833 2.16007 9.09898Z" transform="matrix(-0.9659258 -0.258819 -0.258819 0.9659258 45.88937 9.383331)" id="Mask-Copy-16" fill="#FECA14" stroke="none" />
    <path d="M1.19217 5.99413L10.5592 0.664614Q10.6921 0.588997 10.8336 0.531174Q10.9752 0.47335 11.123 0.434289Q11.2709 0.395228 11.4225 0.375582Q11.5741 0.355937 11.7271 0.356037Q11.88 0.356137 12.0316 0.37598Q12.1832 0.395823 12.331 0.435077Q12.4788 0.474331 12.6202 0.532339Q12.7617 0.590347 12.8945 0.666138L22.2327 5.99537Q22.3676 6.07236 22.4912 6.16637Q22.6149 6.26039 22.7251 6.36981Q22.8353 6.47923 22.9303 6.60216Q23.0252 6.72509 23.1032 6.85941Q23.1812 6.99373 23.2409 7.13712Q23.3006 7.28051 23.341 7.43049Q23.3814 7.58047 23.4018 7.73445Q23.4222 7.88843 23.4222 8.04376L23.4222 13.6336L23.4222 19.0947Q23.4222 19.2498 23.4019 19.4035Q23.3816 19.5573 23.3413 19.7071Q23.3011 19.8569 23.2415 20.0001Q23.182 20.1433 23.1042 20.2775Q23.0264 20.4117 22.9318 20.5345Q22.8371 20.6573 22.7271 20.7667Q22.6172 20.8761 22.4939 20.9702Q22.3705 21.0642 22.2359 21.1413L12.9389 26.4663Q12.8063 26.5423 12.6649 26.6005Q12.5235 26.6587 12.3758 26.6982Q12.228 26.7377 12.0764 26.7578Q11.9249 26.7779 11.7719 26.7782Q11.619 26.7785 11.4674 26.7591Q11.3157 26.7397 11.1678 26.7009Q11.0199 26.6621 10.8782 26.6044Q10.7366 26.5468 10.6036 26.4714L1.1954 21.1377Q1.05992 21.0609 0.935706 20.9669Q0.811496 20.873 0.70072 20.7635Q0.589944 20.654 0.494526 20.5309Q0.399108 20.4078 0.320705 20.2732Q0.242303 20.1387 0.182277 19.995Q0.122252 19.8512 0.0816459 19.7009Q0.0410399 19.5505 0.0205585 19.3961Q7.71465e-05 19.2417 7.61891e-05 19.086L4.22585e-05 13.5666L8.40758e-06 8.04406Q7.45431e-06 7.88854 0.0204276 7.73437Q0.0408478 7.5802 0.0813354 7.43004Q0.121823 7.27989 0.181677 7.13635Q0.241531 6.9928 0.319715 6.85837Q0.397899 6.72393 0.493059 6.60092Q0.588219 6.47791 0.698706 6.36847Q0.809194 6.25902 0.933097 6.16503Q1.057 6.07104 1.19217 5.99413L1.19217 5.99413Z" transform="matrix(-0.9659258 -0.258819 -0.258819 0.9659258 79.86578 176.7908)" id="Mask-Copy-16" fill="#DE83C5" stroke="none" />
    <path d="M1.97195 5.54914L9.95614 1.06013Q10.1711 0.93925 10.3998 0.846826Q10.6285 0.754402 10.8671 0.691945Q11.1057 0.629488 11.3503 0.598022Q11.5949 0.566556 11.8416 0.566597Q12.0882 0.566637 12.3329 0.598184Q12.5775 0.62973 12.8161 0.692265Q13.0546 0.7548 13.2833 0.8473Q13.5119 0.9398 13.7269 1.06075L21.6629 5.52611Q21.8851 5.65114 22.0889 5.80442Q22.2926 5.9577 22.4744 6.13653Q22.6561 6.31536 22.8127 6.51663Q22.9692 6.71789 23.0978 6.93806Q23.2264 7.15823 23.3248 7.39345Q23.4233 7.62867 23.4898 7.87482Q23.5563 8.12097 23.5897 8.37375Q23.6231 8.62653 23.6229 8.88151L23.6184 13.5551L23.6141 18.1095Q23.6139 18.3634 23.5802 18.6151Q23.5466 18.8668 23.4802 19.1119Q23.4138 19.3569 23.3157 19.5912Q23.2177 19.8254 23.0897 20.0447Q22.9617 20.2639 22.8059 20.4645Q22.6502 20.6651 22.4695 20.8434Q22.2888 21.0217 22.0861 21.1748Q21.8835 21.3278 21.6626 21.4529L13.7443 25.9345Q13.5296 26.056 13.3012 26.1491Q13.0728 26.2421 12.8344 26.3053Q12.5959 26.3684 12.3514 26.4006Q12.1068 26.4327 11.8602 26.4334Q11.6135 26.4341 11.3688 26.4032Q11.1241 26.3723 10.8854 26.3105Q10.6466 26.2486 10.4177 26.1568Q10.1888 26.0649 9.97349 25.9446L1.97161 21.472Q1.74845 21.3472 1.54375 21.194Q1.33906 21.0409 1.15645 20.8619Q0.973836 20.683 0.816514 20.4815Q0.659191 20.28 0.529928 20.0594Q0.400665 19.8388 0.301736 19.6031Q0.202808 19.3673 0.135955 19.1206Q0.0691022 18.8738 0.0355013 18.6203Q0.00190052 18.3669 0.0021431 18.1112L0.00650833 13.5106L0.0108851 8.89785Q0.0111266 8.64326 0.0449278 8.39091Q0.0787289 8.13857 0.1455 7.89288Q0.212271 7.64719 0.310846 7.41245Q0.409421 7.17771 0.53808 6.95801Q0.666738 6.73832 0.823236 6.5375Q0.979733 6.33668 1.16134 6.15824Q1.34294 5.9798 1.54648 5.82686Q1.75002 5.67392 1.97195 5.54914L1.97195 5.54914Z" transform="matrix(-0.7771459 -0.6293204 -0.6293204 0.7771459 93.34 142.339)" id="Mask-Copy-19" fill="#CF3272" stroke="none" />
    <path d="M2.16142 6.7636L11.9334 1.20452Q12.1743 1.06748 12.4309 0.962705Q12.6874 0.85793 12.9554 0.787173Q13.2233 0.716416 13.4982 0.680861Q13.773 0.645306 14.0502 0.64555Q14.3273 0.645794 14.6021 0.681832Q14.8769 0.71787 15.1447 0.789099Q15.4126 0.860328 15.6689 0.965554Q15.9253 1.07078 16.166 1.20824L25.9171 6.77818Q26.1613 6.91766 26.3851 7.08793Q26.6089 7.2582 26.8084 7.45634Q27.008 7.65447 27.1798 7.87704Q27.3517 8.09961 27.4929 8.34279Q27.6341 8.58596 27.7423 8.84555Q27.8504 9.10513 27.9236 9.37665Q27.9968 9.64816 28.0338 9.92693Q28.0707 10.2057 28.0709 10.4869L28.0735 16.3513L28.0761 22.059Q28.0762 22.3401 28.0395 22.6189Q28.0028 22.8976 27.9298 23.1691Q27.8569 23.4407 27.7491 23.7003Q27.6412 23.96 27.5003 24.2032Q27.3593 24.4465 27.1877 24.6692Q27.0161 24.8919 26.8168 25.0902Q26.6175 25.2885 26.3939 25.459Q26.1704 25.6295 25.9264 25.7692L16.2336 31.3201Q15.9931 31.4578 15.7368 31.5633Q15.4805 31.6688 15.2128 31.7404Q14.945 31.8119 14.6702 31.8482Q14.3955 31.8846 14.1183 31.8851Q13.8412 31.8857 13.5663 31.8504Q13.2914 31.8152 13.0234 31.7447Q12.7553 31.6742 12.4986 31.5697Q12.242 31.4652 12.0009 31.3285L2.17065 25.7504Q1.92541 25.6112 1.70059 25.441Q1.47576 25.2708 1.27524 25.0726Q1.07472 24.8744 0.90199 24.6515Q0.729259 24.4286 0.587309 24.185Q0.445359 23.9414 0.336652 23.6812Q0.227945 23.421 0.154366 23.1488Q0.0807875 22.8766 0.0436123 22.5971Q0.0064372 22.3176 0.00631049 22.0356L0.00371422 16.2584L0.00111747 10.4799Q0.000990778 10.198 0.0379015 9.91846Q0.0748123 9.63897 0.148121 9.36675Q0.221429 9.09453 0.329864 8.83429Q0.4383 8.57406 0.579982 8.33033Q0.721665 8.0866 0.894139 7.8636Q1.06661 7.64059 1.26689 7.44218Q1.46716 7.24376 1.69177 7.07338Q1.91638 6.903 2.16142 6.7636L2.16142 6.7636Z" transform="matrix(-0.990268 -0.1391731 -0.1391731 0.990268 82.70503 88.90779)" id="Mask-Copy-41" fill="none" stroke="#00A8FF" stroke-width="4.48305" />
    <path d="M2.68212 0.0264305L13.7737 0.00512964Q13.9047 0.00487799 14.0352 0.0175028Q14.1656 0.0301276 14.2941 0.0555066Q14.4227 0.0808857 14.5481 0.118773Q14.6736 0.156661 14.7947 0.206691Q14.9158 0.25672 15.0314 0.318408Q15.147 0.380095 15.256 0.452844Q15.365 0.525592 15.4663 0.608697Q15.5676 0.691802 15.6603 0.78446Q15.7529 0.877118 15.836 0.978431Q15.9191 1.07974 15.9919 1.18873Q16.0646 1.29772 16.1263 1.41333Q16.188 1.52894 16.238 1.65005Q16.2881 1.77116 16.326 1.8966Q16.3639 2.02204 16.3892 2.1506Q16.4146 2.27916 16.4272 2.40959Q16.4399 2.54001 16.4396 2.67105L16.4183 13.7469Q16.4181 13.8773 16.4051 14.007Q16.3921 14.1368 16.3664 14.2646Q16.3408 14.3925 16.3028 14.5172Q16.2648 14.642 16.2148 14.7624Q16.1648 14.8828 16.1032 14.9978Q16.0417 15.1127 15.9692 15.2211Q15.8967 15.3295 15.8139 15.4303Q15.7312 15.5311 15.639 15.6233Q15.5468 15.7155 15.446 15.7982Q15.3452 15.881 15.2368 15.9535Q15.1285 16.026 15.0135 16.0875Q14.8985 16.1491 14.7781 16.1991Q14.6577 16.2491 14.533 16.2871Q14.4082 16.3251 14.2804 16.3507Q14.1525 16.3763 14.0228 16.3893Q13.893 16.4023 13.7626 16.4026L2.67105 16.4239Q2.54001 16.4241 2.40959 16.4115Q2.27916 16.3989 2.1506 16.3735Q2.02204 16.3481 1.8966 16.3103Q1.77116 16.2724 1.65005 16.2223Q1.52894 16.1723 1.41333 16.1106Q1.29772 16.0489 1.18873 15.9762Q1.07975 15.9034 0.978432 15.8203Q0.877119 15.7372 0.784461 15.6446Q0.691804 15.5519 0.608699 15.4506Q0.525594 15.3493 0.452846 15.2403Q0.380098 15.1313 0.318411 15.0157Q0.256723 14.9001 0.206694 14.779Q0.156664 14.6579 0.118777 14.5324Q0.0808894 14.407 0.0555106 14.2784Q0.0301318 14.1499 0.0175072 14.0194Q0.00488266 13.889 0.00513456 13.758L0.0264257 2.68212Q0.0266763 2.55172 0.0396757 2.42198Q0.0526751 2.29223 0.0782987 2.16438Q0.103922 2.03652 0.141924 1.91178Q0.179927 1.78705 0.229943 1.66662Q0.27996 1.5462 0.341511 1.43125Q0.403063 1.31629 0.47556 1.2079Q0.548057 1.09952 0.630804 0.99874Q0.713551 0.897962 0.805756 0.805757Q0.897961 0.713553 0.998739 0.630806Q1.09952 0.548059 1.2079 0.475562Q1.31629 0.403065 1.43125 0.341514Q1.5462 0.279963 1.66662 0.229946Q1.78705 0.17993 1.91178 0.141928Q2.03652 0.103926 2.16438 0.0783026Q2.29223 0.0526793 2.42198 0.0396801Q2.55172 0.0266809 2.68212 0.0264305L2.68212 0.0264305Z" transform="matrix(0.6156615 -0.7880107 0.7880107 0.6156615 27.69011 73.27531)" id="Rectangle" fill="#FFA083" stroke="none" />
  </g>
</svg>