<?xml version="1.0" encoding="utf-8"?>
<svg width="217px" height="113px" viewBox="0 0 217 113" version="1.1" xmlns:xlink="http://www.w3.org/1999/xlink" xmlns="http://www.w3.org/2000/svg">
  <desc>Created with Lunacy</desc>
  <g id="Wonder-Sparks" transform="matrix(-4.371139E-08 -1 1 -4.371139E-08 2.098022 109.9717)">
    <path d="M12.75 25.5C19.7916 25.5 25.5 19.7916 25.5 12.75C25.5 5.70837 19.7916 0 12.75 0C5.70837 0 0 5.70837 0 12.75C0 19.7916 5.70837 25.5 12.75 25.5Z" transform="translate(64.05333 132)" id="Oval" fill="#DE83C5" stroke="none" />
    <path d="M11.5394 23.0787C17.9124 23.0787 23.0787 17.9124 23.0787 11.5394C23.0787 5.16635 17.9124 0 11.5394 0C5.16635 0 0 5.16635 0 11.5394C0 17.9124 5.16635 23.0787 11.5394 23.0787Z" transform="translate(66.47457 45)" id="Oval" fill="#00A8FF" stroke="none" />
    <path d="M4.39862 8.13908e-16L20.7782 3.84474e-15Q20.8604 3.85994e-15 20.9424 0.00541822Q21.0244 0.0108364 21.1059 0.0216493Q21.1873 0.0324622 21.2679 0.0486226Q21.3485 0.0647831 21.4278 0.0862208Q21.5072 0.107659 21.5849 0.13428Q21.6627 0.160902 21.7385 0.192592Q21.8143 0.224282 21.8879 0.260902Q21.9615 0.297522 22.0325 0.338913Q22.1035 0.380304 22.1716 0.426286Q22.2397 0.472268 22.3047 0.522641Q22.3696 0.573014 22.4311 0.627558Q22.4925 0.682102 22.5503 0.740581Q22.608 0.799059 22.6618 0.861217Q22.7156 0.923376 22.7651 0.988943Q22.8147 1.05451 22.8598 1.1232Q22.9049 1.19189 22.9454 1.26341Q22.9859 1.33493 23.0216 1.40896Q23.0573 1.48299 23.088 1.55921Q23.1187 1.63543 23.1444 1.71352Q23.17 1.7916 23.1904 1.8712Q23.2109 1.95081 23.226 2.03158Q23.2412 2.11236 23.2509 2.19396Q23.2607 2.27556 23.2651 2.35763Q23.2695 2.4397 23.2685 2.52187Q23.2674 2.60405 23.261 2.68598Q23.2545 2.76791 23.2427 2.84924Q23.2308 2.93057 23.2137 3.01094Q23.1965 3.09131 23.174 3.17037Q23.1516 3.24943 23.124 3.32684Q23.0964 3.40425 23.0638 3.47968Q23.0311 3.5551 22.9936 3.6282Q22.956 3.70131 22.9137 3.77178L14.724 17.4214Q14.6827 17.4902 14.6371 17.5562Q14.5915 17.6222 14.5417 17.6851Q14.4919 17.748 14.4382 17.8076Q14.3845 17.8672 14.3271 17.9232Q14.2696 17.9792 14.2087 18.0314Q14.1478 18.0836 14.0836 18.1317Q14.0195 18.1799 13.9524 18.2238Q13.8853 18.2678 13.8154 18.3073Q13.7456 18.3468 13.6734 18.3818Q13.6012 18.4167 13.5269 18.4469Q13.4526 18.4772 13.3765 18.5026Q13.3004 18.5279 13.2229 18.5484Q13.1453 18.5688 13.0666 18.5842Q12.9878 18.5996 12.9083 18.6099Q12.8287 18.6202 12.7487 18.6254Q12.6686 18.6306 12.5884 18.6306Q12.5082 18.6306 12.4281 18.6254Q12.3481 18.6202 12.2685 18.6099Q12.189 18.5996 12.1102 18.5842Q12.0315 18.5688 11.9539 18.5484Q11.8764 18.5279 11.8003 18.5026Q11.7242 18.4772 11.6499 18.4469Q11.5756 18.4167 11.5034 18.3818Q11.4312 18.3468 11.3614 18.3073Q11.2916 18.2678 11.2244 18.2238Q11.1573 18.1799 11.0932 18.1317Q11.029 18.0836 10.9681 18.0314Q10.9072 17.9792 10.8497 17.9232Q10.7923 17.8672 10.7386 17.8076Q10.6849 17.748 10.6351 17.6851Q10.5854 17.6222 10.5397 17.5562Q10.4941 17.4902 10.4529 17.4214L2.26307 3.77178Q2.22079 3.70131 2.18324 3.62821Q2.1457 3.5551 2.11305 3.47968Q2.08041 3.40425 2.05281 3.32684Q2.02521 3.24943 2.00277 3.17037Q1.98033 3.09131 1.96316 3.01094Q1.94598 2.93057 1.93414 2.84924Q1.9223 2.76791 1.91585 2.68598Q1.9094 2.60405 1.90836 2.52187Q1.90732 2.4397 1.91171 2.35763Q1.91609 2.27556 1.92588 2.19396Q1.93566 2.11236 1.9508 2.03158Q1.96594 1.95081 1.98638 1.8712Q2.00681 1.7916 2.03245 1.71352Q2.05809 1.63543 2.08882 1.55921Q2.11955 1.48299 2.15524 1.40896Q2.19093 1.33493 2.23142 1.26341Q2.27192 1.19189 2.31704 1.1232Q2.36215 1.05451 2.4117 0.988943Q2.46125 0.923376 2.51502 0.861217Q2.56878 0.799059 2.62653 0.740581Q2.68427 0.682102 2.74575 0.627558Q2.80722 0.573014 2.87216 0.522641Q2.9371 0.472268 3.00521 0.426286Q3.07333 0.380304 3.14433 0.338913Q3.21533 0.297522 3.28891 0.260902Q3.36248 0.224282 3.43831 0.192592Q3.51414 0.160902 3.59189 0.13428Q3.66965 0.107659 3.74898 0.0862208Q3.82832 0.0647831 3.9089 0.0486226Q3.98948 0.0324622 4.07095 0.0216493Q4.15242 0.0108364 4.23443 0.00541822Q4.31643 7.98701e-16 4.39862 8.13908e-16L4.39862 8.13908e-16Z" transform="matrix(-4.371139E-08 -1 1 -4.371139E-08 83.57265 25.17676)" id="Rectangle-Copy-13" fill="#FFA083" stroke="none" />
    <path d="M2.06874 6.95835L12.7314 1.07051Q12.9531 0.94814 13.1883 0.854685Q13.4236 0.76123 13.6688 0.698183Q13.914 0.635137 14.1651 0.603506Q14.4163 0.571875 14.6695 0.572164Q14.9226 0.572453 15.1737 0.604658Q15.4248 0.636862 15.6698 0.700468Q15.9149 0.764074 16.1499 0.858066Q16.385 0.952058 16.6063 1.07494L27.2602 6.9897Q27.4929 7.11887 27.7064 7.27772Q27.9199 7.43658 28.1105 7.62232Q28.3011 7.80806 28.4654 8.01741Q28.6297 8.22676 28.7648 8.45603Q28.8999 8.68531 29.0034 8.93045Q29.1069 9.1756 29.1771 9.43231Q29.2473 9.68901 29.2828 9.95275Q29.3183 10.2165 29.3186 10.4826L29.3248 16.5949L29.3309 22.5437Q29.3312 22.8101 29.2961 23.0743Q29.261 23.3385 29.1912 23.5957Q29.1214 23.8529 29.0181 24.0985Q28.9147 24.3442 28.7797 24.5739Q28.6447 24.8037 28.4804 25.0135Q28.3162 25.2234 28.1255 25.4096Q27.9348 25.5957 27.7211 25.755Q27.5074 25.9142 27.2745 26.0437L16.6963 31.924Q16.475 32.047 16.24 32.1411Q16.0049 32.2352 15.7599 32.299Q15.5149 32.3627 15.2639 32.395Q15.0128 32.4274 14.7596 32.4278Q14.5064 32.4282 14.2552 32.3967Q14.0041 32.3652 13.7588 32.3023Q13.5136 32.2394 13.2783 32.1461Q13.043 32.0527 12.8213 31.9305L2.08288 26.0081Q1.84924 25.8792 1.63478 25.7205Q1.42032 25.5617 1.22885 25.3759Q1.03738 25.1901 0.87229 24.9804Q0.707199 24.7708 0.571413 24.5411Q0.435628 24.3115 0.331554 24.0658Q0.22748 23.8201 0.156963 23.5627Q0.0864451 23.3054 0.0507333 23.041Q0.0150215 22.7766 0.0147484 22.5098L0.00858182 16.4852L0.0024188 10.4639Q0.00214531 10.1967 0.037417 9.93179Q0.0726886 9.66692 0.142879 9.4091Q0.213069 9.15128 0.316929 8.90509Q0.42079 8.65889 0.556476 8.4287Q0.692162 8.19851 0.857261 7.98841Q1.02236 7.77832 1.21394 7.59205Q1.40552 7.40578 1.62017 7.24665Q1.83482 7.08752 2.06874 6.95835Z" transform="matrix(-0.9902681 -0.1391732 -0.1391732 0.9902681 107.8736 91.86841)" id="Mask-Copy-41" fill="none" stroke="#00257A" stroke-width="4.19613457" />
    <path d="M1.4375 12.0738L21.7168 0.762685Q21.8728 0.675642 22.0387 0.609146Q22.2045 0.54265 22.3775 0.49778Q22.5505 0.45291 22.7277 0.430396Q22.905 0.407881 23.0837 0.408086Q23.2624 0.408291 23.4396 0.431212Q23.6168 0.454134 23.7897 0.499401Q23.9625 0.544667 24.1282 0.611544Q24.2939 0.67842 24.4498 0.765821L44.7019 12.1228Q44.8637 12.2136 45.0121 12.3249Q45.1606 12.4361 45.293 12.5661Q45.4254 12.696 45.5396 12.8422Q45.6537 12.9885 45.7475 13.1485Q45.8414 13.3085 45.9133 13.4795Q45.9852 13.6505 46.0339 13.8295Q46.0826 14.0085 46.1073 14.1924Q46.1319 14.3763 46.1321 14.5618L46.1441 26.3767L46.1558 37.9353Q46.156 38.1211 46.1316 38.3052Q46.1073 38.4894 46.0588 38.6687Q46.0103 38.8481 45.9386 39.0194Q45.8668 39.1908 45.773 39.3512Q45.6793 39.5115 45.5652 39.6581Q45.451 39.8047 45.3185 39.9349Q45.186 40.0651 45.0375 40.1767Q44.8889 40.2882 44.7269 40.3792L24.5917 51.6851Q24.4359 51.7726 24.2703 51.8396Q24.1046 51.9065 23.9317 51.9519Q23.7589 51.9972 23.5817 52.0203Q23.4045 52.0433 23.2258 52.0436Q23.0471 52.0439 22.8698 52.0215Q22.6925 51.999 22.5195 51.9543Q22.3466 51.9095 22.1807 51.8431Q22.0148 51.7767 21.8587 51.6897L1.46244 40.3273Q1.29995 40.2367 1.15086 40.1255Q1.00177 40.0143 0.868707 39.8843Q0.735643 39.7543 0.620944 39.6079Q0.506245 39.4615 0.411928 39.3012Q0.317611 39.1408 0.245333 38.9694Q0.173056 38.798 0.124089 38.6186Q0.0751217 38.4392 0.050326 38.2548Q0.0255303 38.0705 0.0253418 37.8845L0.0135039 26.2022L0.00166788 14.5216Q0.00147913 14.3353 0.0259707 14.1507Q0.0504623 13.966 0.0992024 13.7862Q0.147943 13.6064 0.220072 13.4347Q0.292201 13.263 0.386448 13.1023Q0.480695 12.9416 0.595398 12.7949Q0.710101 12.6481 0.843237 12.5178Q0.976373 12.3875 1.1256 12.276Q1.27482 12.1646 1.4375 12.0738L1.4375 12.0738Z" transform="matrix(-0.2923717 0.9563047 0.9563047 0.2923717 13.49515 152.3407)" id="Mask-Copy-19" fill="#01D3A1" stroke="none" />
  </g>
</svg>