<?xml version="1.0" encoding="UTF-8"?>
<svg width="20px" height="20px" viewBox="0 0 20 20" version="1.1" xmlns="http://www.w3.org/2000/svg" xmlns:xlink="http://www.w3.org/1999/xlink">
    <title>Google</title>
    <g id="Homepage" stroke="none" stroke-width="1" fill="none" fill-rule="evenodd">
        <g id="Homepage---Unauthenticated---First-Visit---L" transform="translate(-1076.000000, -750.000000)">
            <g id="Form" transform="translate(845.000000, 263.000000)">
                <g id="Register" transform="translate(33.000000, 443.000000)">
                    <g id="Group-9" transform="translate(58.000000, 37.000000)">
                        <g id="Google" transform="translate(130.000000, 0.000000)">
                            <g transform="translate(10.000000, 7.000000)">
                                <polygon id="Fill-1" fill="#FFFFFF" points="0 20 20 20 20 0 0 0"></polygon>
                                <g id="Group-10" transform="translate(5.000000, 4.000000)">
                                    <path d="M9.9615618,5.62969121 C9.9615618,5.18425165 9.92796629,4.85920769 9.85526966,4.5221967 L5.12762921,4.5221967 L5.12762921,6.53253736 L7.90268539,6.53253736 C7.84673034,7.03213077 7.54448315,7.7846033 6.87313483,8.29011978 L6.86380899,8.35744945 L8.35852809,9.60335055 L8.4621236,9.61435055 C9.41324719,8.66931758 9.9615618,7.27896593 9.9615618,5.62969121" id="Fill-2" fill="#4285F4"></path>
                                    <path d="M5.12758427,10.9265901 C6.48713483,10.9265901 7.62848315,10.4450077 8.46219101,9.61444725 L6.87308989,8.2900956 C6.44792135,8.60921648 5.87724719,8.83187582 5.12758427,8.83187582 C3.79589888,8.83187582 2.66578652,7.88696374 2.26286517,6.58074396 L2.2038764,6.58606264 L0.649606742,7.88019451 L0.629157303,7.9409967 C1.45724719,9.71066703 3.15814607,10.9265901 5.12758427,10.9265901" id="Fill-4" fill="#34A853"></path>
                                    <path d="M2.26285393,6.58073187 C2.15667416,6.2436 2.09510112,5.88253407 2.09510112,5.50925934 C2.09510112,5.13610549 2.15667416,4.77491868 2.25723596,4.43790769 L2.25453933,4.36610549 L0.680719101,3.05118242 L0.629146067,3.07753407 C0.287910112,3.81187473 0.0920674157,4.63651209 0.0920674157,5.50925934 C0.0920674157,6.38200659 0.287910112,7.20664396 0.629146067,7.94098462 L2.26285393,6.58073187" id="Fill-6" fill="#FBBC05"></path>
                                    <path d="M5.12758427,2.1867033 C6.07308989,2.1867033 6.71095506,2.6260989 7.07455056,2.99332967 L8.49578652,1.50047253 C7.62286517,0.627725275 6.48713483,0.091989011 5.12758427,0.091989011 C3.15814607,0.091989011 1.45724719,1.30791209 0.629157303,3.07758242 L2.25724719,4.43795604 C2.66578652,3.13173626 3.79589888,2.1867033 5.12758427,2.1867033" id="Fill-8" fill="#EB4335"></path>
                                </g>
                            </g>
                        </g>
                    </g>
                </g>
            </g>
        </g>
    </g>
</svg>