<?xml version="1.0" encoding="utf-8"?>
<svg width="182px" height="218px" viewBox="0 0 182 218" version="1.1" xmlns:xlink="http://www.w3.org/1999/xlink" xmlns="http://www.w3.org/2000/svg">
  <desc>Created with Lunacy</desc>
  <g id="Group" transform="translate(2.96875 -23.02734)">
    <g id="Wonder-Sparks" transform="matrix(0.4999999 0.8660254 -0.8660254 0.4999999 164.5449 0)">
      <path d="M2.40921 12.0095L21.1562 1.34309Q21.4248 1.19028 21.7109 1.07343Q21.9969 0.956576 22.2957 0.877639Q22.5944 0.798701 22.9009 0.759001Q23.2073 0.7193 23.5163 0.719502Q23.8254 0.719703 24.1318 0.759803Q24.4381 0.799904 24.7368 0.879231Q25.0355 0.958558 25.3214 1.07578Q25.6073 1.19301 25.8757 1.34617L44.5649 12.012Q44.8375 12.1676 45.0873 12.3576Q45.3372 12.5476 45.56 12.7687Q45.7828 12.9898 45.9746 13.2382Q46.1665 13.4867 46.3241 13.7581Q46.4817 14.0295 46.6024 14.3193Q46.7231 14.6091 46.8047 14.9122Q46.8863 15.2153 46.9275 15.5265Q46.9686 15.8376 46.9687 16.1515L46.9687 27.3395L46.9688 38.2695Q46.9688 38.5829 46.9277 38.8936Q46.8867 39.2044 46.8053 39.507Q46.7239 39.8097 46.6036 40.0991Q46.4833 40.3885 46.3261 40.6597Q46.169 40.9309 45.9776 41.1791Q45.7863 41.4274 45.5641 41.6484Q45.3419 41.8695 45.0927 42.0595Q44.8434 42.2496 44.5714 42.4054L25.9647 53.0626Q25.6966 53.2162 25.4108 53.3339Q25.1251 53.4516 24.8266 53.5314Q24.528 53.6112 24.2217 53.6517Q23.9154 53.6923 23.6064 53.693Q23.2973 53.6937 22.9908 53.6545Q22.6843 53.6152 22.3854 53.5368Q22.0866 53.4583 21.8003 53.3419Q21.5141 53.2255 21.2452 53.0731L2.41575 42.3981Q2.14195 42.2429 1.89093 42.053Q1.63992 41.8631 1.41606 41.6419Q1.19219 41.4207 0.999368 41.1719Q0.806542 40.9231 0.648101 40.6512Q0.48966 40.3792 0.368357 40.0888Q0.247053 39.7984 0.164994 39.4945Q0.0829346 39.1907 0.0415446 38.8787Q0.000154586 38.5667 0.000152651 38.2519L8.47412e-05 27.2051L1.69906e-05 16.1522Q1.50641e-05 15.8379 0.0412814 15.5263Q0.0825477 15.2148 0.164368 14.9113Q0.246188 14.6079 0.367144 14.3178Q0.488101 14.0277 0.6461 13.756Q0.804099 13.4844 0.996404 13.2358Q1.18871 12.9872 1.41199 12.766Q1.63527 12.5448 1.88566 12.3549Q2.13605 12.1649 2.40922 12.0095L2.40921 12.0095Z" transform="matrix(-0.9659258 -0.258819 -0.258819 0.9659258 60.44509 12.96547)" id="Mask-Copy-16" fill="#FECA14" stroke="none" />
      <path d="M2.43514 12.0165L21.2308 1.33811Q21.4988 1.1858 21.7843 1.0693Q22.0698 0.952801 22.3679 0.874057Q22.666 0.795312 22.9718 0.755634Q23.2776 0.715957 23.5859 0.716008Q23.8943 0.716058 24.2 0.755837Q24.5058 0.795616 24.8039 0.874459Q25.102 0.953303 25.3874 1.0699Q25.6729 1.18649 25.9409 1.33889L44.6428 11.9722Q44.9163 12.1277 45.167 12.3178Q45.4177 12.5079 45.6413 12.7294Q45.8648 12.9508 46.0573 13.1997Q46.2498 13.4486 46.4079 13.7207Q46.566 13.9927 46.687 14.2832Q46.8079 14.5737 46.8896 14.8775Q46.9714 15.1814 47.0124 15.4933Q47.0535 15.8053 47.0532 16.12L47.0427 27.2817L47.0325 38.1948Q47.0322 38.5081 46.9909 38.8187Q46.9496 39.1293 46.868 39.4318Q46.7863 39.7343 46.6658 40.0236Q46.5453 40.3128 46.3879 40.5838Q46.2306 40.8547 46.0391 41.1027Q45.8477 41.3508 45.6254 41.5716Q45.4031 41.7924 45.1538 41.9823Q44.9045 42.1721 44.6325 42.3276L25.9774 52.9968Q25.7098 53.1498 25.4246 53.2672Q25.1395 53.3845 24.8416 53.4641Q24.5437 53.5437 24.238 53.5842Q23.9323 53.6248 23.624 53.6256Q23.3157 53.6264 23.0098 53.5875Q22.7039 53.5486 22.4056 53.4706Q22.1073 53.3926 21.8215 53.2768Q21.5357 53.1611 21.2673 53.0094L2.42488 42.3672Q2.15016 42.212 1.89829 42.022Q1.64643 41.832 1.42181 41.6104Q1.19718 41.3889 1.00373 41.1396Q0.810271 40.8904 0.651356 40.6178Q0.49244 40.3453 0.370839 40.0541Q0.249238 39.763 0.167073 39.4584Q0.084908 39.1538 0.0436134 38.841Q0.00231874 38.5282 0.00261499 38.2127L0.0129632 27.1921L0.023326 16.1561Q0.023621 15.8419 0.0651572 15.5305Q0.106694 15.219 0.188752 14.9157Q0.270811 14.6125 0.391972 14.3226Q0.513132 14.0327 0.671299 13.7612Q0.829465 13.4897 1.0219 13.2414Q1.21433 12.993 1.4377 12.772Q1.66108 12.5511 1.91152 12.3614Q2.16196 12.1717 2.43514 12.0165L2.43514 12.0165Z" transform="matrix(-0.7771459 -0.6293204 -0.6293204 0.7771459 164.1679 146.9334)" id="Mask-Copy-19" fill="#CF3272" stroke="none" />
      <path d="M2.41072 7.54349L13.3094 1.34344Q13.5781 1.1906 13.8642 1.07374Q14.1504 0.956883 14.4493 0.877964Q14.7481 0.799046 15.0547 0.759391Q15.3612 0.719735 15.6703 0.720007Q15.9794 0.720279 16.2859 0.760474Q16.5924 0.800669 16.8911 0.880113Q17.1898 0.959557 17.4758 1.07692Q17.7618 1.19428 18.0302 1.3476L28.9056 7.55975Q29.1779 7.71532 29.4275 7.90523Q29.6771 8.09514 29.8997 8.31612Q30.1223 8.53711 30.314 8.78535Q30.5057 9.0336 30.6632 9.30482Q30.8207 9.57605 30.9413 9.86557Q31.0619 10.1551 31.1435 10.4579Q31.2251 10.7608 31.2664 11.0717Q31.3076 11.3826 31.3078 11.6962L31.3107 18.2368L31.3136 24.6026Q31.3137 24.9162 31.2728 25.227Q31.2318 25.5379 31.1505 25.8408Q31.0692 26.1436 30.9489 26.4332Q30.8286 26.7228 30.6714 26.9941Q30.5142 27.2655 30.3228 27.5139Q30.1314 27.7622 29.9091 27.9834Q29.6868 28.2046 29.4374 28.3947Q29.1881 28.5849 28.916 28.7407L18.1055 34.9316Q17.8373 35.0853 17.5515 35.2029Q17.2656 35.3206 16.967 35.4004Q16.6684 35.4802 16.3619 35.5207Q16.0555 35.5612 15.7464 35.5619Q15.4373 35.5625 15.1307 35.5231Q14.8241 35.4838 14.5251 35.4052Q14.2262 35.3266 13.9399 35.2101Q13.6536 35.0935 13.3847 34.941L2.42101 28.7197Q2.14749 28.5645 1.89673 28.3747Q1.64597 28.1849 1.42233 27.9638Q1.19868 27.7427 1.00603 27.4941Q0.813371 27.2455 0.655049 26.9738Q0.496727 26.7021 0.375481 26.4119Q0.254236 26.1217 0.172171 25.8181Q0.0901053 25.5145 0.0486424 25.2028Q0.00717946 24.891 0.00703813 24.5765L0.00414252 18.1332L0.00124635 11.6884Q0.00110505 11.374 0.0422731 11.0622Q0.0834411 10.7505 0.165205 10.4469Q0.246968 10.1433 0.367911 9.85302Q0.488853 9.56277 0.646877 9.29093Q0.804901 9.01909 0.997268 8.77036Q1.18964 8.52164 1.41301 8.30034Q1.63639 8.07904 1.8869 7.889Q2.13741 7.69897 2.41072 7.54349Z" transform="matrix(-0.9902681 -0.1391731 -0.1391731 0.9902681 109.5922 78.86729)" id="Mask-Copy-41" fill="none" stroke="#00A8FF" stroke-width="5" />
      <path d="M2.99152 0.0294781L15.3619 0.00572137Q15.508 0.00544069 15.6535 0.0195218Q15.799 0.0336029 15.9423 0.0619096Q16.0857 0.0902163 16.2256 0.132475Q16.3655 0.174733 16.5006 0.230534Q16.6357 0.286335 16.7647 0.355138Q16.8936 0.423942 17.0152 0.505082Q17.1367 0.586222 17.2497 0.678914Q17.3627 0.771606 17.4661 0.874952Q17.5694 0.978298 17.6621 1.0913Q17.7548 1.2043 17.8359 1.32586Q17.9171 1.44742 17.9859 1.57637Q18.0547 1.70531 18.1105 1.84039Q18.1663 1.97548 18.2085 2.11539Q18.2508 2.2553 18.2791 2.39868Q18.3074 2.54207 18.3215 2.68754Q18.3356 2.83302 18.3353 2.97917L18.3116 15.332Q18.3113 15.4774 18.2968 15.6221Q18.2823 15.7668 18.2537 15.9094Q18.2251 16.052 18.1827 16.1912Q18.1403 16.3303 18.0846 16.4646Q18.0288 16.5989 17.9601 16.7271Q17.8915 16.8554 17.8106 16.9762Q17.7297 17.0971 17.6374 17.2095Q17.5452 17.3219 17.4423 17.4248Q17.3395 17.5276 17.2271 17.6199Q17.1147 17.7122 16.9938 17.7931Q16.8729 17.8739 16.7447 17.9426Q16.6165 18.0112 16.4821 18.067Q16.3478 18.1228 16.2087 18.1652Q16.0696 18.2076 15.927 18.2362Q15.7844 18.2647 15.6397 18.2792Q15.4949 18.2937 15.3495 18.294L2.97917 18.3178Q2.83302 18.3181 2.68754 18.304Q2.54207 18.2899 2.39868 18.2616Q2.2553 18.2333 2.11539 18.191Q1.97548 18.1488 1.84039 18.093Q1.70531 18.0372 1.57637 17.9684Q1.44742 17.8995 1.32586 17.8184Q1.2043 17.7373 1.0913 17.6446Q0.978299 17.5519 0.874953 17.4485Q0.771607 17.3452 0.678916 17.2322Q0.586224 17.1192 0.505084 16.9976Q0.423944 16.8761 0.355141 16.7471Q0.286338 16.6182 0.230537 16.4831Q0.174736 16.348 0.132478 16.2081Q0.0902204 16.0682 0.061914 15.9248Q0.0336076 15.7814 0.0195268 15.6359Q0.00544591 15.4905 0.00572686 15.3443L0.0294726 2.99152Q0.0297522 2.84608 0.0442512 2.70136Q0.0587501 2.55665 0.0873295 2.41405Q0.115909 2.27144 0.158295 2.13232Q0.200681 1.99319 0.256467 1.85888Q0.312253 1.72456 0.380905 1.59635Q0.449557 1.46813 0.530417 1.34724Q0.611277 1.22635 0.703569 1.11395Q0.795862 1.00155 0.898703 0.898704Q1.00154 0.795864 1.11395 0.703571Q1.22635 0.611279 1.34724 0.530419Q1.46813 0.44956 1.59635 0.380908Q1.72456 0.312256 1.85888 0.25647Q1.99319 0.200684 2.13232 0.158299Q2.27144 0.115913 2.41405 0.0873339Q2.55665 0.0587548 2.70136 0.0442561Q2.84608 0.0297574 2.99152 0.0294781L2.99152 0.0294781Z" transform="matrix(0.6156615 -0.7880107 0.7880107 0.6156615 22.12123 91.27218)" id="Rectangle" fill="#FFA083" stroke="none" />
    </g>
  </g>
</svg>