<?xml version="1.0" encoding="utf-8"?>
<svg width="376px" height="174px" viewBox="0 0 376 174" version="1.1" xmlns:xlink="http://www.w3.org/1999/xlink" xmlns="http://www.w3.org/2000/svg">
  <desc>Created with Lunacy</desc>
  <g id="Group" transform="translate(2.5 2.5)">
    <g id="Wonder-Sparks" transform="matrix(-0.2923717 -0.9563047 0.9563047 -0.2923717 40.34717 232.8384)">
      <path d="M1.71298 14.3868L25.877 0.908846Q26.063 0.805122 26.2606 0.725883Q26.4583 0.646643 26.6644 0.593175Q26.8705 0.539707 27.0817 0.512877Q27.293 0.486047 27.5059 0.486291Q27.7188 0.486536 27.93 0.51385Q28.1412 0.541165 28.3472 0.595106Q28.5532 0.649047 28.7506 0.72874Q28.9481 0.808433 29.1338 0.912584L53.2655 14.4452Q53.4583 14.5533 53.6352 14.6859Q53.812 14.8185 53.9698 14.9733Q54.1277 15.1281 54.2637 15.3024Q54.3997 15.4767 54.5115 15.6674Q54.6233 15.8581 54.709 16.0619Q54.7947 16.2657 54.8527 16.479Q54.9108 16.6923 54.9402 16.9114Q54.9696 17.1305 54.9698 17.3515L54.984 31.4298L54.998 45.2025Q54.9982 45.4239 54.9692 45.6434Q54.9402 45.8628 54.8824 46.0765Q54.8246 46.2902 54.7391 46.4944Q54.6536 46.6986 54.5419 46.8897Q54.4302 47.0809 54.2941 47.2555Q54.1581 47.4302 54.0002 47.5854Q53.8423 47.7405 53.6653 47.8735Q53.4883 48.0064 53.2953 48.1148L29.3029 61.5865Q29.1173 61.6908 28.9199 61.7706Q28.7224 61.8504 28.5165 61.9044Q28.3105 61.9585 28.0993 61.9859Q27.8882 62.0133 27.6752 62.0137Q27.4623 62.014 27.251 61.9873Q27.0398 61.9606 26.8336 61.9072Q26.6275 61.8539 26.4298 61.7747Q26.2321 61.6956 26.0461 61.592L1.74271 48.0529Q1.54907 47.945 1.37141 47.8125Q1.19375 47.68 1.03519 47.5251Q0.876621 47.3702 0.739941 47.1957Q0.603261 47.0212 0.490869 46.8302Q0.378476 46.6391 0.292347 46.4349Q0.206219 46.2306 0.147867 46.0168Q0.0895163 45.803 0.0599687 45.5833Q0.0304211 45.3636 0.0301964 45.142L0.0160909 31.2219L0.00198752 17.3036Q0.00176259 17.0817 0.0309478 16.8616Q0.060133 16.6416 0.118214 16.4273Q0.176294 16.2131 0.262247 16.0085Q0.348199 15.8038 0.460507 15.6123Q0.572816 15.4209 0.709501 15.246Q0.846185 15.0711 1.00484 14.9159Q1.16349 14.7606 1.34131 14.6278Q1.51913 14.4949 1.71298 14.3868L1.71298 14.3868Z" transform="matrix(-0.7771459 -0.6293204 -0.6293204 0.7771459 82.22081 295.6737)" id="Mask-Copy-19" fill="#00A8FF" stroke="none" />
      <path d="M23.75 47.5C36.8668 47.5 47.5 36.8668 47.5 23.75C47.5 10.6332 36.8668 0 23.75 0C10.6332 0 0 10.6332 0 23.75C0 36.8668 10.6332 47.5 23.75 47.5Z" transform="translate(77.64983 208.7213)" id="Oval" fill="#DE83C5" stroke="none" />
      <path d="M13.75 27.5C21.3439 27.5 27.5 21.3439 27.5 13.75C27.5 6.15608 21.3439 0 13.75 0C6.15608 0 0 6.15608 0 13.75C0 21.3439 6.15608 27.5 13.75 27.5Z" transform="translate(80.82759 104.2237)" id="Oval" fill="#00A8FF" stroke="none" />
      <path d="M5.24161 9.69893e-16L24.7584 4.58122e-15Q24.8563 4.59934e-15 24.954 0.00645662Q25.0518 0.0129132 25.1488 0.0257984Q25.2459 0.0386835 25.342 0.0579411Q25.438 0.0771987 25.5325 0.102745Q25.6271 0.128291 25.7197 0.160015Q25.8124 0.191739 25.9027 0.229502Q25.9931 0.267265 26.0808 0.310904Q26.1684 0.354542 26.2531 0.403866Q26.3377 0.453189 26.4188 0.507984Q26.5 0.562778 26.5774 0.622805Q26.6548 0.682831 26.728 0.747829Q26.8013 0.812827 26.8701 0.882513Q26.9389 0.952198 27.003 1.02627Q27.0671 1.10034 27.1261 1.17847Q27.1851 1.25661 27.2389 1.33846Q27.2927 1.42032 27.3409 1.50554Q27.3892 1.59077 27.4317 1.67898Q27.4742 1.7672 27.5109 1.85803Q27.5475 1.94886 27.578 2.04191Q27.6086 2.13496 27.6329 2.22982Q27.6573 2.32468 27.6753 2.42094Q27.6934 2.51719 27.705 2.61443Q27.7167 2.71167 27.7219 2.80947Q27.7271 2.90726 27.7259 3.00519Q27.7247 3.10312 27.717 3.20075Q27.7093 3.29838 27.6952 3.39529Q27.6811 3.49221 27.6606 3.58798Q27.6401 3.68375 27.6134 3.77797Q27.5867 3.87218 27.5538 3.96443Q27.5209 4.05667 27.482 4.14655Q27.4431 4.23643 27.3983 4.32355Q27.3536 4.41067 27.3032 4.49464L17.5448 20.7586Q17.4956 20.8406 17.4413 20.9192Q17.3869 20.9979 17.3276 21.0728Q17.2683 21.1478 17.2043 21.2188Q17.1403 21.2898 17.0719 21.3566Q17.0034 21.4233 16.9308 21.4855Q16.8582 21.5477 16.7818 21.6051Q16.7053 21.6625 16.6254 21.7148Q16.5454 21.7672 16.4622 21.8143Q16.379 21.8614 16.293 21.903Q16.2069 21.9447 16.1184 21.9807Q16.0298 22.0167 15.9392 22.047Q15.8485 22.0772 15.756 22.1016Q15.6636 22.1259 15.5698 22.1443Q15.476 22.1626 15.3812 22.1749Q15.2864 22.1872 15.191 22.1933Q15.0956 22.1995 15 22.1995Q14.9044 22.1995 14.809 22.1933Q14.7136 22.1872 14.6188 22.1749Q14.524 22.1626 14.4302 22.1443Q14.3364 22.1259 14.2439 22.1016Q14.1515 22.0772 14.0608 22.047Q13.9702 22.0167 13.8816 21.9807Q13.7931 21.9447 13.707 21.903Q13.621 21.8614 13.5378 21.8143Q13.4546 21.7672 13.3746 21.7148Q13.2946 21.6625 13.2182 21.6051Q13.1418 21.5477 13.0692 21.4855Q12.9966 21.4233 12.9281 21.3566Q12.8597 21.2898 12.7957 21.2188Q12.7317 21.1478 12.6724 21.0728Q12.6131 20.9979 12.5587 20.9192Q12.5044 20.8406 12.4552 20.7586L2.69679 4.49465Q2.6464 4.41067 2.60166 4.32355Q2.55692 4.23643 2.51802 4.14655Q2.47912 4.05668 2.44623 3.96443Q2.41334 3.87218 2.3866 3.77797Q2.35986 3.68375 2.3394 3.58798Q2.31893 3.49221 2.30482 3.39529Q2.29071 3.29838 2.28302 3.20075Q2.27533 3.10312 2.2741 3.00519Q2.27286 2.90726 2.27809 2.80947Q2.28331 2.71167 2.29497 2.61443Q2.30663 2.51719 2.32467 2.42094Q2.34272 2.32468 2.36707 2.22982Q2.39142 2.13496 2.42197 2.04191Q2.45252 1.94886 2.48915 1.85803Q2.52577 1.7672 2.56829 1.67898Q2.61082 1.59077 2.65908 1.50554Q2.70733 1.42032 2.76109 1.33846Q2.81486 1.25661 2.87391 1.17847Q2.93295 1.10034 2.99702 1.02627Q3.06109 0.952198 3.1299 0.882513Q3.19871 0.812827 3.27197 0.747829Q3.34523 0.682831 3.42261 0.622805Q3.49999 0.562778 3.58116 0.507984Q3.66233 0.453189 3.74694 0.403866Q3.83155 0.354542 3.91922 0.310904Q4.0069 0.267265 4.09726 0.229502Q4.18762 0.191739 4.28028 0.160015Q4.37293 0.128291 4.46748 0.102745Q4.56202 0.0771987 4.65804 0.0579411Q4.75407 0.0386835 4.85115 0.0257984Q4.94823 0.0129132 5.04595 0.00645662Q5.14368 9.51771e-16 5.24161 9.69893e-16Z" transform="matrix(-4.371139E-08 -1 1 -4.371139E-08 93.74951 30.66585)" id="Rectangle-Copy-13" fill="#FFA083" stroke="none" />
      <path d="M2.46515 9.68516L17.6945 1.27564Q17.9586 1.12982 18.239 1.01846Q18.5193 0.907097 18.8115 0.83197Q19.1037 0.756843 19.403 0.719151Q19.7023 0.681459 20.0039 0.681803Q20.3056 0.682147 20.6048 0.720523Q20.904 0.758898 21.196 0.834692Q21.488 0.910486 21.7681 1.02249Q22.0482 1.13449 22.3119 1.28092L37.5267 9.72775Q37.804 9.88167 38.0584 10.071Q38.3128 10.2603 38.5399 10.4816Q38.767 10.7029 38.9627 10.9524Q39.1585 11.2019 39.3195 11.4751Q39.4805 11.7483 39.6039 12.0404Q39.7273 12.3325 39.8109 12.6384Q39.8945 12.9443 39.9368 13.2586Q39.9791 13.5729 39.9795 13.89L39.9884 22.6294L39.9971 31.1465Q39.9974 31.4641 39.9556 31.7789Q39.9138 32.0937 39.8306 32.4002Q39.7474 32.7066 39.6243 32.9994Q39.5012 33.2921 39.3403 33.5659Q39.1794 33.8397 38.9837 34.0897Q38.7879 34.3397 38.5607 34.5616Q38.3335 34.7835 38.0788 34.9732Q37.8242 35.163 37.5466 35.3173L22.4346 43.7178Q22.171 43.8644 21.8909 43.9765Q21.6109 44.0887 21.3189 44.1646Q21.027 44.2406 20.7278 44.2791Q20.4286 44.3177 20.1269 44.3182Q19.8252 44.3187 19.5259 44.2811Q19.2266 44.2436 18.9344 44.1686Q18.6421 44.0936 18.3617 43.9824Q18.0813 43.8712 17.8171 43.7255L2.48495 35.2696Q2.20654 35.116 1.95099 34.9269Q1.69544 34.7377 1.46728 34.5163Q1.23912 34.2948 1.04239 34.045Q0.845665 33.7953 0.68386 33.5216Q0.522055 33.2479 0.398039 32.9551Q0.274022 32.6623 0.189992 32.3557Q0.105962 32.049 0.0634071 31.7339Q0.0208522 31.4189 0.0205267 31.1009L0.0117025 22.4798L0.00288229 13.8624Q0.00255639 13.544 0.0445868 13.2284Q0.0866173 12.9128 0.170257 12.6055Q0.253897 12.2983 0.37766 12.0049Q0.501422 11.7116 0.663108 11.4373Q0.824794 11.163 1.02153 10.9126Q1.21827 10.6622 1.44656 10.4403Q1.67484 10.2183 1.93063 10.0287Q2.18641 9.83908 2.46515 9.68516L2.46515 9.68516Z" transform="matrix(-0.9902681 -0.1391731 -0.1391731 0.9902681 84.59958 142.0047)" id="Mask-Copy-41" fill="none" stroke="#00257A" stroke-width="5" />
      <path d="M2.96775 7.85801e-13L22.0322 6.63039e-13Q22.178 6.62101e-13 22.3231 0.0142905Q22.4682 0.0285811 22.6112 0.0570245Q22.7542 0.0854679 22.8937 0.12779Q23.0333 0.170113 23.168 0.225906Q23.3027 0.2817 23.4312 0.350428Q23.5598 0.419156 23.681 0.500156Q23.8023 0.581156 23.915 0.673648Q24.0277 0.76614 24.1308 0.869234Q24.2339 0.972327 24.3263 1.08503Q24.4188 1.19773 24.4998 1.31896Q24.5808 1.44018 24.6496 1.56876Q24.7183 1.69734 24.7741 1.83204Q24.8299 1.96674 24.8722 2.10626Q24.9145 2.24578 24.943 2.38877Q24.9714 2.53177 24.9857 2.67686Q25 2.82195 25 2.96775L25 22.0322Q25 22.178 24.9857 22.3231Q24.9714 22.4682 24.943 22.6112Q24.9145 22.7542 24.8722 22.8937Q24.8299 23.0333 24.7741 23.168Q24.7183 23.3027 24.6496 23.4312Q24.5808 23.5598 24.4998 23.681Q24.4188 23.8023 24.3264 23.915Q24.2339 24.0277 24.1308 24.1308Q24.0277 24.2339 23.915 24.3263Q23.8023 24.4188 23.681 24.4998Q23.5598 24.5808 23.4312 24.6496Q23.3027 24.7183 23.168 24.7741Q23.0333 24.8299 22.8937 24.8722Q22.7542 24.9145 22.6112 24.943Q22.4682 24.9714 22.3231 24.9857Q22.178 25 22.0322 25L2.96775 25Q2.82195 25 2.67686 24.9857Q2.53177 24.9714 2.38877 24.943Q2.24578 24.9145 2.10626 24.8722Q1.96674 24.8299 1.83204 24.7741Q1.69734 24.7183 1.56876 24.6496Q1.44018 24.5808 1.31896 24.4998Q1.19773 24.4188 1.08503 24.3263Q0.972327 24.2339 0.869234 24.1308Q0.76614 24.0277 0.673648 23.915Q0.581156 23.8023 0.500156 23.681Q0.419156 23.5598 0.350428 23.4312Q0.2817 23.3027 0.225906 23.1679Q0.170113 23.0333 0.12779 22.8937Q0.0854679 22.7542 0.0570245 22.6112Q0.0285811 22.4682 0.0142905 22.3231Q1.34719e-14 22.178 1.41679e-14 22.0322L1.05181e-13 2.96775Q1.05877e-13 2.82195 0.0142905 2.67686Q0.0285811 2.53177 0.0570245 2.38877Q0.0854679 2.24578 0.12779 2.10626Q0.170113 1.96674 0.225906 1.83204Q0.2817 1.69734 0.350428 1.56876Q0.419156 1.44018 0.500156 1.31896Q0.581156 1.19773 0.673648 1.08503Q0.76614 0.972327 0.869234 0.869234Q0.972327 0.76614 1.08503 0.673648Q1.19773 0.581156 1.31896 0.500156Q1.44018 0.419156 1.56876 0.350428Q1.69734 0.2817 1.83204 0.225906Q1.96674 0.170113 2.10626 0.12779Q2.24578 0.0854679 2.38877 0.0570245Q2.53177 0.0285811 2.67686 0.0142905Q2.82195 7.8674e-13 2.96775 7.85801e-13L2.96775 7.85801e-13Z" transform="matrix(0.6156615 -0.7880107 0.7880107 0.6156615 102.6565 68.81485)" id="Rectangle" fill="#FECA14" stroke="none" />
    </g>
  </g>
</svg>