<?xml version="1.0" encoding="UTF-8"?>
<svg width="28px" height="28px" viewBox="0 0 28 28" version="1.1" xmlns="http://www.w3.org/2000/svg" xmlns:xlink="http://www.w3.org/1999/xlink">
    <!-- Generator: Sketch 42 (36781) - http://www.bohemiancoding.com/sketch -->
    <title>Support Icon</title>
    <desc>Created with Sketch.</desc>
    <defs></defs>
    <g id="Symbols" stroke="none" stroke-width="1" fill="none" fill-rule="evenodd">
        <g id="Cart-Open---Desktop" transform="translate(-28.000000, -816.000000)" fill="#E75525">
            <g id="Cart-Open" transform="translate(3.000000, -1.000000)">
                <g id="Support-Icon" transform="translate(25.000000, 817.000000)">
                    <path d="M9.96666667,7.13333333 C11.1666667,6.4 12.5333333,6 14,6 C15.4666667,6 16.8333333,6.4 18.0333333,7.13333333 L22.3666667,2.8 C19.9,0.933333333 16.9666667,0 14,0 C11.0333333,0 8.1,0.933333333 5.63333333,2.8 L9.96666667,7.13333333 L9.96666667,7.13333333 Z" id="Shape"></path>
                    <path d="M25.2,5.63333333 L20.8666667,9.96666667 C21.6,11.1666667 22,12.5666667 22,14 C22,15.4333333 21.6,16.8333333 20.8666667,18.0333333 L25.2,22.3666667 C28.9333333,17.4333333 28.9333333,10.5666667 25.2,5.63333333 L25.2,5.63333333 Z" id="Shape"></path>
                    <path d="M18.0333333,20.8666667 C16.8333333,21.6 15.4666667,22 14,22 C12.5333333,22 11.1666667,21.6 9.96666667,20.8666667 L5.63333333,25.2 C8.1,27.0666667 11.0333333,28 14,28 C16.9666667,28 19.9,27.0666667 22.3666667,25.2 L18.0333333,20.8666667 L18.0333333,20.8666667 Z" id="Shape"></path>
                    <path d="M7.13333333,18.0333333 C6.4,16.8333333 6,15.4333333 6,14 C6,12.5666667 6.4,11.1666667 7.13333333,9.96666667 L2.8,5.63333333 C-0.9,10.6 -0.9,17.4333333 2.8,22.3666667 L7.13333333,18.0333333 L7.13333333,18.0333333 Z" id="Shape"></path>
                </g>
            </g>
        </g>
    </g>
</svg>