<?xml version="1.0" encoding="UTF-8"?>
<svg width="20px" height="18px" viewBox="0 0 20 18" version="1.1" xmlns="http://www.w3.org/2000/svg" xmlns:xlink="http://www.w3.org/1999/xlink">
    <!-- Generator: Sketch 43 (38999) - http://www.bohemiancoding.com/sketch -->
    <title>noun_613777_cc</title>
    <desc>Created with Sketch.</desc>
    <defs></defs>
    <g id="Page---Product-/-Categories" stroke="none" stroke-width="1" fill="none" fill-rule="evenodd">
        <g id="Category---Desktop" transform="translate(-49.000000, -583.000000)" fill="#E75300">
            <g id="Product-Menu" transform="translate(0.000000, 561.000000)">
                <g id="noun_613777_cc" transform="translate(49.000000, 22.410865)">
                    <path d="M3.39583333,13.7014085 C3.68583333,12.3990135 4.9475,11.4178404 6.45833333,11.4178404 C7.96916667,11.4178404 9.23083333,12.3990135 9.52083333,13.7014085 L19.1666667,13.7014085 C19.5116667,13.7014085 19.7916667,13.9571681 19.7916667,14.2723005 C19.7916667,14.5874329 19.5116667,14.8431925 19.1666667,14.8431925 L9.52083333,14.8431925 C9.23083333,16.1455875 7.96916667,17.1267606 6.45833333,17.1267606 C4.9475,17.1267606 3.68583333,16.1455875 3.39583333,14.8431925 L0.833333333,14.8431925 C0.488333333,14.8431925 0.208333333,14.5874329 0.208333333,14.2723005 C0.208333333,13.9571681 0.488333333,13.7014085 0.833333333,13.7014085 L3.39583333,13.7014085 L3.39583333,13.7014085 Z M6.45833333,15.9849765 C5.42458333,15.9849765 4.58333333,15.2165559 4.58333333,14.2723005 C4.58333333,13.3280451 5.42458333,12.5596244 6.45833333,12.5596244 C7.49208333,12.5596244 8.33333333,13.3280451 8.33333333,14.2723005 C8.33333333,15.2165559 7.49208333,15.9849765 6.45833333,15.9849765 L6.45833333,15.9849765 Z M10.4791667,7.99248826 C10.7691667,6.69009327 12.0308333,5.70892019 13.5416667,5.70892019 C15.0525,5.70892019 16.3141667,6.69009327 16.6041667,7.99248826 L19.1666667,7.99248826 C19.5116667,7.99248826 19.7916667,8.24824789 19.7916667,8.56338028 C19.7916667,8.87851268 19.5116667,9.1342723 19.1666667,9.1342723 L16.6041667,9.1342723 C16.3141667,10.4366673 15.0525,11.4178404 13.5416667,11.4178404 C12.0308333,11.4178404 10.7691667,10.4366673 10.4791667,9.1342723 L0.833333333,9.1342723 C0.488333333,9.1342723 0.208333333,8.87851268 0.208333333,8.56338028 C0.208333333,8.24824789 0.488333333,7.99248826 0.833333333,7.99248826 L10.4791667,7.99248826 L10.4791667,7.99248826 Z M13.5416667,10.2760563 C12.5079167,10.2760563 11.6666667,9.50763568 11.6666667,8.56338028 C11.6666667,7.61912488 12.5079167,6.85070423 13.5416667,6.85070423 C14.5754167,6.85070423 15.4166667,7.61912488 15.4166667,8.56338028 C15.4166667,9.50763568 14.5754167,10.2760563 13.5416667,10.2760563 L13.5416667,10.2760563 Z M3.39583333,2.28356808 C3.68583333,0.981173083 4.9475,0 6.45833333,0 C7.96916667,0 9.23083333,0.981173083 9.52083333,2.28356808 L19.1666667,2.28356808 C19.5116667,2.28356808 19.7916667,2.5393277 19.7916667,2.85446009 C19.7916667,3.16959249 19.5116667,3.42535211 19.1666667,3.42535211 L9.52083333,3.42535211 C9.23083333,4.7277471 7.96916667,5.70892019 6.45833333,5.70892019 C4.9475,5.70892019 3.68583333,4.7277471 3.39583333,3.42535211 L0.833333333,3.42535211 C0.488333333,3.42535211 0.208333333,3.16959249 0.208333333,2.85446009 C0.208333333,2.5393277 0.488333333,2.28356808 0.833333333,2.28356808 L3.39583333,2.28356808 L3.39583333,2.28356808 Z M6.45833333,4.56713615 C5.42458333,4.56713615 4.58333333,3.79871549 4.58333333,2.85446009 C4.58333333,1.91020469 5.42458333,1.14178404 6.45833333,1.14178404 C7.49208333,1.14178404 8.33333333,1.91020469 8.33333333,2.85446009 C8.33333333,3.79871549 7.49208333,4.56713615 6.45833333,4.56713615 L6.45833333,4.56713615 Z" id="Shape"></path>
                </g>
            </g>
        </g>
    </g>
</svg>