<?xml version="1.0" encoding="UTF-8"?>
<svg width="19px" height="19px" viewBox="0 0 19 19" version="1.1" xmlns="http://www.w3.org/2000/svg" xmlns:xlink="http://www.w3.org/1999/xlink">
    <!-- Generator: Sketch 42 (36781) - http://www.bohemiancoding.com/sketch -->
    <title>+</title>
    <desc>Created with Sketch.</desc>
    <defs></defs>
    <g id="Page---Home-Mobile-Optimized" stroke="none" stroke-width="1" fill="none" fill-rule="evenodd">
        <g id="Home---Desktop-More-Optimized" transform="translate(-607.000000, -1100.000000)" fill="#E75300">
            <g id="New-Products" transform="translate(39.000000, 1097.000000)">
                <g id="+" transform="translate(568.000000, 3.000000)">
                    <polygon id="Fill-3" points="12.2245863 8.92141338 9.75489717 8.92141338 9.75489717 6.45317878 8.92854444 6.45317878 8.92854444 8.92141338 6.45885534 8.92141338 6.45885534 9.74727944 8.92854444 9.74727944 8.92854444 12.2164504 9.75489717 12.2164504 9.75489717 9.74727944 12.2245863 9.74727944"></polygon>
                    <path d="M17.3562179,14.797235 C17.3562179,16.2045782 16.2141273,17.3459962 14.8059548,17.3459962 L3.88067232,17.3459962 C2.47437364,17.3459962 1.33321987,16.2045782 1.33321987,14.797235 L1.32666152,14.797235 L1.32666152,3.87838685 L1.33321987,3.87838685 C1.33321987,2.47198003 2.47437364,1.33149833 3.88067232,1.33149833 L3.88067232,1.32400749 L14.8059548,1.32400749 L14.8059548,1.33149833 C16.2150642,1.33149833 17.3562179,2.47198003 17.3562179,3.87838685 L17.3571549,3.87838685 L17.3571549,14.797235 L17.3562179,14.797235 Z M0,18.9897626 L19,18.9897626 L19,0 L0,0 L0,18.9897626 Z" id="Fill-4"></path>
                    <path d="M14.3470573,12.7464279 C14.3470573,13.6256663 13.6340704,14.3372969 12.7552509,14.3372969 L12.7552509,14.3410423 L5.93456171,14.3410423 L5.93456171,14.3372969 C5.05386833,14.3372969 4.34181836,13.6256663 4.34181836,12.7464279 L4.33244929,12.7464279 L4.33244929,5.92975573 L4.34181836,5.92975573 C4.34181836,5.05145374 5.05386833,4.33888677 5.93456171,4.33888677 L5.93456171,4.32858685 L12.7552509,4.32858685 L12.7552509,4.33888677 C13.6340704,4.33888677 14.3470573,5.05145374 14.3470573,5.92975573 L14.3508049,5.92975573 L14.3508049,12.7464279 L14.3470573,12.7464279 Z M3.39835216,15.2745893 L15.2839652,15.2745893 L15.2839652,3.39410349 L3.39835216,3.39410349 L3.39835216,15.2745893 Z" id="Fill-6"></path>
                </g>
            </g>
        </g>
    </g>
</svg>