<?xml version="1.0" encoding="UTF-8"?>
<svg width="72px" height="72px" viewBox="0 0 72 72" version="1.1" xmlns="http://www.w3.org/2000/svg" xmlns:xlink="http://www.w3.org/1999/xlink">
    <title>icon-benefits-clinically-shown-promote-catch-up-growth</title>
    <g id="PDP" stroke="none" stroke-width="1" fill="none" fill-rule="evenodd">
        <g id="icons-benefits" transform="translate(-1076.000000, -575.000000)">
            <g id="icon-benefits-clinically-shown-promote-catch-up-growth" transform="translate(1076.000000, 575.000000)">
                <polygon id="Fill-1" points="0 72 72 72 72 0 0 0"></polygon>
                <g id="Group-41" transform="translate(10.000000, 7.000000)">
                    <path d="M47.2418,30.6877 L37.7668,22.1937 C40.0028,20.1917 41.4188,17.2927 41.4188,14.0547 C41.4188,8.0167 36.5238,3.1217 30.4848,3.1217 C24.4468,3.1217 19.5518,8.0167 19.5518,14.0547 C19.5518,17.3457 21.0128,20.2907 23.3138,22.2947 L14.0108,30.6877 C12.6758,31.8957 12.5738,33.9577 13.7828,35.2917 C14.9908,36.6257 17.0528,36.7287 18.3868,35.5197 L21.5718,32.5787 L21.5718,37.3307 L21.5718,39.3337 L17.2968,43.1237 C16.2138,44.0837 15.9408,45.6667 16.6418,46.9327 L20.3768,53.6877 C21.2678,55.2997 23.2958,55.8887 24.9128,55.0027 C26.5308,54.1177 27.1268,52.0897 26.2458,50.4697 L24.3568,46.9947 L26.4458,44.7657 L26.3288,44.6347 C27.3188,45.0737 28.4108,45.3227 29.5638,45.3227 L30.8498,45.3227 C32.5218,45.3227 34.6058,44.7657 34.6058,44.7657 L36.6948,46.9947 L34.8058,50.4697 C33.9248,52.0897 34.5208,54.1177 36.1388,55.0027 C37.7558,55.8887 39.7838,55.2997 40.6748,53.6877 L44.4098,46.9327 C45.1108,45.6667 44.8378,44.0837 43.7548,43.1237 L39.4798,39.3337 C39.4798,39.3337 38.8418,38.6927 38.8418,37.3307 L38.8418,31.8127 L42.8658,35.5197 C44.1998,36.7287 46.2608,36.6257 47.4698,35.2917 C48.6778,33.9577 48.5758,31.8957 47.2418,30.6877" id="Fill-1" fill="#CDEEFF"></path>
                    <path d="M38.1959,11.8332 C38.1959,17.8712 33.3009,22.7662 27.2619,22.7662 C21.2239,22.7662 16.3289,17.8712 16.3289,11.8332 C16.3289,5.7952 21.2239,0.9002 27.2619,0.9002 C33.3009,0.9002 38.1959,5.7952 38.1959,11.8332 Z" id="Stroke-3" stroke="#00257A" stroke-width="1.8"></path>
                    <path d="M27.3795,6.3327 C25.9585,6.3327 24.8065,5.1427 24.8065,3.6747 C24.8065,2.2077 25.9585,1.0177 27.3795,1.0177" id="Stroke-5" stroke="#00257A" stroke-width="1.8" stroke-linecap="round"></path>
                    <path d="M27.8082,3.9914 C26.9962,3.9914 26.3382,3.3114 26.3382,2.4724 C26.3382,1.6344 26.9962,0.9544 27.8082,0.9544" id="Stroke-7" stroke="#00257A" stroke-width="1.8" stroke-linecap="round"></path>
                    <path d="M20.8541,14.9304 C20.8541,14.9304 21.3511,15.4134 21.9571,16.0044 C22.5631,16.5954 23.9591,17.0784 25.0601,17.0784 L29.6751,17.0784 C30.7751,17.0784 32.1871,16.5954 32.8121,16.0044 C33.4371,15.4134 33.9481,14.9304 33.9481,14.9304" id="Stroke-9" stroke="#00257A" stroke-width="1.8" stroke-linecap="round"></path>
                    <path d="M21.2134,10.239 L22.0674,9.767 C22.3774,9.646 22.5284,9.646 22.8374,9.768 L23.6814,10.239" id="Stroke-11" stroke="#00257A" stroke-width="1.8" stroke-linecap="round"></path>
                    <path d="M30.8365,10.239 L31.6905,9.767 C32.0005,9.646 32.1515,9.646 32.4605,9.768 L33.3045,10.239" id="Stroke-13" stroke="#00257A" stroke-width="1.8" stroke-linecap="round"></path>
                    <path d="M18.3487,30.3572 L15.1637,33.2982 C13.8297,34.5062 11.7677,34.4042 10.5597,33.0702 C9.3507,31.7352 9.4527,29.6742 10.7877,28.4652 L19.3847,20.6792" id="Stroke-15" stroke="#00257A" stroke-width="1.8" stroke-linecap="round"></path>
                    <path d="M35.6192,29.5911 L39.6422,33.2981 C40.9762,34.5071 43.0382,34.4041 44.2462,33.0701 C45.4552,31.7361 45.3532,29.6741 44.0182,28.4661 L35.4222,20.6791" id="Stroke-17" stroke="#00257A" stroke-width="1.8" stroke-linecap="round"></path>
                    <path d="M35.6192,29.8699 L35.6192,35.1089 C35.6192,39.5229 32.0402,43.1009 27.6272,43.1009 L26.3412,43.1009 C21.9272,43.1009 18.3482,39.5229 18.3482,35.1089 L18.3482,30.3569" id="Stroke-19" stroke="#00257A" stroke-width="1.8" stroke-linecap="round"></path>
                    <path d="M18.3487,37.112 L14.0737,40.901 C12.9907,41.862 12.7187,43.445 13.4187,44.711 L17.1537,51.466 C18.0457,53.078 20.0737,53.667 21.6897,52.781 C23.3077,51.896 23.9037,49.868 23.0227,48.248 L21.1347,44.772 L23.2237,42.544" id="Stroke-21" stroke="#00257A" stroke-width="1.8" stroke-linecap="round" stroke-linejoin="round"></path>
                    <path d="M36.2574,37.112 L40.5324,40.901 C41.6154,41.862 41.8874,43.445 41.1874,44.711 L37.4524,51.466 C36.5604,53.078 34.5324,53.667 32.9164,52.781 C31.2984,51.896 30.7024,49.868 31.5834,48.248 L33.4714,44.772 L31.3824,42.544" id="Stroke-23" stroke="#00257A" stroke-width="1.8" stroke-linecap="round" stroke-linejoin="round"></path>
                    <line x1="18.3487" y1="35.1091" x2="35.6197" y2="35.1091" id="Stroke-25" stroke="#00257A" stroke-width="2" stroke-linejoin="round"></line>
                    <polyline id="Stroke-27" stroke="#00257A" stroke-width="1.8" stroke-linecap="round" stroke-linejoin="round" points="50.4014 56.2961 0.9004 56.2961 0.9004 2.2411"></polyline>
                    <line x1="4.753" y1="56.2961" x2="0.9" y2="56.2961" id="Stroke-29" stroke="#00257A" stroke-width="1.8" stroke-linecap="round" stroke-linejoin="round"></line>
                    <line x1="4.753" y1="47.2683" x2="0.9" y2="47.2683" id="Stroke-31" stroke="#00257A" stroke-width="1.8" stroke-linecap="round" stroke-linejoin="round"></line>
                    <line x1="4.753" y1="38.241" x2="0.9" y2="38.241" id="Stroke-33" stroke="#00257A" stroke-width="1.8" stroke-linecap="round" stroke-linejoin="round"></line>
                    <line x1="4.753" y1="29.2136" x2="0.9" y2="29.2136" id="Stroke-35" stroke="#00257A" stroke-width="1.8" stroke-linecap="round" stroke-linejoin="round"></line>
                    <line x1="4.753" y1="20.1858" x2="0.9" y2="20.1858" id="Stroke-37" stroke="#00257A" stroke-width="1.8" stroke-linecap="round" stroke-linejoin="round"></line>
                    <line x1="4.753" y1="11.1584" x2="0.9" y2="11.1584" id="Stroke-39" stroke="#00257A" stroke-width="1.8" stroke-linecap="round" stroke-linejoin="round"></line>
                </g>
            </g>
        </g>
    </g>
</svg>