<?xml version="1.0" encoding="UTF-8"?>
<svg width="72px" height="72px" viewBox="0 0 72 72" version="1.1" xmlns="http://www.w3.org/2000/svg" xmlns:xlink="http://www.w3.org/1999/xlink">
    <title>icon-benefits-immune-support</title>
    <g id="PDP" stroke="none" stroke-width="1" fill="none" fill-rule="evenodd">
        <g id="icons-benefits" transform="translate(-253.000000, -223.000000)">
            <g id="icon-benefits-immune-support" transform="translate(253.000000, 223.000000)">
                <polygon id="Fill-1" points="0 72 72 72 72 0 0 0"></polygon>
                <g id="Group-8" transform="translate(9.000000, 9.000000)">
                    <path d="M7.728,13.374 C6.465,13.917 5.698,15.456 6.024,16.791 L12.284,42.447 C12.61,43.782 13.863,45.416 15.069,46.077 L29.153,53.798 C30.358,54.459 32.328,54.453 33.529,53.783 L47.337,46.092 C48.538,45.423 49.788,43.782 50.114,42.447 L56.374,16.791 C56.7,15.456 55.935,13.913 54.674,13.364 L33.637,4.204 C32.376,3.655 30.311,3.651 29.049,4.195 L7.728,13.374 Z" id="Fill-2" fill="#CDEEFF"></path>
                    <path d="M13.1021,26.6709 C12.4021,27.5199 12.5241,28.7869 13.3731,29.4869 L20.6101,35.4569 C21.4591,36.1569 22.7511,36.0569 23.4831,35.2349 L37.3841,19.6109 C38.1161,18.7889 37.9891,17.5839 37.1021,16.9319 L35.7801,15.9599 C34.8941,15.3079 33.5811,15.4569 32.8631,16.2899 L23.0661,27.6599 C22.3491,28.4929 21.0601,28.6099 20.2041,27.9209 L16.8731,25.2379 C16.0171,24.5479 14.7441,24.6779 14.0441,25.5269 L13.1021,26.6709 Z" id="Stroke-4" stroke="#00257A" stroke-width="1.8" stroke-linecap="round"></path>
                    <path d="M1.7827,10.0713 C0.5197,10.6143 -0.2463,12.1523 0.0787,13.4883 L6.3397,39.1443 C6.6647,40.4793 7.9187,42.1133 9.1237,42.7743 L23.2077,50.4953 C24.4137,51.1563 26.3827,51.1503 27.5837,50.4803 L41.3917,42.7893 C42.5937,42.1203 43.8427,40.4793 44.1687,39.1443 L50.4287,13.4883 C50.7547,12.1523 49.9897,10.6103 48.7297,10.0613 L27.6927,0.9013 C26.4317,0.3523 24.3667,0.3483 23.1037,0.8923 L1.7827,10.0713 Z" id="Stroke-6" stroke="#00257A" stroke-width="1.8"></path>
                </g>
            </g>
        </g>
    </g>
</svg>