<?xml version="1.0" encoding="UTF-8"?>
<svg width="72px" height="72px" viewBox="0 0 72 72" version="1.1" xmlns="http://www.w3.org/2000/svg" xmlns:xlink="http://www.w3.org/1999/xlink">
    <title>icon-benefits-cognitive-development</title>
    <g id="PDP" stroke="none" stroke-width="1" fill="none" fill-rule="evenodd">
        <g id="icons-benefits" transform="translate(-1179.000000, -47.000000)">
            <g id="icon-benefits-cognitive-development" transform="translate(1179.000000, 47.000000)">
                <polygon id="Fill-1" points="0 72 72 72 72 0 0 0"></polygon>
                <g id="Group-42" transform="translate(10.000000, 13.000000)">
                    <path d="M54.7041,22.1953 L52.8041,18.9043 L51.5151,16.6683 C51.0791,15.9243 50.2491,15.5183 49.3921,15.4543 L48.0881,15.3583 C48.0091,15.3523 47.9611,15.2693 47.9951,15.1983 L48.5891,13.9723 C48.9891,13.1453 48.9391,12.1723 48.4691,11.3823 L48.2481,11.0113 L47.4181,9.5793 L46.4551,7.9023 L45.6731,6.5503 L44.7561,4.9743 C44.6791,4.8403 44.5861,4.7083 44.4881,4.5883 C44.1401,4.1603 43.7051,3.7813 43.1831,3.4673 C42.4581,3.0323 41.5891,2.7953 40.8541,2.8263 L35.7221,2.8243 C34.4871,2.8283 33.3861,3.4843 32.5711,4.4133 L31.0301,6.1233 L31.0301,6.0953 L29.4851,4.3803 C28.6711,3.4513 27.5581,2.8323 26.3231,2.8273 L21.2121,2.81889758 C20.3871,2.8073 19.5371,3.0643 18.8111,3.5063 C18.1981,3.8803 17.6671,4.3383 17.3411,4.8753 L16.3281,6.6153 L15.5261,8.0113 L14.5671,9.6683 L13.7931,11.0173 L13.5701,11.4033 C13.1111,12.1743 13.0751,13.1303 13.4671,13.9383 L14.0601,15.1643 C14.0951,15.2363 14.0471,15.3193 13.9691,15.3243 L12.6651,15.4213 C11.8071,15.4853 10.9841,15.8783 10.5501,16.6213 L9.2351,18.9103 L7.2571,22.3243 C6.7371,23.2383 6.6481,24.5213 6.8791,25.6113 C6.9481,25.9353 7.0511,26.2333 7.2071,26.5293 L10.5901,32.3923 C11.0391,33.1113 11.8321,33.6093 12.6671,33.6403 L13.1781,33.6593 L13.0891,33.7023 L13.9891,33.7033 C14.0501,33.7233 14.0901,33.7853 14.0601,33.8473 L13.6411,35.0663 C13.5091,35.4483 13.4311,35.8463 13.4071,36.2503 L13.4071,36.2573 C13.3721,36.8613 13.5151,37.4623 13.8221,37.9833 L14.2061,38.6533 L16.9791,43.4603 C17.0471,43.5563 17.0991,43.6743 17.1471,43.7613 C17.8461,45.0263 19.1861,45.8673 20.5491,46.0863 C20.7371,46.1163 20.9271,46.1273 21.1171,46.1283 L26.2461,46.1253 L26.7651,46.1253 C28.2411,46.1203 29.5681,45.3623 30.3411,44.1013 L31.0251,42.9833 L31.0251,43.0073 L31.7151,44.1343 C32.4871,45.3963 33.7921,46.1293 35.2681,46.1293 C35.7371,46.1293 40.3171,46.1263 40.8411,46.1263 C40.8731,46.1263 41.0831,46.1263 41.1141,46.1233 C41.5311,46.0953 41.9581,46.0293 42.4031,45.8533 C43.3781,45.4683 44.3401,44.7753 44.8481,43.8263 L45.6831,42.3813 L46.7671,40.5033 L47.8111,38.6913 L48.4091,37.6603 C48.6991,37.1613 48.6871,36.3163 48.5701,35.6713 C48.5361,35.4833 48.4841,35.2993 48.4221,35.1183 L47.9951,33.8813 C47.9621,33.8083 48.0131,33.7253 48.0921,33.7223 L49.3891,33.6743 C50.2251,33.6423 50.9821,33.2123 51.3971,32.4843 L52.7921,30.0703 L54.7611,26.6603 C54.8831,26.4293 55.0291,26.1023 55.1001,25.8553 C55.4481,24.6443 55.3041,23.1603 54.7041,22.1953" id="Fill-2" fill="#CDEEFF"></path>
                    <path d="M24.9814,3.3096 L26.5264,1.5946 C27.3404,0.6656 28.4424,0.0106 29.6764,0.0056 L34.8094,0.0086 C35.5444,-0.0234 36.4134,0.2136 37.1374,0.6486 C37.6604,0.9626 38.0944,1.3416 38.4434,1.7686 C38.5414,1.8896 38.6334,2.0216 38.7104,2.1566 L39.6274,3.7316 L40.4104,5.0826 L41.3734,6.7606 L42.2034,8.1926 L42.4234,8.5636 C42.8944,9.3536 42.9444,10.3266 42.5434,11.1536 L41.9504,12.3796 C41.9164,12.4506 41.9634,12.5336 42.0434,12.5386 L43.3464,12.6356 C44.2044,12.6996 45.0344,13.1056 45.4694,13.8496 L46.7584,16.0856 L48.6594,19.3766 C49.2584,20.3416 49.4034,21.8256 49.0554,23.0366 C48.9844,23.2836 48.8374,23.6116 48.7154,23.8416 L46.7474,27.2516 L45.3524,29.6656 C44.9374,30.3936 44.1794,30.8236 43.3434,30.8546 L42.0464,30.9036 C41.9674,30.9066 41.9174,30.9896 41.9504,31.0616 L42.3774,32.2996 C42.4394,32.4806 42.4914,32.6646 42.5254,32.8526 C42.6424,33.4976 42.6544,34.3436 42.3644,34.8416 L41.7664,35.8726 L40.7214,37.6846 L39.6374,39.5616 L38.8024,41.0086 C38.2944,41.9556 37.3334,42.6506 36.3584,43.0346 C35.9134,43.2106 35.4864,43.2766 35.0694,43.3056 C35.0384,43.3076 34.8284,43.3076 34.7954,43.3076 C34.2724,43.3076 29.6924,43.3096 29.2234,43.3096 C27.7474,43.3096 26.4424,42.5776 25.6694,41.3156 L24.9804,40.1886" id="Stroke-4" stroke="#00257A" stroke-width="1.8" stroke-linecap="round"></path>
                    <path d="M24.9854,3.2769 L23.4404,1.5619 C22.6264,0.6319 21.5124,0.0139 20.2784,0.0089 L15.1674,0.000496101343 C14.3414,-0.0111 13.4924,0.2449 12.7664,0.6879 C12.1534,1.0619 11.6224,1.5189 11.2964,2.0559 L10.2834,3.7979 L9.4814,5.1929 L8.5224,6.8489 L7.7484,8.1979 L7.5254,8.5849 C7.0664,9.3559 7.0304,10.3109 7.4224,11.1189 L8.0154,12.3459 C8.0494,12.4169 8.0024,12.5009 7.9234,12.5059 L6.6194,12.6029 C5.7614,12.6669 4.9394,13.0589 4.5054,13.8019 L3.1904,16.0909 L1.2124,19.5059 C0.6924,20.4199 0.6034,21.7029 0.8344,22.7919 C0.9034,23.1169 1.0064,23.4149 1.1624,23.7119 L4.5454,29.5729 C4.9944,30.2919 5.7874,30.7909 6.6224,30.8219 L7.9194,30.8709 C7.9994,30.8739 8.0494,30.9569 8.0154,31.0289 L7.5954,32.2479 C7.4644,32.6299 7.3854,33.0279 7.3624,33.4309 L7.3624,33.4389 C7.3274,34.0429 7.4694,34.6429 7.7774,35.1639 L8.1614,35.8339 L10.9344,40.6419 C11.0024,40.7379 11.0534,40.8559 11.1024,40.9429 C11.8004,42.2069 13.1414,43.0479 14.5044,43.2679 C14.6914,43.2979 14.8814,43.3089 15.0724,43.3089 L20.2014,43.3059 L20.7194,43.3059 C22.1964,43.3009 23.5234,42.5439 24.2964,41.2819 L24.9864,40.1549" id="Stroke-6" stroke="#00257A" stroke-width="1.8" stroke-linecap="round"></path>
                    <path d="M7.0439,30.8838 L12.0539,30.8918 C13.6639,30.8918 15.1619,30.0588 16.0229,28.6848 L17.9009,25.6898" id="Stroke-8" stroke="#00257A" stroke-width="1.8" stroke-linecap="round"></path>
                    <path d="M24.9795,15.5811 L22.4145,15.5811 C20.8035,15.5811 19.3045,16.4141 18.4435,17.7881 L16.5665,20.7831" id="Stroke-10" stroke="#00257A" stroke-width="1.8" stroke-linecap="round"></path>
                    <path d="M14.9785,29.9014 C14.9785,29.9014 19.4535,31.3564 19.4535,35.5674" id="Stroke-12" stroke="#00257A" stroke-width="1.8" stroke-linecap="round"></path>
                    <path d="M16.7178,9.8765 C16.7178,9.8765 21.1928,11.3315 21.1928,15.5425" id="Stroke-14" stroke="#00257A" stroke-width="1.8" stroke-linecap="round"></path>
                    <path d="M8.1563,12.4634 C8.1563,12.4634 11.0243,12.9534 12.1623,16.9354" id="Stroke-16" stroke="#00257A" stroke-width="1.8" stroke-linecap="round"></path>
                    <line x1="24.9805" y1="3.2798" x2="24.9795" y2="40.1558" id="Stroke-18" stroke="#00257A" stroke-width="1.8" stroke-linecap="round"></line>
                    <path d="M29.3301,21.8833 L29.3301,7.3973 C29.3301,6.9313 29.7041,6.5533 30.1651,6.5533 L32.6841,6.5533" id="Stroke-20" stroke="#00257A" stroke-width="1.8" stroke-linecap="round"></path>
                    <path d="M29.3301,21.8809 L29.3301,36.8819 C29.3301,37.3479 29.7041,37.7259 30.1651,37.7259 L32.5171,37.7259" id="Stroke-22" stroke="#00257A" stroke-width="1.8" stroke-linecap="round"></path>
                    <g id="Group-27" transform="translate(24.000000, 21.000000)">
                        <line x1="0.9824" y1="0.7397" x2="18.3624" y2="0.7397" id="Fill-24" fill="#FFFFFF"></line>
                        <line x1="0.9824" y1="0.7397" x2="18.3624" y2="0.7397" id="Stroke-26" stroke="#00257A" stroke-width="1.8" stroke-linecap="round"></line>
                    </g>
                    <path d="M35.9844,12.8193 L37.5184,12.8193 C38.0344,12.8193 38.4524,13.2413 38.4524,13.7623 L38.4524,21.6043" id="Stroke-28" stroke="#00257A" stroke-width="1.8" stroke-linecap="round"></path>
                    <path d="M29.3584,32.0967 L36.1034,32.0967 C36.6194,32.0967 37.0374,31.6747 37.0374,31.1537 L37.0374,28.4437" id="Stroke-30" stroke="#00257A" stroke-width="1.8" stroke-linecap="round"></path>
                    <path d="M34.2939,8.0532 C33.4659,8.0732 32.7779,7.4172 32.7589,6.5892 C32.7389,5.7612 33.3959,5.0742 34.2239,5.0542 C35.0519,5.0342 35.7389,5.6902 35.7589,6.5182 C35.7769,7.3462 35.1219,8.0332 34.2939,8.0532 Z" id="Stroke-32" stroke="#00257A" stroke-width="1.8"></path>
                    <path d="M34.4385,14.3188 C33.6105,14.3388 32.9225,13.6828 32.9035,12.8548 C32.8835,12.0268 33.5405,11.3398 34.3685,11.3198 C35.1965,11.2998 35.8825,11.9558 35.9025,12.7838 C35.9215,13.6118 35.2665,14.2988 34.4385,14.3188 Z" id="Stroke-34" stroke="#00257A" stroke-width="1.8"></path>
                    <path d="M37.0723,28.3921 C36.2443,28.4121 35.5573,27.7561 35.5383,26.9281 C35.5183,26.1001 36.1743,25.4131 37.0023,25.3931 C37.8303,25.3731 38.5173,26.0291 38.5373,26.8571 C38.5563,27.6851 37.9013,28.3721 37.0723,28.3921 Z" id="Stroke-36" stroke="#00257A" stroke-width="1.8"></path>
                    <path d="M34.21,39.0635 C33.381,39.0835 32.694,38.4275 32.675,37.5995 C32.655,36.7715 33.311,36.0845 34.139,36.0645 C34.967,36.0445 35.654,36.7005 35.674,37.5285 C35.693,38.3565 35.038,39.0445 34.21,39.0635 Z" id="Stroke-38" stroke="#00257A" stroke-width="1.8"></path>
                    <path d="M43.9385,23.2397 C43.1105,23.2587 42.4225,22.6037 42.4035,21.7757 C42.3835,20.9467 43.0405,20.2597 43.8685,20.2397 C44.6965,20.2207 45.3825,20.8767 45.4025,21.7047 C45.4215,22.5327 44.7665,23.2197 43.9385,23.2397 Z" id="Stroke-40" stroke="#00257A" stroke-width="1.8"></path>
                </g>
            </g>
        </g>
    </g>
</svg>