<?xml version="1.0" encoding="UTF-8"?>
<svg width="23px" height="23px" viewBox="0 0 23 23" version="1.1" xmlns="http://www.w3.org/2000/svg" xmlns:xlink="http://www.w3.org/1999/xlink">
    <!-- Generator: Sketch 42 (36781) - http://www.bohemiancoding.com/sketch -->
    <title>Search</title>
    <desc>Created with Sketch.</desc>
    <defs></defs>
    <g id="Symbols" stroke="none" stroke-width="1" fill="none" fill-rule="evenodd">
        <g id="Search-Open---Desktop" transform="translate(-58.000000, -130.000000)" fill="#E75300">
            <g id="Search-Open">
                <path d="M72.375,130 C73.9397865,130 75.3828873,130.385576 76.7043457,131.156738 C78.0258041,131.927901 79.072099,132.974196 79.8432617,134.295654 C80.6144244,135.617113 81,137.060214 81,138.625 C81,140.189786 80.6144244,141.632887 79.8432617,142.954346 C79.072099,144.275804 78.0258041,145.322099 76.7043457,146.093262 C75.3828873,146.864424 73.9397865,147.25 72.375,147.25 C70.6904213,147.25 69.1556059,146.804529 67.7705078,145.913574 L61.2792969,152.438477 C60.889972,152.812827 60.4370143,153 59.9204102,153 C59.388832,153 58.9358743,152.812827 58.5615234,152.438477 C58.1871726,152.064126 58,151.611168 58,151.07959 C58,150.548012 58.1871726,150.095054 58.5615234,149.720703 L65.0864258,143.229492 C64.1954708,141.844394 63.75,140.309579 63.75,138.625 C63.75,137.060214 64.1355756,135.617113 64.9067383,134.295654 C65.677901,132.974196 66.7241959,131.927901 68.0456543,131.156738 C69.3671127,130.385576 70.8102135,130 72.375,130 Z M72.375,144.375 C73.1536497,144.375 73.896725,144.22339 74.604248,143.920166 C75.3117711,143.616942 75.9238255,143.207034 76.4404297,142.69043 C76.9570338,142.173826 77.3669418,141.561771 77.670166,140.854248 C77.9733902,140.146725 78.125,139.40365 78.125,138.625 C78.125,137.84635 77.9733902,137.103275 77.670166,136.395752 C77.3669418,135.688229 76.9570338,135.076174 76.4404297,134.55957 C75.9238255,134.042966 75.3117711,133.633058 74.604248,133.329834 C73.896725,133.02661 73.1536497,132.875 72.375,132.875 C71.5963503,132.875 70.853275,133.02661 70.145752,133.329834 C69.4382289,133.633058 68.8261745,134.042966 68.3095703,134.55957 C67.7929662,135.076174 67.3830582,135.688229 67.079834,136.395752 C66.7766098,137.103275 66.625,137.84635 66.625,138.625 C66.625,139.40365 66.7766098,140.146725 67.079834,140.854248 C67.3830582,141.561771 67.7929662,142.173826 68.3095703,142.69043 C68.8261745,143.207034 69.4382289,143.616942 70.145752,143.920166 C70.853275,144.22339 71.5963503,144.375 72.375,144.375 Z" id="Search"></path>
            </g>
        </g>
    </g>
</svg>