<?xml version="1.0" encoding="UTF-8"?>
<svg width="34px" height="33px" viewBox="0 0 34 33" version="1.1" xmlns="http://www.w3.org/2000/svg" xmlns:xlink="http://www.w3.org/1999/xlink">
    <!-- Generator: Sketch 42 (36781) - http://www.bohemiancoding.com/sketch -->
    <title>package icon</title>
    <desc>Created with Sketch.</desc>
    <defs></defs>
    <g id="Symbols" stroke="none" stroke-width="1" fill="none" fill-rule="evenodd">
        <g id="Cart-Open---Desktop" transform="translate(-24.000000, -908.000000)" fill="#E75525">
            <g id="Cart-Open" transform="translate(3.000000, -1.000000)">
                <g id="package-icon" transform="translate(21.000000, 909.000000)">
                    <path d="M13.6228437,13.0367439 C13.3697031,12.3727195 13.1166953,11.7088293 12.8639531,11.0448049 C12.6579609,10.5036585 12.4519687,9.96237805 12.2461094,9.42123171 C12.8057812,9.54987805 13.3655859,9.67852439 13.9252578,9.80717073 C14.2586172,9.88363415 14.5925078,9.96090244 14.9261328,10.0381707 C14.9358281,9.98786585 14.9457891,9.93756098 14.9560156,9.88712195 C13.8532734,8.79839024 12.7503984,7.70992683 11.6477891,6.62132927 C7.77258594,7.7622439 3.89791406,8.90436585 0.02284375,10.0474268 C1.85844531,11.9858415 3.69364844,13.9246585 5.531375,15.8632073 C8.22826562,14.9209634 10.9256875,13.9787195 13.6228437,13.0367439 L13.6228437,13.0367439 Z" id="Shape"></path>
                    <path d="M22.4006875,6.66090244 C22.0375781,7.23585366 21.7228125,7.84219512 21.4563906,8.46906098 C21.0635312,9.39359756 20.7765234,10.3630732 20.5907187,11.3514634 C20.9633906,11.4375854 21.3355312,11.5238415 21.7091328,11.6096951 C22.1856641,11.719561 22.6620625,11.8294268 23.1385937,11.9392927 C22.8328594,12.3244268 22.5269922,12.7096951 22.2212578,13.0948293 C22.0946875,13.2541951 21.9681172,13.413561 21.8415469,13.5729268 C24.0271094,14.3363537 26.2130703,15.0997805 28.3998281,15.8630732 C30.2352969,13.9246585 32.0702344,11.9858415 33.9057031,10.0472927 C32.1714375,9.53512195 30.436375,9.02402439 28.7013125,8.51373171 C26.6008828,7.89612195 24.5005859,7.27837805 22.4006875,6.66090244 L22.4006875,6.66090244 Z" id="Shape"></path>
                    <polygon id="Shape" points="16.9645391 20.6657805 16.9645391 32.8710854 6.31377344 27.3540488 5.53110937 15.8630732"></polygon>
                    <polygon id="Shape" points="27.6155703 27.3540488 16.9645391 32.8710854 16.9645391 20.6657805 28.3996953 15.8630732"></polygon>
                    <path d="M19.5481406,12.0620366 C20.4013281,5.49812195 25.1242734,0.812658537 30.7357344,0.964109756 C23.9563203,-2.07054878 16.7653203,2.80057317 15.6755937,11.1637927 C15.025875,11.0131463 14.3724375,10.8614268 13.7213906,10.7117195 C14.7166875,13.3263659 15.714375,15.9400732 16.7098047,18.555122 C18.3071406,16.5423902 19.9060703,14.527378 21.5043359,12.5142439 C20.8512969,12.3637317 20.1998516,12.2126829 19.5481406,12.0620366 L19.5481406,12.0620366 Z" id="Shape"></path>
                </g>
            </g>
        </g>
    </g>
</svg>