<?xml version="1.0" encoding="UTF-8"?>
<svg width="72px" height="72px" viewBox="0 0 72 72" version="1.1" xmlns="http://www.w3.org/2000/svg" xmlns:xlink="http://www.w3.org/1999/xlink">
    <title>icon-benefits-MFGM-DHA</title>
    <g id="PDP" stroke="none" stroke-width="1" fill="none" fill-rule="evenodd">
        <g id="icons-benefits" transform="translate(-1076.000000, -47.000000)">
            <g id="icon-benefits-MFGM-DHA" transform="translate(1076.000000, 47.000000)">
                <polygon id="Fill-1" points="0 72 72 72 72 0 0 0"></polygon>
                <g id="Group-26" transform="translate(7.000000, 11.000000)">
                    <path d="M35.5967,23.8057 C35.2657,23.2317 34.4547,22.7627 33.7947,22.7627 L22.7847,22.7627 C22.1247,22.7627 21.3147,23.2317 20.9837,23.8057 L15.4807,33.3517 C15.1497,33.9257 15.1497,34.8637 15.4807,35.4377 L20.9837,44.9837 C21.3137,45.5567 22.1247,46.0267 22.7847,46.0267 L33.7937,46.0267 C34.4537,46.0267 35.2657,45.5567 35.5957,44.9837 L41.0997,35.4377 C41.4297,34.8637 41.4297,33.9257 41.0997,33.3517 L35.5967,23.8057 Z" id="Fill-2" fill="#CDEEFF"></path>
                    <path d="M61.207,23.8491 C61.536,23.2751 61.535,22.3361 61.204,21.7621 L55.694,12.2011 C55.363,11.6271 54.553,11.1581 53.893,11.1581 L42.9,11.1561 C42.24,11.1561 41.43,11.6261 41.101,12.2001 L35.617,21.7581 C35.288,22.3321 35.289,23.2711 35.619,23.8451 L41.13,33.4071 C41.461,33.9801 42.271,34.4501 42.932,34.4501 L53.924,34.4511 C54.584,34.4511 55.394,33.9811 55.724,33.4071 L61.207,23.8491 Z" id="Fill-4" fill="#CDEEFF"></path>
                    <path d="M28.5908,19.8022 C28.2598,19.2292 27.4488,18.7592 26.7888,18.7592 L15.7788,18.7592 C15.1188,18.7592 14.3088,19.2282 13.9778,19.8022 L8.4748,29.3482 C8.1448,29.9222 8.1448,30.8602 8.4748,31.4342 L13.9778,40.9802 C14.3088,41.5542 15.1188,42.0232 15.7788,42.0232 L26.7878,42.0232 C27.4488,42.0232 28.2598,41.5542 28.5898,40.9802 L34.0938,31.4342 C34.4238,30.8612 34.4238,29.9222 34.0938,29.3482 L28.5908,19.8022 Z" id="Stroke-6" stroke="#00257A" stroke-width="1.8"></path>
                    <path d="M54.2012,19.8462 C54.5302,19.2722 54.5292,18.3322 54.1992,17.7592 L48.6882,8.1972 C48.3582,7.6232 47.5472,7.1542 46.8872,7.1542 L35.8942,7.1532 C35.2342,7.1532 34.4252,7.6222 34.0952,8.1972 L28.6122,17.7552 C28.2822,18.3292 28.2832,19.2682 28.6142,19.8422 L34.1242,29.4032 C34.4552,29.9772 35.2652,30.4462 35.9262,30.4462 L46.9182,30.4482 C47.5782,30.4482 48.3892,29.9782 48.7182,29.4042 L54.2012,19.8462 Z" id="Stroke-8" stroke="#00257A" stroke-width="1.8"></path>
                    <line x1="8.2373" y1="30.4224" x2="5.7183" y2="30.4294" id="Stroke-10" stroke="#00257A" stroke-width="1.8" stroke-linecap="round"></line>
                    <path d="M4.2637,31.8335 C5.0407,30.9545 4.9587,29.6105 4.0787,28.8335 C3.2007,28.0565 1.8577,28.1395 1.0797,29.0185 C0.3027,29.8975 0.3847,31.2405 1.2647,32.0185 C2.1437,32.7955 3.4867,32.7125 4.2637,31.8335 Z" id="Stroke-12" stroke="#00257A" stroke-width="1.8"></path>
                    <line x1="47.9141" y1="7.4624" x2="49.3351" y2="5.3834" id="Stroke-14" stroke="#00257A" stroke-width="1.8" stroke-linecap="round"></line>
                    <path d="M49.002,3.3896 C49.286,4.5286 50.439,5.2206 51.578,4.9366 C52.717,4.6526 53.41,3.4996 53.126,2.3606 C52.842,1.2216 51.689,0.5296 50.55,0.8126 C49.411,1.0976 48.718,2.2506 49.002,3.3896 Z" id="Stroke-16" stroke="#00257A" stroke-width="1.8"></path>
                    <line x1="48.0557" y1="30.0703" x2="49.4697" y2="32.1533" id="Stroke-18" stroke="#00257A" stroke-width="1.8" stroke-linecap="round"></line>
                    <path d="M51.4463,32.5752 C50.2833,32.4222 49.2163,33.2422 49.0623,34.4052 C48.9103,35.5692 49.7293,36.6362 50.8923,36.7892 C52.0563,36.9422 53.1243,36.1222 53.2763,34.9592 C53.4293,33.7952 52.6103,32.7282 51.4463,32.5752 Z" id="Stroke-20" stroke="#00257A" stroke-width="1.8"></path>
                    <line x1="27.8604" y1="41.6909" x2="29.2744" y2="43.7749" id="Stroke-22" stroke="#00257A" stroke-width="1.8" stroke-linecap="round"></line>
                    <path d="M31.252,44.1958 C30.088,44.0428 29.021,44.8628 28.868,46.0258 C28.715,47.1898 29.534,48.2568 30.698,48.4098 C31.861,48.5628 32.929,47.7428 33.082,46.5798 C33.234,45.4158 32.415,44.3488 31.252,44.1958 Z" id="Stroke-24" stroke="#00257A" stroke-width="1.8"></path>
                </g>
            </g>
        </g>
    </g>
</svg>