<?xml version="1.0" encoding="utf-8"?>
<!-- Generator: Adobe Illustrator 24.3.0, SVG Export Plug-In . SVG Version: 6.00 Build 0)  -->
<svg version="1.1" id="Layer_1" xmlns="http://www.w3.org/2000/svg" xmlns:xlink="http://www.w3.org/1999/xlink" x="0px" y="0px"
	 viewBox="0 0 53 52" style="enable-background:new 0 0 53 52;" xml:space="preserve">
<style type="text/css">
	.st0{fill-rule:evenodd;clip-rule:evenodd;fill:#FFFFFF;stroke:#FFFFFF;}
</style>
<g id="Flexible-Landing">
	<g id="Help-Center-and-FAQs-footer----S" transform="translate(-88.000000, -388.000000)">
		<g id="WhatsApp" transform="translate(2.940000, 388.000000)">
			<g id="icon-whatsapp" transform="translate(87.000000, 0.000000)">
				<g transform="translate(0.000000, 0.164773)">
					<path id="Fill-1" class="st0" d="M36.5,30.2c-0.6-0.3-3.7-1.8-4.3-2c-0.6-0.2-1-0.3-1.4,0.3c-0.4,0.6-1.6,2-2,2.4
						c-0.4,0.4-0.7,0.5-1.3,0.2c-0.6-0.3-2.6-0.9-5-3c-1.8-1.6-3.1-3.6-3.5-4.2c-0.4-0.6,0-0.9,0.3-1.2c0.3-0.3,0.6-0.7,0.9-1.1
						c0.3-0.4,0.4-0.6,0.6-1c0.2-0.4,0.1-0.8-0.1-1.1c-0.2-0.3-1.4-3.3-1.9-4.5c-0.5-1.2-1-1-1.4-1c-0.4,0-0.8,0-1.2,0
						c-0.4,0-1.1,0.2-1.7,0.8c-0.6,0.6-2.2,2.1-2.2,5.1c0,3,2.2,5.9,2.5,6.3c0.3,0.4,4.4,6.5,10.6,9.2c1.5,0.6,2.6,1,3.5,1.3
						c1.5,0.5,2.8,0.4,3.9,0.2c1.2-0.2,3.7-1.5,4.2-2.9c0.5-1.4,0.5-2.6,0.4-2.9S37.1,30.5,36.5,30.2 M25.1,45.3L25.1,45.3
						c-3.7,0-7.4-1-10.5-2.8l-0.8-0.4l-7.8,2l2.1-7.4l-0.5-0.8c-2.1-3.2-3.2-6.9-3.2-10.7C4.4,14,13.7,4.9,25.1,4.9
						c5.5,0,10.7,2.1,14.6,5.9c3.9,3.8,6.1,8.9,6.1,14.3C45.8,36.3,36.5,45.3,25.1,45.3 M42.7,8c-4.7-4.6-11-7.1-17.6-7.1
						C11.4,0.8,0.2,11.7,0.2,25.1c0,4.3,1.1,8.5,3.3,12.1L0,49.8l13.2-3.4c3.6,1.9,7.7,3,11.9,3h0c0,0,0,0,0,0
						C38.8,49.4,50,38.5,50,25.1C50,18.6,47.4,12.5,42.7,8"/>
				</g>
			</g>
		</g>
	</g>
</g>
</svg>
