<?xml version="1.0" encoding="UTF-8"?>
<svg width="73px" height="72px" viewBox="0 0 73 72" version="1.1" xmlns="http://www.w3.org/2000/svg" xmlns:xlink="http://www.w3.org/1999/xlink">
    <title>icon-benefits-#1-brand-recommended-by pediatricians</title>
    <g id="PDP" stroke="none" stroke-width="1" fill="none" fill-rule="evenodd">
        <g id="icons-benefits" transform="translate(-47.000000, -47.000000)">
            <g id="icon-benefits-#1-brand-recommended-by-pediatricians" transform="translate(47.000000, 47.000000)">
                <polygon id="Fill-1" points="0.581 71.999 72.581 71.999 72.581 -0.001 0.581 -0.001"></polygon>
                <g id="Group-9" transform="translate(20.000000, 9.104000)">
                    <path d="M37.0703,14.2036 L31.6323,5.3446 C30.6333,3.7166 28.8503,2.7296 26.9363,2.74443144 L16.6453,2.8256 C14.6733,2.8416 12.8623,3.9176 11.9103,5.6406 L9.3333,10.3036 L6.8183,14.8536 C5.8743,16.5616 5.9193,18.6436 6.9353,20.3096 L12.3103,29.1216 C13.3053,30.7526 15.0843,31.7446 16.9983,31.7356607 L27.3633,31.6826 C29.3413,31.6726 31.1593,30.5966 32.1143,28.8686 L37.1953,19.6736 C38.1423,17.9596 38.0943,15.8716 37.0703,14.2036" id="Fill-3" fill="#CDEEFF"></path>
                    <path d="M37.0703,14.2036 L31.6323,5.3446 C30.6333,3.7166 28.8503,2.7296 26.9363,2.74443144 L16.6453,2.8256 C14.6733,2.8416 12.8623,3.9176 11.9103,5.6406 L9.3333,10.3036 L6.8183,14.8536 C5.8743,16.5616 5.9193,18.6436 6.9353,20.3096 L12.3103,29.1216 C13.3053,30.7526 15.0843,31.7446 16.9983,31.7356607 L27.3633,31.6826 C29.3413,31.6726 31.1593,30.5966 32.1143,28.8686 L37.1953,19.6736 C38.1423,17.9596 38.0943,15.8716 37.0703,14.2036 Z" id="Stroke-4" stroke="#CDEEFF" stroke-linecap="round" stroke-linejoin="round"></path>
                    <polygon id="Fill-5" fill="#CDEEFF" points="14.4702 37.5728 14.4702 56.1168 22.1552 49.8878 29.8392 56.1168 29.8392 44.0198 29.8392 37.5728"></polygon>
                    <polygon id="Stroke-6" stroke="#CDEEFF" stroke-linecap="round" stroke-linejoin="round" points="14.4702 37.5728 14.4702 56.1168 22.1552 49.8878 29.8392 56.1168 29.8392 44.0198 29.8392 37.5728"></polygon>
                    <path d="M31.8037,11.5762 L26.3657,2.7182 C25.3657,1.0892 23.5837,0.1022 21.6697,0.118008391 L11.3777,0.1992 C9.4057,0.2142 7.5957,1.2902 6.6427,3.0132 L4.0657,7.6762 L1.5517,12.2262 C0.6077,13.9342 0.6527,16.0162 1.6687,17.6832 L7.0437,26.4942 C8.0387,28.1262 9.8177,29.1182 11.7317,29.1082749 L22.0967,29.0562 C24.0747,29.0462 25.8917,27.9692 26.8467,26.2412 L31.9287,17.0462 C32.8757,15.3332 32.8277,13.2442 31.8037,11.5762 Z" id="Stroke-7" stroke="#00257A" stroke-width="1.8" stroke-linecap="round" stroke-linejoin="round"></path>
                    <polygon id="Stroke-8" stroke="#00257A" stroke-width="1.8" stroke-linecap="round" stroke-linejoin="round" points="9.2036 34.9453 9.2036 53.4903 16.8876 47.2603 24.5726 53.4903 24.5726 41.3933 24.5726 34.9453"></polygon>
                </g>
            </g>
        </g>
    </g>
</svg>