<?xml version="1.0" encoding="UTF-8"?>
<svg width="20px" height="20px" viewBox="0 0 20 20" version="1.1" xmlns="http://www.w3.org/2000/svg" xmlns:xlink="http://www.w3.org/1999/xlink">
    <!-- Generator: sketchtool 63.1 (101010) - https://sketch.com -->
    <title>19485E61-4AA9-432A-A80E-59AC8833CDD2</title>
    <desc>Created with sketchtool.</desc>
    <defs>
        <path d="M14.4007647,2.35294117e-05 C17.4273529,2.35294117e-05 19.8898235,2.46237647 19.8895882,5.48884706 L19.8895882,5.48884706 L19.8895882,14.4008471 C19.8895882,17.4273176 17.4273529,19.8895529 14.4007647,19.8895529 L14.4007647,19.8895529 L5.48864706,19.8895529 C2.46229412,19.8895529 5.88235295e-05,17.4274353 5.88235295e-05,14.4008471 L5.88235295e-05,14.4008471 L5.88235295e-05,5.48884706 C5.88235295e-05,2.46237647 2.46229412,2.35294117e-05 5.48864706,2.35294117e-05 L5.48864706,2.35294117e-05 Z M14.4007647,1.76472941 L5.48864706,1.76472941 C3.43535294,1.76472941 1.76476471,3.43543529 1.76476471,5.48884706 L1.76476471,5.48884706 L1.76476471,14.4008471 C1.76476471,16.4543765 3.43535294,18.1250824 5.48864706,18.1248471 L5.48864706,18.1248471 L14.4008824,18.1248471 C16.4544118,18.1248471 18.1251176,16.4543765 18.1251176,14.4008471 L18.1251176,14.4008471 L18.1248824,14.4008471 L18.1248824,5.48884706 C18.1248824,3.43543529 16.4542941,1.76472941 14.4007647,1.76472941 L14.4007647,1.76472941 Z M9.9448,4.81997647 C12.7708,4.81997647 15.0698588,7.11903529 15.0698588,9.94503529 C15.0698588,12.7709176 12.7708,15.0698588 9.9448,15.0698588 C7.1188,15.0698588 4.81974118,12.7709176 4.81974118,9.94503529 C4.81974118,7.11903529 7.1188,4.81997647 9.9448,4.81997647 Z M9.9448,6.58456471 C8.09185882,6.58456471 6.58444706,8.09197647 6.58444706,9.94491765 C6.58444706,11.7977412 8.09197647,13.3050353 9.9448,13.3050353 C11.7977412,13.3050353 13.3051529,11.7977412 13.3051529,9.94491765 C13.3051529,8.09197647 11.7977412,6.58456471 9.9448,6.58456471 Z M15.2848118,3.32364706 C15.6259882,3.32364706 15.9601059,3.46129412 16.2001059,3.70247059 C16.4412824,3.94247059 16.5789294,4.27658824 16.5789294,4.61776471 C16.5789294,4.95776471 16.4412824,5.29188235 16.2001059,5.53305882 C15.9589294,5.77305882 15.6259882,5.91188235 15.2848118,5.91188235 C14.9448118,5.91188235 14.6108118,5.77305882 14.3706941,5.53305882 C14.1295176,5.29188235 13.9906941,4.95788235 13.9906941,4.61776471 C13.9906941,4.27658824 14.1294,3.94247059 14.3706941,3.70247059 C14.6108118,3.46129412 14.9448118,3.32364706 15.2848118,3.32364706 Z" id="path-1"></path>
    </defs>
    <g id="Icon-Sheet" stroke="none" stroke-width="1" fill="none" fill-rule="evenodd">
        <g id="Style-Sheet---Icons" transform="translate(-149.000000, -1175.000000)">
            <g id="Social" transform="translate(80.000000, 1073.000000)">
                <g id="Icons" transform="translate(3.000000, 100.000000)">
                    <g id="Icon-/-UI-/-Social-/-Instagram" transform="translate(64.000000, 0.000000)">
                        <g id="Group-7" transform="translate(2.000000, 2.000000)">
                            <mask id="mask-2" fill="white">
                                <use xlink:href="#path-1"></use>
                            </mask>
                            <use id="Combined-Shape" fill="#00257A" xlink:href="#path-1"></use>
                            <g id="Color-Fill-/-Core-/-Blue-1" mask="url(#mask-2)">
                                <g transform="translate(-2.000000, -2.000000)" id="Swatch">
                                    <g>
                                        <polygon id="Rectangle" fill="#00257A" points="0 4.56301663e-14 24 4.56301663e-14 24 24 0 24"></polygon>
                                    </g>
                                </g>
                            </g>
                        </g>
                    </g>
                </g>
            </g>
        </g>
    </g>
</svg>