<?xml version="1.0" encoding="utf-8"?>
<svg width="15px" height="17px" viewBox="0 0 15 17" version="1.1" xmlns:xlink="http://www.w3.org/1999/xlink" xmlns="http://www.w3.org/2000/svg">
  <desc>Created with Lunacy</desc>
  <path d="M2.87904 2.01361e-10L12.121 8.47741e-10Q12.1754 8.51546e-10 12.2296 0.00355867Q12.2839 0.00711733 12.3379 0.0142194Q12.3918 0.0213215 12.4452 0.0319366Q12.4985 0.0425517 12.5511 0.0566343Q12.6036 0.0707169 12.6551 0.0882067Q12.7066 0.105697 12.7569 0.126519Q12.8072 0.147341 12.8559 0.171406Q12.9047 0.195471 12.9518 0.222676Q12.999 0.249881 13.0442 0.28011Q13.0894 0.310339 13.1326 0.343461Q13.1757 0.376584 13.2166 0.412459Q13.2575 0.448333 13.296 0.486806Q13.3344 0.52528 13.3703 0.566186Q13.4062 0.607093 13.4393 0.650258Q13.4724 0.693423 13.5026 0.738662Q13.5328 0.7839 13.56 0.831018Q13.5872 0.878137 13.6113 0.926933Q13.6353 0.975729 13.6561 1.02599Q13.6769 1.07626 13.6944 1.12778Q13.7119 1.1793 13.7259 1.23185Q13.74 1.2844 13.7506 1.33776Q13.7612 1.39112 13.7683 1.44505Q13.7754 1.49899 13.7789 1.55328Q13.7825 1.60756 13.7825 1.66197Q13.7824 1.71637 13.7789 1.77065Q13.7753 1.82493 13.7682 1.87887Q13.7611 1.9328 13.7504 1.98616Q13.7398 2.03951 13.7257 2.09205Q13.7116 2.1446 13.6941 2.1961Q13.6766 2.24761 13.6558 2.29787Q13.6349 2.34812 13.6108 2.3969Q13.5868 2.44568 13.5595 2.49279L8.93859 10.4896Q8.91139 10.5367 8.88116 10.5819Q8.85094 10.6271 8.81783 10.6702Q8.78471 10.7134 8.74885 10.7542Q8.71299 10.7951 8.67453 10.8335Q8.63607 10.872 8.59518 10.9078Q8.55429 10.9436 8.51115 10.9767Q8.46801 11.0098 8.42279 11.04Q8.37758 11.0702 8.33048 11.0974Q8.28339 11.1246 8.23462 11.1486Q8.18585 11.1727 8.13561 11.1935Q8.08538 11.2143 8.03389 11.2317Q7.9824 11.2492 7.92988 11.2633Q7.87736 11.2773 7.82403 11.2879Q7.7707 11.2985 7.71679 11.3056Q7.66289 11.3127 7.60863 11.3163Q7.55437 11.3198 7.5 11.3198Q7.44563 11.3198 7.39137 11.3163Q7.33712 11.3127 7.28321 11.3056Q7.2293 11.2985 7.17597 11.2879Q7.12264 11.2773 7.07012 11.2633Q7.0176 11.2492 6.96611 11.2317Q6.91462 11.2143 6.86439 11.1935Q6.81415 11.1727 6.76538 11.1486Q6.71661 11.1246 6.66952 11.0974Q6.62243 11.0702 6.57721 11.04Q6.53199 11.0098 6.48885 10.9767Q6.44571 10.9436 6.40482 10.9078Q6.36393 10.872 6.32547 10.8335Q6.28701 10.7951 6.25115 10.7542Q6.21529 10.7134 6.18217 10.6702Q6.14906 10.6271 6.11884 10.5819Q6.08861 10.5367 6.06141 10.4896L1.44045 2.49279Q1.41323 2.44568 1.38915 2.3969Q1.36507 2.34812 1.34424 2.29787Q1.3234 2.24761 1.3059 2.1961Q1.28839 2.14459 1.2743 2.09205Q1.2602 2.03951 1.24957 1.98616Q1.23894 1.9328 1.23182 1.87887Q1.2247 1.82493 1.22113 1.77065Q1.21756 1.71637 1.21754 1.66196Q1.21753 1.60756 1.22107 1.55328Q1.22461 1.49899 1.2317 1.44505Q1.23879 1.39112 1.24939 1.33776Q1.25999 1.2844 1.27406 1.23185Q1.28812 1.1793 1.3056 1.12778Q1.32307 1.07626 1.34388 1.02599Q1.36469 0.975729 1.38874 0.926933Q1.41279 0.878137 1.43999 0.831018Q1.46718 0.7839 1.49739 0.738662Q1.52761 0.693423 1.56072 0.650258Q1.59383 0.607093 1.62969 0.566186Q1.66556 0.52528 1.70402 0.486806Q1.74248 0.448333 1.78338 0.412459Q1.82428 0.376584 1.86743 0.343461Q1.91059 0.310339 1.95582 0.28011Q2.00105 0.249881 2.04816 0.222676Q2.09527 0.195471 2.14406 0.171406Q2.19285 0.147341 2.24311 0.126519Q2.29337 0.105697 2.34488 0.0882067Q2.39639 0.0707169 2.44894 0.0566343Q2.50149 0.0425517 2.55484 0.0319366Q2.6082 0.0213215 2.66213 0.0142194Q2.71607 0.00711733 2.77036 0.00355867Q2.82464 1.97556e-10 2.87904 2.01361e-10L2.87904 2.01361e-10Z" transform="matrix(-4.371139E-08 -1 1 -4.371139E-08 0.7001953 15.69995)" id="Rectangle-Copy-13" fill="#FFA083" stroke="none" />
</svg>