<?xml version="1.0" encoding="utf-8"?>
<svg width="17px" height="17px" viewBox="0 0 17 17" version="1.1" xmlns:xlink="http://www.w3.org/1999/xlink" xmlns="http://www.w3.org/2000/svg">
  <desc>Created with Lunacy</desc>
  <path d="M2.0022 0.0016034L8.9954 0.00720367Q9.0935 0.00728223 9.19113 0.0169665Q9.28876 0.0266509 9.38496 0.0458479Q9.48117 0.0650449 9.57504 0.09357Q9.6689 0.122095 9.75952 0.159674Q9.85015 0.197254 9.93665 0.243526Q10.0232 0.289798 10.1047 0.344318Q10.1863 0.398838 10.2621 0.461082Q10.3379 0.523327 10.4073 0.592697Q10.4767 0.662067 10.5389 0.737897Q10.6012 0.813726 10.6557 0.895286Q10.7102 0.976846 10.7565 1.06335Q10.8027 1.14986 10.8403 1.24048Q10.8779 1.3311 10.9064 1.42497Q10.935 1.51883 10.9542 1.61504Q10.9734 1.71125 10.983 1.80887Q10.9927 1.9065 10.9928 2.0046L10.9984 8.9978Q10.9985 9.0961 10.9889 9.19394Q10.9793 9.29178 10.9602 9.3882Q10.9411 9.48463 10.9126 9.57872Q10.8841 9.6728 10.8465 9.76364Q10.809 9.85448 10.7626 9.94119Q10.7163 10.0279 10.6617 10.1096Q10.6071 10.1914 10.5448 10.2674Q10.4824 10.3434 10.4129 10.4129Q10.3434 10.4824 10.2674 10.5448Q10.1914 10.6071 10.1096 10.6617Q10.0279 10.7163 9.94119 10.7626Q9.85448 10.809 9.76364 10.8465Q9.6728 10.8841 9.57872 10.9126Q9.48463 10.9411 9.3882 10.9602Q9.29178 10.9793 9.19394 10.9889Q9.0961 10.9985 8.9978 10.9984L2.0046 10.9928Q1.9065 10.9927 1.80887 10.983Q1.71125 10.9734 1.61504 10.9542Q1.51883 10.935 1.42497 10.9064Q1.3311 10.8779 1.24048 10.8403Q1.14986 10.8027 1.06335 10.7565Q0.976843 10.7102 0.895284 10.6557Q0.813724 10.6012 0.737894 10.5389Q0.662065 10.4767 0.592695 10.4073Q0.523324 10.3379 0.46108 10.2621Q0.398836 10.1863 0.344316 10.1047Q0.289796 10.0232 0.243523 9.93665Q0.197251 9.85015 0.159672 9.75952Q0.122093 9.6689 0.0935679 9.57504Q0.0650428 9.48117 0.0458458 9.38496Q0.0266488 9.28876 0.0169646 9.19113Q0.00728026 9.0935 0.00720171 8.9954L0.00160296 2.0022Q0.00152426 1.9039 0.0110913 1.80606Q0.0206583 1.70822 0.0397787 1.61179Q0.0588992 1.51537 0.0873885 1.42128Q0.115878 1.32719 0.153461 1.23636Q0.191044 1.14552 0.237359 1.05881Q0.283674 0.972099 0.338272 0.89035Q0.392871 0.808602 0.455228 0.732605Q0.517584 0.656608 0.587096 0.587096Q0.656608 0.517584 0.732605 0.455228Q0.808602 0.392871 0.89035 0.338273Q0.972099 0.283674 1.05881 0.237359Q1.14552 0.191045 1.23636 0.153461Q1.32719 0.115878 1.42128 0.0873888Q1.51537 0.0588995 1.61179 0.0397791Q1.70822 0.0206587 1.80606 0.0110917Q1.9039 0.00152467 2.0022 0.0016034L2.0022 0.0016034Z" transform="matrix(0.7071066 0.7071069 -0.7071069 0.7071066 8.485352 0.7070313)" id="Rectangle" fill="#FF9D10" stroke="none" />
</svg>