<svg xmlns="http://www.w3.org/2000/svg" width="2.2193in" height="0.6541in" viewBox="0 0 159.789 47.098" preserveAspectRatio="xMidYMid meet"><defs><style>.a{fill:#d0b2a4;}.b{fill:#3d5567;}</style></defs><path class="a" d="M2.191,12.055H4.714c.04,0,.04,0,.04.04,0,.521,0,1.121-.04,1.722,0,.04-.28.04-.28,0a3.5541,3.5541,0,0,0-.561-1.282c-.16-.16-.32-.2-.841-.2H2.073a4.9388,4.9388,0,0,0-.04,1.041v1h.36c.441,0,.6-.04.681-.12s.12-.24.24-.841c0-.04.28-.04.28,0,0,.28-.04.721-.04,1.041,0,.4.04.8.04,1.121,0,.04-.24.04-.24,0-.12-.561-.16-.721-.28-.841a1.1,1.1,0,0,0-.641-.12h-.4v1.642c0,.4,0,.481.04.521s.12.04.881.08c.04,0,.04.28,0,.28H.03c-.04,0-.04-.28,0-.28.6,0,.721,0,.761-.04s.04-.12.04-.6V13.136a2.5027,2.5027,0,0,0-.04-.8c-.04-.04-.16-.04-.721-.08-.04,0-.04-.28,0-.28A17.4245,17.4245,0,0,0,2.191,12.055Z"/><path class="a" d="M11.082,16.461a2.3442,2.3442,0,0,1-.681-1.8,2.5272,2.5272,0,0,1,.761-1.762,2.9752,2.9752,0,0,1,2.239-.924,2.7,2.7,0,0,1,1.962.8,2.3867,2.3867,0,0,1,.681,1.722,2.9194,2.9194,0,0,1-4.962,1.964Zm.641-1.6a2.7479,2.7479,0,0,0,.24,1.442,1.3061,1.3061,0,0,0,1.242.681,1.29,1.29,0,0,0,1.282-.761,3.7648,3.7648,0,0,0,.28-1.642,3.51,3.51,0,0,0-.28-1.722c-.16-.36-.521-.6-1.242-.6a1.419,1.419,0,0,0-1.282.761,5.0734,5.0734,0,0,0-.24,1.839Z"/><path class="a" d="M23.017,12.055H24.46a2.6851,2.6851,0,0,1,1.922.561.942.942,0,0,1,.24.681c0,.8-.881,1.282-1.722,1.4v.04c.8.2,1.2.481,1.4,1.2.2.8.28.921.481.921.16,0,.32-.2.521-.6,0-.04.28.08.24.12-.28.6-.6.921-1.081.921a1.1468,1.1468,0,0,1-.881-.32,2.408,2.408,0,0,1-.521-1.2c-.16-.761-.36-.921-.881-.921h-.6c-.04,0-.04,0-.04.04V16.62c0,.16,0,.2.04.24s.12.04.761.08c.04,0,.04.32,0,.32-.12,0-1.682-.04-2.723,0-.04,0-.04-.32,0-.32.521,0,.681-.04.721-.08s.04-.12.04-.4c0-1.2.04-1.722.04-2.043v-1.6a1.5993,1.5993,0,0,0-.04-.441c-.04-.04-.08-.04-.721-.04-.04,0-.04-.28,0-.28Zm.521.6v1.882h.561c.561,0,1-.08,1.2-.441a1.7571,1.7571,0,0,0,.12-.761,1.4,1.4,0,0,0-.12-.641c-.12-.24-.36-.4-1.081-.4-.561,0-.641,0-.681.04Z"/><path class="a" d="M32.668,12.175a.1279.1279,0,0,1,.12-.12c.24,0,1.522.04,2.163.04.761,0,1.722,0,2.523-.04.08,0,.12,0,.12.04,0,.6.04,1.161,0,1.922,0,.04-.24.04-.24,0a6.0692,6.0692,0,0,0-.641-1.522c-.12-.12-.28-.16-.721-.16h-.28c-.04.04-.04.12-.04.961,0,1.081-.04,2.043-.04,3.084,0,.32,0,.4.04.441s.12.04.881.12c.04,0,0,.28,0,.28-1.041-.04-2-.04-3,0-.04,0-.04-.28,0-.28.721-.04.841-.04.881-.08s.08-.2.08-.681c.04-1.2.04-1.882.04-3.124,0-.6,0-.641-.04-.681a.9579.9579,0,0,0-.36-.04.807.807,0,0,0-.641.2,4.7446,4.7446,0,0,0-.721,1.562c0,.04-.24.04-.24,0C32.628,13.297,32.628,12.696,32.668,12.175Z"/><path class="a" d="M45.568,12.055c.04,0,.04.28,0,.28-.441.04-.521.04-.561.08s-.04.12.04.24c.4.721.721,1.282,1.161,2h0c.4-.6.681-1.041.961-1.482a1.0445,1.0445,0,0,0,.2-.561c0-.16-.08-.2-.561-.24-.04,0,0-.28,0-.28a9.3965,9.3965,0,0,1,1.041.04h.841c.04,0,.04.28,0,.28a1.2364,1.2364,0,0,0-.521.08,2.6537,2.6537,0,0,0-.761.841c-.2.32-.481.761-.961,1.482a.8078.8078,0,0,0-.12.441v1.081c0,.441.04.521.08.561s.12.04.8.08c.04,0,0,.28,0,.28H44.368c-.04,0-.04-.28,0-.28.681,0,.761-.04.841-.08.04-.04.04-.16.08-.4V15.339c0-.2,0-.24-.08-.36-.521-.841-.681-1.081-1.161-1.882a4.0937,4.0937,0,0,0-.36-.521c-.08-.08-.16-.12-.641-.12-.04,0,0-.28,0-.28A16.39,16.39,0,0,1,45.568,12.055Z"/><path class="a" d="M63.426,12.095c.641,0,1.362,0,2.163-.04.04,0,.08.04.04.08-.04.521-.04,1.242-.08,1.722,0,.04-.24.04-.24,0a3.2806,3.2806,0,0,0-.561-1.242c-.2-.2-.32-.24-1.121-.24-.641,0-.721,0-.8.04a4.44,4.44,0,0,0-.04.961v.959h.521a1.093,1.093,0,0,0,.681-.16c.08-.08.12-.24.2-.721,0-.04.28-.04.28,0-.04.8,0,1.6,0,2.163,0,.04-.24.04-.24,0-.12-.6-.16-.8-.24-.881s-.16-.08-.641-.08h-.5209v.841a5.029,5.029,0,0,0,.04,1.322,1.9266,1.9266,0,0,0,.721.08h.681c.36,0,.521-.04.641-.16a3.7732,3.7732,0,0,0,.6-1.522c0-.04.28-.04.28,0,0,.6-.04,1.282-.04,1.882,0,.04,0,.04-.08.04h-4.806c-.04,0-.04-.32,0-.32a4.0032,4.0032,0,0,0,.761-.04,5.7785,5.7785,0,0,0,.08-1.522v-2.08c0-.681,0-.841-.04-.881s-.12-.04-.681-.08c-.04,0-.04-.28,0-.28A17.0623,17.0623,0,0,0,63.426,12.095Z"/><path class="a" d="M74.239,12.055c.04,0,.04.28,0,.28-.441,0-.561,0-.561.04-.04.04-.08.16-.08.921V16.18c0,.521.04.6.08.681.04.04.12.04.681.04.04,0,.04.28,0,.32H71.676c-.04,0-.04-.28,0-.28a2.3312,2.3312,0,0,0,.721-.04c.04-.04.04-.16.04-.641V13.216c0-.561-.04-.761-.08-.8s-.16-.04-.681-.04c0,0-.04-.28,0-.28C72.597,12.055,73.321,12.055,74.239,12.055Z"/><path class="a" d="M84.012,12.335c.12,0,.28-.16.441-.36.04,0,.2,0,.2.04a13.0615,13.0615,0,0,0-.12,1.762c0,.04-.24.04-.24.04a5.3324,5.3324,0,0,0-.726-1.242,1.071,1.071,0,0,0-.841-.28,1.24,1.24,0,0,0-1.161.681,3.72,3.72,0,0,0-.28,1.722,3.9408,3.9408,0,0,0,.24,1.762,1.1,1.1,0,0,0,1.041.561,1.0741,1.0741,0,0,0,.961-.481,2.5005,2.5005,0,0,0,.08-.841c0-.441-.04-.521-.08-.561s-.2-.04-.721-.04c-.04,0-.04-.28,0-.28.881,0,1.562,0,2.483-.04.04,0,.04.24,0,.28-.4411.04-.5611.04-.6.08a4.6294,4.6294,0,0,0-.04,1.161,6.4993,6.4993,0,0,0,.04.921c0,.04-.2.08-.24.08q-.36-.4811-.481-.481a3.1123,3.1123,0,0,1-1.522.6,2.4659,2.4659,0,0,1-1.762-.721,2.4058,2.4058,0,0,1-.721-1.8,2.8746,2.8746,0,0,1,.841-2,2.745,2.745,0,0,1,1.922-.8A2.5663,2.5663,0,0,1,84.012,12.335Z"/><path class="a" d="M90.74,16.941c.561,0,.681,0,.721-.04s.08-.16.08-.6V13.016a1.29,1.29,0,0,0-.08-.6c-.04-.04-.16-.04-.681-.04-.04,0-.04-.28,0-.28.12,0,1.562.04,2.523,0,.04,0,.04.28,0,.28-.441,0-.6,0-.6.04-.04.04-.04.12-.04.561v1.362c.2,0,.961.04,1.562.04a2.1429,2.1429,0,0,0,.6-.04v-1.2a3.7013,3.7013,0,0,0-.04-.721c-.04-.04-.2-.04-.561-.04-.04,0-.04-.28,0-.28h2.483c.04,0,.04.28,0,.28-.441,0-.6,0-.641.04s-.08.16-.12.681c0,.481-.04,1-.04,1.522v1.562c0,.561.04.681.08.721s.16.04.641.04c.04,0,.04.28,0,.28H94.064c-.04,0,0-.28,0-.28a2.2167,2.2167,0,0,0,.641-.08c.04-.04.08-.16.08-.921V14.618H92.662V16.06c0,.561.04.721.08.761s.12.04.6.04c.04,0,.04.28,0,.28H90.779C90.699,17.221,90.699,16.941,90.74,16.941Z"/><path class="a" d="M102.434,12.175a.1279.1279,0,0,1,.12-.12c.24,0,1.522.04,2.163.04.761,0,1.722,0,2.523-.04.08,0,.12,0,.12.04,0,.6.04,1.161,0,1.922,0,.04-.24.04-.24,0a6.0692,6.0692,0,0,0-.641-1.522c-.12-.12-.28-.16-.721-.16h-.28c-.04.04-.04.12-.04.961,0,1.081-.04,2.043-.04,3.084,0,.32,0,.4.04.441s.12.04.881.12c.04,0,0,.28,0,.28-1.041-.04-2-.04-3,0-.04,0-.04-.28,0-.28.721-.04.841-.04.881-.08s.08-.2.08-.681c.04-1.2.04-1.882.04-3.124,0-.6,0-.641-.04-.681a.9577.9577,0,0,0-.36-.04.8072.8072,0,0,0-.641.2,4.7467,4.7467,0,0,0-.721,1.562c0,.04-.24.04-.24,0C102.394,13.297,102.394,12.696,102.434,12.175Z"/><path class="a" d="M119.936,16.941c.561,0,.681,0,.721-.04s.08-.16.08-.6V13.016a1.29,1.29,0,0,0-.08-.6c-.04-.04-.16-.04-.681-.04-.04,0-.04-.28,0-.28.12,0,1.562.04,2.523,0,.04,0,.04.28,0,.28-.441,0-.6,0-.6.04-.04.04-.04.12-.04.561v1.362c.2,0,.961.04,1.562.04a2.1429,2.1429,0,0,0,.6-.04v-1.2a3.7013,3.7013,0,0,0-.04-.721c-.04-.04-.2-.04-.561-.04-.04,0-.04-.28,0-.28h2.483c.04,0,.04.28,0,.28-.441,0-.6,0-.641.04s-.08.16-.12.681c0,.481-.04,1-.04,1.522v1.562c0,.561.04.681.08.721s.16.04.641.04c.04,0,.04.28,0,.28H123.26c-.04,0,0-.28,0-.28a2.2167,2.2167,0,0,0,.641-.08c.04-.04.08-.16.08-.921V14.618h-2.123V16.06c0,.561.04.721.08.761s.12.04.6.04c.04,0,.04.28,0,.28h-2.563C119.896,17.221,119.896,16.941,119.936,16.941Z"/><path class="a" d="M132.191,16.461a2.3442,2.3442,0,0,1-.681-1.8,2.5272,2.5272,0,0,1,.761-1.762,2.9752,2.9752,0,0,1,2.239-.924,2.7,2.7,0,0,1,1.962.8,2.3867,2.3867,0,0,1,.681,1.722,2.874,2.874,0,0,1-2.923,2.8A2.8059,2.8059,0,0,1,132.191,16.461Zm.641-1.6a2.7479,2.7479,0,0,0,.24,1.442,1.3061,1.3061,0,0,0,1.242.681,1.29,1.29,0,0,0,1.282-.761,3.7648,3.7648,0,0,0,.28-1.642,3.51,3.51,0,0,0-.28-1.722c-.16-.36-.521-.6-1.241-.6a1.419,1.419,0,0,0-1.282.761,5.0757,5.0757,0,0,0-.241,1.839Z"/><path class="a" d="M145.287,12.055c.04,0,.04.28,0,.28-.521,0-.6,0-.641.04a5.6571,5.6571,0,0,0-.12,1.842v1.2c0,.641.12.881.32,1.081a1.5069,1.5069,0,0,0,1.0809.36A1.3141,1.3141,0,0,0,147.33,15.64a1.3287,1.3287,0,0,0-.0033-.2239V13.777c0-.921-.08-1.282-.16-1.362-.04-.04-.16-.08-.721-.12-.04,0-.04-.28,0-.28a17.389,17.389,0,0,0,2.042,0c.04,0,.04.28,0,.28-.44.04-.561.08-.6.16-.12.12-.12.32-.16,1.161,0,.561-.04,1.081-.04,1.8a1.8,1.8,0,0,1-2.0431,1.842,2.5521,2.5521,0,0,1-1.8-.561,1.6268,1.6268,0,0,1-.4409-1.322c0-.8,0-1.882.04-2.6,0-.28,0-.4-.04-.441s-.16-.04-.6811-.04c-.04,0-.04-.28,0-.28C143.605,12.055,144.286,12.055,145.287,12.055Z"/><path class="a" d="M155.26,12.055h1.443a2.6862,2.6862,0,0,1,1.922.561.9431.9431,0,0,1,.24.681c0,.8-.881,1.282-1.722,1.4v.04c.8.2,1.2.481,1.4,1.2.2.8.28.921.481.921.16,0,.32-.2.521-.6,0-.04.28.08.24.12-.28.6-.6.921-1.081.921a1.1468,1.1468,0,0,1-.881-.32,2.4076,2.4076,0,0,1-.521-1.2c-.16-.761-.36-.921-.8809-.921h-.6c-.04,0-.04,0-.04.04V16.62c0,.16,0,.2.04.24s.12.04.761.08c.04,0,.04.32,0,.32-.12,0-1.682-.04-2.723,0-.04,0-.04-.32,0-.32.5209,0,.681-.04.721-.08s.04-.12.04-.4c0-1.2.04-1.722.04-2.043v-1.6a1.5993,1.5993,0,0,0-.04-.441c-.04-.04-.08-.04-.721-.04-.04,0-.04-.28,0-.28Zm.521.6v1.882h.561c.5609,0,1-.08,1.2-.441a1.7571,1.7571,0,0,0,.12-.761,1.4,1.4,0,0,0-.12-.641c-.12-.24-.36-.4-1.081-.4-.561,0-.641,0-.6811.04Z"/><path class="b" d="M158.508,24.11l-5.527,6.047-5.492-6.047h-1.281V34.323h1.081V25.552l5.687,6.248,5.687-6.288v8.811h1.121V24.11Z"/><path class="b" d="M54.816,24.11v9.011L45.204,24.11H43.842V34.323h1.121V25.392l9.532,8.931h1.442V24.11Z"/><path class="b" d="M125.864,34.323l1.558-2.483h8.731l1.642,2.483h1.327l-6.73-10.213h-1.4l-6.37,10.213Zm5.767-9.291,3.765,5.687h-7.329Z"/><path class="b" d="M115.97,30.197a3.478,3.478,0,0,0,2.123-3.2,3.4,3.4,0,0,0-3.3515-3.4478l-.0125,0h-8.09V34.402h1.081V30.437h5.407a4.0359,4.0359,0,0,1,4.045,3.925h1.081A5.058,5.058,0,0,0,115.97,30.197Zm-8.25-.841V24.67h6.969a2.366,2.366,0,0,1,0,4.726H107.72Z"/><path class="b" d="M92.542,29.797h4.646V32.48a.5089.5089,0,0,1-.16.28,7.2336,7.2336,0,0,1-4.165,1.282c-3.364,0-6.128-2.123-6.128-4.766s2.763-4.766,6.128-4.766a7.1705,7.1705,0,0,1,4.125,1.242l.641-.881a8.3726,8.3726,0,0,0-4.766-1.442c-3.965,0-7.209,2.643-7.209,5.847s3.244,5.847,7.209,5.847a8.236,8.236,0,0,0,4.806-1.482,1.4493,1.4493,0,0,0,.641-1.161v-3.8H92.543v1.121Z"/><path class="b" d="M12.368,24.11,6.881,30.157,1.35,24.11H.068V34.323H1.189V25.552L6.876,31.8l5.692-6.29v8.811h1.081V24.11Z"/><path class="b" d="M71.036,23.389c-3.965,0-7.209,2.643-7.209,5.847s3.244,5.847,7.209,5.847,7.209-2.643,7.209-5.847S75.001,23.389,71.036,23.389Zm0,10.613c-3.364,0-6.128-2.123-6.128-4.766s2.763-4.766,6.128-4.766,6.127,2.123,6.127,4.766S74.4,34.002,71.036,34.002Z"/><path class="b" d="M28.743,23.389c-3.965,0-7.209,2.643-7.209,5.847s3.244,5.847,7.209,5.847,7.209-2.643,7.209-5.847S32.748,23.389,28.743,23.389Zm0,10.613c-3.364,0-6.128-2.123-6.128-4.766s2.763-4.766,6.128-4.766,6.128,2.123,6.128,4.766S32.147,34.002,28.743,34.002Z"/></svg>