<svg xmlns="http://www.w3.org/2000/svg" width="261.943" height="105.867" viewBox="0 0 261.943 105.867">
  <g id="Group_397" data-name="Group 397" transform="translate(0 -0.025)">
    <g id="Group_393" data-name="Group 393" transform="translate(0 59.985)">
      <g id="Group_391" data-name="Group 391" transform="translate(176.827)">
        <path id="Path_528" data-name="Path 528" d="M428.316,159.937H343.2v-.773h84.343V117.173H409.356V116.4h18.96Z" transform="translate(-343.2 -116.4)" fill="#d0b2a4"/>
      </g>
      <g id="Group_392" data-name="Group 392">
        <path id="Path_529" data-name="Path 529" d="M85.116,159.937H0V116.4H18.961v.773H.773v41.991H85.116Z" transform="translate(0 -116.4)" fill="#d0b2a4"/>
      </g>
    </g>
    <g id="Group_394" data-name="Group 394" transform="translate(33.709 57.203)">
      <path id="Path_530" data-name="Path 530" d="M68.04,111.155h3.091c.052,0,.052,0,.052.052,0,.618,0,1.34-.052,2.112,0,.052-.309.052-.309,0a3.639,3.639,0,0,0-.67-1.546c-.206-.206-.412-.258-1.03-.258H67.988a5.4,5.4,0,0,0-.052,1.237v1.185H68.4c.567,0,.721-.052.824-.155s.155-.309.258-1.03c0-.052.309-.052.309,0,0,.361-.052.876-.052,1.288,0,.464.052.979.052,1.34,0,.052-.309.052-.309,0-.155-.67-.206-.876-.309-.979a1.223,1.223,0,0,0-.773-.155h-.515v2.009c0,.464,0,.567.052.618s.155.052,1.082.1c.052,0,.052.361,0,.361H65.464c-.052,0-.052-.361,0-.361.721,0,.876,0,.927-.052s.052-.155.052-.721v-3.761a3,3,0,0,0-.052-.979c-.052-.052-.206-.052-.876-.1-.052,0-.052-.361,0-.361A12.767,12.767,0,0,0,68.04,111.155Z" transform="translate(-65.425 -111)" fill="#d0b2a4"/>
      <path id="Path_531" data-name="Path 531" d="M90.824,116.561A2.834,2.834,0,0,1,90,114.346a3.283,3.283,0,0,1,.927-2.164,3.6,3.6,0,0,1,2.731-1.082,3.268,3.268,0,0,1,2.37.979,3,3,0,0,1,.824,2.112,3.354,3.354,0,0,1-1.03,2.37,3.535,3.535,0,0,1-2.525,1.03A3.631,3.631,0,0,1,90.824,116.561Zm.721-1.958a3.778,3.778,0,0,0,.258,1.752,1.625,1.625,0,0,0,1.494.824,1.672,1.672,0,0,0,1.6-.927,4.478,4.478,0,0,0,.361-2.009,4.591,4.591,0,0,0-.309-2.061c-.206-.412-.618-.721-1.494-.721a1.715,1.715,0,0,0-1.546.927A4.787,4.787,0,0,0,91.546,114.6Z" transform="translate(-77.338 -111.048)" fill="#d0b2a4"/>
      <path id="Path_532" data-name="Path 532" d="M118.064,111.3h1.752a3.121,3.121,0,0,1,2.319.67,1.088,1.088,0,0,1,.309.824c0,.979-1.03,1.546-2.061,1.7v.052c.979.258,1.443.567,1.7,1.443.206.979.309,1.133.567,1.133.206,0,.361-.258.618-.721,0-.052.309.1.309.155-.309.773-.721,1.133-1.34,1.133a1.4,1.4,0,0,1-1.03-.361,3.173,3.173,0,0,1-.618-1.494c-.206-.927-.464-1.134-1.03-1.134h-.824c-.052,0-.052,0-.052.052v2.112c0,.206,0,.258.052.309s.1.052.927.1c.052,0,.052.361,0,.361-.155,0-2.061-.052-3.3,0-.052,0-.052-.361,0-.361.618,0,.824-.052.876-.1s.052-.155.052-.464c0-1.494.052-2.112.052-2.473v-1.958a1.829,1.829,0,0,0-.052-.515c-.052-.052-.1-.052-.876-.052-.052,0-.052-.361,0-.361C117.188,111.3,117.6,111.3,118.064,111.3Zm.618.721v2.267h.67c.721,0,1.237-.1,1.443-.515a2.153,2.153,0,0,0,.155-.927,1.577,1.577,0,0,0-.155-.773c-.155-.309-.412-.464-1.288-.464-.67,0-.773,0-.824.052C118.682,111.712,118.682,111.815,118.682,112.021Z" transform="translate(-90.1 -111.145)" fill="#d0b2a4"/>
      <path id="Path_533" data-name="Path 533" d="M142.255,111.455a.165.165,0,0,1,.155-.155c.258,0,1.855.052,2.628.052.927,0,2.112,0,3.091-.052.1,0,.155,0,.155.052,0,.721.052,1.391,0,2.37,0,.052-.258.052-.309,0a6.177,6.177,0,0,0-.773-1.855c-.155-.155-.361-.206-.876-.206h-.309c-.052.052-.052.155-.052,1.133,0,1.288-.052,2.473-.052,3.761,0,.361,0,.464.052.515s.155.052,1.03.155c.052,0,0,.361,0,.361-1.288-.052-2.422-.052-3.658,0-.052,0-.052-.361,0-.361.876-.052,1.03-.052,1.082-.1s.1-.258.1-.824c.052-1.443.052-2.267.052-3.813,0-.721,0-.773-.052-.824a1.232,1.232,0,0,0-.464-.052.91.91,0,0,0-.773.258,6.943,6.943,0,0,0-.876,1.855c0,.052-.309.052-.309,0A12.8,12.8,0,0,0,142.255,111.455Z" transform="translate(-102.595 -111.145)" fill="#d0b2a4"/>
      <path id="Path_534" data-name="Path 534" d="M169.97,111.3c.052,0,.052.361,0,.361-.515.052-.618.052-.67.1s-.052.155.052.258c.464.876.876,1.546,1.443,2.422h0c.464-.721.824-1.237,1.133-1.8a1.868,1.868,0,0,0,.258-.67c0-.206-.1-.258-.67-.309-.052,0,0-.361,0-.361a9.929,9.929,0,0,1,1.237.052h1.03c.052,0,.052.361,0,.361a1.3,1.3,0,0,0-.618.1,3.757,3.757,0,0,0-.927,1.03c-.258.361-.618.927-1.185,1.8a.87.87,0,0,0-.155.515v1.34c0,.567.052.67.1.67a7.114,7.114,0,0,0,.979.1c.052,0,0,.361,0,.361h-3.452c-.052,0-.052-.361,0-.361.824,0,.927-.052,1.03-.1.052-.052.052-.206.1-.515v-1.443a.555.555,0,0,0-.1-.412c-.618-.979-.824-1.34-1.443-2.267a4.088,4.088,0,0,0-.464-.67c-.1-.1-.206-.155-.773-.155-.052,0,0-.361,0-.361C167.806,111.3,168.785,111.3,169.97,111.3Z" transform="translate(-114.595 -111.145)" fill="#d0b2a4"/>
      <path id="Path_535" data-name="Path 535" d="M211.91,111.352c.773,0,1.649,0,2.628-.052.052,0,.1.052.052.1-.052.618-.052,1.494-.1,2.061,0,.052-.309.052-.309,0a3.687,3.687,0,0,0-.67-1.494c-.258-.258-.412-.258-1.34-.258-.773,0-.876,0-.979.052a5.1,5.1,0,0,0-.052,1.185v1.185h.618c.515,0,.721-.1.824-.206s.155-.309.258-.876c0-.052.309-.052.309,0-.052.979,0,1.958,0,2.628,0,.052-.309.052-.309,0-.1-.721-.206-.979-.309-1.03-.1-.1-.206-.1-.773-.1h-.618v1.03c0,1.391,0,1.546.052,1.6a2.12,2.12,0,0,0,.876.1h.824c.464,0,.618-.052.773-.206a4.364,4.364,0,0,0,.721-1.855c0-.052.309-.052.309,0,0,.721-.052,1.546-.052,2.319,0,.052,0,.052-.1.052h-5.874c-.052,0-.052-.361,0-.361a4.773,4.773,0,0,0,.927-.052,6.889,6.889,0,0,0,.1-1.855v-2.525c0-.824,0-1.03-.052-1.03a4.57,4.57,0,0,0-.824-.1c-.052,0-.052-.309,0-.309C209.385,111.3,211.5,111.352,211.91,111.352Z" transform="translate(-134.844 -111.145)" fill="#d0b2a4"/>
      <path id="Path_536" data-name="Path 536" d="M237.407,111.3c.052,0,.052.361,0,.361-.515,0-.67,0-.721.052s-.1.206-.1,1.082v3.555c0,.618.052.773.1.824s.155.052.824.052c.052,0,.052.361,0,.361h-3.246c-.052,0-.052-.361,0-.361a2.779,2.779,0,0,0,.876-.052c.052-.052.052-.155.052-.773v-3.71a2.218,2.218,0,0,0-.1-.979c-.052-.052-.206-.052-.824-.052,0,0-.052-.361,0-.361Z" transform="translate(-147.254 -111.145)" fill="#d0b2a4"/>
      <path id="Path_537" data-name="Path 537" d="M258.895,111.564a1.278,1.278,0,0,0,.567-.464c.052,0,.258,0,.258.052a14.757,14.757,0,0,0-.155,2.164c0,.052-.309.052-.309.052a5.963,5.963,0,0,0-.876-1.494,1.366,1.366,0,0,0-1.03-.361,1.625,1.625,0,0,0-1.443.824,6.831,6.831,0,0,0-.052,4.225,1.308,1.308,0,0,0,1.288.67,1.451,1.451,0,0,0,1.185-.567,2.8,2.8,0,0,0,.1-1.03c0-.567-.052-.67-.1-.67-.052-.052-.258-.052-.876-.052-.052,0-.052-.361,0-.361,1.082,0,1.906,0,3.04-.052.052,0,.052.309,0,.361-.515.052-.67.052-.721.1a5.03,5.03,0,0,0-.052,1.391,6.917,6.917,0,0,0,.052,1.082c0,.052-.258.1-.309.1-.309-.412-.464-.618-.567-.618a3.589,3.589,0,0,1-1.855.721,2.982,2.982,0,0,1-2.164-.876,3.019,3.019,0,0,1-.876-2.215,3.294,3.294,0,0,1,1.03-2.422,3.215,3.215,0,0,1,2.318-.979A4.143,4.143,0,0,1,258.895,111.564Z" transform="translate(-156.84 -111.048)" fill="#d0b2a4"/>
      <path id="Path_538" data-name="Path 538" d="M279.364,117.274c.67,0,.824,0,.876-.052s.1-.206.1-.721v-3.967c0-.464-.052-.721-.1-.721-.052-.052-.206-.052-.824-.052-.052,0-.052-.361,0-.361.155,0,1.906.052,3.04,0,.052,0,.052.309,0,.309-.515,0-.721,0-.721.052-.052.052-.052.155-.052.721v1.649c.258,0,1.134.052,1.855.052a2.342,2.342,0,0,0,.721-.052v-1.443a4.408,4.408,0,0,0-.052-.876c-.052-.052-.258-.052-.721-.052-.052,0-.052-.309,0-.309h3.04c.052,0,.052.309,0,.309-.515,0-.721,0-.773.052s-.1.206-.1.824-.052,1.237-.052,1.855V116.4c0,.67.052.824.1.876s.206.052.773.052c.052,0,.052.361,0,.361h-3.091c-.052,0,0-.361,0-.361a2.677,2.677,0,0,0,.773-.1c.052-.052.1-.206.1-1.133v-1.6h-2.576v1.752c0,.67.052.876.1.927s.155.052.721.052c.052,0,.052.361,0,.361h-3.143C279.312,117.634,279.312,117.274,279.364,117.274Z" transform="translate(-169.117 -111.194)" fill="#d0b2a4"/>
      <path id="Path_539" data-name="Path 539" d="M306.755,111.455a.165.165,0,0,1,.155-.155c.258,0,1.855.052,2.628.052.927,0,2.112,0,3.091-.052.1,0,.155,0,.155.052,0,.721.052,1.391,0,2.37,0,.052-.258.052-.309,0a6.176,6.176,0,0,0-.773-1.855c-.155-.155-.361-.206-.876-.206h-.309c-.052.052-.052.155-.052,1.133,0,1.288-.052,2.473-.052,3.761,0,.361,0,.464.052.515s.155.052,1.03.155c.052,0,0,.361,0,.361-1.288-.052-2.422-.052-3.658,0-.052,0-.052-.361,0-.361.876-.052,1.03-.052,1.082-.1s.1-.258.1-.824c.052-1.443.052-2.267.052-3.813,0-.721,0-.773-.052-.824a1.232,1.232,0,0,0-.464-.052.91.91,0,0,0-.773.258,6.944,6.944,0,0,0-.876,1.855c0,.052-.309.052-.309,0A12.8,12.8,0,0,0,306.755,111.455Z" transform="translate(-182.339 -111.145)" fill="#d0b2a4"/>
      <path id="Path_540" data-name="Path 540" d="M348.227,117.274c.67,0,.824,0,.876-.052s.1-.206.1-.721v-3.967c0-.464-.052-.721-.1-.721-.052-.052-.206-.052-.824-.052-.052,0-.052-.361,0-.361.155,0,1.906.052,3.04,0,.052,0,.052.309,0,.309-.515,0-.721,0-.721.052-.052.052-.052.155-.052.721v1.649c.258,0,1.133.052,1.855.052a2.342,2.342,0,0,0,.721-.052v-1.443a4.408,4.408,0,0,0-.052-.876c-.052-.052-.258-.052-.721-.052-.052,0-.052-.309,0-.309h3.04c.052,0,.052.309,0,.309-.515,0-.721,0-.773.052s-.1.206-.1.824-.052,1.237-.052,1.855V116.4c0,.67.052.824.1.876s.206.052.773.052c.052,0,.052.361,0,.361h-3.091c-.052,0,0-.361,0-.361a2.676,2.676,0,0,0,.773-.1c.052-.052.1-.206.1-1.133v-1.6h-2.576v1.752c0,.67.052.876.1.927s.155.052.721.052c.052,0,.052.361,0,.361h-3.143C348.124,117.634,348.124,117.274,348.227,117.274Z" transform="translate(-202.481 -111.194)" fill="#d0b2a4"/>
      <path id="Path_541" data-name="Path 541" d="M376.324,116.561a2.834,2.834,0,0,1-.824-2.215,3.283,3.283,0,0,1,.927-2.164,3.6,3.6,0,0,1,2.731-1.082,3.268,3.268,0,0,1,2.37.979,3,3,0,0,1,.824,2.112,3.355,3.355,0,0,1-1.03,2.37,3.535,3.535,0,0,1-2.525,1.03A3.846,3.846,0,0,1,376.324,116.561Zm.773-1.958a3.779,3.779,0,0,0,.258,1.752,1.625,1.625,0,0,0,1.494.824,1.672,1.672,0,0,0,1.6-.927,4.478,4.478,0,0,0,.361-2.009,4.592,4.592,0,0,0-.309-2.061c-.206-.412-.618-.721-1.494-.721a1.715,1.715,0,0,0-1.546.927A4.787,4.787,0,0,0,377.1,114.6Z" transform="translate(-215.74 -111.048)" fill="#d0b2a4"/>
      <path id="Path_542" data-name="Path 542" d="M404.958,111.252c.052,0,.052.309,0,.309-.67,0-.773,0-.773.052a14.391,14.391,0,0,0-.1,2.267v1.443a1.885,1.885,0,0,0,.361,1.34,1.8,1.8,0,0,0,1.34.412,1.609,1.609,0,0,0,1.7-1.752v-1.958c0-1.134-.1-1.546-.206-1.649-.052-.052-.155-.1-.876-.155-.052,0-.052-.361,0-.361a19.8,19.8,0,0,0,2.473,0c.052,0,.052.361,0,.361-.567.052-.67.1-.773.206s-.155.361-.206,1.391c0,.67-.052,1.288-.052,2.164a2.222,2.222,0,0,1-2.473,2.267,3.341,3.341,0,0,1-2.215-.67,1.993,1.993,0,0,1-.567-1.6c0-.979,0-2.319.052-3.143,0-.361,0-.515-.052-.515-.052-.052-.206-.052-.824-.052-.052,0-.052-.361,0-.361Z" transform="translate(-228.453 -111.097)" fill="#d0b2a4"/>
      <path id="Path_543" data-name="Path 543" d="M429.912,111.3h1.752a3.121,3.121,0,0,1,2.319.67,1.088,1.088,0,0,1,.309.824c0,.979-1.03,1.546-2.061,1.7v.052c.979.258,1.443.567,1.7,1.443.206.979.309,1.133.567,1.133.206,0,.361-.258.618-.721,0-.052.309.1.309.155-.309.773-.721,1.133-1.34,1.133a1.4,1.4,0,0,1-1.031-.361,3.173,3.173,0,0,1-.618-1.494c-.206-.927-.464-1.134-1.031-1.134h-.773c-.052,0-.052,0-.052.052v2.112c0,.206,0,.258.052.309s.1.052.927.1c.052,0,.052.361,0,.361-.155,0-2.061-.052-3.3,0-.052,0-.052-.361,0-.361.618,0,.824-.052.876-.1s.052-.155.052-.464c0-1.494.052-2.112.052-2.473v-1.958a1.829,1.829,0,0,0-.052-.515c-.052-.052-.1-.052-.876-.052-.052,0-.052-.361,0-.361C429.036,111.3,429.449,111.3,429.912,111.3Zm.618.721v2.267h.67c.721,0,1.237-.1,1.443-.515a2.152,2.152,0,0,0,.155-.927,1.577,1.577,0,0,0-.155-.773c-.155-.309-.412-.464-1.288-.464-.67,0-.773,0-.824.052Z" transform="translate(-241.299 -111.145)" fill="#d0b2a4"/>
    </g>
    <path id="Path_544" data-name="Path 544" d="M253.9,149.5" transform="translate(-123.083 -72.461)"/>
    <g id="Group_395" data-name="Group 395" transform="translate(92.742 100.637)">
      <path id="Path_545" data-name="Path 545" d="M180,199.776l.515-.618a2.355,2.355,0,0,0,1.6.67c.567,0,.876-.258.876-.618h0c0-.361-.206-.567-1.134-.773-1.082-.258-1.7-.567-1.7-1.494h0a1.514,1.514,0,0,1,1.7-1.443,2.877,2.877,0,0,1,1.855.618l-.464.67a2.224,2.224,0,0,0-1.391-.515c-.515,0-.824.258-.824.618h0c0,.412.206.567,1.185.773,1.082.258,1.649.618,1.649,1.494h0c0,.927-.721,1.494-1.8,1.494A3.663,3.663,0,0,1,180,199.776Z" transform="translate(-180 -195.397)" fill="#d0b2a4"/>
      <path id="Path_546" data-name="Path 546" d="M197.3,195.4h.876v5.049H197.3Z" transform="translate(-188.387 -195.348)" fill="#d0b2a4"/>
      <path id="Path_547" data-name="Path 547" d="M209.2,195.4h.824l2.731,3.5v-3.5h.876v5.049h-.721l-2.782-3.607v3.607h-.876V195.4Z" transform="translate(-194.155 -195.348)" fill="#d0b2a4"/>
      <path id="Path_548" data-name="Path 548" d="M227.3,197.928h0a2.574,2.574,0,0,1,2.628-2.628,2.548,2.548,0,0,1,1.958.773l-.567.67a2.042,2.042,0,0,0-1.391-.618,1.669,1.669,0,0,0-1.649,1.8h0a1.731,1.731,0,0,0,1.649,1.8,1.917,1.917,0,0,0,1.443-.67l.567.567a2.5,2.5,0,0,1-2.061.876A2.551,2.551,0,0,1,227.3,197.928Z" transform="translate(-202.93 -195.3)" fill="#d0b2a4"/>
      <path id="Path_549" data-name="Path 549" d="M245.7,195.4h3.761v.773h-2.834v1.288h2.525v.773h-2.525v1.34h2.885v.773h-3.761V195.4Z" transform="translate(-211.849 -195.348)" fill="#d0b2a4"/>
      <path id="Path_550" data-name="Path 550" d="M273.8,199.731l1.752-1.494c.67-.567.927-.927.927-1.34a.744.744,0,0,0-.824-.773c-.464,0-.773.258-1.185.773l-.618-.515a2.1,2.1,0,0,1,1.855-1.082,1.506,1.506,0,0,1,1.649,1.494h0c0,.773-.412,1.237-1.288,1.958l-1.03.876h2.422v.773H273.8Z" transform="translate(-225.471 -195.3)" fill="#d0b2a4"/>
      <path id="Path_551" data-name="Path 551" d="M290,197.928h0a2.378,2.378,0,0,1,2.215-2.628,2.331,2.331,0,0,1,2.215,2.576h0a2.378,2.378,0,0,1-2.215,2.628A2.331,2.331,0,0,1,290,197.928Zm3.5,0h0c0-1.03-.515-1.8-1.288-1.8s-1.288.773-1.288,1.8h0c0,.979.515,1.8,1.288,1.8S293.5,198.907,293.5,197.928Z" transform="translate(-233.325 -195.3)" fill="#d0b2a4"/>
      <path id="Path_552" data-name="Path 552" d="M308.333,196.276l-.927.258-.206-.721,1.34-.412h.618v5.1h-.876v-4.225Z" transform="translate(-241.663 -195.348)" fill="#d0b2a4"/>
      <path id="Path_553" data-name="Path 553" d="M320.6,199.725l.618-.567a1.709,1.709,0,0,0,1.34.67.788.788,0,0,0,.876-.773h0c0-.515-.464-.773-1.185-.773h-.412l-.155-.567,1.34-1.443h-2.164V195.5h3.349v.67l-1.391,1.443c.773.1,1.494.464,1.494,1.443h0a1.615,1.615,0,0,1-1.752,1.6A2.547,2.547,0,0,1,320.6,199.725Z" transform="translate(-248.159 -195.397)" fill="#d0b2a4"/>
    </g>
    <g id="Group_396" data-name="Group 396" transform="translate(18.6 73.587)">
      <path id="Path_554" data-name="Path 554" d="M452.112,144.8l-7.78,8.5-7.728-8.5h-1.8v14.323h1.546V146.809l7.986,8.81,8.038-8.81v12.314h1.546V144.8Z" transform="translate(-229.377 -143.77)" fill="#fff"/>
      <path id="Path_555" data-name="Path 555" d="M170.957,144.8v12.675L157.406,144.8H155.5v14.323h1.546V146.552l13.448,12.572H172.5V144.8Z" transform="translate(-93.981 -143.77)" fill="#fff"/>
      <path id="Path_556" data-name="Path 556" d="M377.6,159.123l2.164-3.452H392.03l2.267,3.452h1.855L386.723,144.8h-1.958L375.8,159.175h1.8Zm8.141-12.984,5.307,7.986h-10.3Z" transform="translate(-200.776 -143.77)" fill="#fff"/>
      <path id="Path_557" data-name="Path 557" d="M339.938,152.626a4.863,4.863,0,0,0-1.752-9.326H326.8v15.2h1.546v-5.513h7.574a5.654,5.654,0,0,1,5.668,5.513h1.546A6.892,6.892,0,0,0,339.938,152.626ZM328.4,151.441v-6.595h9.841a3.3,3.3,0,0,1,0,6.595H328.4Z" transform="translate(-177.022 -143.042)" fill="#fff"/>
      <path id="Path_558" data-name="Path 558" d="M279.286,151.817h6.543v3.761c0,.155-.1.258-.258.361a10.131,10.131,0,0,1-5.822,1.8c-4.74,0-8.6-2.988-8.6-6.7s3.864-6.7,8.6-6.7a10.1,10.1,0,0,1,5.822,1.752l.876-1.237a11.465,11.465,0,0,0-6.7-2.061c-5.616,0-10.15,3.71-10.15,8.244s4.534,8.244,10.15,8.244a11.626,11.626,0,0,0,6.75-2.061,1.986,1.986,0,0,0,.876-1.649v-5.307h-8.089Z" transform="translate(-149.294 -142.8)" fill="#fff"/>
      <path id="Path_559" data-name="Path 559" d="M53.36,144.8l-7.728,8.5L37.9,144.8H36.1v14.323h1.546V146.809l7.986,8.81,7.986-8.81v12.314h1.546V144.8Z" transform="translate(-36.1 -143.77)" fill="#fff"/>
      <path id="Path_560" data-name="Path 560" d="M220.15,142.8c-5.616,0-10.15,3.71-10.15,8.244s4.534,8.244,10.15,8.244,10.15-3.71,10.15-8.244S225.715,142.8,220.15,142.8Zm0,14.942c-4.74,0-8.6-2.988-8.6-6.7s3.864-6.7,8.6-6.7,8.6,2.988,8.6,6.7S224.89,157.742,220.15,157.742Z" transform="translate(-120.401 -142.8)" fill="#fff"/>
      <path id="Path_561" data-name="Path 561" d="M104.75,142.8c-5.616,0-10.15,3.71-10.15,8.244s4.534,8.244,10.15,8.244,10.15-3.71,10.15-8.244S110.366,142.8,104.75,142.8Zm0,14.942c-4.74,0-8.6-2.988-8.6-6.7s3.864-6.7,8.6-6.7,8.6,2.988,8.6,6.7S109.49,157.742,104.75,157.742Z" transform="translate(-64.459 -142.8)" fill="#fff"/>
    </g>
    <path id="Path_562" data-name="Path 562" d="M254.482,11.347,235.418.373,234.9.064a.157.157,0,0,0-.206,0l-.515.309L215.118,11.347l-.515.309a.268.268,0,0,0-.1.206V35.048a.268.268,0,0,0,.1.206l.515.309L234.13,46.537l.515.309a.157.157,0,0,0,.206,0l.515-.309,19.012-10.974.515-.309a.268.268,0,0,0,.1-.206V11.811a.268.268,0,0,0-.1-.206Zm-4.225,4.534-.206.361-1.958.567-.464,10.717-2.473-2.988a3.736,3.736,0,0,1-.927-2.112l-.412-2.112-.618.155.464,3.04-1.237-1.03-.412.618.927.824a8.283,8.283,0,0,1,1.134,1.185l2.525,3.04a5.189,5.189,0,0,1,1.134,2.679l.1,1.288,1.6-.1-.206.412-1.443.721-.155,4.895L237.84,43.7a4.266,4.266,0,0,1,.258-1.8L240,36.336l-.515-1.03-2.215,3.5a22.452,22.452,0,0,0-.052-2.525l-1.7-.361-.258-.206,1.855-.361s0-8.347.1-8.965a11.7,11.7,0,0,1,1.185-3.555c.155-.361,1.752-3.5,2.885-5.719a21.447,21.447,0,0,1,2.473-3.864c1.082-1.34,2.679-3.5,3.4-4.637l1.237.721-.206,6.7C248.093,15.984,249.587,15.984,250.257,15.881ZM224.8,31.338a85.007,85.007,0,0,0,3.349-9.326c.361-1.546,1.185-5.358,1.7-7.625a12.035,12.035,0,0,1,1.34-3.5l.206-.412-.464-.258-.824.979-1.03-2.731-.412.515.515,2.215a2.8,2.8,0,0,1,0,.927l-.979,4.122s-.773-1.34-1.443-2.422l-.515.464s1.494,3.761,1.391,4.483a52.072,52.072,0,0,1-2.525,7.419c-1.185,2.576-1.546,3.194-1.546,3.194l.309-8.913.567-13.087,7.935-4.586c0,3.04.1,15.766.155,17.775.052,2.319,0,2.782,0,2.782l1.443.1.361.309-1.8.515s.155,2.834.206,4.328.567,8.192.567,9.326l.052,1.134,2.009.258.258.258-2.061.618-.052,2.061s.618.258,1.34.515l-1.237.412.052,1.546-10.2-5.874h0A26.273,26.273,0,0,1,224.8,31.338Zm-4.276-19.424-.67-1.855.824-.464C220.683,9.7,220.631,10.626,220.528,11.914Zm-.824,1.237-1.752-1.958.979-.567ZM243.2,6.3l2.731,1.6c-.258.412-2.37,3.5-3.246,4.637C242.683,12.532,243.1,8.977,243.2,6.3ZM241.24,10.78a4.194,4.194,0,0,1-.206,2.112l-2.009,5.1-.1-3.04-.773-.618-.052,4.328a5.063,5.063,0,0,1-.361,1.752l-1.185,2.628s-.361-6.853-.361-9.068l-.1-1.7-2.164-.309.206-.309,2.061-.464a13.731,13.731,0,0,1-.155-1.8c0-.618,0-4.946-.052-7.213L239.8,4.392Zm-.1-5.616.876.515V8.41Zm-25.4,7.265,1.288-.721,3.246,4.173c-.1,1.752-.155,3.4-.155,4.379v1.855l1.958,1.03.155.412-2.112-.258s-.361,7.832-.361,13.293V36.8l-3.967-2.319V12.429Zm38.076,22-2.267,1.288c.052-1.288.258-6.8.258-8.089a17.142,17.142,0,0,0-.1-2.164l-1.855-.309-.155-.258,2.112-.515s.052-3.761.052-4.637c0-1.8-.052-4.689,0-5.307.052-.464.464-1.958.67-2.782l1.288.721Z" transform="translate(-103.983 0)" fill="#fff"/>
  </g>
</svg>
