<?xml version="1.0" encoding="utf-8"?>
<!-- Generator: Adobe Illustrator 24.2.0, SVG Export Plug-In . SVG Version: 6.00 Build 0)  -->
<svg version="1.1" id="Group_353" xmlns="http://www.w3.org/2000/svg" xmlns:xlink="http://www.w3.org/1999/xlink" x="0px" y="0px"
	 viewBox="0 0 159.8 47.1" style="enable-background:new 0 0 159.8 47.1;" xml:space="preserve">
<style type="text/css">
	.st0{fill:#D0B2A4;}
	.st1{fill:#3D5567;}
</style>
<path id="Path_502" d="M58.3,23.5"/>
<g id="Group_351" transform="translate(64.209 11.935)">
	<g id="Group_349">
		<path id="Path_503" class="st0" d="M-62,0.1h2.5c0,0,0,0,0,0c0,0.5,0,1.1,0,1.7c0,0-0.3,0-0.3,0c-0.1-0.5-0.3-0.9-0.6-1.3
			c-0.2-0.2-0.3-0.2-0.8-0.2h-1c0,0.3-0.1,0.7,0,1v1h0.4c0.4,0,0.6,0,0.7-0.1s0.1-0.2,0.2-0.8c0,0,0.3,0,0.3,0c0,0.3,0,0.7,0,1
			c0,0.4,0,0.8,0,1.1c0,0-0.2,0-0.2,0C-61,3.1-61,2.9-61.1,2.8c-0.2-0.1-0.4-0.1-0.6-0.1h-0.4v1.6c0,0.4,0,0.5,0,0.5s0.1,0,0.9,0.1
			c0,0,0,0.3,0,0.3h-2.9c0,0,0-0.3,0-0.3c0.6,0,0.7,0,0.8,0s0-0.1,0-0.6V1.2c0-0.3,0-0.5,0-0.8c0,0-0.2,0-0.7-0.1c0,0,0-0.3,0-0.3
			C-63.4,0.1-62.7,0.1-62,0.1z"/>
		<path id="Path_504" class="st0" d="M-53.1,4.5c-0.5-0.5-0.7-1.1-0.7-1.8c0-0.7,0.3-1.3,0.8-1.8c0.6-0.6,1.4-0.9,2.2-0.9
			c0.7,0,1.4,0.3,2,0.8c0.4,0.5,0.7,1.1,0.7,1.7c0,1.6-1.3,2.8-2.9,2.8C-51.9,5.4-52.6,5.1-53.1,4.5z M-52.5,2.9
			c-0.1,0.5,0,1,0.2,1.4C-52,4.8-51.5,5.1-51,5c0.5,0,1.1-0.3,1.3-0.8c0.2-0.5,0.3-1.1,0.3-1.6c0.1-0.6,0-1.2-0.3-1.7
			c-0.2-0.4-0.5-0.6-1.2-0.6c-0.5,0-1,0.3-1.3,0.8C-52.4,1.7-52.5,2.3-52.5,2.9L-52.5,2.9z"/>
		<path id="Path_505" class="st0" d="M-41.2,0.1h1.4c0.7-0.1,1.4,0.1,1.9,0.6c0.2,0.2,0.3,0.4,0.2,0.7c0,0.8-0.9,1.3-1.7,1.4v0
			c0.8,0.2,1.2,0.5,1.4,1.2c0.2,0.8,0.3,0.9,0.5,0.9c0.2,0,0.3-0.2,0.5-0.6c0,0,0.3,0.1,0.2,0.1c-0.3,0.6-0.6,0.9-1.1,0.9
			c-0.3,0-0.6-0.1-0.9-0.3c-0.3-0.3-0.5-0.8-0.5-1.2c-0.2-0.8-0.4-0.9-0.9-0.9h-0.6c0,0,0,0,0,0v1.7c0,0.2,0,0.2,0,0.2
			s0.1,0,0.8,0.1c0,0,0,0.3,0,0.3c-0.1,0-1.7,0-2.7,0c0,0,0-0.3,0-0.3c0.5,0,0.7,0,0.7-0.1s0-0.1,0-0.4c0-1.2,0-1.7,0-2V0.9
			c0-0.1,0-0.3,0-0.4c0,0-0.1,0-0.7,0c0,0,0-0.3,0-0.3L-41.2,0.1z M-40.7,0.7v1.9h0.6c0.6,0,1-0.1,1.2-0.4c0.1-0.2,0.1-0.5,0.1-0.8
			c0-0.2,0-0.4-0.1-0.6C-39,0.5-39.3,0.4-40,0.4c-0.6,0-0.6,0-0.7,0L-40.7,0.7z"/>
		<path id="Path_506" class="st0" d="M-31.5,0.2c0-0.1,0.1-0.1,0.1-0.1c0.2,0,1.5,0,2.2,0c0.8,0,1.7,0,2.5,0c0.1,0,0.1,0,0.1,0
			c0,0.6,0,1.2,0,1.9c0,0-0.2,0-0.2,0c-0.1-0.5-0.4-1-0.6-1.5c-0.1-0.1-0.3-0.2-0.7-0.2h-0.3c0,0,0,0.1,0,1c0,1.1,0,2,0,3.1
			c0,0.3,0,0.4,0,0.4s0.1,0,0.9,0.1c0,0,0,0.3,0,0.3c-1,0-2,0-3,0c0,0,0-0.3,0-0.3c0.7,0,0.8,0,0.9-0.1s0.1-0.2,0.1-0.7
			c0-1.2,0-1.9,0-3.1c0-0.6,0-0.6,0-0.7c-0.1,0-0.2,0-0.4,0c-0.2,0-0.5,0-0.6,0.2c-0.3,0.5-0.6,1-0.7,1.6c0,0-0.2,0-0.2,0
			C-31.6,1.4-31.6,0.8-31.5,0.2z"/>
		<path id="Path_507" class="st0" d="M-18.6,0.1c0,0,0,0.3,0,0.3c-0.4,0-0.5,0-0.6,0.1s0,0.1,0,0.2c0.4,0.7,0.7,1.3,1.2,2l0,0
			c0.4-0.6,0.7-1,1-1.5c0.1-0.2,0.2-0.4,0.2-0.6c0-0.2-0.1-0.2-0.6-0.2c0,0,0-0.3,0-0.3c0.3,0,0.7,0,1,0h0.8c0,0,0,0.3,0,0.3
			c-0.2,0-0.4,0-0.5,0.1c-0.3,0.2-0.6,0.5-0.8,0.8c-0.2,0.3-0.5,0.8-1,1.5c-0.1,0.1-0.1,0.3-0.1,0.4v1.1c0,0.4,0,0.5,0.1,0.6
			S-17.7,5-17,5c0,0,0,0.3,0,0.3h-2.8c0,0,0-0.3,0-0.3c0.7,0,0.8,0,0.8-0.1c0,0,0-0.2,0.1-0.4V3.4c0-0.2,0-0.2-0.1-0.4
			c-0.5-0.8-0.7-1.1-1.2-1.9c-0.1-0.2-0.2-0.4-0.4-0.5c-0.1-0.1-0.2-0.1-0.6-0.1c0,0,0-0.3,0-0.3C-20.3,0.1-19.5,0.1-18.6,0.1z"/>
		<path id="Path_508" class="st0" d="M-0.8,0.2c0.6,0,1.4,0,2.2,0c0,0,0.1,0,0,0.1c0,0.5,0,1.2-0.1,1.7c0,0-0.2,0-0.2,0
			C1,1.5,0.8,1.1,0.5,0.7C0.3,0.5,0.2,0.4-0.6,0.4c-0.6,0-0.7,0-0.8,0c0,0.3-0.1,0.6,0,1v1h0.5c0.2,0,0.5,0,0.7-0.2
			C-0.1,2.2-0.1,2,0,1.5c0,0,0.3,0,0.3,0c0,0.8,0,1.6,0,2.2c0,0-0.2,0-0.2,0c-0.1-0.6-0.2-0.8-0.2-0.9s-0.2-0.1-0.6-0.1h-0.5v0.8
			c0,0.4,0,0.9,0,1.3C-1.1,5-0.9,5-0.6,5h0.7c0.4,0,0.5,0,0.6-0.2c0.3-0.5,0.5-1,0.6-1.5c0,0,0.3,0,0.3,0c0,0.6,0,1.3,0,1.9
			c0,0,0,0-0.1,0h-4.8c0,0,0-0.3,0-0.3c0.3,0,0.5,0,0.8,0c0.1-0.5,0.1-1,0.1-1.5V1.2c0-0.7,0-0.8,0-0.9s-0.1,0-0.7-0.1
			c0,0,0-0.3,0-0.3C-2.4,0.1-1.6,0.2-0.8,0.2z"/>
		<path id="Path_509" class="st0" d="M10,0.1c0,0,0,0.3,0,0.3c-0.4,0-0.6,0-0.6,0c0,0-0.1,0.2-0.1,0.9v2.9c0,0.5,0,0.6,0.1,0.7
			c0,0,0.1,0,0.7,0c0,0,0,0.3,0,0.3H7.5c0,0,0-0.3,0-0.3C7.7,5,8,5,8.2,5c0,0,0-0.2,0-0.6v-3c0-0.6,0-0.8-0.1-0.8s-0.2,0-0.7,0
			c0,0,0-0.3,0-0.3C8.4,0.1,9.1,0.1,10,0.1z"/>
		<path id="Path_510" class="st0" d="M19.8,0.4c0.1,0,0.3-0.2,0.4-0.4c0,0,0.2,0,0.2,0c-0.1,0.6-0.1,1.2-0.1,1.8c0,0-0.2,0-0.2,0
			c-0.2-0.4-0.4-0.9-0.7-1.2c-0.2-0.2-0.5-0.3-0.8-0.3c-0.5,0-0.9,0.2-1.2,0.7c-0.2,0.5-0.3,1.1-0.3,1.7c-0.1,0.6,0,1.2,0.2,1.8
			c0.2,0.4,0.6,0.6,1,0.6c0.4,0,0.7-0.2,1-0.5c0.1-0.3,0.1-0.6,0.1-0.8c0-0.4,0-0.5-0.1-0.6s-0.2,0-0.7,0c0,0,0-0.3,0-0.3
			c0.9,0,1.6,0,2.5,0c0,0,0,0.2,0,0.3c-0.4,0-0.6,0-0.6,0.1c-0.1,0.4-0.1,0.8,0,1.2c0,0.3,0,0.6,0,0.9c0,0-0.2,0.1-0.2,0.1
			C20,5,19.8,4.9,19.8,4.9c-0.4,0.3-1,0.5-1.5,0.6c-0.7,0-1.3-0.3-1.8-0.7C16,4.3,15.7,3.6,15.8,3c0-0.8,0.3-1.5,0.8-2
			c0.5-0.5,1.2-0.8,1.9-0.8C19,0.1,19.4,0.2,19.8,0.4z"/>
		<path id="Path_511" class="st0" d="M26.5,5c0.6,0,0.7,0,0.7,0s0.1-0.2,0.1-0.6V1.1c0-0.2,0-0.4-0.1-0.6c0,0-0.2,0-0.7,0
			c0,0,0-0.3,0-0.3c0.1,0,1.6,0,2.5,0c0,0,0,0.3,0,0.3c-0.4,0-0.6,0-0.6,0c0,0,0,0.1,0,0.6v1.4c0.2,0,1,0,1.6,0c0.2,0,0.4,0,0.6,0
			V1.2c0-0.2,0-0.5,0-0.7c0,0-0.2,0-0.6,0c0,0,0-0.3,0-0.3h2.5c0,0,0,0.3,0,0.3c-0.4,0-0.6,0-0.6,0s-0.1,0.2-0.1,0.7
			c0,0.5,0,1,0,1.5v1.6c0,0.6,0,0.7,0.1,0.7s0.2,0,0.6,0c0,0,0,0.3,0,0.3h-2.6c0,0,0-0.3,0-0.3c0.2,0,0.4,0,0.6-0.1
			c0,0,0.1-0.2,0.1-0.9V2.7h-2.1v1.4c0,0.6,0,0.7,0.1,0.8s0.1,0,0.6,0c0,0,0,0.3,0,0.3h-2.6C26.5,5.3,26.5,5,26.5,5z"/>
		<path id="Path_512" class="st0" d="M38.2,0.2c0-0.1,0.1-0.1,0.1-0.1c0.2,0,1.5,0,2.2,0c0.8,0,1.7,0,2.5,0c0.1,0,0.1,0,0.1,0
			c0,0.6,0,1.2,0,1.9c0,0-0.2,0-0.2,0c-0.1-0.5-0.4-1-0.6-1.5c-0.1-0.1-0.3-0.2-0.7-0.2h-0.3c0,0,0,0.1,0,1c0,1.1,0,2,0,3.1
			c0,0.3,0,0.4,0,0.4s0.1,0,0.9,0.1c0,0,0,0.3,0,0.3c-1,0-2,0-3,0c0,0,0-0.3,0-0.3C39.8,5,40,5,40,4.9s0.1-0.2,0.1-0.7
			c0-1.2,0-1.9,0-3.1c0-0.6,0-0.6,0-0.7c-0.1,0-0.2,0-0.4,0c-0.2,0-0.5,0-0.6,0.2c-0.3,0.5-0.6,1-0.7,1.6c0,0-0.2,0-0.2,0
			C38.2,1.4,38.2,0.8,38.2,0.2z"/>
		<path id="Path_513" class="st0" d="M55.7,5c0.6,0,0.7,0,0.7,0s0.1-0.2,0.1-0.6V1.1c0-0.2,0-0.4-0.1-0.6c0,0-0.2,0-0.7,0
			c0,0,0-0.3,0-0.3c0.1,0,1.6,0,2.5,0c0,0,0,0.3,0,0.3c-0.4,0-0.6,0-0.6,0c0,0,0,0.1,0,0.6v1.4c0.2,0,1,0,1.6,0c0.2,0,0.4,0,0.6,0
			V1.2c0-0.2,0-0.5,0-0.7c0,0-0.2,0-0.6,0c0,0,0-0.3,0-0.3h2.5c0,0,0,0.3,0,0.3c-0.4,0-0.6,0-0.6,0S61,0.6,60.9,1.2c0,0.5,0,1,0,1.5
			v1.6c0,0.6,0,0.7,0.1,0.7s0.2,0,0.6,0c0,0,0,0.3,0,0.3h-2.6c0,0,0-0.3,0-0.3c0.2,0,0.4,0,0.6-0.1c0,0,0.1-0.2,0.1-0.9V2.7h-2.1
			v1.4c0,0.6,0,0.7,0.1,0.8s0.1,0,0.6,0c0,0,0,0.3,0,0.3h-2.6C55.7,5.3,55.7,5,55.7,5z"/>
		<path id="Path_514" class="st0" d="M68,4.5c-0.5-0.5-0.7-1.1-0.7-1.8c0-0.7,0.3-1.3,0.8-1.8C68.6,0.4,69.5,0,70.3,0
			c0.7,0,1.4,0.3,2,0.8c0.4,0.5,0.7,1.1,0.7,1.7c0,1.6-1.3,2.8-2.9,2.8C69.3,5.4,68.5,5.1,68,4.5z M68.6,2.9c-0.1,0.5,0,1,0.2,1.4
			c0.2,0.5,0.7,0.7,1.2,0.7c0.5,0,1.1-0.3,1.3-0.8c0.2-0.5,0.3-1.1,0.3-1.6c0.1-0.6,0-1.2-0.3-1.7c-0.2-0.4-0.5-0.6-1.2-0.6
			c-0.5,0-1,0.3-1.3,0.8C68.7,1.7,68.6,2.3,68.6,2.9L68.6,2.9z"/>
		<path id="Path_515" class="st0" d="M81.1,0.1c0,0,0,0.3,0,0.3c-0.5,0-0.6,0-0.6,0c-0.1,0.6-0.2,1.2-0.1,1.8v1.2
			c0,0.6,0.1,0.9,0.3,1.1c0.3,0.3,0.7,0.4,1.1,0.4c0.7,0.1,1.4-0.5,1.4-1.2c0-0.1,0-0.1,0-0.2V1.8c0-0.9-0.1-1.3-0.2-1.4
			c0,0-0.2-0.1-0.7-0.1c0,0,0-0.3,0-0.3c0.7,0,1.4,0,2,0c0,0,0,0.3,0,0.3c-0.4,0-0.6,0.1-0.6,0.2c-0.1,0.1-0.1,0.3-0.2,1.2
			c0,0.6,0,1.1,0,1.8c0,1-0.7,1.8-1.7,1.9c-0.1,0-0.2,0-0.3,0c-0.6,0-1.3-0.2-1.8-0.6c-0.3-0.4-0.5-0.8-0.4-1.3c0-0.8,0-1.9,0-2.6
			c0-0.3,0-0.4,0-0.4s-0.2,0-0.7,0c0,0,0-0.3,0-0.3C79.4,0.1,80.1,0.1,81.1,0.1z"/>
		<path id="Path_516" class="st0" d="M91.1,0.1h1.4c0.7-0.1,1.4,0.1,1.9,0.6c0.2,0.2,0.3,0.4,0.2,0.7c0,0.8-0.9,1.3-1.7,1.4v0
			C93.7,3,94.1,3.3,94.3,4c0.2,0.8,0.3,0.9,0.5,0.9c0.2,0,0.3-0.2,0.5-0.6c0,0,0.3,0.1,0.2,0.1C95.3,5,95,5.4,94.5,5.4
			c-0.3,0-0.6-0.1-0.9-0.3c-0.3-0.3-0.5-0.8-0.5-1.2c-0.2-0.8-0.4-0.9-0.9-0.9h-0.6c0,0,0,0,0,0v1.7c0,0.2,0,0.2,0,0.2
			s0.1,0,0.8,0.1c0,0,0,0.3,0,0.3c-0.1,0-1.7,0-2.7,0c0,0,0-0.3,0-0.3c0.5,0,0.7,0,0.7-0.1s0-0.1,0-0.4c0-1.2,0-1.7,0-2V0.9
			c0-0.1,0-0.3,0-0.4c0,0-0.1,0-0.7,0c0,0,0-0.3,0-0.3L91.1,0.1z M91.6,0.7v1.9h0.6c0.6,0,1-0.1,1.2-0.4c0.1-0.2,0.1-0.5,0.1-0.8
			c0-0.2,0-0.4-0.1-0.6c-0.1-0.2-0.4-0.4-1.1-0.4c-0.6,0-0.6,0-0.7,0L91.6,0.7z"/>
	</g>
	<g id="Group_350" transform="translate(0.07 11.454)">
		<path id="Path_517" class="st1" d="M94.2,0.7l-5.5,6l-5.5-6h-1.3v10.2H83V2.2l5.7,6.2l5.7-6.3v8.8h1.1V0.7H94.2z"/>
		<path id="Path_518" class="st1" d="M-9.5,0.7v9l-9.6-9h-1.4v10.2h1.1V2l9.5,8.9h1.4V0.7H-9.5z"/>
		<path id="Path_519" class="st1" d="M61.6,10.9l1.6-2.5h8.7l1.6,2.5h1.3L68.1,0.7h-1.4l-6.4,10.2H61.6z M67.4,1.6l3.8,5.7h-7.3
			L67.4,1.6z"/>
		<path id="Path_520" class="st1" d="M51.7,6.8C53,6.3,53.8,5,53.8,3.6c0-1.9-1.5-3.4-3.4-3.4c0,0,0,0,0,0h-8.1V11h1.1V7h5.4
			c2.2,0,4,1.7,4,3.9H54C54,9.3,53.1,7.7,51.7,6.8z M43.4,6V1.3h7c1.3,0.1,2.3,1.2,2.2,2.5c-0.1,1.2-1,2.2-2.2,2.2L43.4,6L43.4,6z"
			/>
		<path id="Path_521" class="st1" d="M28.3,6.4h4.6v2.7c0,0.1-0.1,0.2-0.2,0.3c-1.2,0.8-2.7,1.3-4.2,1.3c-3.4,0-6.1-2.1-6.1-4.8
			s2.8-4.8,6.1-4.8c1.5,0,2.9,0.4,4.1,1.2l0.6-0.9c-1.4-1-3.1-1.5-4.8-1.4c-4,0-7.2,2.6-7.2,5.8c0,3.2,3.2,5.8,7.2,5.8
			c1.7,0,3.4-0.5,4.8-1.5C33.8,10,34,9.6,34,9.1V5.3h-5.8L28.3,6.4L28.3,6.4z"/>
		<path id="Path_522" class="st1" d="M-51.9,0.7l-5.5,6l-5.5-6h-1.3v10.2h1.1V2.2l5.7,6.2l5.7-6.3v8.8h1.1V0.7H-51.9z"/>
		<path id="Path_523" class="st1" d="M6.8,0c-4,0-7.2,2.6-7.2,5.8c0,3.2,3.2,5.8,7.2,5.8S14,9.1,14,5.8S10.7,0,6.8,0z M6.8,10.6
			c-3.4,0-6.1-2.1-6.1-4.8s2.8-4.8,6.1-4.8s6.1,2.1,6.1,4.8S10.1,10.6,6.8,10.6z"/>
		<path id="Path_524" class="st1" d="M-35.5,0c-4,0-7.2,2.6-7.2,5.8c0,3.2,3.2,5.8,7.2,5.8s7.2-2.6,7.2-5.8S-31.5,0-35.5,0z
			 M-35.5,10.6c-3.4,0-6.1-2.1-6.1-4.8s2.8-4.8,6.1-4.8s6.1,2.1,6.1,4.8S-32.1,10.6-35.5,10.6z"/>
	</g>
</g>
</svg>
