<svg xmlns="http://www.w3.org/2000/svg" xmlns:xlink="http://www.w3.org/1999/xlink" width="330.75" height="133.611" viewBox="0 0 330.75 133.611">
  <defs>
    <linearGradient id="linear-gradient" x1="0.106" y1="0.842" x2="0.894" y2="0.158" gradientUnits="objectBoundingBox">
      <stop offset="0" stop-color="#2c4454"/>
      <stop offset="1" stop-color="#c6a193"/>
    </linearGradient>
  </defs>
  <g id="Group_217" data-name="Group 217" transform="translate(-33.776 373.217)">
    <g id="Group_213" data-name="Group 213" transform="translate(33.776 -297.521)">
      <g id="Group_211" data-name="Group 211" transform="translate(223.272 0)">
        <path id="Path_421" data-name="Path 421" d="M484.48-201.852H377v-.976H483.5v-53.05H460.534v-.976H484.48Z" transform="translate(-377.003 256.854)" fill="#c6a193"/>
      </g>
      <g id="Group_212" data-name="Group 212" transform="translate(0 0)">
        <path id="Path_422" data-name="Path 422" d="M141.254-201.852H33.776v-55H57.723v.976H34.752v53.05h106.5Z" transform="translate(-33.776 256.854)" fill="#c6a193"/>
      </g>
    </g>
    <g id="Group_214" data-name="Group 214" transform="translate(76.431 -300.94)">
      <path id="Path_423" data-name="Path 423" d="M102.579-261.9c1.822,0,2.421.013,3.878-.013.065,0,.091.026.091.091-.013.794-.013,1.691-.065,2.655,0,.052-.4.052-.416,0a5.059,5.059,0,0,0-.872-1.978c-.234-.248-.5-.313-1.3-.313-.755,0-1.171,0-1.444.013a9.421,9.421,0,0,0-.065,1.575c0,.546,0,.976.013,1.523a4.183,4.183,0,0,0,.572.012c.69,0,.937-.064,1.054-.182.144-.129.208-.364.351-1.289.014-.038.4-.038.4.026-.012.443-.038,1.12-.038,1.6,0,.612.038,1.224.052,1.718,0,.065-.391.065-.391.026-.169-.833-.273-1.132-.416-1.262-.118-.131-.469-.169-.976-.169a5.854,5.854,0,0,0-.624.026c0,1.119.013,1.717.026,2.525.013.585.026.729.078.781s.182.078,1.366.1c.052,0,.039.442-.013.442h-2.134c-.794,0-1.692,0-2.316.012-.066,0-.052-.442,0-.442.911-.013,1.119-.026,1.184-.091.039-.04.078-.208.078-.911.013-.937.026-1.627.026-2.707,0-.7-.013-1.418-.013-2.03a4.1,4.1,0,0,0-.078-1.21c-.065-.052-.247-.078-1.119-.117-.052,0-.052-.429,0-.429C99.912-261.918,101.786-261.9,102.579-261.9Z" transform="translate(-99.347 262.042)" fill="#c6a193"/>
      <path id="Path_424" data-name="Path 424" d="M124.769-255.227A3.611,3.611,0,0,1,123.715-258a3.872,3.872,0,0,1,1.2-2.707,4.507,4.507,0,0,1,3.422-1.392,4.139,4.139,0,0,1,3.02,1.249,3.674,3.674,0,0,1,1.041,2.655,4.324,4.324,0,0,1-1.3,3.007A4.473,4.473,0,0,1,127.9-253.9,4.6,4.6,0,0,1,124.769-255.227Zm.963-2.473a5.274,5.274,0,0,0,.338,2.239,2.018,2.018,0,0,0,1.874,1.054,2.082,2.082,0,0,0,1.991-1.146,5.687,5.687,0,0,0,.456-2.537,5.737,5.737,0,0,0-.4-2.629,1.833,1.833,0,0,0-1.873-.937,2.169,2.169,0,0,0-1.952,1.158A6.473,6.473,0,0,0,125.732-257.7Z" transform="translate(-107.863 262.105)" fill="#c6a193"/>
      <path id="Path_425" data-name="Path 425" d="M152.255-261.918h2.212a4.151,4.151,0,0,1,2.954.846,1.421,1.421,0,0,1,.39,1.028c0,1.236-1.328,1.978-2.629,2.147v.052c1.223.325,1.847.729,2.121,1.847.286,1.224.4,1.418.729,1.418.273,0,.482-.325.781-.924.026-.065.416.131.39.183-.4.95-.937,1.431-1.678,1.431a1.823,1.823,0,0,1-1.328-.469,3.889,3.889,0,0,1-.781-1.873c-.273-1.158-.572-1.406-1.327-1.406h-.95c-.066,0-.092.026-.092.066,0,1.028-.012,2.394-.012,2.667,0,.247,0,.325.052.365s.155.052,1.184.1c.065,0,.052.468,0,.468-.208-.014-2.59-.052-4.164-.014-.052,0-.052-.468.012-.468a3.315,3.315,0,0,0,1.12-.1c.039-.038.065-.168.065-.585.013-1.873.039-2.668.039-3.123,0-1.028-.013-2.225-.013-2.473,0-.533-.052-.611-.091-.651s-.13-.065-1.132-.065c-.066,0-.078-.455.026-.455C151.148-261.9,151.695-261.918,152.255-261.918Zm.807.937c0,.194-.014,1.392-.014,2.394a4.269,4.269,0,0,0,.014.481,5.4,5.4,0,0,0,.833.027c.885,0,1.548-.1,1.821-.651a2.471,2.471,0,0,0,.208-1.172,1.986,1.986,0,0,0-.182-.963c-.2-.39-.546-.585-1.64-.585-.845,0-.976,0-1.014.039A1.245,1.245,0,0,0,153.062-260.981Z" transform="translate(-117.07 262.042)" fill="#c6a193"/>
      <path id="Path_426" data-name="Path 426" d="M176.132-261.757c.014-.065.066-.169.17-.169.338.013,2.329.039,3.344.052,1.184,0,2.667-.026,3.878-.064.13-.014.182.012.182.077.026.911.039,1.783.013,2.967,0,.065-.351.065-.377.013a8.711,8.711,0,0,0-.989-2.329c-.182-.183-.443-.248-1.08-.248a1.5,1.5,0,0,0-.4.026,6.147,6.147,0,0,0-.066,1.458c-.026,1.64-.039,3.123-.039,4.723,0,.469.013.611.091.677s.208.091,1.327.169c.04,0,.026.429-.026.429-1.6-.065-3.083-.052-4.593,0-.039,0-.065-.442,0-.442,1.133-.052,1.288-.065,1.34-.118a2.6,2.6,0,0,0,.144-1.054c.052-1.821.038-2.889.052-4.8,0-.9-.014-1-.052-1.041s-.13-.039-.56-.039a1.157,1.157,0,0,0-.963.3,8.373,8.373,0,0,0-1.132,2.368c-.026.052-.377.039-.377-.026C176.094-260.039,176.106-260.963,176.132-261.757Z" transform="translate(-126.142 262.051)" fill="#c6a193"/>
      <path id="Path_427" data-name="Path 427" d="M204.54-261.937c.052,0,.052.442.012.442-.677.039-.781.052-.833.117s-.039.182.066.351c.6,1.094,1.118,1.978,1.808,3.046h.026c.6-.924,1.054-1.588,1.457-2.29a1.9,1.9,0,0,0,.325-.872c0-.234-.117-.325-.872-.364-.052,0-.026-.429.026-.429.442.012,1.133.025,1.575.038.351,0,.611,0,1.315-.013.051,0,.051.429.012.442a2.4,2.4,0,0,0-.807.131,4.082,4.082,0,0,0-1.146,1.314c-.325.481-.767,1.158-1.47,2.264a1.065,1.065,0,0,0-.182.651c-.026.624-.026,1.158-.026,1.679.013.7.052.819.1.871s.2.079,1.237.131a1.085,1.085,0,0,1,0,.455c-.586-.014-1.432-.026-2.225-.026-.768,0-1.483.012-2.173.012a1.073,1.073,0,0,1-.013-.455c1.067-.026,1.2-.052,1.275-.118s.091-.247.1-.638c.012-.937.026-1.47.026-1.808a.8.8,0,0,0-.143-.546c-.781-1.263-1.028-1.679-1.809-2.89a5.913,5.913,0,0,0-.572-.819c-.13-.131-.247-.17-.976-.2-.04,0-.026-.455.026-.455C201.847-261.9,203.057-261.9,204.54-261.937Z" transform="translate(-134.748 262.049)" fill="#c6a193"/>
      <path id="Path_428" data-name="Path 428" d="M246.652-261.886c.989,0,2.108,0,3.319-.051.077,0,.1.038.091.129-.053.807-.091,1.874-.131,2.616-.026.052-.364.039-.39-.026a4.691,4.691,0,0,0-.872-1.887c-.3-.313-.494-.339-1.692-.339a5.367,5.367,0,0,0-1.223.039,10.685,10.685,0,0,0-.039,1.5c0,.208-.013,1.132-.013,1.5.26.012.377.012.781.012.624,0,.885-.1,1.028-.234.116-.131.208-.365.3-1.133.026-.064.4-.052.4.014-.039,1.249-.026,2.485.026,3.305,0,.052-.377.065-.39.013-.156-.911-.274-1.211-.39-1.327s-.273-.143-.976-.143c-.235,0-.521,0-.768.026-.013.377-.013.9-.013,1.288a8.754,8.754,0,0,0,.052,2.017,3.263,3.263,0,0,0,1.133.117h1.054c.572,0,.807-.065,1-.247a5.822,5.822,0,0,0,.937-2.316c.014-.039.417-.039.417.026-.014.924-.04,1.978-.066,2.915,0,.065-.026.078-.1.078-1.457-.013-2.316-.013-3.695-.013-1.588,0-2.5,0-3.7.025-.039,0-.052-.481,0-.481.976-.013,1.106-.04,1.146-.078a10.439,10.439,0,0,0,.1-2.317c0-.95-.014-1.939-.014-3.2,0-1.054-.012-1.274-.064-1.327s-.157-.078-1.067-.116c-.039-.026-.039-.417.026-.417C243.478-261.9,246.107-261.886,246.652-261.886Z" transform="translate(-149.448 262.049)" fill="#c6a193"/>
      <path id="Path_429" data-name="Path 429" d="M272.046-261.907c.039,0,.039.442-.013.442-.677,0-.833,0-.885.065s-.116.248-.142,1.393c-.013.638-.013,1.847-.013,2.46,0,.663,0,1.275.013,1.991.013.794.039.95.1,1.015.038.038.2.065,1.067.078.065,0,.053.442.013.468-.781-.013-1.393-.013-2.1-.013-.924,0-1.535.013-2,.025-.065,0-.052-.455,0-.455a3.949,3.949,0,0,0,1.119-.092c.04-.038.066-.221.078-.976.014-.963.014-1.392.014-2.082s-.014-1.7-.026-2.577a3.75,3.75,0,0,0-.1-1.223c-.065-.052-.234-.065-1.028-.091-.025,0-.038-.442.014-.442C269.534-261.92,270.68-261.932,272.046-261.907Z" transform="translate(-158.306 262.044)" fill="#c6a193"/>
      <path id="Path_430" data-name="Path 430" d="M293.921-261.542c.156,0,.429-.234.7-.559.038-.026.312.026.312.065a20.713,20.713,0,0,0-.182,2.72c0,.065-.377.078-.39.039a6.412,6.412,0,0,0-1.106-1.874,1.7,1.7,0,0,0-1.288-.455,1.922,1.922,0,0,0-1.8,1.054,5.606,5.606,0,0,0-.442,2.655,5.6,5.6,0,0,0,.364,2.681,1.673,1.673,0,0,0,1.627.872,1.693,1.693,0,0,0,1.5-.741,3.208,3.208,0,0,0,.1-1.289c0-.7-.052-.82-.1-.872s-.312-.078-1.106-.09c-.053,0-.053-.429,0-.429,1.366.012,2.394.012,3.826-.065.065,0,.065.39.026.429a3.33,3.33,0,0,0-.911.117,5.616,5.616,0,0,0-.092,1.77c0,.481.026,1.015.04,1.392,0,.065-.313.143-.365.1-.377-.507-.6-.767-.729-.767a4.815,4.815,0,0,1-2.342.9A3.816,3.816,0,0,1,288.834-255a3.811,3.811,0,0,1-1.12-2.785,4.237,4.237,0,0,1,1.3-3.057,4.131,4.131,0,0,1,2.928-1.224A4.915,4.915,0,0,1,293.921-261.542Z" transform="translate(-165.179 262.109)" fill="#c6a193"/>
      <path id="Path_431" data-name="Path 431" d="M313.158-254.448c.859,0,1.028-.013,1.08-.065s.1-.26.118-.937c.013-1,.026-1.666.026-2.994,0-1.223-.013-1.614-.013-2.017a2.49,2.49,0,0,0-.117-.937c-.066-.065-.273-.078-1.028-.091-.052-.026-.04-.429.026-.429.207.013,2.421.052,3.852.026.038,0,.064.416,0,.416-.664.026-.9.026-.937.078s-.064.2-.064.885c0,.469,0,1.471.012,2.069.325,0,1.445.04,2.368.04a6.34,6.34,0,0,0,.9-.04c.012-.468.026-1.392.026-1.847a3.256,3.256,0,0,0-.078-1.133,2.275,2.275,0,0,0-.885-.077c-.065,0-.065-.417.026-.417,1.614.026,3.566,0,3.839,0,.052,0,.038.417,0,.417a2.58,2.58,0,0,0-.989.077c-.065.052-.142.26-.156,1.055-.026.755-.039,1.548-.039,2.355,0,.924-.013,1.731-.013,2.395,0,.859.066,1.041.13,1.107s.247.065.976.078c.066,0,.066.455-.026.455-.742-.012-2.8-.012-3.916,0-.04-.025-.026-.429.026-.429a3.177,3.177,0,0,0,.962-.118c.052-.052.1-.273.1-1.405,0-.585.014-1.093.014-2.017-.69.012-1.783,0-2.746,0a2.562,2.562,0,0,0-.521.026c-.012.82-.026,1.665-.026,2.238,0,.872.04,1.12.118,1.184.051.066.181.079.936.092.053,0,.066.429-.026.429-.494-.012-1.132-.025-1.978-.025-.885,0-1.6.013-1.991,0C313.068-254.006,313.08-254.448,313.158-254.448Z" transform="translate(-174.049 262.042)" fill="#c6a193"/>
      <path id="Path_432" data-name="Path 432" d="M340.651-261.757c.013-.065.065-.169.17-.169.338.013,2.329.039,3.344.052,1.185,0,2.668-.026,3.878-.064.13-.014.182.012.182.077.026.911.04,1.783.014,2.967,0,.065-.351.065-.377.013a8.7,8.7,0,0,0-.989-2.329c-.182-.183-.442-.248-1.08-.248a1.5,1.5,0,0,0-.4.026,6.261,6.261,0,0,0-.066,1.458c-.026,1.64-.038,3.123-.038,4.723,0,.469.012.611.091.677s.208.091,1.327.169c.039,0,.026.429-.026.429-1.6-.065-3.084-.052-4.594,0-.039,0-.065-.442,0-.442,1.133-.052,1.289-.065,1.341-.118a2.626,2.626,0,0,0,.143-1.054c.052-1.821.039-2.889.052-4.8,0-.9-.013-1-.052-1.041s-.13-.039-.559-.039a1.159,1.159,0,0,0-.963.3,8.409,8.409,0,0,0-1.132,2.368c-.026.052-.377.039-.377-.026C340.612-260.039,340.625-260.963,340.651-261.757Z" transform="translate(-183.639 262.051)" fill="#c6a193"/>
      <path id="Path_433" data-name="Path 433" d="M382-254.448c.859,0,1.028-.013,1.08-.065s.1-.26.118-.937c.013-1,.026-1.666.026-2.994,0-1.223-.013-1.614-.013-2.017a2.489,2.489,0,0,0-.117-.937c-.066-.065-.273-.078-1.028-.091-.052-.026-.04-.429.026-.429.207.013,2.421.052,3.852.026.038,0,.064.416,0,.416-.664.026-.9.026-.937.078s-.064.2-.064.885c0,.469,0,1.471.012,2.069.325,0,1.445.04,2.368.04a6.341,6.341,0,0,0,.9-.04c.012-.468.026-1.392.026-1.847a3.254,3.254,0,0,0-.078-1.133,2.275,2.275,0,0,0-.885-.077c-.065,0-.065-.417.026-.417,1.614.026,3.566,0,3.839,0,.052,0,.038.417,0,.417a2.58,2.58,0,0,0-.989.077c-.065.052-.143.26-.156,1.055-.026.755-.039,1.548-.039,2.355,0,.924-.013,1.731-.013,2.395,0,.859.065,1.041.13,1.107s.247.065.976.078c.066,0,.066.455-.026.455-.742-.012-2.8-.012-3.917,0-.039-.025-.026-.429.027-.429a3.176,3.176,0,0,0,.962-.118c.052-.052.1-.273.1-1.405,0-.585.014-1.093.014-2.017-.69.012-1.784,0-2.746,0a2.562,2.562,0,0,0-.521.026c-.012.82-.026,1.665-.026,2.238,0,.872.04,1.12.118,1.184.051.066.181.079.936.092.052,0,.066.429-.026.429-.494-.012-1.132-.025-1.978-.025-.885,0-1.6.013-1.991,0C381.908-254.006,381.92-254.448,382-254.448Z" transform="translate(-198.108 262.042)" fill="#c6a193"/>
      <path id="Path_434" data-name="Path 434" d="M410.327-255.227A3.611,3.611,0,0,1,409.272-258a3.875,3.875,0,0,1,1.2-2.707,4.509,4.509,0,0,1,3.422-1.392,4.139,4.139,0,0,1,3.02,1.249,3.673,3.673,0,0,1,1.041,2.655,4.321,4.321,0,0,1-1.3,3.007,4.47,4.47,0,0,1-3.188,1.288A4.593,4.593,0,0,1,410.327-255.227Zm.963-2.473a5.273,5.273,0,0,0,.338,2.239,2.017,2.017,0,0,0,1.873,1.054,2.082,2.082,0,0,0,1.991-1.146,5.7,5.7,0,0,0,.455-2.537,5.74,5.74,0,0,0-.4-2.629,1.834,1.834,0,0,0-1.874-.937,2.172,2.172,0,0,0-1.952,1.158A6.487,6.487,0,0,0,411.29-257.7Z" transform="translate(-207.662 262.105)" fill="#c6a193"/>
      <path id="Path_435" data-name="Path 435" d="M439.609-261.9c.065,0,.065.416,0,.416-.82.013-.95.026-1,.078a10.318,10.318,0,0,0-.156,2.837c0,.768.013,1.133.013,1.835,0,.976.182,1.38.481,1.665a2.227,2.227,0,0,0,1.666.547,2.047,2.047,0,0,0,2.173-2.2c.012-.924.026-1.757.026-2.5,0-1.418-.13-1.978-.261-2.108-.09-.091-.221-.13-1.106-.169-.052,0-.065-.429,0-.429.963.039,2.108.052,3.11.013.065,0,.052.429.013.429-.7.091-.872.144-.95.234-.156.156-.208.481-.234,1.757-.026.859-.039,1.652-.039,2.759a2.8,2.8,0,0,1-3.11,2.849,4.026,4.026,0,0,1-2.785-.871,2.51,2.51,0,0,1-.7-2c0-1.237.027-2.915.039-3.982,0-.455-.026-.624-.078-.677a3.344,3.344,0,0,0-1.054-.09c-.052,0-.052-.429.013-.429C437.019-261.912,438.086-261.937,439.609-261.9Z" transform="translate(-216.869 262.049)" fill="#c6a193"/>
      <path id="Path_436" data-name="Path 436" d="M464.093-261.918h2.212a4.153,4.153,0,0,1,2.954.846,1.421,1.421,0,0,1,.39,1.028c0,1.236-1.327,1.978-2.628,2.147v.052c1.223.325,1.847.729,2.121,1.847.286,1.224.4,1.418.729,1.418.273,0,.481-.325.781-.924.026-.065.416.131.39.183-.4.95-.937,1.431-1.678,1.431a1.823,1.823,0,0,1-1.328-.469,3.882,3.882,0,0,1-.781-1.873c-.273-1.158-.572-1.406-1.327-1.406h-.95c-.066,0-.092.026-.092.066,0,1.028-.012,2.394-.012,2.667,0,.247,0,.325.052.365s.155.052,1.184.1c.065,0,.052.468,0,.468-.208-.014-2.59-.052-4.164-.014-.052,0-.052-.468.012-.468a3.318,3.318,0,0,0,1.12-.1c.038-.038.064-.168.064-.585.014-1.873.04-2.668.04-3.123,0-1.028-.014-2.225-.014-2.473,0-.533-.052-.611-.09-.651s-.13-.065-1.132-.065c-.066,0-.079-.455.026-.455C462.987-261.9,463.534-261.918,464.093-261.918Zm.807.937c0,.194-.014,1.392-.014,2.394a4.259,4.259,0,0,0,.014.481,5.394,5.394,0,0,0,.833.027c.885,0,1.548-.1,1.821-.651a2.479,2.479,0,0,0,.208-1.172,1.985,1.985,0,0,0-.182-.963c-.2-.39-.546-.585-1.64-.585-.846,0-.976,0-1.014.039A1.246,1.246,0,0,0,464.9-260.981Z" transform="translate(-226.054 262.042)" fill="#c6a193"/>
    </g>
    <path id="Path_437" data-name="Path 437" d="M287.652-223.681" transform="translate(-88.727 -52.261)" fill="#1a1818"/>
    <g id="Group_215" data-name="Group 215" transform="translate(150.857 -246.204)">
      <path id="Path_438" data-name="Path 438" d="M213.759-172.4l.674-.8a2.941,2.941,0,0,0,2.014.829c.693,0,1.13-.319,1.13-.8v-.018c0-.456-.255-.7-1.44-.975-1.358-.328-2.123-.73-2.123-1.9v-.018a1.951,1.951,0,0,1,2.178-1.849,3.534,3.534,0,0,1,2.315.8l-.6.848a2.9,2.9,0,0,0-1.731-.656c-.656,0-1.039.338-1.039.757v.018c0,.492.291.71,1.512,1,1.349.328,2.05.811,2.05,1.868v.018c0,1.194-.939,1.9-2.278,1.9A3.93,3.93,0,0,1,213.759-172.4Z" transform="translate(-213.759 177.955)" fill="#c6a193"/>
      <path id="Path_439" data-name="Path 439" d="M231.036-177.8h1.12v6.379h-1.12Z" transform="translate(-219.797 177.906)" fill="#c6a193"/>
      <path id="Path_440" data-name="Path 440" d="M242.935-177.8h1.039l3.417,4.41v-4.41h1.1v6.379h-.938l-3.517-4.538v4.538h-1.1Z" transform="translate(-223.956 177.906)" fill="#c6a193"/>
      <path id="Path_441" data-name="Path 441" d="M261.121-174.648v-.018a3.228,3.228,0,0,1,3.29-3.3,3.325,3.325,0,0,1,2.5.993l-.72.829a2.539,2.539,0,0,0-1.786-.793,2.141,2.141,0,0,0-2.1,2.251v.018a2.157,2.157,0,0,0,2.1,2.269,2.5,2.5,0,0,0,1.832-.829l.72.729a3.294,3.294,0,0,1-2.588,1.13A3.208,3.208,0,0,1,261.121-174.648Z" transform="translate(-230.312 177.965)" fill="#c6a193"/>
      <path id="Path_442" data-name="Path 442" d="M279.447-177.8h4.729v1h-3.608v1.658h3.2v1h-3.2v1.713h3.654v1h-4.775Z" transform="translate(-236.716 177.906)" fill="#c6a193"/>
      <path id="Path_443" data-name="Path 443" d="M307.573-172.351l2.2-1.868c.875-.738,1.194-1.148,1.194-1.723a.956.956,0,0,0-1.029-.993c-.584,0-.985.319-1.477.957l-.792-.62a2.614,2.614,0,0,1,2.351-1.339,1.909,1.909,0,0,1,2.1,1.9v.018c0,1-.528,1.55-1.658,2.469l-1.312,1.094h3.035v.984h-4.611Z" transform="translate(-246.546 177.955)" fill="#c6a193"/>
      <path id="Path_444" data-name="Path 444" d="M323.826-174.648v-.018c0-1.822,1.112-3.3,2.789-3.3s2.77,1.458,2.77,3.281v.018c0,1.822-1.112,3.3-2.789,3.3S323.826-172.825,323.826-174.648Zm4.4,0v-.018c0-1.257-.647-2.287-1.632-2.287s-1.613,1-1.613,2.269v.018c0,1.257.638,2.287,1.631,2.287S328.227-173.39,328.227-174.648Z" transform="translate(-252.226 177.965)" fill="#c6a193"/>
      <path id="Path_445" data-name="Path 445" d="M342.4-176.728l-1.147.319-.237-.911,1.713-.547h.783v6.424H342.4Z" transform="translate(-258.235 177.931)" fill="#c6a193"/>
      <path id="Path_446" data-name="Path 446" d="M354.36-172.43l.784-.729a2.081,2.081,0,0,0,1.676.839,1,1,0,0,0,1.1-.966v-.018c0-.629-.574-.985-1.467-.985h-.52l-.182-.7,1.723-1.832h-2.761v-.975h4.219v.839l-1.777,1.822c.965.128,1.877.611,1.877,1.8v.018a2.041,2.041,0,0,1-2.233,2.014A3.024,3.024,0,0,1,354.36-172.43Z" transform="translate(-262.898 177.906)" fill="#c6a193"/>
    </g>
    <g id="Group_216" data-name="Group 216" transform="translate(57.235 -280.327)">
      <path id="Path_447" data-name="Path 447" d="M490.415-228.44l-9.776,10.767-9.746-10.767H468.6v18.129h1.952v-15.6l10.085,11.141,10.121-11.146v15.6h1.952V-228.44Z" transform="translate(-209.202 229.729)" fill="#2c4454"/>
      <path id="Path_448" data-name="Path 448" d="M208.778-228.44v15.987L191.712-228.44h-2.4v18.129h1.952v-15.878l16.949,15.878h2.519V-228.44Z" transform="translate(-111.592 229.729)" fill="#2c4454"/>
      <path id="Path_449" data-name="Path 449" d="M411.865-210.311,414.6-214.7h15.5l2.894,4.386h2.338l-11.96-18.129h-2.486l-11.321,18.129Zm10.275-16.453,6.672,10.115H415.823Z" transform="translate(-188.569 229.729)" fill="#2c4454"/>
      <path id="Path_450" data-name="Path 450" d="M377.186-218.138a6.127,6.127,0,0,0,3.739-5.681,6.038,6.038,0,0,0-5.938-6.121H360.642v19.214h1.952V-217.7h9.58a7.147,7.147,0,0,1,7.16,6.99h1.952A8.874,8.874,0,0,0,377.186-218.138Zm-14.592-1.511v-8.34h12.394a4.086,4.086,0,0,1,3.986,4.17,4.086,4.086,0,0,1-3.986,4.17Z" transform="translate(-171.471 230.253)" fill="#2c4454"/>
      <path id="Path_451" data-name="Path 451" d="M315.6-219.064h8.293v4.775a.644.644,0,0,1-.31.483,12.676,12.676,0,0,1-7.37,2.249c-5.993,0-10.869-3.793-10.869-8.456s4.876-8.456,10.869-8.456a12.7,12.7,0,0,1,7.33,2.22l1.133-1.589a14.661,14.661,0,0,0-8.462-2.583c-7.069,0-12.82,4.669-12.82,10.408s5.751,10.408,12.82,10.408a14.638,14.638,0,0,0,8.51-2.616,2.556,2.556,0,0,0,1.122-2.067v-6.726H315.6Z" transform="translate(-151.463 230.421)" fill="#2c4454"/>
      <path id="Path_452" data-name="Path 452" d="M91.653-228.44l-9.776,10.767L72.131-228.44H69.838v18.129H71.79v-15.6l10.085,11.141L92-225.914v15.6h1.952V-228.44Z" transform="translate(-69.838 229.729)" fill="#2c4454"/>
      <path id="Path_453" data-name="Path 453" d="M256.554-230.421c-7.069,0-12.82,4.669-12.82,10.408s5.751,10.408,12.82,10.408,12.821-4.668,12.821-10.408S263.623-230.421,256.554-230.421Zm0,18.863c-5.993,0-10.869-3.793-10.869-8.456s4.876-8.456,10.869-8.456,10.869,3.793,10.869,8.456S262.547-211.557,256.554-211.557Z" transform="translate(-130.613 230.421)" fill="#2c4454"/>
      <path id="Path_454" data-name="Path 454" d="M141.217-230.421c-7.069,0-12.82,4.669-12.82,10.408s5.751,10.408,12.82,10.408,12.821-4.668,12.821-10.408S148.287-230.421,141.217-230.421Zm0,18.863c-5.993,0-10.869-3.793-10.869-8.456s4.876-8.456,10.869-8.456,10.869,3.793,10.869,8.456S147.21-211.557,141.217-211.557Z" transform="translate(-90.304 230.421)" fill="#2c4454"/>
    </g>
    <path id="Path_455" data-name="Path 455" d="M298.71-358.92l-24.027-13.871-.673-.389a.277.277,0,0,0-.275,0l-.673.389L249.035-358.92l-.673.389a.275.275,0,0,0-.138.239v29.3a.276.276,0,0,0,.138.239l.673.388L273.062-314.5l.673.389a.274.274,0,0,0,.275,0l.673-.389,24.027-13.871.673-.388a.276.276,0,0,0,.138-.239v-29.3a.275.275,0,0,0-.138-.239Zm-5.3,5.76-.254.431-2.465.691-.569,13.508-3.152-3.777a4.735,4.735,0,0,1-1.184-2.7l-.5-2.685-.775.224.571,3.821-1.572-1.293-.518.788,1.173,1.039a12.984,12.984,0,0,1,1.415,1.466l3.187,3.869a6.238,6.238,0,0,1,1.4,3.407l.109,1.635,2-.127-.236.5-1.8.922-.206,6.2L277.686-318.1a5.965,5.965,0,0,1,.312-2.275l2.413-7.025-.653-1.276-2.779,4.426s.037-2.519-.083-3.215l-2.123-.47-.329-.268,2.326-.423s0-10.519.1-11.347a16.377,16.377,0,0,1,1.473-4.488c.2-.436,2.221-4.429,3.633-7.215a29.036,29.036,0,0,1,3.12-4.88c1.347-1.7,3.4-4.408,4.283-5.877l1.581.913-.269,8.46S292.526-353.067,293.408-353.161Zm-32.14,19.518a116.154,116.154,0,0,0,4.25-11.792c.476-1.963,1.522-6.752,2.149-9.646a16.126,16.126,0,0,1,1.676-4.439l.28-.5-.569-.317-1.069,1.236-1.282-3.457-.507.68.679,2.828a2.541,2.541,0,0,1,0,1.166l-1.207,5.175s-.984-1.689-1.805-3.074l-.645.581s1.9,4.747,1.731,5.629a62.749,62.749,0,0,1-3.158,9.368c-1.484,3.229-1.928,4.047-1.928,4.047l.386-11.256.719-16.52,10.015-5.782c.029,3.809.152,19.92.192,22.471.044,2.9.011,3.537.011,3.537l1.837.156.463.381-2.29.66s.183,3.608.275,5.47.7,10.329.742,11.76l.046,1.431,2.508.322.309.3-2.595.812-.082,2.631s.779.324,1.722.636l-1.555.549.054,1.977-12.863-7.427h0S259.713-329.7,261.267-333.643Zm-5.4-24.544-.855-2.31,1.062-.613C256.065-361.011,255.979-359.833,255.866-358.187Zm-1.012,1.542-2.189-2.5,1.236-.714Zm29.628-8.616,3.463,2c-.336.494-3.011,4.421-4.115,5.832C283.831-357.429,284.388-361.907,284.483-365.261Zm-2.489,5.608a4.911,4.911,0,0,1-.275,2.663l-2.56,6.439-.129-3.851-.966-.8-.073,5.468a5.589,5.589,0,0,1-.479,2.19l-1.484,3.346s-.486-8.676-.486-11.469L275.4-357.8l-2.72-.414.254-.369,2.6-.559a19.966,19.966,0,0,1-.168-2.289c0-.778-.031-6.27-.047-9.123l4.805,2.774Zm-.078-7.09,1.077.621v3.424Zm-32.07,9.227,1.618-.934,4.085,5.267c-.126,2.2-.226,4.308-.226,5.51v2.37l2.45,1.283.194.5-2.655-.347s-.457,9.862-.457,16.76a2.235,2.235,0,0,0,.012.232l-5.021-2.9ZM297.9-329.772l-2.869,1.656c.067-1.612.353-8.592.353-10.2,0-1.823-.1-2.726-.1-2.726l-2.365-.376-.174-.332,2.64-.632s.06-4.762.06-5.84c0-2.264-.09-5.942,0-6.719.068-.556.561-2.464.837-3.506l1.615.932Z" transform="translate(-74.947 0)" fill="url(#linear-gradient)"/>
  </g>
</svg>
