<?xml version="1.0" encoding="utf-8"?>
<!-- Generator: Adobe Illustrator 24.0.1, SVG Export Plug-In . SVG Version: 6.00 Build 0)  -->
<svg version="1.1" id="Layer_1" xmlns="http://www.w3.org/2000/svg" xmlns:xlink="http://www.w3.org/1999/xlink" x="0px" y="0px"
	 viewBox="0 0 169.2 119" style="enable-background:new 0 0 169.2 119;" xml:space="preserve">
<style type="text/css">
	.st0{fill:#53565C;}
	.st1{fill:#FFFFFF;}
</style>
<g>
	<g>
		<path class="st0" d="M11,105.8c-1.3,1.1-3,1.5-5.1,1.5H2.9c0,0,0,8.3,0,8.5c0,0.1-0.1,0.5-0.5,0.5c-0.4,0-1.8,0-2,0
			c-0.3,0-0.5-0.2-0.5-0.5c0-0.3,0-19.7,0-20c0-0.2,0.2-0.5,0.5-0.5s5.4,0,5.4,0c2,0,3.8,0.4,5.1,1.5c1.3,1.1,2,2.5,2,4.5
			C13,103.3,12.3,104.7,11,105.8z M8.7,98.5c-0.8-0.5-1.7-0.8-3-0.8H2.9v7.2h2.7c1.3,0,2.3-0.3,3-0.8c0.7-0.5,1.3-1.5,1.3-2.8
			C10,100,9.4,99,8.7,98.5z"/>
		<path class="st0" d="M26,116.6c-5.9,0-10.8-4.1-10.8-10.8S20.1,95,26,95s10.8,4.1,10.8,10.8C36.8,112.5,31.9,116.6,26,116.6z
			 M26,97.5c-4.3,0-7.8,3.1-7.8,8.2c0,5.1,3.5,8.2,7.8,8.2c4.3,0,7.8-3.1,7.8-8.2C33.8,100.6,30.3,97.5,26,97.5z"/>
		<path class="st0" d="M50.4,116.2c-2,0-9.2,0-9.4,0c-0.2,0-0.5-0.2-0.5-0.5c0-3.1,0-19.7,0-20c0-0.3,0.3-0.5,0.5-0.5
			c0.2,0,1.7,0,2,0c0.3,0,0.5,0.3,0.5,0.5s0,17.9,0,17.9s6.6,0,6.9,0c0.3,0,0.5,0.2,0.5,0.5c0,0.6,0,1.4,0,1.6
			C50.9,116,50.7,116.2,50.4,116.2z"/>
		<path class="st0" d="M67.1,95.7c-0.1,0.1-7,11.8-7,11.8s0,8.1,0,8.3s-0.2,0.5-0.5,0.5c-0.7,0-1.8,0-2,0c-0.3,0-0.5-0.2-0.5-0.5
			s0-8.3,0-8.3s-7-11.6-7-11.7c-0.1-0.1,0-0.4,0.2-0.4c0.2,0,2,0,2.3,0s0.6,0.2,0.7,0.4c0.1,0.2,5.2,9.2,5.2,9.2s5.1-9,5.2-9.2
			c0.1-0.2,0.4-0.4,0.7-0.4c0.3,0,2.2,0,2.4,0C67.1,95.3,67.2,95.6,67.1,95.7z"/>
		<path class="st0" d="M97.5,95.7c0,0.1-4.9,16.9-5.8,20c-0.1,0.3-0.5,0.5-0.7,0.5c-0.1,0-1.4,0-2,0c-0.2,0-0.4-0.2-0.5-0.5
			c-0.1-0.3-4.9-16.4-4.9-16.4s-4.8,16.1-4.9,16.4c-0.1,0.3-0.3,0.5-0.5,0.5c-0.6,0-1.9,0-2,0c-0.1,0-0.6-0.2-0.7-0.5
			c-0.9-3.2-5.7-19.9-5.8-20c0-0.2,0.1-0.4,0.3-0.4c0.2,0,1.4,0,2.1,0c0.4,0,0.6,0.3,0.7,0.4c0,0.1,4.4,16.1,4.4,16.1
			S82,96,82.1,95.7c0.1-0.3,0.3-0.4,0.5-0.4c0.1,0,1.8,0,2.1,0c0.3,0,0.5,0.3,0.6,0.4s4.7,16.1,4.7,16.1s4.4-15.9,4.4-16.1
			c0-0.2,0.3-0.4,0.7-0.4c0.4,0,1.9,0,2.1,0C97.5,95.3,97.5,95.6,97.5,95.7z"/>
		<path class="st0" d="M109.4,116.6c-5.9,0-10.8-4.1-10.8-10.8S103.5,95,109.4,95c5.9,0,10.8,4.1,10.8,10.8
			C120.2,112.5,115.3,116.6,109.4,116.6z M109.4,97.5c-4.3,0-7.8,3.1-7.8,8.2c0,5.1,3.5,8.2,7.8,8.2c4.3,0,7.8-3.1,7.8-8.2
			C117.2,100.6,113.7,97.5,109.4,97.5z"/>
		<path class="st0" d="M133.6,116.6c-5.9,0-10.8-4.1-10.8-10.8S127.7,95,133.6,95s10.8,4.1,10.8,10.8
			C144.4,112.5,139.4,116.6,133.6,116.6z M133.6,97.5c-4.3,0-7.8,3.1-7.8,8.2c0,5.1,3.5,8.2,7.8,8.2c4.3,0,7.8-3.1,7.8-8.2
			C141.4,100.6,137.8,97.5,133.6,97.5z"/>
		<path class="st0" d="M162.2,113.5c-1.5,1.4-4.2,2.7-7.8,2.7c0,0-5.6,0-5.8,0s-0.5-0.2-0.5-0.5c0-3.1,0-19.7,0-20
			c0-0.3,0.2-0.5,0.5-0.5s5.8,0,5.8,0c3.6,0,6.3,1.3,7.8,2.7s3.2,3.8,3.2,7.7C165.5,109.7,163.7,112.1,162.2,113.5z M160,99.8
			c-1.2-1.1-3-1.9-5.6-1.9H151v15.9h3.4c2.5,0,4.4-0.9,5.6-1.9c1.2-1.1,2.5-2.9,2.5-6C162.5,102.7,161.1,100.9,160,99.8z"/>
	</g>
	<g>
		<path class="st0" d="M165.5,97L165.5,97c0-1,0.8-1.9,1.9-1.9c1.1,0,1.9,0.9,1.9,1.9v0c0,1-0.8,1.9-1.9,1.9
			C166.3,98.8,165.5,98,165.5,97z M169,96.9L169,96.9c0-0.9-0.7-1.7-1.7-1.7c-0.9,0-1.7,0.8-1.7,1.7v0c0,0.9,0.7,1.7,1.7,1.7
			C168.3,98.6,169,97.9,169,96.9z M166.6,95.9h0.9c0.4,0,0.7,0.2,0.7,0.6c0,0.3-0.2,0.5-0.4,0.6l0.5,0.7h-0.4l-0.5-0.7H167v0.7h-0.4
			L166.6,95.9L166.6,95.9z M167.5,96.9c0.2,0,0.4-0.1,0.4-0.3c0-0.2-0.1-0.3-0.4-0.3H167v0.6L167.5,96.9L167.5,96.9z"/>
	</g>
</g>
<g>
	<g>
		<path class="st1" d="M11,12.8c-1.3,1.1-3,1.5-5.1,1.5H2.9c0,0,0,8.3,0,8.5c0,0.1-0.1,0.5-0.5,0.5c-0.4,0-1.8,0-2,0
			C0.2,23.2,0,23,0,22.8C0,22.5,0,3,0,2.8c0-0.2,0.2-0.5,0.5-0.5s5.4,0,5.4,0c2,0,3.8,0.4,5.1,1.5c1.3,1.1,2,2.5,2,4.5
			S12.3,11.7,11,12.8z M8.7,5.5C7.9,5,7,4.7,5.6,4.7H2.9v7.2h2.7c1.3,0,2.3-0.3,3-0.8C9.4,10.5,10,9.6,10,8.3C10,7,9.4,6,8.7,5.5z"
			/>
		<path class="st1" d="M26,23.6c-5.9,0-10.8-4.1-10.8-10.8S20.1,2,26,2s10.8,4.1,10.8,10.8C36.8,19.5,31.9,23.6,26,23.6z M26,4.5
			c-4.3,0-7.8,3.1-7.8,8.2c0,5.1,3.5,8.2,7.8,8.2c4.3,0,7.8-3.1,7.8-8.2C33.8,7.6,30.3,4.5,26,4.5z"/>
		<path class="st1" d="M50.4,23.2c-2,0-9.2,0-9.4,0c-0.2,0-0.5-0.2-0.5-0.5c0-3.1,0-19.7,0-20c0-0.3,0.3-0.5,0.5-0.5
			c0.2,0,1.7,0,2,0c0.3,0,0.5,0.3,0.5,0.5s0,17.9,0,17.9s6.6,0,6.9,0s0.5,0.2,0.5,0.5c0,0.6,0,1.4,0,1.6
			C50.9,23,50.7,23.2,50.4,23.2z"/>
		<path class="st1" d="M67.1,2.7c-0.1,0.1-7,11.8-7,11.8s0,8.1,0,8.3c0,0.2-0.2,0.5-0.5,0.5c-0.7,0-1.8,0-2,0
			c-0.3,0-0.5-0.2-0.5-0.5s0-8.3,0-8.3s-7-11.6-7-11.7c-0.1-0.1,0-0.4,0.2-0.4c0.2,0,2,0,2.3,0s0.6,0.2,0.7,0.4
			c0.1,0.2,5.2,9.2,5.2,9.2s5.1-9,5.2-9.2c0.1-0.2,0.4-0.4,0.7-0.4c0.3,0,2.2,0,2.4,0C67.1,2.3,67.2,2.6,67.1,2.7z"/>
		<path class="st1" d="M97.5,2.7c0,0.1-4.9,16.9-5.8,20c-0.1,0.3-0.5,0.5-0.7,0.5c-0.1,0-1.4,0-2,0c-0.2,0-0.4-0.2-0.5-0.5
			c-0.1-0.3-4.9-16.4-4.9-16.4s-4.8,16.1-4.9,16.4c-0.1,0.3-0.3,0.5-0.5,0.5c-0.6,0-1.9,0-2,0c-0.1,0-0.6-0.2-0.7-0.5
			c-0.9-3.2-5.7-19.9-5.8-20c0-0.2,0.1-0.4,0.3-0.4c0.2,0,1.4,0,2.1,0c0.4,0,0.6,0.3,0.7,0.4c0,0.1,4.4,16.1,4.4,16.1S82,3,82.1,2.7
			c0.1-0.3,0.3-0.4,0.5-0.4c0.1,0,1.8,0,2.1,0c0.3,0,0.5,0.3,0.6,0.4S90,18.8,90,18.8s4.4-15.9,4.4-16.1c0-0.2,0.3-0.4,0.7-0.4
			c0.4,0,1.9,0,2.1,0C97.5,2.3,97.5,2.6,97.5,2.7z"/>
		<path class="st1" d="M109.4,23.6c-5.9,0-10.8-4.1-10.8-10.8S103.5,2,109.4,2c5.9,0,10.8,4.1,10.8,10.8S115.3,23.6,109.4,23.6z
			 M109.4,4.5c-4.3,0-7.8,3.1-7.8,8.2c0,5.1,3.5,8.2,7.8,8.2c4.3,0,7.8-3.1,7.8-8.2C117.2,7.6,113.7,4.5,109.4,4.5z"/>
		<path class="st1" d="M133.6,23.6c-5.9,0-10.8-4.1-10.8-10.8S127.7,2,133.6,2s10.8,4.1,10.8,10.8S139.4,23.6,133.6,23.6z
			 M133.6,4.5c-4.3,0-7.8,3.1-7.8,8.2c0,5.1,3.5,8.2,7.8,8.2c4.3,0,7.8-3.1,7.8-8.2C141.4,7.6,137.8,4.5,133.6,4.5z"/>
		<path class="st1" d="M162.2,20.5c-1.5,1.4-4.2,2.7-7.8,2.7c0,0-5.6,0-5.8,0s-0.5-0.2-0.5-0.5c0-3.1,0-19.7,0-20
			c0-0.3,0.2-0.5,0.5-0.5s5.8,0,5.8,0c3.6,0,6.3,1.3,7.8,2.7s3.2,3.8,3.2,7.7S163.7,19.1,162.2,20.5z M160,6.8
			c-1.2-1.1-3-1.9-5.6-1.9H151v15.9h3.4c2.5,0,4.4-0.9,5.6-1.9c1.2-1.1,2.5-2.9,2.5-6C162.5,9.7,161.1,7.9,160,6.8z"/>
	</g>
	<g>
		<path class="st1" d="M165.5,4L165.5,4c0-1,0.8-1.9,1.9-1.9c1.1,0,1.9,0.9,1.9,1.9v0c0,1-0.8,1.9-1.9,1.9
			C166.3,5.8,165.5,5,165.5,4z M169,3.9L169,3.9c0-0.9-0.7-1.7-1.7-1.7c-0.9,0-1.7,0.8-1.7,1.7v0c0,0.9,0.7,1.7,1.7,1.7
			C168.3,5.6,169,4.9,169,3.9z M166.6,2.9h0.9c0.4,0,0.7,0.2,0.7,0.6c0,0.3-0.2,0.5-0.4,0.6l0.5,0.7h-0.4l-0.5-0.7H167v0.7h-0.4
			L166.6,2.9L166.6,2.9z M167.5,3.9c0.2,0,0.4-0.1,0.4-0.3c0-0.2-0.1-0.3-0.4-0.3H167v0.6L167.5,3.9L167.5,3.9z"/>
	</g>
</g>
</svg>
