<?xml version="1.0" encoding="UTF-8"?>
<svg width="20px" height="16px" viewBox="0 0 20 16" version="1.1" xmlns="http://www.w3.org/2000/svg" xmlns:xlink="http://www.w3.org/1999/xlink">
    <!-- Generator: sketchtool 63.1 (101010) - https://sketch.com -->
    <title>FF354D3F-E773-4EC3-8AFE-9577B0BDEC17</title>
    <desc>Created with sketchtool.</desc>
    <defs>
        <path d="M19.5360882,0.155687972 L19.560999,0.17189477 C19.568546,0.177015528 19.5760361,0.182249598 19.5834669,0.187596832 C19.6051872,0.203389755 19.6265157,0.220079229 19.647125,0.237589472 C19.6555529,0.244615576 19.664253,0.252273159 19.6728448,0.260105534 C19.6943414,0.27979046 19.7146138,0.299901949 19.734001,0.320844738 C19.7384909,0.325701598 19.7429695,0.330641383 19.7474093,0.335636161 L19.7598047,0.349820364 C19.7667696,0.357951844 19.7736061,0.366196438 19.7803112,0.374551009 L19.7474093,0.335636161 C19.7777842,0.369807922 19.8053898,0.405482511 19.8302421,0.442385089 C19.8442108,0.463157996 19.8575667,0.484708919 19.8701067,0.506783868 C19.8792651,0.522857527 19.8876726,0.538660644 19.8956228,0.554623749 C19.9023218,0.568113841 19.9090047,0.582335318 19.9153577,0.596734984 C19.9395629,0.651668639 19.9584143,0.70779959 19.9721594,0.764837688 C19.990863,0.844338429 20,0.921102179 20,1 L20,1 L20,15 C20,15.5522847 19.5522847,16 19,16 L19,16 L1,16 C0.44771525,16 0,15.5522847 0,15 L0,15 L0,1 C0,0.921102179 0.00913704592,0.844338429 0.0264107128,0.770709175 C0.04158567,0.70779959 0.060437138,0.651668639 0.0844368463,0.597156008 C0.0909953405,0.582335318 0.0976782366,0.568113841 0.104681377,0.554080125 C0.112327393,0.538660644 0.120734943,0.522857527 0.129600942,0.507233168 C0.142433344,0.484708919 0.15578921,0.463157996 0.169919894,0.442172102 C0.171517352,0.439772517 0.17329061,0.4371661 0.175077673,0.434565936 L0.219688767,0.374551009 C0.226393906,0.366196438 0.233230448,0.357951844 0.240195257,0.349820364 C0.244092706,0.345287925 0.248314248,0.340447149 0.252590681,0.335636161 L0.265998995,0.320844738 C0.285386223,0.299901949 0.305658632,0.27979046 0.326756768,0.260569726 L0.252590681,0.335636161 C0.284271201,0.299995577 0.317928441,0.267155098 0.353250575,0.237133068 C0.373484344,0.220079229 0.394812817,0.203389755 0.416809864,0.187571569 C0.423963882,0.182249598 0.431454002,0.177015528 0.439000967,0.17189477 L0.463911818,0.155687972 L0.463911818,0.155687972 L0.543019218,0.110221112 C0.544327611,0.109549523 0.545637226,0.108880979 0.546948052,0.108215482 C0.577477248,0.0927342648 0.608918479,0.0787111113 0.64116466,0.0663103571 C0.645622222,0.0646677893 0.650027942,0.0630147026 0.654443249,0.0613935357 C0.685414968,0.0499091375 0.717053698,0.0400086276 0.749323779,0.0316786723 C0.755283768,0.030282258 0.761662263,0.0287009711 0.768053564,0.0271829975 C0.791482383,0.0214885956 0.814602437,0.0168663284 0.837995042,0.0130556723 C0.891708597,0.00439581888 0.94598473,-7.96165111e-06 1.00030927,-1.07102228e-05 L19,-5.68434206e-14 C19.0197245,-5.68434206e-14 19.0393155,0.00057106537 19.0587576,0.00169756447 C19.0932831,0.00375862967 19.1277392,0.00757522502 19.1619405,0.0131665944 C19.1853976,0.0168663284 19.2085176,0.0214885956 19.2313353,0.0268926289 C19.2383377,0.0287009711 19.2447162,0.030282258 19.2510809,0.0319267985 C19.2829463,0.0400086276 19.314585,0.0499091375 19.345506,0.0612938183 C19.3499721,0.0630147026 19.3543778,0.0646677893 19.3587735,0.0663527741 C19.3910815,0.0787111113 19.4225228,0.0927342648 19.453059,0.108279833 C19.4543628,0.108880979 19.4556724,0.109549523 19.4569808,0.110221112 L19.5360882,0.155687972 L19.5360882,0.155687972 Z M18,3.22598929 L10.6643638,9.74740932 C10.3170517,10.0561313 9.80834764,10.0818581 9.43413681,9.8245898 L9.33563616,9.74740932 L2,3.22698929 L2,14 L18,14 L18,3.22598929 Z M16.368,1.99998929 L3.63,1.99998929 L10,7.661 L16.368,1.99998929 Z" id="path-1"></path>
    </defs>
    <g id="Icon-Sheet" stroke="none" stroke-width="1" fill="none" fill-rule="evenodd">
        <g id="Style-Sheet---Icons" transform="translate(-1538.000000, -450.000000)">
            <g id="Interface" transform="translate(960.000000, 282.000000)">
                <g id="Row" transform="translate(0.000000, 164.000000)">
                    <g id="Icon-/-UI-/-Mail" transform="translate(576.000000, 0.000000)">
                        <g id="Mail" transform="translate(2.000000, 4.000000)">
                            <mask id="mask-2" fill="white">
                                <use xlink:href="#path-1"></use>
                            </mask>
                            <use id="Combined-Shape" fill="#00257A" fill-rule="nonzero" xlink:href="#path-1"></use>
                            <g id="Color-Fill-/-Core-/-Blue-1" mask="url(#mask-2)">
                                <g transform="translate(-2.000000, -4.000000)" id="Swatch">
                                    <g>
                                        <polygon id="Rectangle" fill="#00257A" points="0 4.56301663e-14 24 4.56301663e-14 24 24 0 24"></polygon>
                                    </g>
                                </g>
                            </g>
                        </g>
                    </g>
                </g>
            </g>
        </g>
    </g>
</svg>