<?xml version="1.0" encoding="utf-8"?>
<svg  viewBox="0 0 100 113" version="1.1" xmlns:xlink="http://www.w3.org/1999/xlink" xmlns="http://www.w3.org/2000/svg">
  <desc>Created with Lunacy</desc>
  <path d="M4.09911 25.3617L45.4362 2.18672Q45.6586 2.06205 45.8884 1.9518Q46.1183 1.84155 46.3547 1.74616Q46.5911 1.65076 46.8331 1.57061Q47.0751 1.49047 47.3217 1.42589Q47.5683 1.36132 47.8185 1.31258Q48.0687 1.26384 48.3216 1.23113Q48.5744 1.19842 48.8288 1.18187Q49.0832 1.16533 49.3381 1.16501Q49.593 1.1647 49.8474 1.18062Q50.1019 1.19654 50.3548 1.22863Q50.6077 1.26072 50.858 1.30884Q51.1083 1.35697 51.3551 1.42094Q51.6019 1.4849 51.8441 1.56446Q52.0863 1.64401 52.3229 1.73882Q52.5595 1.83363 52.7897 1.94332Q53.0198 2.05301 53.2425 2.17712L94.8918 25.3928Q95.1238 25.5221 95.3467 25.6665Q95.5696 25.8109 95.7824 25.9698Q95.9952 26.1287 96.1971 26.3013Q96.3989 26.474 96.5888 26.6596Q96.7787 26.8453 96.9559 27.0431Q97.1331 27.241 97.2968 27.4502Q97.4605 27.6593 97.6099 27.8789Q97.7593 28.0985 97.8939 28.3274Q98.0284 28.5564 98.1475 28.7939Q98.2666 29.0313 98.3696 29.2761Q98.4727 29.5208 98.5592 29.7719Q98.6458 30.023 98.7156 30.2793Q98.7853 30.5356 98.8379 30.7959Q98.8905 31.0562 98.9257 31.3195Q98.9609 31.5828 98.9785 31.8478Q98.9962 32.1128 98.9962 32.3784L99 55.8969L98.9963 78.6473Q98.9962 78.9118 98.9787 79.1758Q98.9612 79.4398 98.9262 79.702Q98.8913 79.9643 98.8391 80.2237Q98.7869 80.483 98.7177 80.7384Q98.6485 80.9937 98.5626 81.2439Q98.4767 81.4942 98.3744 81.7382Q98.2721 81.9822 98.154 82.2189Q98.0358 82.4556 97.9022 82.6839Q97.7687 82.9123 97.6203 83.1314Q97.472 83.3504 97.3094 83.5592Q97.1469 83.768 96.971 83.9656Q96.7951 84.1631 96.6064 84.3487Q96.4178 84.5342 96.2174 84.7068Q96.0169 84.8795 95.8055 85.0385Q95.594 85.1975 95.3726 85.3423Q95.1511 85.487 94.9205 85.6167L53.5328 108.91Q53.3097 109.036 53.0791 109.147Q52.8485 109.258 52.6113 109.354Q52.3741 109.45 52.1312 109.531Q51.8883 109.611 51.6408 109.676Q51.3932 109.741 51.142 109.79Q50.8909 109.839 50.637 109.872Q50.3832 109.905 50.1278 109.922Q49.8725 109.938 49.6165 109.939Q49.3606 109.939 49.1052 109.923Q48.8497 109.907 48.5959 109.874Q48.342 109.842 48.0907 109.793Q47.8395 109.744 47.5918 109.68Q47.3441 109.615 47.1011 109.535Q46.8581 109.455 46.6207 109.359Q46.3833 109.264 46.1525 109.153Q45.9217 109.042 45.6985 108.917L4.09997 85.6009Q3.86821 85.471 3.64558 85.326Q3.42295 85.181 3.21043 85.0216Q2.99791 84.8621 2.79644 84.6889Q2.59497 84.5157 2.40544 84.3296Q2.21591 84.1434 2.03915 83.945Q1.86239 83.7467 1.69918 83.537Q1.53597 83.3274 1.38703 83.1074Q1.23809 82.8873 1.10408 82.6579Q0.970073 82.4285 0.851582 82.1907Q0.73309 81.9529 0.630639 81.7078Q0.528188 81.4626 0.442229 81.2113Q0.35627 80.9599 0.287182 80.7033Q0.218094 80.4468 0.166182 80.1862Q0.11427 79.9256 0.0797624 79.6622Q0.0452547 79.3988 0.0283036 79.1336Q0.0113525 78.8685 0.0120326 78.6028L0.0706069 55.7231Q0.0706588 55.7028 0.0706078 55.6825L0.0118408 32.3591Q0.0111714 32.0935 0.0281288 31.8284Q0.0450862 31.5633 0.0795957 31.2999Q0.114105 31.0365 0.166015 30.7759Q0.217924 30.5154 0.287005 30.2589Q0.356085 30.0024 0.442033 29.751Q0.52798 29.4997 0.630415 29.2546Q0.732851 29.0094 0.851323 28.7717Q0.969795 28.5339 1.10378 28.3045Q1.23777 28.0751 1.38668 27.8551Q1.53559 27.6352 1.69877 27.4255Q1.86194 27.2159 2.03867 27.0176Q2.2154 26.8192 2.4049 26.6331Q2.59439 26.4469 2.79582 26.2737Q2.99726 26.1005 3.20973 25.941Q3.42221 25.7816 3.6448 25.6366Q3.86739 25.4916 4.09911 25.3617L4.09911 25.3617Z" transform="matrix(-1 8.742278E-08 -8.742278E-08 -1 99.5 111.6139)" fill="#dce8a6" id="Hexagon" stroke="none" />
</svg>