<?xml version="1.0" standalone="no"?>
<!DOCTYPE svg PUBLIC "-//W3C//DTD SVG 1.1//EN" "http://www.w3.org/Graphics/SVG/1.1/DTD/svg11.dtd">
<svg xmlns="http://www.w3.org/2000/svg">
<metadata>Copyright (C) 2017 by original authors @ fontello.com</metadata>
<defs>
<font id="polyicons" horiz-adv-x="1000" >
<font-face font-family="polyicons" font-weight="400" font-stretch="normal" units-per-em="1000" ascent="850" descent="-150" />
<missing-glyph horiz-adv-x="1000" />
<glyph glyph-name="sign_up_footer_pint" unicode="&#xe800;" d="M496 850a501 501 0 0 1-199-958 443 443 0 0 0 9 114l63 273a193 193 0 0 0-15 79c0 74 42 129 95 129a67 67 0 0 0 67-76c0-46-29-115-44-178a76 76 0 0 1 79-96c93 0 157 122 157 267 0 110-73 191-207 191a236 236 0 0 1-244-239 145 145 0 0 1 33-98 24 24 0 0 0 7-28l-11-39a17 17 0 0 0-25-12c-69 28-101 104-101 190 0 142 118 313 354 313 191 0 314-138 314-287 0-196-108-343-267-343a142 142 0 0 0-123 63s-29-114-34-137a420 420 0 0 0-50-107 490 490 0 0 1 140-21 500 500 0 0 1 0 1000" horiz-adv-x="992" />

<glyph glyph-name="durability" unicode="&#xe801;" d="M191 659a438 438 0 1 0-129-309 434 434 0 0 0 128 309m310-809a500 500 0 0 1 354 854 500 500 0 1 1-708-708 497 497 0 0 1 354-146z m-80 310h0a22 22 0 0 1 16 7l280 291a22 22 0 1 1-32 32l-263-274-107 127a22 22 0 0 1-35-29l123-146a22 22 0 0 1 17-8z" horiz-adv-x="1000" />

<glyph glyph-name="cart2" unicode="&#xe802;" d="M806 547c-3 6-12 9-18 9h-472l-3 53c0 13-13 22-25 22h-75c-16 0-25-9-25-25 0-12 9-25 25-25h56l37-415c0-44 38-78 82-78 37 0 68 21 78 56h75c9-35 40-56 78-56 44 0 81 37 81 81s-37 81-81 81c-38 0-69-22-78-56h-75c-10 34-41 56-78 56-13 0-29-3-41-9l-3 47 390 18c10 0 19 7 22 19l57 200c0 6 0 16-7 22z m-190-344c18 0 34-15 34-34 0-19-16-35-34-35s-35 16-35 35c0 19 16 34 35 34z m-232 0c19 0 35-15 35-34 0-19-16-35-35-35-18 0-34 16-34 35 0 19 16 34 34 34z m329 153l-375-18-16 168h434l-43-150z" horiz-adv-x="1000" />

<glyph glyph-name="search_icon_white" unicode="&#xe803;" d="M869-57l-222 222 38 39 223-223-38-38z m-538 322a254 254 0 1 0 254 254 254 254 0 0 0-254-254z m656-257l-277 277a39 39 0 0 1-54 0l-19-19-48 49a331 331 0 1 1-54-55l48-48-19-19a39 39 0 0 1 0-54l277-277a39 39 0 0 1 54 0l93 92a39 39 0 0 1 0 55z" horiz-adv-x="1000" />

<glyph glyph-name="weather" unicode="&#xe804;" d="M936 221l-17 64-185-49-44 25 154 89-154 88 44 26 185-49 17 64-120 32 104 59-34 60-104-60 33 120-65 17-50-184-44-25v177l-155-89v50l136 135-48 47-88-89v118h-66v-118l-89 89-47-47 135-135v-50l-154 89v-177l-44 25-50 183-65-17 33-120-104 59-34-59 104-59-120-31 17-64 185 49 44-26-154-88 154-89-44-25-185 49-17-64 120-33-104-59 34-59 104 59-33-118 65-17 50 184 44 24v-177l154 89v-51l-135-135 47-47 89 89v-119h67v119l89-89 47 47-135 135v51l154-89v177l44-25 50-184 65 17-33 120 104-59 34 59-104 59 120 32z m-591 338l89-51-89-50v101z m-33-259l-86 50 88 50v-100z m33-159v101l89-51-89-50z m123 108l-89 51v100l89 51 89-51v-100l-89-51z m121-108l-88 51 88 50v-101z m0 317l-88 51 88 50v-100z m34-158v100l88-50-88-51z" horiz-adv-x="936" />

<glyph glyph-name="technology" unicode="&#xe805;" d="M500 850a500 500 0 1 1 500-500 500 500 0 0 1-500 500z m396-341h-356l196 196a429 429 0 0 0 160-196z m-481 259a427 427 0 0 0 254-26l-254-255v281z m-74-22v-356l-196 196a429 429 0 0 0 196 160z m-256-496a427 427 0 0 0 23 271l255-255h-278v-16z m19-57h356l-196-197a429 429 0 0 0-160 197z m481-260a427 427 0 0 0-254 26l254 255v-281z m0 385l-52-53h-66l-52 52v66l52 52h66l52-52v-66z m74-363v355l196-196a429 429 0 0 0-196-160z m-22 482h281a427 427 0 0 0-26-255l-254 255z" horiz-adv-x="1000" />

<glyph glyph-name="maintenance" unicode="&#xe806;" d="M0 93l52-191 191-52 249 249 178-178a170 170 0 1 1 241 241l-114 113a295 295 0 0 1 191 366l-17 56-163-164-98 26-26 98 164 163-56 17a294 294 0 0 1-377-329l-21-21-211 212-43 57-64 39-21-18 0 0-20-20 42-65 56-42 212-212-345-345z m605 584l47-175 175-47 103 103a225 225 0 0 0-275-221l-19 4-414-413-114 31-31 114 413 413-2 19a225 225 0 0 0 222 275l-105-103z m257-564a100 100 0 1 0-143-142l-178 177 117 117a296 296 0 0 1 48-4h7l148-148z m-648-43a36 36 0 1 0-26 11 36 36 0 0 0 26-11z" horiz-adv-x="1000" />

<glyph glyph-name="sign_up_footer_twi" unicode="&#xe807;" d="M1220 732a499 499 0 0 0-144-40 252 252 0 0 1 110 141 498 498 0 0 0-159-61 249 249 0 0 1-182 79 253 253 0 0 1-244-310 709 709 0 0 0-517 264 255 255 0 0 1 78-338 250 250 0 0 0-114 31v-3a252 252 0 0 1 202-248 243 243 0 0 0-66-9 245 245 0 0 0-47 5 251 251 0 0 1 235-175 500 500 0 0 0-311-108 505 505 0 0 0-61 5 706 706 0 0 1 384-114c460 0 712 385 712 719 0 11 0 22 0 32a509 509 0 0 1 124 130" horiz-adv-x="1221" />

<glyph glyph-name="sign_up_footer_instagram" unicode="&#xe808;" d="M896 43a95 95 0 0 0-95-96h-609a95 95 0 0 0-97 96v410h150a271 271 0 1 1 502 0h149v-410z m-542 410a176 176 0 1 0-33-103 176 176 0 0 0 33 103z m501 282h22v-170l-167 0v169z m-55 114h-608a193 193 0 0 1-191-193v-613a193 193 0 0 1 191-193h608a193 193 0 0 1 191 193v614a193 193 0 0 1-191 193z" horiz-adv-x="992" />

<glyph glyph-name="sign_up_footer_fb" unicode="&#xe809;" d="M0 520h101v100c0 44 0 113 33 154a182 182 0 0 0 160 77 640 640 0 0 0 183-19l-25-153a344 344 0 0 1-82 12c-38 0-76-14-76-55v-115h163l-10-151h-153v-520h-193v520h-101v150z" horiz-adv-x="478" />

<glyph glyph-name="error_msg" unicode="&#xe80a;" d="M275 125a31 31 0 0 1 44 0l181 181 181-181a31 31 0 0 1 44 44l-181 181 181 181a31 31 0 0 1-44 44l-181-181-181 181a31 31 0 0 1-44-44l181-181-181-181a31 31 0 0 1 0-44z m225-275a500 500 0 0 1 354 854 500 500 0 1 1-707-708 497 497 0 0 1 353-146z m-308 808a437 437 0 1 0-128-308 435 435 0 0 0 128 308z" horiz-adv-x="1000" />

<glyph glyph-name="edit_icon" unicode="&#xe80b;" d="M152 102l2 8 100-100-173-77 69 169z m670 684l115-115-52-52-115 116 50 50z m-512-741h0l-115 115 531 530 116-115-532-530z m-269-195a59 59 0 0 1 23 5l231 102a236 236 0 0 1 62 43l625 626a64 64 0 0 1 0 91l-115 115a64 64 0 0 1-91 0l-642-643a221 221 0 0 1-41-63l-88-213a47 47 0 0 1 2-45 39 39 0 0 1 34-18z" horiz-adv-x="1000" />

<glyph glyph-name="store_location_icon" unicode="&#xe80c;" d="M348-150a30 30 0 0 1 22 10c14 16 326 386 326 630a356 356 0 0 1-348 360 354 354 0 0 1-348-360c0-244 311-614 325-630a30 30 0 0 1 23-10z m0 937a294 294 0 0 0 287-297c0-185-217-470-288-560-71 89-287 375-287 560a293 293 0 0 0 288 297z m121-297a121 121 0 1 1-121-124 123 123 0 0 1 121 124z m-182 0a60 60 0 1 0 61-62 62 62 0 0 0-61 62z" horiz-adv-x="696" />

<glyph glyph-name="success_msg" unicode="&#xe80d;" d="M500-150a500 500 0 0 1 354 854 500 500 0 1 1-707-708 497 497 0 0 1 353-146z m-308 808a437 437 0 1 0-128-308 435 435 0 0 0 128 308z m182-558h0a31 31 0 0 1 23 10l391 406a31 31 0 1 1-45 43l-366-381-150 177a31 31 0 1 1-48-39l172-203a30 30 0 0 1 23-13z" horiz-adv-x="1000" />

<glyph glyph-name="delete_icon" unicode="&#xe80e;" d="M575 47c13 0 25 12 25 25v431c0 13-12 25-25 25-12 0-25-12-25-25v-431c0-16 13-25 25-25z m200 609h-162v75c0 13-13 25-25 25h-175c-13 0-25-12-25-25v-75h-160c-12 0-25-12-25-25 0-12 13-25 25-25h25v-634c0-13 13-25 25-25h450c13 0 25 12 25 25v631h25c13 0 25 13 25 25-3 16-12 28-28 28z m-334 50h125v-50h-125v50z m259-712h-397v609h400v-609z m-272 53c13 0 25 12 25 25v431c0 13-12 25-25 25-12 0-25-12-25-25v-431c0-16 10-25 25-25z" horiz-adv-x="1000" />

<glyph glyph-name="usa_flag" unicode="&#xe80f;" d="M1209 683c-201 47-372 17-571-30v85c199 47 370 78 571 30v-85z m0-137c-201 47-372 17-571-30v70c199 47 370 77 571 30v-70z m0-144c-201 48-372 17-571-29v76c199 47 370 78 571 30v-77z m0-138c-391 85-750-140-1142-54v72c392-85 751 140 1142 54v-71z m0-137c-391 85-750-140-1142-54v70c392-85 751 140 1142 53v-69z m0-140c-391 86-750-140-1142-53v72c392-85 751 141 1142 54v-73z m-1087 426l14 40 13-43c18-2 27-3 43-5l-36-22 13-43-36 31-36-20 14 40-36 34c17-4 26-6 42-9z m-10 242l16 40 13-42c18-3 27-4 43-6l-36-25 13-42-33 30-36-20 13 40-38 35c18-4 27-6 43-9z m141-109l14 42 13-42 43 0-36-28 13-43-36 25-36-26 14 43-36 27 42 0z m116-136l14 42 14-42 42 6-36-31 14-43-34 25-36-30 13 43-36 23 43 4z m26 255l14 42 13-42 43 6-36-31 13-43-33 25-36-29 13 42-36 23 43 4z m106-116l14 45 14-39 42 9-36-34 14-39-37 19-36-33 14 45-36 20 42 8z m-501 258v-914c435-150 841 150 1277 0v914c-436 150-842-151-1277 0z" horiz-adv-x="1277" />

<glyph glyph-name="white_down_arrow" unicode="&#xe810;" d="M24 697l765-817a89 89 0 0 1 132 0l760 817a92 92 0 0 1-4 131 89 89 0 0 1-126-4l-696-751-700 748a89 89 0 0 1-127 4 92 92 0 0 1-4-131z" horiz-adv-x="1706" />

<glyph glyph-name="mini_cart_icon" unicode="&#xe811;" d="M969 340l-694-34-28 316h804l-82-282z m-605-279a61 61 0 1 0-62-61 62 62 0 0 0 62 61z m426 0a61 61 0 1 0-62-61 62 62 0 0 0 62 61z m355 629a44 44 0 0 1-35 18h-871l-8 102a44 44 0 0 1-45 40h-142a44 44 0 1 1 0-89h102l67-765a149 149 0 0 1 151-146 151 151 0 0 1 144 105h138a149 149 0 1 1 0 89h-138a151 151 0 0 1-217 86l-8 89 722 35a44 44 0 0 1 41 31l108 369a44 44 0 0 1-9 36z" horiz-adv-x="1154" />

<glyph glyph-name="call_icon" unicode="&#xe812;" d="M379 250c-60 63-121 129-112 209a100 100 0 0 0 74 88 127 127 0 0 1 38 21c27 28-13 102-67 159-47 51-87 73-101 72s-44-9-117-100a223 223 0 0 1-43-136c0-88 24-216 209-418l6-6c188-200 314-232 403-238a220 220 0 0 1 139 34c95 66 106 100 107 109s-17 56-64 106c-53 57-125 103-154 74a127 127 0 0 1-23-37 100 100 0 0 0-93-67c-81-3-142 63-201 126m-30 516c66-71 123-175 62-231a171 171 0 0 0-51-31c-27-11-40-17-44-47-6-56 45-111 99-169s104-111 161-111c30 0 37 14 50 40a171 171 0 0 0 34 49c60 57 160-7 226-78 20-22 84-95 78-147-4-41-47-89-129-146a272 272 0 0 0-170-41c-99 7-238 42-437 254l-6 6c-198 215-223 355-223 453a273 273 0 0 0 54 167c63 79 114 118 155 120 52 2 122-68 141-88" horiz-adv-x="966" />

<glyph glyph-name="email_icon" unicode="&#xe813;" d="M99-50v751l687-435 687 435v-751z m1268 800l-579-366-581 366z m158 100h-1476a50 50 0 0 1-49-50v-900a50 50 0 0 1 49-50h1473a50 50 0 0 1 49 50v901a50 50 0 0 1-49 50z" horiz-adv-x="1571" />

<glyph glyph-name="carousel_arrow_left" unicode="&#xe814;" d="M572 834a54 54 0 0 1-77 2l-478-449a52 52 0 0 1 0-77l480-445a54 54 0 0 1 77 2 52 52 0 0 1-5 74l-438 408 438 410a52 52 0 0 1 2 75" horiz-adv-x="586" />

<glyph glyph-name="carousel_arrow_right" unicode="&#xe815;" d="M15 834a54 54 0 0 0 77 2l478-447a52 52 0 0 0 0-77l-480-448a54 54 0 0 0-77 2 52 52 0 0 0 2 75l440 409-438 409a52 52 0 0 0-3 75" horiz-adv-x="586" />

<glyph glyph-name="back_to_top_a" unicode="&#xe816;" d="M1640-95a84 84 0 0 1 3 120l-732 767a87 87 0 0 1-125 0l-731-766a84 84 0 0 1 4-121 87 87 0 0 1 121 3l669 702 669-702a87 87 0 0 1 122-3" horiz-adv-x="1698" />

<glyph glyph-name="back_to_top_b" unicode="&#xe817;" d="M59 795a84 84 0 0 1-4-120l731-767a87 87 0 0 1 125 0l731 766a84 84 0 0 1-3 120 87 87 0 0 1-121-3l-669-700-669 701a87 87 0 0 1-121 4" horiz-adv-x="1697" />

<glyph glyph-name="x_close_btn" unicode="&#xe818;" d="M121-132a102 102 0 0 1 72 31l289 299 290-299a101 101 0 0 1 147 0 110 110 0 0 1 0 152l-288 299 289 299a110 110 0 0 1 0 152 101 101 0 0 1-147 0l-289-300-289 300a101 101 0 0 1-147 0 110 110 0 0 1 0-152l290-299-290-299a110 110 0 0 1 0-152 102 102 0 0 1 72-31z" horiz-adv-x="968" />

<glyph glyph-name="right_arrow" unicode="&#xe819;" d="M100 250h1359l-229-229a100 100 0 1 1 138-139l404 399a100 100 0 0 1 0 138l-401 402a100 100 0 1 1-138-139l229-229h-1362a100 100 0 0 1 0-200z" horiz-adv-x="1801" />

<glyph glyph-name="play_icon" unicode="&#xe81a;" d="M807 250l-624-383h0l-14-8h0l-15-5h0l-6 0h0l-8 0h-23a117 117 0 0 0-118 116v764a117 117 0 0 0 118 116 118 118 0 0 0 66-20l624-379a114 114 0 0 0 0-200" horiz-adv-x="863" />

<glyph glyph-name="user" unicode="&#xe81b;" d="M714 69q0-60-35-104t-84-44h-476q-49 0-84 44t-35 104q0 48 5 90t17 85 33 73 52 50 76 19q73-72 174-72t175 72q42 0 75-19t52-50 33-73 18-85 4-90z m-143 495q0-88-62-151t-152-63-151 63-63 151 63 152 151 63 152-63 62-152z" horiz-adv-x="714.3" />

<glyph glyph-name="pushmenu-icon" unicode="&#xe844;" d="M81 8h1553a79 79 0 1 0 0-158h-1553a79 79 0 1 0 0 158m1553 684h-1553a79 79 0 1 0 0 158h1553a79 79 0 1 0 0-158m0-421h-1553a79 79 0 1 0 0 158h1553a79 79 0 1 0 0-158" horiz-adv-x="1714" />

<glyph glyph-name="combined-shape" unicode="&#xe845;" d="M220 630c75 75 174 117 280 117 106 0 206-42 280-117 75-74 117-174 117-280s-42-205-117-280c-74-75-174-117-280-117-106 0-205 42-280 117-75 75-116 174-116 280s41 206 116 280m280-733c121 0 235 47 320 133 86 85 133 199 133 320 0 121-47 235-133 320-85 86-199 133-320 133-121 0-235-47-320-133s-133-199-133-320c0-121 47-235 133-320 85-86 199-133 320-133l0 0z m-72 289h1c5 0 11 2 15 6l254 264c7 8 7 21-1 29-8 8-21 8-29-1l-238-247-97 114c-8 9-20 10-29 3-8-7-10-20-2-29l111-132c4-4 10-7 15-7l0 0z m-208 444c75 75 174 117 280 117 106 0 206-42 280-117 75-74 117-174 117-280 0-106-42-205-117-280-74-75-174-117-280-117-106 0-205 42-280 117-75 75-116 174-116 280 0 106 41 206 116 280m280-733c121 0 235 47 320 133 86 85 133 199 133 320 0 121-47 235-133 320-85 86-199 133-320 133-121 0-235-47-320-133s-133-199-133-320c0-121 47-235 133-320 85-86 199-133 320-133l0 0z m-72 289h1c5 0 11 2 15 6l254 264c7 8 7 21-1 29-8 8-21 8-29-1l-238-247-97 114c-7 9-20 10-29 3-8-7-10-20-2-29l111-132c4-4 10-7 15-7l0 0z" horiz-adv-x="1000" />

<glyph glyph-name="up_arrow_light" unicode="&#xe900;" d="M40-121l906 910-32-1 929-909 32 33-946 925-921-926 32-32z" horiz-adv-x="1910.2" />

<glyph glyph-name="close_light" unicode="&#xe901;" d="M26 796l952-947 28 29-952 946-28-28z m952 28l-952-946 28-29 952 947-28 28z" horiz-adv-x="1041" />

<glyph glyph-name="bull_small" unicode="&#xe902;" d="M509-150c281 0 508 224 508 500s-227 500-508 500c-281 0-509-224-509-500s228-500 509-500v0z" horiz-adv-x="1142.6" />

<glyph glyph-name="quote_mark" unicode="&#xe903;" d="M472 794v-120c-105-30-157-126-157-288v-33h157v-402h-402v348c0 303 134 468 402 495v0z m669 0v-120c-105-30-157-126-157-288v-33h157v-402h-402v348c0 303 134 468 402 495v0z" horiz-adv-x="1222.7" />

<glyph glyph-name="email_me" unicode="&#xe904;" d="M1137 10h-923c-43 0-68 29-68 80 0 11 0 11 0 57 0 59 0 59 0 137 0 44 0 44 0 90 0 171 0 275 0 285 0 19 6 37 16 45 18 15 31 20 52 20h923c46 0 68-20 68-62v-572c0-51-25-80-68-80v-108c107 0 176 81 176 188v572c0 104-72 170-176 170h-923c-46 0-83-13-121-45-40-32-55-81-54-129 0-9 0-115 0-284 0-46 0-46 0-90 0-78 0-78 0-137 0-46 0-46 0-57 0-107 69-188 175-188h923v108z m-619 316l13-10c86-68 218-68 304-1v0l304-341 86 77-301 337 322 261-73 90-409-333c-43-34-117-34-161 0l-413 335-72-90 311-252-318-348 86-78 321 353z" horiz-adv-x="1384.8" />

<glyph glyph-name="star_alt" unicode="&#xe905;" d="M683 266l44-253-227 120-227-120 44 253-184 178 253 38 114 229 114-229 253-38-184-178z m317 214c0 15-11 25-34 28l-301 44-135 273c-8 17-18 25-30 25s-22-8-29-25l-136-273-301-44c-23-3-34-13-34-28 0-8 5-18 15-28l219-213-52-301c-1-5-1-9-1-12 0-8 2-15 6-21 4-6 11-9 19-9 7 0 15 3 24 7l270 142 270-142c8-4 16-7 24-7 16 0 25 10 25 30 0 5-1 9-1 12l-52 301 218 213c11 10 16 20 16 28v0z" horiz-adv-x="1000" />

<glyph glyph-name="info_badge" unicode="&#xe906;" d="M418 38c-34 0-60 21-35 113l39 165c7 26 9 37 0 37-10 0-55-19-82-36l-17 28c84 71 182 112 223 112 35 0 41-41 23-104l-45-173c-8-31-5-41 3-41 11 0 45 12 78 39l20-27c-82-82-172-113-207-113v0z m131 645c51 0 66-29 66-63 0-42-34-81-92-81-48 0-71 24-69 64 0 34 28 80 95 80v0z m-56 167c-276-4-497-231-493-507 4-276 231-497 507-493 276 4 497 231 493 507-4 276-231 497-507 493v0z" horiz-adv-x="1000" />
</font>
</defs>
</svg>
