<svg id="Layer_1" data-name="Layer 1" xmlns="http://www.w3.org/2000/svg" xmlns:xlink="http://www.w3.org/1999/xlink" viewBox="0 0 324 288"><defs><style>.cls-1,.cls-7{fill:none;}.cls-1,.cls-5,.cls-7{stroke:#231f20;stroke-miterlimit:10;}.cls-1{stroke-width:7.82px;}.cls-2{fill:#231f20;}.cls-3{fill:#0093d2;}.cls-4,.cls-5{fill:#6d6e71;}.cls-5{stroke-width:6.71px;}.cls-6{clip-path:url(#clip-path);}.cls-7{stroke-linecap:round;stroke-width:4.47px;}</style><clipPath id="clip-path"><path class="cls-1" d="M224.24,51.26H170a2.52,2.52,0,0,0-2.52,2.52L180.77,64.2v73.35a6.71,6.71,0,0,0,6.71,6.72h36.76a6.71,6.71,0,0,0,6.71-6.72V58A6.71,6.71,0,0,0,224.24,51.26Z"/></clipPath></defs><title>profit</title><path class="cls-2" d="M185.05,197.87h17.82l-1.32,7.5h-9.23l-1.62,9.23h8.19L197.62,222h-8.24l-2.77,15.63H178Z"/><path class="cls-2" d="M205.58,197.87h16.67L221,204.79h-4.21l-4.56,26h4.16l-1.21,6.92H198.55l1.21-6.92h3.92l4.56-26h-3.87Z"/><path class="cls-2" d="M238.46,205.66l-5.65,32h-8.54l5.65-32H223.4l1.39-7.79h21.34l-1.39,7.79Z"/><path class="cls-3" d="M85.8,189.59h19.72l5.85,5.85-3.55,19.86L102,221.15H90.54l-2.86,16.52H77.3Zm6.13,23.55h5.23l.83-.83,2.44-13.87-.83-.84H94.72Z"/><path class="cls-3" d="M122.24,218.51l-3.41,19.16H108.45l8.5-48.08h19.79l5.85,5.85-2.86,16.17L134,217.39l2.16,11.92h2.44l-1.47,8.36h-9.54l-3.07-19.16Zm1.4-8h5.15l.84-.83,2-11.22-.84-.84h-4.8Z"/><path class="cls-3" d="M141.2,231.81l6.41-36.37,5.85-5.85h14.7l5.85,5.85-6.41,36.37-5.85,5.86h-14.7ZM157,229l.84-.84,5.09-29-.84-.84h-4l-.84.84-5.08,29,.83.84Z"/><path class="cls-2" d="M243.48,120.55c-3-11.69-7.57-23.16-4.94-35.67a72.72,72.72,0,0,0,.71-7.56c.29-2.92-1.15-4.31-3.92-4.28-15.06.21-36.55.9-51.59,1.18-3.73.06-10.16.2-11.89,3.75-1.11,2.27,1.2,5.84-.17,8-10.92,16.81-18.14,28.33-34.59,39.57-10.84,7.41-21.78,6.48-36.81,6A64.4,64.4,0,0,0,86,133.12c-5,1.09-9.76,13.79-9.76,19.64,0,2.63.15,4.14,1,5.24l-.35,5.9,5.2,2.21,1.72-4.93c.87.28,1.76.53,2.64.8l1.25,6.21,8.37,2.41,4.06-5.1c.75.19,7.7,1.46,8.82,1.64l1.37,5.76,9.35,1.39,3.48-5.52c1.12.13,7.49.61,8.91.68l.68,5.3,12.52-.08,3.73-5.41c1.06-.08,5.54-.78,6.41-.95l1.27,4.95,12.75-1.11,1.85-7.11c2.56-2,3.85-4.86,10.08-6a25.42,25.42,0,0,1,12.84,1.21l3,12,7.31-.12,2.39-5.86,5.35-.21,1.94,5.66,9.15,0,2.25-6.08,4.19-.29,2.66,5.57,9.93-.27,2.46-13.89c-.13-1.15.89-3.37,1.64-7.09C248.51,139.59,246,130.12,243.48,120.55Z"/><path class="cls-4" d="M224.24,51.26H170a2.52,2.52,0,0,0-2.52,2.52L180.77,64.2v73.35a6.71,6.71,0,0,0,6.71,6.72h36.76a6.71,6.71,0,0,0,6.71-6.72V58A6.71,6.71,0,0,0,224.24,51.26Z"/><path class="cls-5" d="M224.24,51.26H170a2.52,2.52,0,0,0-2.52,2.52L180.77,64.2v73.35a6.71,6.71,0,0,0,6.71,6.72h36.76a6.71,6.71,0,0,0,6.71-6.72V58A6.71,6.71,0,0,0,224.24,51.26Z"/><g class="cls-6"><rect class="cls-3" x="167.5" y="53.44" width="74.47" height="90.17"/></g><path class="cls-1" d="M224.24,51.26H170a2.52,2.52,0,0,0-2.52,2.52L180.77,64.2v73.35a6.71,6.71,0,0,0,6.71,6.72h36.76a6.71,6.71,0,0,0,6.71-6.72V58A6.71,6.71,0,0,0,224.24,51.26Z"/><line class="cls-7" x1="192.41" y1="81.63" x2="235.21" y2="81.63"/><line class="cls-7" x1="192.41" y1="108.18" x2="235.21" y2="108.18"/></svg>