<?xml version="1.0" encoding="utf-8"?>
<svg width="65px" height="132px" viewBox="0 0 65 132" version="1.1" xmlns:xlink="http://www.w3.org/1999/xlink" xmlns="http://www.w3.org/2000/svg">
  <desc>Created with Lunacy</desc>
  <g id="Wonder-Sparks-Right" transform="translate(1.199219 0.05993652)">
    <path d="M1.15592 8.17824L14.3679 0.647363Q14.4971 0.573745 14.6347 0.517465Q14.7723 0.461185 14.916 0.423189Q15.0597 0.385193 15.2071 0.366121Q15.3546 0.347049 15.5032 0.347222Q15.6519 0.347394 15.7993 0.366808Q15.9467 0.386223 16.0903 0.424552Q16.2339 0.462881 16.3714 0.519481Q16.5089 0.57608 16.6379 0.649997L29.8332 8.212Q29.9635 8.2867 30.083 8.3778Q30.2024 8.46891 30.309 8.57486Q30.4155 8.68081 30.5072 8.79978Q30.5989 8.91875 30.6743 9.0487Q30.7497 9.17865 30.8075 9.31734Q30.8652 9.45603 30.9043 9.60108Q30.9434 9.74614 30.9632 9.89506Q30.983 10.044 30.9832 10.1942L30.991 18.1035L30.9987 25.8367Q30.9988 25.9871 30.9793 26.1363Q30.9597 26.2854 30.9208 26.4307Q30.8819 26.576 30.8242 26.715Q30.7666 26.854 30.6913 26.9842Q30.616 27.1144 30.5242 27.2337Q30.4325 27.3529 30.3259 27.4591Q30.2194 27.5653 30.0998 27.6566Q29.9803 27.7479 29.8498 27.8228L16.7331 35.3494Q16.6042 35.4233 16.4667 35.48Q16.3293 35.5367 16.1857 35.5751Q16.0421 35.6135 15.8947 35.633Q15.7473 35.6525 15.5986 35.6528Q15.45 35.653 15.3025 35.634Q15.1551 35.615 15.0113 35.5771Q14.8676 35.5392 14.73 35.483Q14.5923 35.4268 14.4631 35.3532L1.17246 27.7868Q1.04155 27.7122 0.921543 27.6212Q0.801536 27.5301 0.694507 27.4241Q0.587478 27.3181 0.495277 27.199Q0.403076 27.0799 0.327296 26.9497Q0.251516 26.8195 0.193466 26.6805Q0.135416 26.5414 0.0960984 26.396Q0.056781 26.2506 0.0368757 26.1013Q0.0169704 25.952 0.0168211 25.8013L0.00906943 17.9838L0.00131927 10.1676Q0.00116969 10.0168 0.0208333 9.86721Q0.0404969 9.71765 0.079633 9.57196Q0.118769 9.42628 0.1767 9.28699Q0.23463 9.14771 0.310352 9.01724Q0.386074 8.88677 0.478274 8.76737Q0.570475 8.64798 0.677558 8.54173Q0.784641 8.43548 0.90475 8.34421Q1.02486 8.25294 1.15592 8.17824L1.15592 8.17824Z" transform="matrix(-0.9848077 0.1736482 0.1736482 0.9848077 41.88086 38.37073)" id="Mask-Copy-42" fill="#00A8FF" stroke="none" />
    <path d="M1.183 4.64903L8.49363 0.61217Q8.62036 0.542192 8.7549 0.48875Q8.88944 0.435308 9.02965 0.399255Q9.16985 0.363202 9.31349 0.345114Q9.45712 0.327026 9.60188 0.327191Q9.74665 0.327356 9.89024 0.345772Q10.0338 0.364188 10.174 0.400561Q10.3141 0.436934 10.4485 0.490683Q10.5829 0.544432 10.7095 0.6147L18.0131 4.66947Q18.1461 4.74333 18.2682 4.83417Q18.3903 4.92501 18.4993 5.03123Q18.6083 5.13744 18.7022 5.25716Q18.7962 5.37688 18.8734 5.50799Q18.9507 5.6391 19.0099 5.77928Q19.0691 5.91947 19.1092 6.06627Q19.1494 6.21306 19.1697 6.36388Q19.19 6.5147 19.1901 6.66688L19.1944 10.8621L19.1986 14.9506Q19.1988 15.103 19.1787 15.2541Q19.1586 15.4052 19.1187 15.5522Q19.0788 15.6993 19.0197 15.8398Q18.9606 15.9803 18.8834 16.1117Q18.8062 16.2431 18.7123 16.363Q18.6183 16.483 18.5093 16.5895Q18.4002 16.696 18.2781 16.787Q18.1559 16.8781 18.0227 16.9521L10.7684 20.9847Q10.6418 21.055 10.5075 21.1088Q10.3731 21.1627 10.233 21.1991Q10.0928 21.2356 9.94926 21.254Q9.80568 21.2725 9.66091 21.2728Q9.51614 21.273 9.37249 21.255Q9.22885 21.237 9.08862 21.201Q8.94839 21.165 8.81382 21.1117Q8.67925 21.0583 8.55248 20.9884L1.19251 16.9293Q1.0589 16.8556 0.936265 16.7648Q0.813628 16.674 0.704136 16.5677Q0.594643 16.4615 0.500236 16.3416Q0.40583 16.2217 0.328181 16.0904Q0.250532 15.959 0.191018 15.8185Q0.131503 15.6781 0.0911781 15.5309Q0.0508528 15.3837 0.030431 15.2325Q0.0100093 15.0813 0.00985315 14.9287L0.00561719 10.7903L0.00138319 6.65365Q0.00122679 6.50085 0.0213968 6.34938Q0.0415668 6.19792 0.0817048 6.05048Q0.121843 5.90305 0.181235 5.76226Q0.240628 5.62148 0.31822 5.48984Q0.395811 5.35821 0.490223 5.23806Q0.584635 5.11792 0.694189 5.0114Q0.803742 4.90489 0.926491 4.81389Q1.04924 4.72289 1.183 4.64903Z" transform="matrix(-0.9902681 -0.1391732 -0.1391732 0.9902681 35.16992 89.88123)" id="Mask-Copy-41" fill="none" stroke="#8132D2" stroke-width="2.4" />
    <path d="M8.55 17.1C13.272 17.1 17.1 13.272 17.1 8.55C17.1 3.82797 13.272 0 8.55 0C3.82797 0 0 3.82797 0 8.55C0 13.272 3.82797 17.1 8.55 17.1Z" transform="translate(27.56055 14.44006)" id="Oval-Copy-12" fill="none" stroke="#CF3272" stroke-width="2.4" />
    <path d="M2.56925 4.5639e-16L11.8308 2.10156e-15Q11.8781 2.10998e-15 11.9254 0.00315161Q11.9727 0.00630322 12.0197 0.0125925Q12.0667 0.0188818 12.1131 0.0282808Q12.1596 0.0376799 12.2053 0.0501472Q12.251 0.0626146 12.2958 0.0780949Q12.3406 0.0935752 12.3843 0.112Q12.428 0.130425 12.4703 0.151713Q12.5127 0.173 12.5535 0.197057Q12.5944 0.221114 12.6335 0.247832Q12.6726 0.274551 12.7099 0.303814Q12.7472 0.333077 12.7825 0.364754Q12.8177 0.396431 12.8508 0.430382Q12.8839 0.464334 12.9146 0.500409Q12.9454 0.536484 12.9736 0.574524Q13.0019 0.612564 13.0276 0.652399Q13.0533 0.692235 13.0762 0.73369Q13.0992 0.775145 13.1194 0.818036Q13.1396 0.860927 13.1568 0.905064Q13.1741 0.949201 13.1884 0.994389Q13.2027 1.03958 13.214 1.08562Q13.2252 1.13166 13.2334 1.17834Q13.2416 1.22503 13.2466 1.27215Q13.2517 1.31928 13.2536 1.36664Q13.2555 1.414 13.2543 1.46138Q13.253 1.50876 13.2486 1.55595Q13.2442 1.60314 13.2367 1.64994Q13.2292 1.69673 13.2186 1.74293Q13.208 1.78912 13.1943 1.8345Q13.1806 1.87989 13.164 1.92426Q13.1473 1.96864 13.1278 2.01181Q13.1082 2.05498 13.0858 2.09675Q13.0634 2.13853 13.0383 2.17872L8.40755 9.58792Q8.38367 9.62613 8.35742 9.66275Q8.33117 9.69938 8.30266 9.73427Q8.27415 9.76915 8.24349 9.80217Q8.21283 9.83519 8.18014 9.8662Q8.14746 9.89722 8.11287 9.9261Q8.07829 9.95499 8.04196 9.98163Q8.00562 10.0083 7.96767 10.0326Q7.92972 10.0569 7.89031 10.0787Q7.8509 10.1005 7.81019 10.1198Q7.76948 10.1391 7.72763 10.1558Q7.68578 10.1725 7.64295 10.1866Q7.60013 10.2006 7.55651 10.2119Q7.51289 10.2231 7.46864 10.2316Q7.42439 10.2401 7.37969 10.2458Q7.33499 10.2515 7.29002 10.2544Q7.24506 10.2572 7.2 10.2572Q7.15494 10.2572 7.10997 10.2544Q7.06501 10.2515 7.02031 10.2458Q6.97561 10.2401 6.93136 10.2316Q6.88711 10.2231 6.84349 10.2119Q6.79987 10.2006 6.75705 10.1866Q6.71422 10.1725 6.67237 10.1558Q6.63052 10.1391 6.58981 10.1198Q6.5491 10.1005 6.50969 10.0787Q6.47028 10.0569 6.43233 10.0326Q6.39438 10.0083 6.35804 9.98163Q6.3217 9.95499 6.28712 9.9261Q6.25254 9.89722 6.21986 9.8662Q6.18717 9.83519 6.15651 9.80217Q6.12585 9.76915 6.09734 9.73427Q6.06883 9.69938 6.04258 9.66275Q6.01633 9.62613 5.99245 9.58792L1.3617 2.17872Q1.33658 2.13853 1.31419 2.09675Q1.29179 2.05498 1.27223 2.01181Q1.25267 1.96864 1.23601 1.92426Q1.21936 1.87989 1.2057 1.8345Q1.19204 1.78912 1.18142 1.74293Q1.17081 1.69673 1.16329 1.64994Q1.15577 1.60314 1.15137 1.55595Q1.14698 1.50876 1.14574 1.46138Q1.1445 1.414 1.1464 1.36664Q1.14831 1.31928 1.15337 1.27215Q1.15842 1.22503 1.1666 1.17834Q1.17477 1.13166 1.18604 1.08562Q1.1973 1.03958 1.2116 0.994389Q1.2259 0.949201 1.24317 0.905064Q1.26044 0.860927 1.28061 0.818036Q1.30078 0.775145 1.32376 0.73369Q1.34673 0.692235 1.37242 0.652399Q1.3981 0.612564 1.42637 0.574524Q1.45465 0.536484 1.48539 0.500409Q1.51613 0.464334 1.5492 0.430382Q1.58227 0.396431 1.61753 0.364754Q1.65278 0.333077 1.69007 0.303814Q1.72735 0.274551 1.7665 0.247832Q1.80565 0.221114 1.84649 0.197057Q1.88732 0.173 1.92967 0.151713Q1.97202 0.130425 2.01569 0.112Q2.05935 0.0935752 2.10415 0.0780949Q2.14895 0.0626146 2.19468 0.0501472Q2.2404 0.0376799 2.28686 0.0282808Q2.33331 0.0188818 2.38029 0.0125925Q2.42727 0.00630322 2.47456 0.00315161Q2.52185 4.47971e-16 2.56925 4.5639e-16Z" transform="matrix(-4.371139E-08 -1 1 -4.371139E-08 0 14.40002)" id="Rectangle-Copy-13" fill="#8132D2" stroke="none" />
    <path d="M1.424 4.5446e-13L12.976 3.80073e-13Q13.046 3.79622e-13 13.1156 0.00685695Q13.1852 0.0137139 13.2538 0.0273618Q13.3224 0.0410096 13.3894 0.061317Q13.4563 0.0816243 13.5209 0.108396Q13.5856 0.135167 13.6473 0.168144Q13.709 0.201121 13.7671 0.239987Q13.8253 0.278853 13.8794 0.323233Q13.9335 0.367613 13.9829 0.41708Q14.0324 0.466547 14.0768 0.520624Q14.1211 0.574701 14.16 0.632868Q14.1989 0.691035 14.2319 0.752731Q14.2648 0.814427 14.2916 0.879059Q14.3184 0.94369 14.3387 1.01063Q14.359 1.07758 14.3726 1.14619Q14.3863 1.2148 14.3931 1.28442Q14.4 1.35404 14.4 1.424L14.4 12.976Q14.4 13.046 14.3931 13.1156Q14.3863 13.1852 14.3726 13.2538Q14.359 13.3224 14.3387 13.3894Q14.3184 13.4563 14.2916 13.5209Q14.2648 13.5856 14.2319 13.6473Q14.1989 13.709 14.16 13.7671Q14.1211 13.8253 14.0768 13.8794Q14.0324 13.9335 13.9829 13.9829Q13.9335 14.0324 13.8794 14.0768Q13.8253 14.1211 13.7671 14.16Q13.709 14.1989 13.6473 14.2319Q13.5856 14.2648 13.5209 14.2916Q13.4563 14.3184 13.3894 14.3387Q13.3224 14.359 13.2538 14.3726Q13.1852 14.3863 13.1156 14.3931Q13.046 14.4 12.976 14.4L1.424 14.4Q1.35404 14.4 1.28442 14.3931Q1.2148 14.3863 1.14619 14.3726Q1.07758 14.359 1.01063 14.3387Q0.94369 14.3184 0.879059 14.2916Q0.814427 14.2648 0.752731 14.2319Q0.691035 14.1989 0.632868 14.16Q0.574701 14.1211 0.520624 14.0768Q0.466547 14.0324 0.41708 13.9829Q0.367613 13.9335 0.323233 13.8794Q0.278853 13.8253 0.239987 13.7671Q0.201121 13.709 0.168144 13.6473Q0.135167 13.5856 0.108396 13.5209Q0.0816243 13.4563 0.061317 13.3894Q0.0410096 13.3224 0.0273618 13.2538Q0.0137139 13.1852 0.00685695 13.1156Q6.46415e-15 13.046 6.79812e-15 12.976L6.19469e-14 1.424Q6.22809e-14 1.35404 0.00685695 1.28442Q0.0137139 1.2148 0.0273618 1.14619Q0.0410096 1.07758 0.061317 1.01063Q0.0816243 0.94369 0.108396 0.879059Q0.135167 0.814427 0.168144 0.752731Q0.201121 0.691035 0.239987 0.632868Q0.278853 0.574701 0.323233 0.520624Q0.367613 0.466547 0.41708 0.41708Q0.466547 0.367613 0.520624 0.323233Q0.574701 0.278853 0.632868 0.239987Q0.691035 0.201121 0.752731 0.168144Q0.814427 0.135167 0.879059 0.108396Q0.94369 0.0816243 1.01063 0.061317Q1.07758 0.0410096 1.14619 0.0273618Q1.2148 0.0137139 1.28442 0.00685695Q1.35404 4.5491e-13 1.424 4.5446e-13L1.424 4.5446e-13Z" transform="matrix(0.6156615 -0.7880107 0.7880107 0.6156615 41.6543 120.881)" id="Rectangle" fill="#DE83C5" stroke="none" />
  </g>
</svg>