<?xml version="1.0" encoding="utf-8"?>
<svg width="375px" height="425px" viewBox="0 0 375 425" version="1.1" xmlns:xlink="http://www.w3.org/1999/xlink" xmlns="http://www.w3.org/2000/svg">
  <desc>Created with Lunacy</desc>
  <path d="M12.7945 96.3701L172.183 6.85512Q172.879 6.46442 173.598 6.11888Q174.317 5.77334 175.057 5.47436Q175.797 5.17538 176.554 4.92418Q177.311 4.67298 178.083 4.47058Q178.855 4.26819 179.638 4.11542Q180.421 3.96265 181.213 3.86012Q182.004 3.7576 182.8 3.70574Q183.596 3.65389 184.394 3.6529Q185.192 3.65192 185.988 3.70182Q186.785 3.75172 187.576 3.8523Q188.368 3.95287 189.151 4.10372Q189.934 4.25456 190.707 4.45506Q191.479 4.65555 192.237 4.90489Q192.995 5.15422 193.735 5.45138Q194.476 5.74854 195.196 6.09231Q195.916 6.43608 196.612 6.82506L357.174 96.4797Q357.536 96.6819 357.891 96.8959Q358.246 97.1099 358.594 97.3356Q358.942 97.5613 359.282 97.7984Q359.622 98.0355 359.954 98.2838Q360.286 98.532 360.61 98.7912Q360.934 99.0503 361.249 99.32Q361.564 99.5897 361.869 99.8697Q362.175 100.15 362.472 100.44Q362.768 100.73 363.054 101.029Q363.341 101.329 363.617 101.638Q363.894 101.947 364.16 102.265Q364.426 102.583 364.681 102.91Q364.937 103.236 365.181 103.571Q365.426 103.906 365.659 104.249Q365.892 104.592 366.113 104.942Q366.335 105.293 366.545 105.65Q366.755 106.008 366.953 106.372Q367.151 106.737 367.337 107.107Q367.522 107.478 367.696 107.855Q367.869 108.231 368.03 108.613Q368.191 108.996 368.339 109.383Q368.487 109.77 368.622 110.162Q368.757 110.554 368.879 110.951Q369.001 111.347 369.109 111.747Q369.218 112.147 369.314 112.55Q369.409 112.954 369.491 113.36Q369.573 113.767 369.642 114.176Q369.71 114.585 369.765 114.996Q369.82 115.407 369.861 115.819Q369.903 116.232 369.93 116.645Q369.958 117.059 369.972 117.474Q369.985 117.888 369.985 118.303L370 209.273L369.986 297.353Q369.986 297.766 369.972 298.179Q369.958 298.592 369.931 299.004Q369.903 299.416 369.862 299.827Q369.822 300.238 369.767 300.647Q369.713 301.057 369.645 301.464Q369.577 301.871 369.495 302.276Q369.414 302.681 369.319 303.083Q369.224 303.485 369.116 303.884Q369.008 304.283 368.887 304.677Q368.766 305.072 368.632 305.463Q368.498 305.854 368.351 306.24Q368.204 306.626 368.045 307.007Q367.885 307.388 367.713 307.763Q367.541 308.138 367.357 308.508Q367.172 308.878 366.976 309.241Q366.779 309.604 366.571 309.961Q366.363 310.317 366.143 310.667Q365.923 311.016 365.691 311.358Q365.46 311.701 365.217 312.035Q364.975 312.369 364.721 312.695Q364.467 313.021 364.203 313.339Q363.939 313.656 363.665 313.965Q363.39 314.273 363.106 314.573Q362.821 314.872 362.527 315.162Q362.232 315.452 361.929 315.731Q361.625 316.011 361.312 316.281Q360.999 316.551 360.678 316.81Q360.356 317.069 360.027 317.318Q359.697 317.566 359.359 317.804Q359.021 318.041 358.675 318.267Q358.33 318.493 357.977 318.708Q357.624 318.923 357.264 319.125L197.692 409.092Q196.994 409.486 196.272 409.833Q195.551 410.181 194.809 410.482Q194.066 410.783 193.306 411.036Q192.546 411.289 191.771 411.493Q190.997 411.697 190.211 411.85Q189.424 412.004 188.63 412.107Q187.836 412.21 187.036 412.262Q186.237 412.314 185.436 412.315Q184.635 412.315 183.836 412.265Q183.036 412.214 182.242 412.113Q181.447 412.011 180.661 411.859Q179.874 411.706 179.099 411.504Q178.324 411.302 177.564 411.05Q176.803 410.799 176.06 410.499Q175.318 410.199 174.595 409.853Q173.873 409.506 173.175 409.114L12.7971 319.064Q12.4355 318.86 12.0808 318.646Q11.7261 318.431 11.3787 318.204Q11.0313 317.977 10.6916 317.739Q10.3519 317.501 10.0203 317.252Q9.68872 317.003 9.36557 316.743Q9.04241 316.483 8.72806 316.213Q8.41371 315.942 8.10851 315.661Q7.80331 315.38 7.50759 315.089Q7.21187 314.799 6.92597 314.498Q6.64006 314.198 6.36428 313.888Q6.0885 313.578 5.82314 313.259Q5.55779 312.941 5.30316 312.613Q5.04852 312.286 4.80489 311.95Q4.56126 311.614 4.3289 311.271Q4.09653 310.927 3.8757 310.576Q3.65486 310.225 3.44579 309.867Q3.23672 309.509 3.03964 309.144Q2.84257 308.779 2.65772 308.408Q2.47286 308.036 2.30042 307.659Q2.12798 307.282 1.96815 306.899Q1.80832 306.516 1.66127 306.129Q1.51423 305.741 1.38013 305.348Q1.24603 304.956 1.12502 304.559Q1.00401 304.162 0.896234 303.762Q0.788455 303.361 0.69402 302.957Q0.599586 302.554 0.518602 302.147Q0.437617 301.74 0.370171 301.331Q0.302725 300.921 0.248892 300.51Q0.195058 300.099 0.154897 299.686Q0.114736 299.273 0.0882911 298.859Q0.0618463 298.446 0.0491468 298.031Q0.0364474 297.616 0.0375074 297.202L0.263916 208.609Q0.264079 208.546 0.263919 208.483L0.0369092 118.23Q0.0358661 117.815 0.0485789 117.401Q0.0612917 116.986 0.0877463 116.572Q0.114201 116.158 0.154368 115.746Q0.194536 115.333 0.248372 114.922Q0.302208 114.51 0.369653 114.101Q0.437098 113.692 0.518079 113.285Q0.599059 112.879 0.693485 112.475Q0.787912 112.071 0.89568 111.67Q1.00345 111.27 1.12444 110.873Q1.24543 110.477 1.37951 110.084Q1.5136 109.692 1.66062 109.304Q1.80765 108.916 1.96745 108.534Q2.12726 108.151 2.29967 107.774Q2.47208 107.397 2.65691 107.025Q2.84173 106.654 3.03877 106.289Q3.23581 105.924 3.44484 105.566Q3.65388 105.208 3.87468 104.857Q4.09547 104.506 4.3278 104.162Q4.56012 103.819 4.8037 103.483Q5.04729 103.148 5.30188 102.82Q5.55646 102.493 5.82177 102.174Q6.08707 101.855 6.3628 101.546Q6.63853 101.236 6.92438 100.935Q7.21024 100.635 7.5059 100.344Q7.80156 100.053 8.1067 99.7724Q8.41185 99.4916 8.72614 99.221Q9.04043 98.9505 9.36352 98.6905Q9.68662 98.4305 10.0182 98.1814Q10.3497 97.9323 10.6893 97.6943Q11.0289 97.4563 11.3763 97.2297Q11.7236 97.0031 12.0782 96.7881Q12.4329 96.5732 12.7945 96.3701L12.7945 96.3701Z" transform="matrix(0.7313538 0.6819983 -0.6819983 0.7313538 185.8848 -53.79126)" id="Hexagon" fill="#DCE8A6" stroke="none" />
</svg>