<?xml version="1.0" encoding="UTF-8"?>
<svg width="124px" height="42px" viewBox="0 0 124 42" version="1.1" xmlns="http://www.w3.org/2000/svg" xmlns:xlink="http://www.w3.org/1999/xlink">
    <title>redeem-target</title>
    <defs>
        <polygon id="path-1" points="0.0002 0.2543 40.7432 0.2543 40.7432 41 0.0002 41"></polygon>
        <polygon id="path-3" points="0.8791 0.4212 12.273 0.4212 12.273 14.3352 0.8791 14.3352"></polygon>
    </defs>
    <g id="Flexible-Landing" stroke="none" stroke-width="1" fill="none" fill-rule="evenodd">
        <g id="NeuroPro-form-V2---L" transform="translate(-284.000000, -1371.000000)">
            <g id="enfamil-is-backed-by-decades-of..." transform="translate(0.000000, 777.000000)">
                <g id="4-CTAs" transform="translate(251.000000, 522.000000)">
                    <g id="redeem-target" transform="translate(33.000000, 72.000000)">
                        <g id="Group-3" transform="translate(0.000000, 0.746000)">
                            <mask id="mask-2" fill="white">
                                <use xlink:href="#path-1"></use>
                            </mask>
                            <g id="Clip-2"></g>
                            <path d="M20.3702,7.0373 C12.8642,7.0373 6.7772,13.1243 6.7772,20.6303 C6.7772,28.1333 12.8642,34.2203 20.3702,34.2203 C27.8792,34.2203 33.9662,28.1333 33.9662,20.6303 C33.9662,13.1243 27.8792,7.0373 20.3702,7.0373 M40.7432,20.6303 C40.7432,31.8803 31.6232,41.0003 20.3702,41.0003 C9.1202,41.0003 0.0002,31.8803 0.0002,20.6303 C0.0002,9.3773 9.1202,0.2543 20.3702,0.2543 C31.6232,0.2543 40.7432,9.3773 40.7432,20.6303" id="Fill-1" fill="#D61B32" mask="url(#mask-2)"></path>
                        </g>
                        <path d="M20.3702,14.3888 C16.5152,14.3888 13.3862,17.5178 13.3862,21.3758 C13.3862,25.2308 16.5152,28.3568 20.3702,28.3568 C24.2282,28.3568 27.3572,25.2308 27.3572,21.3758 C27.3572,17.5178 24.2282,14.3888 20.3702,14.3888" id="Fill-4" fill="#D61B32"></path>
                        <polyline id="Fill-6" fill="#D61B32" points="51.1471 16.7442 46.9771 16.7442 46.9771 14.1672 58.3741 14.1672 58.3741 16.7442 54.2041 16.7442 54.2041 28.0812 51.1471 28.0812"></polyline>
                        <path d="M57.0509,28.0812 L60.1469,28.0812 L61.2389,24.9812 L66.4409,24.9812 L67.4909,28.0812 L70.6709,28.0812 L65.4689,14.1672 L62.3309,14.1672 L57.0509,28.0812 Z M63.8489,17.5992 L63.8879,17.5992 L65.6399,22.6992 L62.0399,22.6992 L63.8489,17.5992 Z" id="Fill-8" fill="#D61B32"></path>
                        <path d="M71.8741,28.0812 L74.9371,28.0812 L74.9371,22.6422 L77.9941,22.6422 C79.5331,22.6422 80.0971,23.2812 80.3161,24.7452 C80.4661,25.8522 80.4271,27.2082 80.7961,28.0812 L83.8561,28.0812 C83.3161,27.2952 83.3341,25.6572 83.2771,24.7812 C83.1751,23.3802 82.7491,21.9252 81.2491,21.5322 L81.2491,21.4902 C82.7881,20.8692 83.4481,19.6392 83.4481,18.0042 C83.4481,15.9042 81.8701,14.1672 79.3801,14.1672 L71.8741,14.1672 L71.8741,28.0812 Z M74.9371,16.5462 L78.2851,16.5462 C79.6501,16.5462 80.3911,17.1282 80.3911,18.4722 C80.3911,19.8762 79.6501,20.4552 78.2851,20.4552 L74.9371,20.4552 L74.9371,16.5462 Z" id="Fill-10" fill="#D61B32"></path>
                        <path d="M95.607,26.4942 C94.542,27.8862 93.135,28.4142 91.785,28.4142 C87.483,28.4142 84.951,25.1952 84.951,21.1752 C84.951,17.0472 87.483,13.8342 91.785,13.8342 C94.635,13.8342 97.32,15.5892 97.656,18.7422 L94.725,18.7422 C94.383,17.2092 93.231,16.4082 91.785,16.4082 C89.043,16.4082 88.011,18.7422 88.011,21.1752 C88.011,23.4972 89.043,25.8342 91.785,25.8342 C93.771,25.8342 94.926,24.7602 95.097,22.8402 L92.019,22.8402 L92.019,20.5572 L97.869,20.5572 L97.869,28.0812 L95.919,28.0812" id="Fill-12" fill="#D61B32"></path>
                        <polyline id="Fill-14" fill="#D61B32" points="99.9571 14.1671 110.3611 14.1671 110.3611 16.7441 103.0171 16.7441 103.0171 19.7171 109.7521 19.7171 109.7521 22.0901 103.0171 22.0901 103.0171 25.5011 110.5111 25.5011 110.5111 28.0811 99.9571 28.0811"></polyline>
                        <g id="Group-18" transform="translate(111.000000, 13.746000)">
                            <mask id="mask-4" fill="white">
                                <use xlink:href="#path-3"></use>
                            </mask>
                            <g id="Clip-17"></g>
                            <polyline id="Fill-16" fill="#D61B32" mask="url(#mask-4)" points="5.0431 2.9982 0.8791 2.9982 0.8791 0.4212 12.2731 0.4212 12.2731 2.9982 8.1061 2.9982 8.1061 14.3352 5.0431 14.3352"></polyline>
                        </g>
                        <path d="M121.6231,27.8858 C122.1271,27.8858 122.5291,27.4958 122.5291,26.9708 C122.5291,26.4548 122.1271,26.0648 121.6231,26.0648 C121.1101,26.0648 120.7081,26.4548 120.7081,26.9708 C120.7081,27.4958 121.1101,27.8858 121.6231,27.8858 M120.5131,26.9708 C120.5131,26.3378 121.0201,25.8698 121.6231,25.8698 C122.2171,25.8698 122.7241,26.3378 122.7241,26.9708 C122.7241,27.6098 122.2171,28.0808 121.6231,28.0808 C121.0201,28.0808 120.5131,27.6098 120.5131,26.9708" id="Fill-19" fill="#D61B32"></path>
                        <path d="M121.4161,26.6114 L121.7011,26.6114 C121.8121,26.6114 121.8781,26.6594 121.8781,26.7724 C121.8781,26.8924 121.8121,26.9404 121.7011,26.9404 L121.4161,26.9404 L121.4161,26.6114 Z M121.1551,27.5864 L121.4161,27.5864 L121.4161,27.1244 L121.6741,27.1244 C121.8061,27.1244 121.8511,27.1774 121.8721,27.3034 C121.8841,27.3994 121.8811,27.5104 121.9111,27.5864 L122.1721,27.5864 C122.1241,27.5194 122.1271,27.3824 122.1211,27.3064 C122.1121,27.1894 122.0761,27.0634 121.9501,27.0314 C122.0791,26.9764 122.1361,26.8724 122.1361,26.7334 C122.1361,26.5564 122.0041,26.4074 121.7911,26.4074 L121.1551,26.4074 L121.1551,27.5864 Z" id="Fill-21" fill="#D61B32"></path>
                    </g>
                </g>
            </g>
        </g>
    </g>
</svg>