<?xml version="1.0" encoding="utf-8"?>
<svg width="87px" height="112px" viewBox="0 0 87 112" version="1.1" xmlns:xlink="http://www.w3.org/1999/xlink" xmlns="http://www.w3.org/2000/svg">
  <desc>Created with Lunacy</desc>
  <defs>
    <path d="M0.619743 4.30281L7.37223 0.367001Q7.51552 0.283482 7.67566 0.24032Q7.8358 0.197158 8.00165 0.197352Q8.1675 0.197547 8.32754 0.241085Q8.48757 0.284623 8.63066 0.368478L15.3748 4.32065Q15.5154 4.40306 15.6302 4.51884Q15.7449 4.63463 15.826 4.776Q15.9071 4.91738 15.9491 5.07486Q15.9912 5.23233 15.9913 5.39532L15.9954 9.55465L15.9993 13.621Q15.9995 13.7842 15.9576 13.9419Q15.9158 14.0997 15.8347 14.2414Q15.7537 14.383 15.6389 14.4991Q15.5242 14.6151 15.3834 14.6977L8.67981 18.6312Q8.53676 18.7151 8.37675 18.7587Q8.21673 18.8024 8.05087 18.8026Q7.88502 18.8029 7.72485 18.7598Q7.56469 18.7168 7.42135 18.6333L0.628288 14.6787Q0.487033 14.5965 0.371743 14.4806Q0.256453 14.3648 0.174915 14.2231Q0.0933778 14.0815 0.0511017 13.9236Q0.00882566 13.7657 0.00866717 13.6022L0.00468099 9.49145L0.000695575 5.38137Q0.000536869 5.2177 0.0426196 5.05953Q0.0847023 4.90136 0.166176 4.75941Q0.247649 4.61746 0.362994 4.50134Q0.478339 4.38523 0.619743 4.30281L0.619743 4.30281Z" transform="matrix(0.01745235 -0.9998477 -0.9998477 -0.01745235 54.23322 111.9496)" id="path_1" />
    <path d="M0.619743 4.30281L7.37223 0.367001Q7.51552 0.283482 7.67566 0.24032Q7.8358 0.197158 8.00165 0.197352Q8.1675 0.197547 8.32754 0.241085Q8.48757 0.284623 8.63066 0.368478L15.3748 4.32065Q15.5154 4.40306 15.6302 4.51884Q15.7449 4.63463 15.826 4.776Q15.9071 4.91738 15.9491 5.07486Q15.9912 5.23233 15.9913 5.39532L15.9954 9.55465L15.9993 13.621Q15.9995 13.7842 15.9576 13.9419Q15.9158 14.0997 15.8347 14.2414Q15.7537 14.383 15.6389 14.4991Q15.5242 14.6151 15.3834 14.6977L8.67981 18.6312Q8.53676 18.7151 8.37675 18.7587Q8.21673 18.8024 8.05087 18.8026Q7.88502 18.8029 7.72485 18.7598Q7.56469 18.7168 7.42135 18.6333L0.628288 14.6787Q0.487033 14.5965 0.371743 14.4806Q0.256453 14.3648 0.174915 14.2231Q0.0933778 14.0815 0.0511017 13.9236Q0.00882566 13.7657 0.00866717 13.6022L0.00468099 9.49145L0.000695575 5.38137Q0.000536869 5.2177 0.0426196 5.05953Q0.0847023 4.90136 0.166176 4.75941Q0.247649 4.61746 0.362994 4.50134Q0.478339 4.38523 0.619743 4.30281L0.619743 4.30281Z" transform="matrix(0.7193398 -0.6946585 -0.6946585 -0.7193398 75.39016 56.45403)" id="path_2" />
    <path d="M0.644966 4.06241L7.39747 0.333751Q7.53621 0.257141 7.6897 0.217671Q7.84319 0.178202 8.00168 0.178383Q8.16016 0.178563 8.31357 0.218383Q8.46697 0.258203 8.60553 0.335131L15.3497 4.07929Q15.4954 4.16019 15.6147 4.27652Q15.7341 4.39285 15.8187 4.53645Q15.9033 4.68004 15.9473 4.84082Q15.9912 5.0016 15.9914 5.16827L15.9954 9.05177L15.9992 12.847Q15.9994 13.0139 15.9557 13.175Q15.912 13.3361 15.8274 13.48Q15.7429 13.6239 15.6234 13.7405Q15.504 13.8571 15.3581 13.9382L8.6547 17.6645Q8.51617 17.7415 8.36279 17.7814Q8.2094 17.8213 8.05091 17.8216Q7.89242 17.8219 7.73891 17.7825Q7.58539 17.7431 7.44661 17.6666L0.653386 13.92Q0.50705 13.8393 0.387127 13.7229Q0.267205 13.6065 0.182159 13.4626Q0.0971135 13.3188 0.0529467 13.1576Q0.00877987 12.9964 0.00860882 12.8293L0.00468099 8.9919L0.000754105 5.15532Q0.000582807 4.98796 0.044545 4.82648Q0.0885072 4.665 0.173491 4.52082Q0.258476 4.37665 0.378468 4.25998Q0.498459 4.14331 0.644966 4.06241L0.644966 4.06241Z" transform="matrix(-1 0 0 1 67.23611 15.94322)" id="path_3" />
    <clipPath id="clip_1">
      <use xlink:href="#path_1" />
    </clipPath>
    <clipPath id="clip_2">
      <use xlink:href="#path_2" />
    </clipPath>
    <clipPath id="clip_3">
      <use xlink:href="#path_3" />
    </clipPath>
  </defs>
  <g id="Group">
    <g id="Sparks">
      <path d="M0.644966 4.06241L7.39747 0.333751Q7.53621 0.257141 7.6897 0.217671Q7.84319 0.178202 8.00168 0.178383Q8.16016 0.178563 8.31357 0.218383Q8.46697 0.258203 8.60553 0.335131L15.3497 4.07929Q15.4954 4.16019 15.6147 4.27652Q15.7341 4.39285 15.8187 4.53645Q15.9033 4.68004 15.9473 4.84082Q15.9912 5.0016 15.9914 5.16827L15.9954 9.05177L15.9992 12.847Q15.9994 13.0139 15.9557 13.175Q15.912 13.3361 15.8274 13.48Q15.7429 13.6239 15.6234 13.7405Q15.504 13.8571 15.3581 13.9382L8.6547 17.6645Q8.51617 17.7415 8.36279 17.7814Q8.2094 17.8213 8.05091 17.8216Q7.89242 17.8219 7.73891 17.7825Q7.58539 17.7431 7.44661 17.6666L0.653386 13.92Q0.50705 13.8393 0.387127 13.7229Q0.267205 13.6065 0.182159 13.4626Q0.0971135 13.3188 0.0529467 13.1576Q0.00877987 12.9964 0.00860882 12.8293L0.00468099 8.9919L0.000754105 5.15532Q0.000582807 4.98796 0.044545 4.82648Q0.0885072 4.665 0.173491 4.52082Q0.258476 4.37665 0.378468 4.25998Q0.498459 4.14331 0.644966 4.06241L0.644966 4.06241Z" transform="matrix(-0.2588191 -0.9659258 -0.9659258 0.2588191 29.76389 16.39804)" id="Mask-Copy-18" fill="#00A8FF" stroke="none" />
      <path d="M0.644966 4.06241L7.39747 0.333751Q7.53621 0.257141 7.6897 0.217671Q7.84319 0.178202 8.00168 0.178383Q8.16016 0.178563 8.31357 0.218383Q8.46697 0.258203 8.60553 0.335131L15.3497 4.07929Q15.4954 4.16019 15.6147 4.27652Q15.7341 4.39285 15.8187 4.53645Q15.9033 4.68004 15.9473 4.84082Q15.9912 5.0016 15.9914 5.16827L15.9954 9.05177L15.9992 12.847Q15.9994 13.0139 15.9557 13.175Q15.912 13.3361 15.8274 13.48Q15.7429 13.6239 15.6234 13.7405Q15.504 13.8571 15.3581 13.9382L8.6547 17.6645Q8.51617 17.7415 8.36279 17.7814Q8.2094 17.8213 8.05091 17.8216Q7.89242 17.8219 7.73891 17.7825Q7.58539 17.7431 7.44661 17.6666L0.653386 13.92Q0.50705 13.8393 0.387127 13.7229Q0.267205 13.6065 0.182159 13.4626Q0.0971135 13.3188 0.0529467 13.1576Q0.00877987 12.9964 0.00860882 12.8293L0.00468099 8.9919L0.000754105 5.15532Q0.000582807 4.98796 0.044545 4.82648Q0.0885072 4.665 0.173491 4.52082Q0.258476 4.37665 0.378468 4.25998Q0.498459 4.14331 0.644966 4.06241L0.644966 4.06241Z" transform="matrix(-0.2588191 -0.9659258 -0.9659258 0.2588191 21.76389 83.39803)" id="Mask-Copy-27" fill="#9CF6E2" stroke="none" />
      <g id="Mask-Copy-19">
        <g clip-path="url(#clip_1)">
          <use xlink:href="#path_1" fill="none" stroke="#00A8FF" stroke-width="5.20000029" />
        </g>
      </g>
      <g id="Mask-Copy-21">
        <g clip-path="url(#clip_2)">
          <use xlink:href="#path_2" fill="none" stroke="#DCBD76" stroke-width="5.20000029" />
        </g>
      </g>
      <g id="Mask-Copy-20">
        <g clip-path="url(#clip_3)">
          <use xlink:href="#path_3" fill="none" stroke="#00257A" stroke-width="5.20000029" />
        </g>
      </g>
    </g>
  </g>
</svg>