<?xml version="1.0" encoding="utf-8"?>
<svg width="348px" height="314px" viewBox="0 0 348 314" version="1.1" xmlns:xlink="http://www.w3.org/1999/xlink" xmlns="http://www.w3.org/2000/svg">
  <desc>Created with Lunacy</desc>
  <g id="Group" transform="translate(1 1)">
    <path d="M8.20618 64.6081L115.797 4.36414Q116.241 4.11529 116.701 3.89522Q117.16 3.67514 117.632 3.48473Q118.105 3.29431 118.588 3.13434Q119.072 2.97436 119.565 2.84547Q120.058 2.71658 120.558 2.61929Q121.057 2.522 121.563 2.45671Q122.068 2.39143 122.576 2.3584Q123.084 2.32538 123.594 2.32475Q124.103 2.32413 124.611 2.3559Q125.12 2.38768 125.625 2.45172Q126.13 2.51577 126.631 2.61183Q127.131 2.70789 127.624 2.83557Q128.117 2.96325 128.601 3.12204Q129.085 3.28083 129.558 3.47008Q130.031 3.65933 130.491 3.87828Q130.95 4.09722 131.395 4.34498L239.773 64.6805Q240.238 64.939 240.684 65.2278Q241.13 65.5166 241.556 65.8343Q241.982 66.1521 242.386 66.4974Q242.79 66.8427 243.17 67.2141Q243.551 67.5855 243.905 67.9813Q244.26 68.3771 244.588 68.7955Q244.915 69.214 245.215 69.6533Q245.514 70.0926 245.783 70.5507Q246.053 71.0089 246.291 71.4839Q246.529 71.959 246.736 72.4488Q246.942 72.9386 247.115 73.441Q247.289 73.9434 247.428 74.4563Q247.568 74.9691 247.673 75.4901Q247.778 76.011 247.849 76.5378Q247.919 77.0646 247.955 77.5949Q247.99 78.1252 247.99 78.6567L248 139.85L247.99 199.111Q247.99 199.641 247.955 200.169Q247.92 200.697 247.85 201.222Q247.78 201.747 247.676 202.266Q247.571 202.785 247.433 203.296Q247.294 203.807 247.122 204.307Q246.95 204.808 246.745 205.296Q246.54 205.785 246.304 206.258Q246.067 206.732 245.8 207.189Q245.533 207.646 245.236 208.084Q244.939 208.522 244.613 208.94Q244.288 209.358 243.936 209.753Q243.583 210.148 243.206 210.519Q242.828 210.89 242.427 211.236Q242.026 211.581 241.602 211.899Q241.179 212.217 240.736 212.506Q240.292 212.796 239.831 213.055L132.118 273.602Q131.672 273.853 131.211 274.074Q130.751 274.296 130.276 274.488Q129.802 274.68 129.317 274.841Q128.832 275.002 128.337 275.131Q127.842 275.261 127.341 275.359Q126.839 275.457 126.331 275.522Q125.824 275.588 125.314 275.621Q124.804 275.654 124.292 275.655Q123.781 275.655 123.271 275.623Q122.76 275.591 122.253 275.526Q121.746 275.461 121.244 275.364Q120.742 275.267 120.247 275.138Q119.752 275.009 119.266 274.849Q118.781 274.689 118.306 274.498Q117.832 274.307 117.371 274.087Q116.909 273.866 116.463 273.616L8.2079 213.013Q7.74398 212.754 7.29832 212.464Q6.85266 212.174 6.42724 211.855Q6.00181 211.536 5.5985 211.19Q5.19518 210.843 4.81575 210.471Q4.43633 210.098 4.08246 209.702Q3.7286 209.305 3.40186 208.885Q3.07512 208.466 2.77694 208.026Q2.47877 207.586 2.21048 207.126Q1.94218 206.667 1.70496 206.192Q1.46773 205.716 1.26262 205.225Q1.0575 204.735 0.885405 204.232Q0.713307 203.729 0.574987 203.215Q0.436666 202.702 0.332733 202.181Q0.228799 201.659 0.159711 201.132Q0.0906235 200.605 0.0566861 200.074Q0.0227487 199.544 0.0241115 199.012L0.1769 139.405Q0.177004 139.365 0.176902 139.324L0.0237269 78.6081Q0.0223858 78.0765 0.0563359 77.546Q0.0902859 77.0154 0.159377 76.4883Q0.228469 75.9613 0.332397 75.4399Q0.436325 74.9186 0.574631 74.4053Q0.712937 73.892 0.885011 73.389Q1.05709 72.886 1.26217 72.3956Q1.46725 71.9051 1.70444 71.4294Q1.94163 70.9536 2.20987 70.4946Q2.47812 70.0357 2.77624 69.5955Q3.07436 69.1554 3.40104 68.736Q3.72772 68.3166 4.08151 67.9199Q4.43531 67.5231 4.81467 67.1507Q5.19402 66.7783 5.59726 66.4319Q6.0005 66.0854 6.42585 65.7666Q6.85119 65.4477 7.29677 65.1578Q7.74234 64.8678 8.20618 64.6081L8.20618 64.6081Z" transform="matrix(-0.258819 0.9659259 -0.9659259 -0.258819 345.4531 71.95166)" id="Hexagon" fill="#B1E6E4" stroke="none" />
    <g id="Sparks" transform="translate(0 32.42566)">
      <path d="M0.967767 5.86495L10.3817 0.533364Q10.4889 0.472646 10.6031 0.426236Q10.7172 0.379827 10.8364 0.3485Q10.9555 0.317173 11.0777 0.30145Q11.2 0.285727 11.3232 0.28587Q11.4464 0.286012 11.5685 0.302018Q11.6907 0.318024 11.8098 0.349626Q11.9289 0.381229 12.0429 0.427902Q12.1569 0.474575 12.264 0.535542L21.6667 5.8895Q21.7758 5.95161 21.8758 6.02748Q21.9757 6.10336 22.0649 6.19169Q22.1541 6.28002 22.2309 6.37928Q22.3077 6.47854 22.3708 6.58702Q22.434 6.6955 22.4823 6.81132Q22.5307 6.92715 22.5635 7.04831Q22.5962 7.16947 22.6128 7.29389Q22.6294 7.4183 22.6295 7.54382L22.6351 13.1376L22.6406 18.6033Q22.6407 18.729 22.6243 18.8536Q22.6079 18.9782 22.5753 19.0996Q22.5427 19.221 22.4945 19.3371Q22.4462 19.4531 22.3831 19.5618Q22.32 19.6705 22.2432 19.77Q22.1664 19.8695 22.0772 19.958Q21.988 20.0466 21.8879 20.1226Q21.7878 20.1987 21.6786 20.2609L12.3336 25.5889Q12.2265 25.65 12.1125 25.6967Q11.9985 25.7434 11.8794 25.7751Q11.7604 25.8068 11.6382 25.8228Q11.516 25.8389 11.3928 25.8391Q11.2696 25.8393 11.1474 25.8237Q11.0252 25.808 10.906 25.7767Q10.7868 25.7455 10.6726 25.6991Q10.5585 25.6528 10.4512 25.5921L0.979667 20.2345Q0.870124 20.1725 0.769681 20.0967Q0.669237 20.0208 0.579637 19.9325Q0.490036 19.8441 0.412836 19.7447Q0.335635 19.6453 0.272174 19.5366Q0.208713 19.4279 0.160095 19.3119Q0.111476 19.1958 0.0785443 19.0743Q0.0456124 18.9528 0.0289388 18.8281Q0.0122652 18.7033 0.0121396 18.5775L0.00662409 13.0507L0.00110992 7.52524Q0.000984144 7.39921 0.0174547 7.27426Q0.0339252 7.14931 0.0667051 7.02762Q0.0994851 6.90593 0.148004 6.78962Q0.196522 6.6733 0.259934 6.56439Q0.323347 6.45547 0.400548 6.35585Q0.47775 6.25624 0.567396 6.16766Q0.657043 6.07907 0.757573 6.00307Q0.858103 5.92706 0.967767 5.86495L0.967767 5.86495Z" transform="matrix(-0.9848077 0.1736482 0.1736482 0.9848077 22.30078 74.65186)" id="Mask-Copy-42" fill="#00A8FF" stroke="none" />
      <path d="M8 16C12.4183 16 16 12.4183 16 8C16 3.58172 12.4183 0 8 0C3.58172 0 0 3.58172 0 8C0 12.4183 3.58172 16 8 16Z" transform="translate(33.09766 38.44995)" id="Oval-Copy-12" fill="none" stroke="#00257A" stroke-width="2" />
      <path d="M2.14074 3.80272e-16L14.1093 2.50631e-15Q14.1488 2.51332e-15 14.1882 0.00262597Q14.2276 0.00525195 14.2667 0.0104923Q14.3058 0.0157326 14.3446 0.0235641Q14.3833 0.0313955 14.4214 0.0417835Q14.4595 0.0521715 14.4968 0.0650699Q14.5341 0.0779684 14.5705 0.0933203Q14.6069 0.108672 14.6422 0.12641Q14.6775 0.144147 14.7115 0.164191Q14.7455 0.184235 14.7781 0.206498Q14.8107 0.22876 14.8418 0.253143Q14.8729 0.277525 14.9022 0.303919Q14.9316 0.330313 14.9592 0.358602Q14.9867 0.38689 15.0123 0.416949Q15.038 0.447008 15.0615 0.478703Q15.0851 0.510398 15.1065 0.54359Q15.1279 0.576781 15.147 0.611322Q15.1662 0.645863 15.183 0.681601Q15.1998 0.717338 15.2142 0.754114Q15.2286 0.79089 15.2405 0.828542Q15.2524 0.866193 15.2618 0.904553Q15.2712 0.942914 15.278 0.981813Q15.2848 1.02071 15.289 1.05998Q15.2932 1.09925 15.2948 1.13871Q15.2964 1.17816 15.2954 1.21764Q15.2943 1.25712 15.2907 1.29644Q15.287 1.33576 15.2807 1.37476Q15.2745 1.41375 15.2656 1.45223Q15.2568 1.49072 15.2454 1.52854Q15.234 1.56635 15.2201 1.60333Q15.2063 1.6403 15.19 1.67627Q15.1737 1.71224 15.155 1.74705Q15.1363 1.78185 15.1154 1.81534L9.13115 11.3902Q9.09132 11.4539 9.04375 11.5121Q8.99619 11.5703 8.94167 11.622Q8.88715 11.6738 8.82653 11.7182Q8.76592 11.7626 8.70018 11.7991Q8.63444 11.8355 8.56463 11.8634Q8.49482 11.8912 8.42205 11.91Q8.34928 11.9288 8.27472 11.9383Q8.20016 11.9478 8.125 11.9478Q8.04984 11.9478 7.97528 11.9383Q7.90072 11.9288 7.82795 11.91Q7.75518 11.8912 7.68537 11.8634Q7.61556 11.8355 7.54982 11.7991Q7.48408 11.7626 7.42347 11.7182Q7.36285 11.6738 7.30833 11.622Q7.2538 11.5703 7.20624 11.5121Q7.15868 11.4539 7.11885 11.3902L1.13459 1.81534Q1.11366 1.78185 1.095 1.74705Q1.07634 1.71224 1.06004 1.67627Q1.04374 1.6403 1.02987 1.60333Q1.01599 1.56635 1.00461 1.52854Q0.993225 1.49072 0.98438 1.45223Q0.975535 1.41375 0.96927 1.37476Q0.963004 1.33576 0.959344 1.29644Q0.955685 1.25712 0.954648 1.21764Q0.953612 1.17816 0.955203 1.13871Q0.956793 1.09925 0.961005 1.05998Q0.965216 1.02071 0.972029 0.981813Q0.978841 0.942914 0.988226 0.904553Q0.99761 0.866193 1.00952 0.828541Q1.02144 0.79089 1.03583 0.754114Q1.05022 0.717338 1.06703 0.681601Q1.08383 0.645863 1.10298 0.611322Q1.12212 0.576781 1.14352 0.54359Q1.16492 0.510398 1.18848 0.478703Q1.21203 0.447008 1.23765 0.416949Q1.26326 0.38689 1.29082 0.358602Q1.31837 0.330313 1.34775 0.303919Q1.37713 0.277525 1.40819 0.253143Q1.43926 0.22876 1.47188 0.206498Q1.50449 0.184235 1.53852 0.164191Q1.57255 0.144147 1.60783 0.12641Q1.64312 0.108672 1.6795 0.0933203Q1.71589 0.0779684 1.75321 0.0650699Q1.79054 0.0521715 1.82864 0.0417835Q1.86674 0.0313955 1.90545 0.0235641Q1.94415 0.0157326 1.9833 0.0104923Q2.02244 0.00525195 2.06184 0.00262597Q2.10125 3.73257e-16 2.14074 3.80272e-16Z" transform="matrix(-4.371139E-08 -1 1 -4.371139E-08 14.28516 16.25)" id="Rectangle-Copy-13" fill="#DCBD76" stroke="none" />
    </g>
  </g>
</svg>