<?xml version="1.0" encoding="utf-8"?>
<svg width="178px" height="223px" viewBox="0 0 178 223" version="1.1" xmlns:xlink="http://www.w3.org/1999/xlink" xmlns="http://www.w3.org/2000/svg">
  <desc>Created with Lunacy</desc>
  <g id="Group-3" transform="translate(1 1)">
    <path d="M6.14607 32.8962L58.9318 3.28389Q59.2655 3.09669 59.6104 2.93114Q59.9553 2.76558 60.3101 2.62234Q60.6649 2.47909 61.0281 2.35874Q61.3913 2.23839 61.7614 2.14142Q62.1315 2.04446 62.507 1.97126Q62.8826 1.89807 63.262 1.84895Q63.6415 1.79984 64.0233 1.77499Q64.4051 1.75015 64.7877 1.74968Q65.1703 1.74921 65.5521 1.77311Q65.934 1.79702 66.3136 1.8452Q66.6931 1.89339 67.0688 1.96566Q67.4446 2.03792 67.8149 2.13398Q68.1853 2.23004 68.5487 2.3495Q68.9122 2.46895 69.2673 2.61133Q69.6225 2.7537 69.9678 2.9184Q70.3132 3.08311 70.6473 3.26948L123.841 32.939Q124.189 33.133 124.523 33.3496Q124.857 33.5663 125.177 33.8047Q125.496 34.043 125.798 34.302Q126.101 34.561 126.386 34.8395Q126.67 35.118 126.936 35.4147Q127.202 35.7115 127.447 36.0252Q127.693 36.3389 127.917 36.6682Q128.141 36.9976 128.342 37.341Q128.544 37.6844 128.723 38.0405Q128.901 38.3966 129.056 38.7637Q129.21 39.1308 129.34 39.5074Q129.47 39.8839 129.574 40.2683Q129.679 40.6526 129.758 41.043Q129.837 41.4335 129.889 41.8283Q129.942 42.2231 129.969 42.6205Q129.995 43.0179 129.995 43.4162L130 73.4467L129.995 102.472Q129.995 102.869 129.969 103.265Q129.943 103.66 129.89 104.054Q129.838 104.447 129.76 104.836Q129.681 105.225 129.578 105.608Q129.474 105.991 129.345 106.366Q129.216 106.741 129.063 107.107Q128.91 107.473 128.732 107.828Q128.555 108.183 128.355 108.526Q128.155 108.868 127.932 109.197Q127.71 109.525 127.466 109.838Q127.223 110.152 126.959 110.448Q126.695 110.744 126.412 111.023Q126.129 111.301 125.829 111.56Q125.528 111.819 125.211 112.057Q124.894 112.296 124.562 112.513Q124.23 112.73 123.884 112.925L71.0303 142.691Q70.6956 142.879 70.3495 143.046Q70.0035 143.213 69.6474 143.357Q69.2914 143.501 68.9269 143.622Q68.5624 143.743 68.1909 143.841Q67.8194 143.939 67.4424 144.012Q67.0654 144.086 66.6845 144.135Q66.3035 144.185 65.9202 144.21Q65.5369 144.234 65.1528 144.235Q64.7687 144.235 64.3853 144.211Q64.002 144.187 63.621 144.138Q63.24 144.089 62.8628 144.016Q62.4857 143.943 62.114 143.846Q61.7423 143.749 61.3776 143.629Q61.0129 143.508 60.6566 143.365Q60.3004 143.221 59.954 143.055Q59.6077 142.889 59.2726 142.701L6.14735 112.905Q5.79984 112.71 5.46602 112.493Q5.1322 112.275 4.81355 112.036Q4.4949 111.797 4.19281 111.537Q3.89073 111.277 3.60655 110.998Q3.32237 110.718 3.05734 110.421Q2.79232 110.123 2.54761 109.809Q2.3029 109.495 2.07959 109.165Q1.85629 108.835 1.65536 108.491Q1.45444 108.146 1.27678 107.79Q1.09912 107.433 0.945515 107.066Q0.791908 106.698 0.663029 106.321Q0.53415 105.944 0.430566 105.559Q0.326983 105.174 0.249151 104.784Q0.171318 104.393 0.119581 103.998Q0.0678433 103.603 0.0424283 103.205Q0.0170132 102.807 0.0180326 102.409L0.0927065 73.2221Q0.0927843 73.1916 0.0927077 73.1612L0.017745 43.3912Q0.0167419 42.9928 0.0421664 42.5952Q0.0675909 42.1976 0.119331 41.8026Q0.171071 41.4076 0.248899 41.0169Q0.326727 40.6261 0.4303 40.2415Q0.533873 39.8568 0.662735 39.4798Q0.791597 39.1028 0.945179 38.7352Q1.09876 38.3676 1.27639 38.011Q1.45402 37.6544 1.65491 37.3104Q1.8558 36.9664 2.07907 36.6364Q2.30233 36.3065 2.54699 35.9921Q2.79166 35.6776 3.05663 35.3801Q3.32161 35.0827 3.60574 34.8034Q3.88987 34.5241 4.19189 34.2643Q4.49392 34.0045 4.81251 33.7653Q5.1311 33.5261 5.46486 33.3086Q5.79862 33.0911 6.14607 32.8962L6.14607 32.8962Z" transform="matrix(-0.9659258 -0.2588191 0.2588191 -0.9659258 125.5703 220.1615)" id="Hexagon" fill="#FFA083" stroke="none" />
    <g id="Group-2" transform="translate(131.6797 0)">
      <path d="M11 22C17.0751 22 22 17.0751 22 11C22 4.92487 17.0751 0 11 0C4.92487 0 0 4.92487 0 11C0 17.0751 4.92487 22 11 22Z" transform="translate(11.53906 69.78076)" id="Oval" fill="#00A8FF" stroke="none" />
      <path d="M4.19294 7.75849e-16L19.8071 3.66504e-15Q19.8854 3.67954e-15 19.9636 0.00516486Q20.0417 0.0103297 20.1194 0.020637Q20.1971 0.0309442 20.2739 0.046349Q20.3507 0.0617538 20.4263 0.0821891Q20.502 0.102624 20.5761 0.128001Q20.6502 0.153378 20.7225 0.183586Q20.7948 0.213794 20.8649 0.248702Q20.935 0.28361 21.0027 0.323065Q21.0704 0.362521 21.1353 0.406353Q21.2002 0.450185 21.2621 0.498202Q21.324 0.546219 21.3826 0.598213Q21.4412 0.650207 21.4963 0.705951Q21.5513 0.761695 21.6026 0.820946Q21.6538 0.880198 21.7011 0.9427Q21.7483 1.0052 21.7913 1.07068Q21.8343 1.13616 21.8729 1.20433Q21.9115 1.27251 21.9455 1.34307Q21.9796 1.41364 22.0089 1.4863Q22.0381 1.55896 22.0626 1.63339Q22.087 1.70782 22.1065 1.7837Q22.126 1.85959 22.1404 1.93659Q22.1549 2.01359 22.1642 2.09137Q22.1735 2.16915 22.1777 2.24738Q22.1819 2.32561 22.1809 2.40395Q22.1799 2.48228 22.1737 2.56038Q22.1676 2.63848 22.1563 2.71601Q22.145 2.79353 22.1286 2.87014Q22.1123 2.94675 22.0909 3.02212Q22.0695 3.09748 22.0432 3.17128Q22.0169 3.24507 21.9858 3.31696Q21.9546 3.38886 21.9188 3.45855Q21.8831 3.52824 21.8428 3.59541L14.0357 16.6072Q13.9963 16.6728 13.9529 16.7357Q13.9094 16.7986 13.8619 16.8585Q13.8145 16.9185 13.7633 16.9753Q13.7121 17.0321 13.6574 17.0855Q13.6026 17.1389 13.5445 17.1886Q13.4865 17.2384 13.4253 17.2843Q13.3642 17.3302 13.3002 17.3721Q13.2362 17.4139 13.1697 17.4516Q13.1031 17.4893 13.0343 17.5226Q12.9655 17.5559 12.8946 17.5847Q12.8238 17.6136 12.7513 17.6378Q12.6787 17.662 12.6048 17.6814Q12.5308 17.7009 12.4558 17.7156Q12.3808 17.7303 12.3049 17.7401Q12.2291 17.7499 12.1528 17.7549Q12.0765 17.7598 12 17.7598Q11.9235 17.7598 11.8472 17.7549Q11.7709 17.7499 11.6951 17.7401Q11.6192 17.7303 11.5442 17.7156Q11.4692 17.7009 11.3952 17.6814Q11.3213 17.662 11.2487 17.6378Q11.1762 17.6136 11.1054 17.5847Q11.0345 17.5559 10.9657 17.5226Q10.8969 17.4893 10.8303 17.4516Q10.7638 17.4139 10.6998 17.3721Q10.6358 17.3302 10.5747 17.2843Q10.5135 17.2384 10.4555 17.1886Q10.3974 17.1389 10.3426 17.0855Q10.2879 17.0321 10.2367 16.9753Q10.1855 16.9185 10.1381 16.8585Q10.0906 16.7986 10.0471 16.7357Q10.0037 16.6728 9.96431 16.6072L2.15725 3.59541Q2.11694 3.52824 2.08115 3.45855Q2.04536 3.38886 2.01424 3.31696Q1.98313 3.24507 1.95682 3.17128Q1.93051 3.09748 1.90912 3.02212Q1.88773 2.94675 1.87136 2.87014Q1.85499 2.79353 1.8437 2.71601Q1.83241 2.63848 1.82626 2.56038Q1.82011 2.48228 1.81913 2.40395Q1.81814 2.32561 1.82232 2.24738Q1.82649 2.16915 1.83582 2.09137Q1.84515 2.01359 1.85958 1.93659Q1.87402 1.85959 1.8935 1.7837Q1.91298 1.70782 1.93742 1.63339Q1.96185 1.55896 1.99115 1.4863Q2.02044 1.41364 2.05446 1.34307Q2.08848 1.27251 2.12708 1.20433Q2.16568 1.13616 2.20869 1.07068Q2.2517 1.0052 2.29893 0.9427Q2.34616 0.880198 2.39741 0.820946Q2.44866 0.761695 2.50371 0.705951Q2.55875 0.650207 2.61736 0.598213Q2.67596 0.546219 2.73786 0.498202Q2.79976 0.450185 2.86469 0.406353Q2.92962 0.362521 2.9973 0.323065Q3.06498 0.28361 3.13512 0.248702Q3.20525 0.213794 3.27753 0.183586Q3.34982 0.153378 3.42393 0.128001Q3.49805 0.102624 3.57368 0.0821891Q3.64931 0.0617538 3.72612 0.046349Q3.80293 0.0309442 3.88059 0.020637Q3.95825 0.0103297 4.03642 0.00516486Q4.11459 7.61353e-16 4.19294 7.75849e-16L4.19294 7.75849e-16Z" transform="matrix(-4.371139E-08 -1 1 -4.371139E-08 0 55.82568)" id="Rectangle-Copy-13" fill="#ED343C" stroke="none" />
      <path d="M2.374 4.35464e-13L11.626 3.75887e-13Q11.7426 3.75136e-13 11.8587 0.0114315Q11.9748 0.0228629 12.0891 0.0456157Q12.2035 0.0683686 12.3151 0.102224Q12.4267 0.136079 12.5345 0.18071Q12.6422 0.225341 12.7451 0.280319Q12.848 0.335297 12.9449 0.400091Q13.0419 0.464886 13.132 0.538873Q13.2222 0.612861 13.3047 0.695329Q13.3871 0.777796 13.4611 0.86795Q13.5351 0.958104 13.5999 1.05508Q13.6647 1.15205 13.7197 1.2549Q13.7747 1.35776 13.8193 1.46551Q13.8639 1.57326 13.8978 1.68486Q13.9316 1.79647 13.9544 1.91086Q13.9771 2.02524 13.9886 2.14131Q14 2.25737 14 2.374L14 11.626Q14 11.7426 13.9886 11.8587Q13.9771 11.9748 13.9544 12.0891Q13.9316 12.2035 13.8978 12.3151Q13.8639 12.4267 13.8193 12.5345Q13.7747 12.6422 13.7197 12.7451Q13.6647 12.848 13.5999 12.9449Q13.5351 13.0419 13.4611 13.132Q13.3871 13.2222 13.3047 13.3047Q13.2222 13.3871 13.132 13.4611Q13.0419 13.5351 12.9449 13.5999Q12.848 13.6647 12.7451 13.7197Q12.6422 13.7747 12.5345 13.8193Q12.4267 13.8639 12.3151 13.8978Q12.2035 13.9316 12.0891 13.9544Q11.9748 13.9771 11.8587 13.9886Q11.7426 14 11.626 14L2.374 14Q2.25737 14 2.14131 13.9886Q2.02524 13.9771 1.91086 13.9544Q1.79647 13.9316 1.68486 13.8978Q1.57326 13.8639 1.46551 13.8193Q1.35776 13.7747 1.2549 13.7197Q1.15205 13.6647 1.05508 13.5999Q0.958104 13.5351 0.86795 13.4611Q0.777796 13.3871 0.695328 13.3047Q0.612861 13.2222 0.538873 13.132Q0.464886 13.0419 0.400091 12.9449Q0.335297 12.848 0.280319 12.7451Q0.225341 12.6422 0.18071 12.5345Q0.136079 12.4267 0.102224 12.3151Q0.0683686 12.2035 0.0456157 12.0891Q0.0228629 11.9748 0.0114315 11.8587Q1.07766e-14 11.7426 1.13334e-14 11.626L5.5502e-14 2.374Q5.60588e-14 2.25737 0.0114315 2.14131Q0.0228629 2.02524 0.0456157 1.91086Q0.0683686 1.79647 0.102224 1.68486Q0.136079 1.57326 0.18071 1.46551Q0.225341 1.35776 0.280319 1.2549Q0.335297 1.15205 0.400091 1.05508Q0.464886 0.958104 0.538873 0.86795Q0.612861 0.777796 0.695329 0.695328Q0.777796 0.612861 0.86795 0.538873Q0.958104 0.464886 1.05508 0.400091Q1.15205 0.335297 1.2549 0.280319Q1.35776 0.225341 1.46551 0.18071Q1.57326 0.136079 1.68486 0.102224Q1.79647 0.0683686 1.91086 0.0456157Q2.02524 0.0228629 2.14131 0.0114315Q2.25737 4.36215e-13 2.374 4.35464e-13L2.374 4.35464e-13Z" transform="matrix(0.6156615 -0.7880107 0.7880107 0.6156615 24.17578 11.0321)" id="Rectangle" fill="#FECA14" stroke="none" />
    </g>
  </g>
</svg>