<?xml version="1.0" encoding="utf-8"?>
<svg width="165px" height="176px" viewBox="0 0 165 176" version="1.1" xmlns:xlink="http://www.w3.org/1999/xlink" xmlns="http://www.w3.org/2000/svg">
  <desc>Created with Lunacy</desc>
  <path d="M6.14607 32.8962L58.9318 3.28389Q59.2655 3.09669 59.6104 2.93114Q59.9553 2.76558 60.3101 2.62234Q60.6649 2.47909 61.0281 2.35874Q61.3913 2.23839 61.7614 2.14142Q62.1315 2.04446 62.507 1.97126Q62.8826 1.89807 63.262 1.84895Q63.6415 1.79984 64.0233 1.77499Q64.4051 1.75015 64.7877 1.74968Q65.1703 1.74921 65.5521 1.77311Q65.934 1.79702 66.3136 1.8452Q66.6931 1.89339 67.0688 1.96566Q67.4446 2.03792 67.8149 2.13398Q68.1853 2.23004 68.5487 2.3495Q68.9122 2.46895 69.2673 2.61133Q69.6225 2.7537 69.9678 2.9184Q70.3132 3.08311 70.6473 3.26948L123.841 32.939Q124.189 33.133 124.523 33.3496Q124.857 33.5663 125.177 33.8047Q125.496 34.043 125.798 34.302Q126.101 34.561 126.386 34.8395Q126.67 35.118 126.936 35.4147Q127.202 35.7115 127.447 36.0252Q127.693 36.3389 127.917 36.6682Q128.141 36.9976 128.342 37.341Q128.544 37.6844 128.723 38.0405Q128.901 38.3966 129.056 38.7637Q129.21 39.1308 129.34 39.5074Q129.47 39.8839 129.574 40.2683Q129.679 40.6526 129.758 41.043Q129.837 41.4335 129.889 41.8283Q129.942 42.2231 129.969 42.6205Q129.995 43.0179 129.995 43.4162L130 73.4467L129.995 102.472Q129.995 102.869 129.969 103.265Q129.943 103.66 129.89 104.054Q129.838 104.447 129.76 104.836Q129.681 105.225 129.578 105.608Q129.474 105.991 129.345 106.366Q129.216 106.741 129.063 107.107Q128.91 107.473 128.732 107.828Q128.555 108.183 128.355 108.526Q128.155 108.868 127.932 109.197Q127.71 109.525 127.466 109.838Q127.223 110.152 126.959 110.448Q126.695 110.744 126.412 111.023Q126.129 111.301 125.829 111.56Q125.528 111.819 125.211 112.057Q124.894 112.296 124.562 112.513Q124.23 112.73 123.884 112.925L71.0303 142.691Q70.6956 142.879 70.3495 143.046Q70.0035 143.213 69.6474 143.357Q69.2914 143.501 68.9269 143.622Q68.5624 143.743 68.1909 143.841Q67.8194 143.939 67.4424 144.012Q67.0654 144.086 66.6845 144.135Q66.3035 144.185 65.9202 144.21Q65.5369 144.234 65.1528 144.235Q64.7687 144.235 64.3853 144.211Q64.002 144.187 63.621 144.138Q63.24 144.089 62.8628 144.016Q62.4857 143.943 62.114 143.846Q61.7423 143.749 61.3776 143.629Q61.0129 143.508 60.6566 143.365Q60.3004 143.221 59.954 143.055Q59.6077 142.889 59.2726 142.701L6.14735 112.905Q5.79984 112.71 5.46602 112.493Q5.1322 112.275 4.81355 112.036Q4.4949 111.797 4.19281 111.537Q3.89073 111.277 3.60655 110.998Q3.32237 110.718 3.05734 110.421Q2.79232 110.123 2.54761 109.809Q2.3029 109.495 2.07959 109.165Q1.85629 108.835 1.65536 108.491Q1.45444 108.146 1.27678 107.79Q1.09912 107.433 0.945515 107.066Q0.791908 106.698 0.663029 106.321Q0.53415 105.944 0.430566 105.559Q0.326983 105.174 0.249151 104.784Q0.171318 104.393 0.119581 103.998Q0.0678433 103.603 0.0424283 103.205Q0.0170132 102.807 0.0180326 102.409L0.0927065 73.2221Q0.0927843 73.1916 0.0927077 73.1612L0.017745 43.3912Q0.0167419 42.9928 0.0421664 42.5952Q0.0675909 42.1976 0.119331 41.8026Q0.171071 41.4076 0.248899 41.0169Q0.326727 40.6261 0.4303 40.2415Q0.533873 39.8568 0.662735 39.4798Q0.791597 39.1028 0.945179 38.7352Q1.09876 38.3676 1.27639 38.011Q1.45402 37.6544 1.65491 37.3104Q1.8558 36.9664 2.07907 36.6364Q2.30233 36.3065 2.54699 35.9921Q2.79166 35.6776 3.05663 35.3801Q3.32161 35.0827 3.60574 34.8034Q3.88987 34.5241 4.19189 34.2643Q4.49392 34.0045 4.81251 33.7653Q5.1311 33.5261 5.46486 33.3086Q5.79862 33.0911 6.14607 32.8962L6.14607 32.8962Z" transform="matrix(-0.9659258 -0.2588191 0.2588191 -0.9659258 126.1836 175.2839)" id="Hexagon" fill="#FECA14" fill-opacity="0.5" stroke="none" />
</svg>