<?xml version="1.0" encoding="utf-8"?>
<svg width="334px" height="313px" viewBox="0 0 334 313" version="1.1" xmlns:xlink="http://www.w3.org/1999/xlink" xmlns="http://www.w3.org/2000/svg">
  <desc>Created with Lunacy</desc>
  <path d="M8.20618 64.6081L115.797 4.36414Q116.241 4.11529 116.701 3.89522Q117.16 3.67514 117.632 3.48473Q118.105 3.29431 118.588 3.13434Q119.072 2.97436 119.565 2.84547Q120.058 2.71658 120.558 2.61929Q121.057 2.522 121.563 2.45671Q122.068 2.39143 122.576 2.3584Q123.084 2.32538 123.594 2.32475Q124.103 2.32413 124.611 2.3559Q125.12 2.38768 125.625 2.45172Q126.13 2.51577 126.631 2.61183Q127.131 2.70789 127.624 2.83557Q128.117 2.96325 128.601 3.12204Q129.085 3.28083 129.558 3.47008Q130.031 3.65933 130.491 3.87828Q130.95 4.09722 131.395 4.34498L239.773 64.6805Q240.238 64.939 240.684 65.2278Q241.13 65.5166 241.556 65.8343Q241.982 66.1521 242.386 66.4974Q242.79 66.8427 243.17 67.2141Q243.551 67.5855 243.905 67.9813Q244.26 68.3771 244.588 68.7955Q244.915 69.214 245.215 69.6533Q245.514 70.0926 245.783 70.5507Q246.053 71.0089 246.291 71.4839Q246.529 71.959 246.736 72.4488Q246.942 72.9386 247.115 73.441Q247.289 73.9434 247.428 74.4563Q247.568 74.9691 247.673 75.4901Q247.778 76.011 247.849 76.5378Q247.919 77.0646 247.955 77.5949Q247.99 78.1252 247.99 78.6567L248 139.85L247.99 199.111Q247.99 199.641 247.955 200.169Q247.92 200.697 247.85 201.222Q247.78 201.747 247.676 202.266Q247.571 202.785 247.433 203.296Q247.294 203.807 247.122 204.307Q246.95 204.808 246.745 205.296Q246.54 205.785 246.304 206.258Q246.067 206.732 245.8 207.189Q245.533 207.646 245.236 208.084Q244.939 208.522 244.613 208.94Q244.288 209.358 243.936 209.753Q243.583 210.148 243.206 210.519Q242.828 210.89 242.427 211.236Q242.026 211.581 241.602 211.899Q241.179 212.217 240.736 212.506Q240.292 212.796 239.831 213.055L132.118 273.602Q131.672 273.853 131.211 274.074Q130.751 274.296 130.276 274.488Q129.802 274.68 129.317 274.841Q128.832 275.002 128.337 275.131Q127.842 275.261 127.341 275.359Q126.839 275.457 126.331 275.522Q125.824 275.588 125.314 275.621Q124.804 275.654 124.292 275.655Q123.781 275.655 123.271 275.623Q122.76 275.591 122.253 275.526Q121.746 275.461 121.244 275.364Q120.742 275.267 120.247 275.138Q119.752 275.009 119.266 274.849Q118.781 274.689 118.306 274.498Q117.832 274.307 117.371 274.087Q116.909 273.866 116.463 273.616L8.2079 213.013Q7.74398 212.754 7.29832 212.464Q6.85266 212.174 6.42724 211.855Q6.00181 211.536 5.5985 211.19Q5.19518 210.843 4.81575 210.471Q4.43633 210.098 4.08246 209.702Q3.7286 209.305 3.40186 208.885Q3.07512 208.466 2.77694 208.026Q2.47877 207.586 2.21048 207.126Q1.94218 206.667 1.70496 206.192Q1.46773 205.716 1.26262 205.225Q1.0575 204.735 0.885405 204.232Q0.713307 203.729 0.574987 203.215Q0.436666 202.702 0.332733 202.181Q0.228799 201.659 0.159711 201.132Q0.0906235 200.605 0.0566861 200.074Q0.0227487 199.544 0.0241115 199.012L0.1769 139.405Q0.177004 139.365 0.176902 139.324L0.0237269 78.6081Q0.0223858 78.0765 0.0563359 77.546Q0.0902859 77.0154 0.159377 76.4883Q0.228469 75.9613 0.332397 75.4399Q0.436325 74.9186 0.574631 74.4053Q0.712937 73.892 0.885011 73.389Q1.05709 72.886 1.26217 72.3956Q1.46725 71.9051 1.70444 71.4294Q1.94163 70.9536 2.20987 70.4946Q2.47812 70.0357 2.77624 69.5955Q3.07436 69.1554 3.40104 68.736Q3.72772 68.3166 4.08151 67.9199Q4.43531 67.5231 4.81467 67.1507Q5.19402 66.7783 5.59726 66.4319Q6.0005 66.0854 6.42585 65.7666Q6.85119 65.4477 7.29677 65.1578Q7.74234 64.8678 8.20618 64.6081L8.20618 64.6081Z" transform="matrix(0.2588189 0.9659257 0.9659257 -0.2588189 0.6132813 72.56396)" id="Hexagon" fill="#C6D2FD" stroke="none" />
</svg>