<?xml version="1.0" encoding="utf-8"?>
<svg width="184px" height="194px" viewBox="0 0 184 194" version="1.1" xmlns:xlink="http://www.w3.org/1999/xlink" xmlns="http://www.w3.org/2000/svg">
  <desc>Created with Lunacy</desc>
  <g id="Group" transform="translate(1 1)">
    <path d="M6.14607 32.8962L58.9318 3.28389Q59.2655 3.09669 59.6104 2.93114Q59.9553 2.76558 60.3101 2.62234Q60.6649 2.47909 61.0281 2.35874Q61.3913 2.23839 61.7614 2.14142Q62.1315 2.04446 62.507 1.97126Q62.8826 1.89807 63.262 1.84895Q63.6415 1.79984 64.0233 1.77499Q64.4051 1.75015 64.7877 1.74968Q65.1703 1.74921 65.5521 1.77311Q65.934 1.79702 66.3136 1.8452Q66.6931 1.89339 67.0688 1.96566Q67.4446 2.03792 67.8149 2.13398Q68.1853 2.23004 68.5487 2.3495Q68.9122 2.46895 69.2673 2.61133Q69.6225 2.7537 69.9678 2.9184Q70.3132 3.08311 70.6473 3.26948L123.841 32.939Q124.189 33.133 124.523 33.3496Q124.857 33.5663 125.177 33.8047Q125.496 34.043 125.798 34.302Q126.101 34.561 126.386 34.8395Q126.67 35.118 126.936 35.4147Q127.202 35.7115 127.447 36.0252Q127.693 36.3389 127.917 36.6682Q128.141 36.9976 128.342 37.341Q128.544 37.6844 128.723 38.0405Q128.901 38.3966 129.056 38.7637Q129.21 39.1308 129.34 39.5074Q129.47 39.8839 129.574 40.2683Q129.679 40.6526 129.758 41.043Q129.837 41.4335 129.889 41.8283Q129.942 42.2231 129.969 42.6205Q129.995 43.0179 129.995 43.4162L130 73.4467L129.995 102.472Q129.995 102.869 129.969 103.265Q129.943 103.66 129.89 104.054Q129.838 104.447 129.76 104.836Q129.681 105.225 129.578 105.608Q129.474 105.991 129.345 106.366Q129.216 106.741 129.063 107.107Q128.91 107.473 128.732 107.828Q128.555 108.183 128.355 108.526Q128.155 108.868 127.932 109.197Q127.71 109.525 127.466 109.838Q127.223 110.152 126.959 110.448Q126.695 110.744 126.412 111.023Q126.129 111.301 125.829 111.56Q125.528 111.819 125.211 112.057Q124.894 112.296 124.562 112.513Q124.23 112.73 123.884 112.925L71.0303 142.691Q70.6956 142.879 70.3495 143.046Q70.0035 143.213 69.6474 143.357Q69.2914 143.501 68.9269 143.622Q68.5624 143.743 68.1909 143.841Q67.8194 143.939 67.4424 144.012Q67.0654 144.086 66.6845 144.135Q66.3035 144.185 65.9202 144.21Q65.5369 144.234 65.1528 144.235Q64.7687 144.235 64.3853 144.211Q64.002 144.187 63.621 144.138Q63.24 144.089 62.8628 144.016Q62.4857 143.943 62.114 143.846Q61.7423 143.749 61.3776 143.629Q61.0129 143.508 60.6566 143.365Q60.3004 143.221 59.954 143.055Q59.6077 142.889 59.2726 142.701L6.14735 112.905Q5.79984 112.71 5.46602 112.493Q5.1322 112.275 4.81355 112.036Q4.4949 111.797 4.19281 111.537Q3.89073 111.277 3.60655 110.998Q3.32237 110.718 3.05734 110.421Q2.79232 110.123 2.54761 109.809Q2.3029 109.495 2.07959 109.165Q1.85629 108.835 1.65536 108.491Q1.45444 108.146 1.27678 107.79Q1.09912 107.433 0.945515 107.066Q0.791908 106.698 0.663029 106.321Q0.53415 105.944 0.430566 105.559Q0.326983 105.174 0.249151 104.784Q0.171318 104.393 0.119581 103.998Q0.0678433 103.603 0.0424283 103.205Q0.0170132 102.807 0.0180326 102.409L0.0927065 73.2221Q0.0927843 73.1916 0.0927077 73.1612L0.017745 43.3912Q0.0167419 42.9928 0.0421664 42.5952Q0.0675909 42.1976 0.119331 41.8026Q0.171071 41.4076 0.248899 41.0169Q0.326727 40.6261 0.4303 40.2415Q0.533873 39.8568 0.662735 39.4798Q0.791597 39.1028 0.945179 38.7352Q1.09876 38.3676 1.27639 38.011Q1.45402 37.6544 1.65491 37.3104Q1.8558 36.9664 2.07907 36.6364Q2.30233 36.3065 2.54699 35.9921Q2.79166 35.6776 3.05663 35.3801Q3.32161 35.0827 3.60574 34.8034Q3.88987 34.5241 4.19189 34.2643Q4.49392 34.0045 4.81251 33.7653Q5.1311 33.5261 5.46486 33.3086Q5.79862 33.0911 6.14607 32.8962L6.14607 32.8962Z" transform="matrix(0.965926 -0.2588193 -0.2588193 -0.965926 56.10937 174.6716)" id="Hexagon" fill="#DE83C5" stroke="none" />
    <g id="Sparks" transform="translate(0 110.1357)">
      <path d="M0.967767 5.86495L10.3817 0.533364Q10.4889 0.472646 10.6031 0.426236Q10.7172 0.379827 10.8364 0.3485Q10.9555 0.317173 11.0777 0.30145Q11.2 0.285727 11.3232 0.28587Q11.4464 0.286012 11.5685 0.302018Q11.6907 0.318024 11.8098 0.349626Q11.9289 0.381229 12.0429 0.427902Q12.1569 0.474575 12.264 0.535542L21.6667 5.8895Q21.7758 5.95161 21.8758 6.02748Q21.9757 6.10336 22.0649 6.19169Q22.1541 6.28002 22.2309 6.37928Q22.3077 6.47854 22.3708 6.58702Q22.434 6.6955 22.4823 6.81132Q22.5307 6.92715 22.5635 7.04831Q22.5962 7.16947 22.6128 7.29389Q22.6294 7.4183 22.6295 7.54382L22.6351 13.1376L22.6406 18.6033Q22.6407 18.729 22.6243 18.8536Q22.6079 18.9782 22.5753 19.0996Q22.5427 19.221 22.4945 19.3371Q22.4462 19.4531 22.3831 19.5618Q22.32 19.6705 22.2432 19.77Q22.1664 19.8695 22.0772 19.958Q21.988 20.0466 21.8879 20.1226Q21.7878 20.1987 21.6786 20.2609L12.3336 25.5889Q12.2265 25.65 12.1125 25.6967Q11.9985 25.7434 11.8794 25.7751Q11.7604 25.8068 11.6382 25.8228Q11.516 25.8389 11.3928 25.8391Q11.2696 25.8393 11.1474 25.8237Q11.0252 25.808 10.906 25.7767Q10.7868 25.7455 10.6726 25.6991Q10.5585 25.6528 10.4512 25.5921L0.979667 20.2345Q0.870124 20.1725 0.769681 20.0967Q0.669237 20.0208 0.579637 19.9325Q0.490036 19.8441 0.412836 19.7447Q0.335635 19.6453 0.272174 19.5366Q0.208713 19.4279 0.160095 19.3119Q0.111476 19.1958 0.0785443 19.0743Q0.0456124 18.9528 0.0289388 18.8281Q0.0122652 18.7033 0.0121396 18.5775L0.00662409 13.0507L0.00110992 7.52524Q0.000984144 7.39921 0.0174547 7.27426Q0.0339252 7.14931 0.0667051 7.02762Q0.0994851 6.90593 0.148004 6.78962Q0.196522 6.6733 0.259934 6.56439Q0.323347 6.45547 0.400548 6.35585Q0.47775 6.25624 0.567396 6.16766Q0.657043 6.07907 0.757573 6.00307Q0.858103 5.92706 0.967767 5.86495L0.967767 5.86495Z" transform="matrix(-0.9848077 0.1736482 0.1736482 0.9848077 49.20313 51.43262)" id="Mask-Copy-42" fill="#00A8FF" stroke="none" />
      <path d="M7.125 14.25C11.06 14.25 14.25 11.06 14.25 7.125C14.25 3.18997 11.06 0 7.125 0C3.18997 0 0 3.18997 0 7.125C0 11.06 3.18997 14.25 7.125 14.25Z" transform="translate(0 28.19995)" id="Oval-Copy-12" fill="none" stroke="#CF3272" stroke-width="2" />
      <path d="M2.16142 3.77088e-16L11.8386 2.0654e-15Q11.8782 2.07232e-15 11.9178 0.00264606Q11.9573 0.00529211 11.9966 0.0105724Q12.0359 0.0158527 12.0748 0.0237437Q12.1136 0.0316347 12.1518 0.0421013Q12.1901 0.0525678 12.2275 0.0655631Q12.265 0.0785585 12.3015 0.0940247Q12.338 0.109491 12.3734 0.127359Q12.4088 0.145227 12.4429 0.165417Q12.477 0.185608 12.5097 0.20803Q12.5424 0.230452 12.5735 0.255007Q12.6046 0.279561 12.634 0.306138Q12.6635 0.332715 12.691 0.361197Q12.7186 0.389678 12.7442 0.419936Q12.7698 0.450194 12.7934 0.482094Q12.8169 0.513994 12.8382 0.547394Q12.8596 0.580795 12.8787 0.615545Q12.8978 0.650296 12.9145 0.686243Q12.9312 0.722189 12.9455 0.759171Q12.9597 0.796153 12.9715 0.834006Q12.9833 0.871859 12.9925 0.910413Q13.0017 0.948967 13.0084 0.988051Q13.015 1.02714 13.019 1.06657Q13.023 1.10601 13.0244 1.14563Q13.0257 1.18525 13.0245 1.22487Q13.0232 1.2645 13.0193 1.30394Q13.0153 1.34339 13.0088 1.38249Q13.0022 1.42159 12.9931 1.46016Q12.9839 1.49873 12.9723 1.53661Q12.9606 1.57449 12.9464 1.6115Q12.9322 1.64851 12.9155 1.68449Q12.8989 1.72048 12.8799 1.75527Q12.8609 1.79006 12.8396 1.8235L8.001 9.42699Q7.96098 9.48989 7.91339 9.54729Q7.86581 9.60468 7.81141 9.65567Q7.75701 9.70666 7.69666 9.75043Q7.63631 9.79421 7.57095 9.83008Q7.5056 9.86596 7.43627 9.89337Q7.36693 9.92079 7.29471 9.93931Q7.22249 9.95782 7.14853 9.96716Q7.07456 9.97649 7 9.97649Q6.92544 9.97649 6.85147 9.96716Q6.77751 9.95782 6.70529 9.93931Q6.63307 9.92079 6.56373 9.89337Q6.4944 9.86596 6.42905 9.83008Q6.36369 9.79421 6.30334 9.75043Q6.24299 9.70666 6.18859 9.65567Q6.13419 9.60468 6.08661 9.54729Q6.03902 9.48989 5.999 9.42699L1.16041 1.8235Q1.13913 1.79006 1.12012 1.75527Q1.10112 1.72048 1.08448 1.68449Q1.06784 1.64851 1.05364 1.6115Q1.03944 1.57449 1.02775 1.53661Q1.01605 1.49873 1.00691 1.46016Q0.997762 1.42159 0.991214 1.38249Q0.984666 1.34339 0.980742 1.30394Q0.976818 1.2645 0.975536 1.22487Q0.974254 1.18525 0.975619 1.14563Q0.976984 1.10601 0.980991 1.06657Q0.984998 1.02714 0.991629 0.988051Q0.998259 0.948967 1.00748 0.910413Q1.01671 0.871859 1.02849 0.834006Q1.04026 0.796153 1.05454 0.759171Q1.06882 0.722189 1.08553 0.686243Q1.10225 0.650296 1.12132 0.615545Q1.1404 0.580795 1.16175 0.547394Q1.18311 0.513994 1.20664 0.482094Q1.23018 0.450194 1.25579 0.419936Q1.2814 0.389678 1.30897 0.361197Q1.33655 0.332715 1.36596 0.306138Q1.39538 0.279561 1.4265 0.255007Q1.45762 0.230452 1.49031 0.20803Q1.523 0.185608 1.55712 0.165417Q1.59124 0.145227 1.62662 0.127359Q1.66201 0.109491 1.69851 0.0940247Q1.73501 0.0785585 1.77246 0.0655631Q1.80992 0.0525678 1.84815 0.0421013Q1.88639 0.0316347 1.92524 0.0237437Q1.96409 0.0158527 2.00338 0.0105724Q2.04266 0.00529211 2.08222 0.00264606Q2.12177 3.70172e-16 2.16142 3.77088e-16L2.16142 3.77088e-16Z" transform="matrix(-4.371139E-08 -1 1 -4.371139E-08 19.19922 14)" id="Rectangle-Copy-13" fill="#8132D2" stroke="none" />
    </g>
  </g>
</svg>