<svg id="Layer_1" data-name="Layer 1" xmlns="http://www.w3.org/2000/svg" xmlns:xlink="http://www.w3.org/1999/xlink" viewBox="0 0 324 288"><defs><style>.cls-1,.cls-7{fill:none;}.cls-1,.cls-5,.cls-7{stroke:#231f20;stroke-miterlimit:10;}.cls-1{stroke-width:8.03px;}.cls-2{fill:#231f20;}.cls-3{fill:#f15a29;}.cls-4,.cls-5{fill:#6d6e71;}.cls-5{stroke-width:6.88px;}.cls-6{clip-path:url(#clip-path);}.cls-7{stroke-linecap:round;stroke-width:4.59px;}</style><clipPath id="clip-path"><path class="cls-1" d="M225.85,47.84H170.21a2.57,2.57,0,0,0-2.58,2.58l13.61,10.69v75.27a6.88,6.88,0,0,0,6.89,6.88h37.72a6.88,6.88,0,0,0,6.88-6.88V54.72A6.88,6.88,0,0,0,225.85,47.84Z"/></clipPath></defs><title>tacfit</title><path class="cls-2" d="M184,197.5h18.29l-1.36,7.69h-9.47l-1.66,9.47h8.41l-1.31,7.64H188.4l-2.84,16h-8.82Z"/><path class="cls-2" d="M205,197.5h17.1l-1.24,7.1h-4.32l-4.68,26.63h4.27l-1.25,7.1h-17.1l1.24-7.1h4l4.67-26.63h-4Z"/><path class="cls-2" d="M238.76,205.49,233,238.33H224.2l5.8-32.84h-6.68l1.42-8h21.89l-1.42,8Z"/><path class="cls-3" d="M100.76,198.66l-7,39.67H83.17l7-39.67H82.1L83.82,189h26.45l-1.72,9.65Z"/><path class="cls-3" d="M117.28,189h15.87l-1.22,49.32H121.28l.57-10h-7.29l-2.86,10H101.48Zm-.07,30.24h5.22l1.43-23.1Z"/><path class="cls-3" d="M135.66,232.33,142.23,195l6-6h14.51l6,6-2,11.37H156.1l1.36-7.58-.86-.86h-3.5l-.86.86L147,228.54l.86.86h3.5l.86-.86,1.36-7.58h10.65l-2,11.37-6,6H141.66Z"/><path class="cls-2" d="M245.59,118.93c-3.1-12-7.77-23.77-5.07-36.6a73.59,73.59,0,0,0,.73-7.76c.3-3-1.18-4.42-4-4.39-15.44.21-37.49.93-52.93,1.21-3.83.07-10.42.2-12.2,3.85-1.14,2.33,1.24,6-.17,8.16-11.2,17.25-18.62,29.08-35.49,40.61-11.12,7.6-22.35,6.65-37.78,6.12A66.39,66.39,0,0,0,84,131.83C78.9,133,74,146,74,152c0,2.7.15,4.25,1,5.38l-.36,6L80,165.68l1.76-5.06c.9.29,1.81.55,2.71.82l1.28,6.37,8.59,2.48,4.17-5.24c.77.2,7.9,1.5,9,1.68l1.41,5.92,9.6,1.42,3.56-5.66c1.15.13,7.69.63,9.14.7l.7,5.43,12.85-.08,3.82-5.55c1.09-.08,5.7-.8,6.58-1l1.31,5.09,13.08-1.15,1.9-7.29c2.62-2.07,4-5,10.35-6.2A26,26,0,0,1,195,159.62L198.1,172l7.51-.12,2.45-6,5.49-.21,2,5.81,9.39,0,2.3-6.23,4.3-.3,2.74,5.72,10.18-.28L247,156.12c-.13-1.18.92-3.46,1.69-7.27C250.76,138.47,248.13,128.75,245.59,118.93Z"/><path class="cls-4" d="M225.85,47.84H170.21a2.57,2.57,0,0,0-2.58,2.58l13.61,10.69v75.27a6.88,6.88,0,0,0,6.89,6.88h37.72a6.88,6.88,0,0,0,6.88-6.88V54.72A6.88,6.88,0,0,0,225.85,47.84Z"/><path class="cls-5" d="M225.85,47.84H170.21a2.57,2.57,0,0,0-2.58,2.58l13.61,10.69v75.27a6.88,6.88,0,0,0,6.89,6.88h37.72a6.88,6.88,0,0,0,6.88-6.88V54.72A6.88,6.88,0,0,0,225.85,47.84Z"/><g class="cls-6"><rect class="cls-3" x="167.63" y="83.16" width="76.41" height="97.88"/></g><path class="cls-1" d="M225.85,47.84H170.21a2.57,2.57,0,0,0-2.58,2.58l13.61,10.69v75.27a6.88,6.88,0,0,0,6.89,6.88h37.72a6.88,6.88,0,0,0,6.88-6.88V54.72A6.88,6.88,0,0,0,225.85,47.84Z"/><line class="cls-7" x1="193.29" y1="85.1" x2="237.21" y2="85.1"/><line class="cls-7" x1="193.29" y1="112.34" x2="237.21" y2="112.34"/></svg>