<?xml version="1.0" encoding="UTF-8"?>
<svg width="17px" height="13px" viewBox="0 0 17 13" version="1.1" xmlns="http://www.w3.org/2000/svg" xmlns:xlink="http://www.w3.org/1999/xlink">
    <!-- Generator: sketchtool 63.1 (101010) - https://sketch.com -->
    <title>D723FBAB-8C1F-47DA-B8B8-A9A2716F6B65</title>
    <desc>Created with sketchtool.</desc>
    <defs>
        <path d="M16.2461541,1.6801638 C15.741688,1.94285595 15.140774,1.94285595 14.6363079,1.6801638 C15.3156925,1.27400995 15.3747695,0.986009945 15.5889233,0.203240702 C14.9450309,0.597015947 14.2380569,0.876807758 13.4990771,1.03031764 C12.5735762,0.0519463229 11.1456556,-0.26438043 9.89354526,0.23158537 C8.64143488,0.72755117 7.81743359,1.93587292 7.81292319,3.28262536 C7.81459223,3.53091424 7.84181258,3.77837199 7.89415396,4.02108691 C5.25020575,3.88790047 2.78667539,2.64003379 1.11507694,0.587240708 C0.221438522,2.10000737 0.669401661,4.04767319 2.13415388,5.01801 C1.6166743,4.99508025 1.11137566,4.85359663 0.657230779,4.60447154 L0.657230779,4.64877923 C0.655789284,6.21588558 1.76349377,7.5649335 3.30092313,7.86847159 C2.81948943,8.0000644 2.31440621,8.02026772 1.82400003,7.92754851 C2.25980028,9.24726308 3.47711544,10.1513855 4.86646161,10.1872409 C3.48940753,11.2690244 1.73827828,11.7579588 0,11.5460101 C1.50490233,12.511606 3.25564747,13.0242693 5.04369238,13.0229332 C7.5299644,13.0387824 9.91899771,12.0581217 11.6770932,10.3000262 C13.4351887,8.54193069 14.4158494,6.15289738 14.4000002,3.66662537 C14.4000002,3.51893306 14.4000002,3.37862536 14.4000002,3.23831767 C15.1009416,2.82971676 15.7256056,2.30250037 16.2461541,1.6801638 Z" id="path-1"></path>
    </defs>
    <g id="Icon-Sheet" stroke="none" stroke-width="1" fill="none" fill-rule="evenodd">
        <g id="Style-Sheet---Icons" transform="translate(-215.000000, -1179.000000)">
            <g id="Social" transform="translate(80.000000, 1073.000000)">
                <g id="Icons" transform="translate(3.000000, 100.000000)">
                    <g id="Icon-/-UI-/-Social-/-Twitter" transform="translate(128.000000, 0.000000)">
                        <g id="Group" transform="translate(4.000000, 6.000000)">
                            <mask id="mask-2" fill="white">
                                <use xlink:href="#path-1"></use>
                            </mask>
                            <use id="Path" fill="#00257A" xlink:href="#path-1"></use>
                            <g id="Color-Fill-/-Core-/-Blue-1" mask="url(#mask-2)">
                                <g transform="translate(-4.000000, -6.000000)" id="Swatch">
                                    <g>
                                        <polygon id="Rectangle" fill="#00257A" points="0 4.56301663e-14 24 4.56301663e-14 24 24 0 24"></polygon>
                                    </g>
                                </g>
                            </g>
                        </g>
                    </g>
                </g>
            </g>
        </g>
    </g>
</svg>