<?xml version="1.0" encoding="utf-8"?>
<svg width="83px" height="222px" viewBox="0 0 83 222" version="1.1" xmlns:xlink="http://www.w3.org/1999/xlink" xmlns="http://www.w3.org/2000/svg">
  <desc>Created with Lunacy</desc>
  <defs>
    <linearGradient x1="0.5" y1="0" x2="0.5" y2="1" id="gradient_1">
      <stop offset="0" stop-color="#DCBD76" />
      <stop offset="1" stop-color="#FFFFFF" />
    </linearGradient>
  </defs>
  <g id="Group" transform="translate(1.855469 1.855469)">
    <g id="Wonder-Sparks-Left">
      <path d="M1.07042 8.99184L16.1733 0.567927Q16.2895 0.503111 16.413 0.453595Q16.5365 0.40408 16.6653 0.370668Q16.7941 0.337256 16.9261 0.320491Q17.0581 0.303725 17.1912 0.303878Q17.3242 0.30403 17.4562 0.321099Q17.5882 0.338167 17.7169 0.371875Q17.8456 0.405582 17.969 0.455381Q18.0924 0.50518 18.2084 0.570262L33.2911 9.02833Q33.4116 9.0959 33.5221 9.17878Q33.6327 9.26165 33.7313 9.35839Q33.8299 9.45512 33.9149 9.56402Q33.9999 9.67292 34.0697 9.79209Q34.1396 9.91125 34.1932 10.0386Q34.2467 10.1659 34.283 10.2992Q34.3193 10.4325 34.3376 10.5694Q34.356 10.7064 34.3561 10.8445L34.365 19.6436L34.3738 28.2518Q34.3739 28.3901 34.3558 28.5273Q34.3376 28.6644 34.3015 28.798Q34.2654 28.9315 34.212 29.0591Q34.1586 29.1867 34.0887 29.3061Q34.0189 29.4255 33.9339 29.5347Q33.8489 29.6438 33.7503 29.7408Q33.6516 29.8378 33.541 29.9208Q33.4304 30.0039 33.3098 30.0716L18.3142 38.4917Q18.1981 38.5568 18.0748 38.6067Q17.9514 38.6566 17.8227 38.6903Q17.694 38.7241 17.562 38.7412Q17.4301 38.7584 17.297 38.7586Q17.164 38.7588 17.0319 38.7421Q16.8999 38.7254 16.7711 38.6921Q16.6423 38.6588 16.5188 38.6093Q16.3952 38.5598 16.279 38.4951L1.089 30.033Q0.968 29.9656 0.856981 29.8827Q0.745963 29.7999 0.646878 29.7031Q0.547793 29.6063 0.462383 29.4973Q0.376974 29.3883 0.306741 29.2689Q0.236509 29.1495 0.182688 29.0219Q0.128867 28.8943 0.0924041 28.7606Q0.0559412 28.627 0.0374773 28.4897Q0.0190134 28.3525 0.018873 28.214L0.0100568 19.5137L0.00124197 10.8146Q0.00110142 10.6758 0.0193389 10.5383Q0.0375763 10.4008 0.0738703 10.267Q0.110164 10.1331 0.163875 10.0052Q0.217585 9.87733 0.287765 9.75768Q0.357946 9.63804 0.443358 9.52875Q0.528771 9.41947 0.62791 9.32246Q0.727049 9.22545 0.838166 9.14243Q0.949284 9.05941 1.07042 8.99184Z" transform="matrix(-0.7771459 -0.6293204 -0.6293204 0.7771459 78.77361 187.3566)" id="Mask-Copy-19" fill="#8132D2" stroke="none" />
      <path d="M3.34592 5.94355e-16L15.4041 2.73631e-15Q15.4658 2.74728e-15 15.5274 0.00410433Q15.589 0.00820865 15.6502 0.0163991Q15.7113 0.0245896 15.7718 0.03683Q15.8323 0.0490704 15.8919 0.0653065Q15.9514 0.0815426 16.0098 0.101703Q16.0681 0.121863 16.125 0.145857Q16.1819 0.169852 16.237 0.197575Q16.2921 0.225298 16.3453 0.256627Q16.3985 0.287955 16.4495 0.322751Q16.5005 0.357547 16.549 0.395655Q16.5976 0.433764 16.6435 0.475017Q16.6894 0.51627 16.7325 0.560485Q16.7756 0.6047 16.8156 0.65168Q16.8556 0.698661 16.8924 0.7482Q16.9293 0.797739 16.9627 0.849616Q16.9962 0.901494 17.0261 0.955481Q17.056 1.00947 17.0823 1.06532Q17.1085 1.12118 17.131 1.17866Q17.1535 1.23614 17.1721 1.29499Q17.1908 1.35384 17.2054 1.41379Q17.2201 1.47375 17.2307 1.53455Q17.2414 1.59535 17.248 1.65672Q17.2546 1.71809 17.257 1.77977Q17.2595 1.84144 17.2579 1.90314Q17.2563 1.96485 17.2506 2.02631Q17.2448 2.08776 17.2351 2.14871Q17.2253 2.20965 17.2114 2.26981Q17.1976 2.32996 17.1798 2.38907Q17.162 2.44817 17.1403 2.50596Q17.1187 2.56375 17.0932 2.61997Q17.0677 2.67619 17.0385 2.73059Q17.0094 2.78499 16.9767 2.83734L10.9476 12.4839Q10.9165 12.5336 10.8823 12.5813Q10.8481 12.629 10.811 12.6744Q10.7739 12.7199 10.7339 12.7629Q10.694 12.8059 10.6514 12.8463Q10.6089 12.8867 10.5638 12.9243Q10.5188 12.9619 10.4715 12.9966Q10.4242 13.0313 10.3747 13.0629Q10.3253 13.0945 10.274 13.123Q10.2227 13.1514 10.1696 13.1766Q10.1166 13.2017 10.0621 13.2235Q10.0076 13.2452 9.95186 13.2635Q9.89609 13.2817 9.83928 13.2964Q9.78247 13.3111 9.72484 13.3222Q9.66722 13.3332 9.60901 13.3406Q9.5508 13.348 9.49224 13.3518Q9.43368 13.3555 9.375 13.3555Q9.31632 13.3555 9.25776 13.3518Q9.1992 13.348 9.14099 13.3406Q9.08278 13.3332 9.02515 13.3222Q8.96753 13.3111 8.91072 13.2964Q8.85391 13.2817 8.79814 13.2635Q8.74237 13.2452 8.68787 13.2235Q8.63337 13.2017 8.58035 13.1766Q8.52734 13.1514 8.47601 13.123Q8.42469 13.0945 8.37527 13.0629Q8.32585 13.0313 8.27852 12.9966Q8.2312 12.9619 8.18616 12.9243Q8.14113 12.8867 8.09856 12.8463Q8.05599 12.8059 8.01607 12.7629Q7.97614 12.7199 7.93901 12.6744Q7.90188 12.629 7.8677 12.5813Q7.83351 12.5336 7.80241 12.4839L1.77333 2.83734Q1.74062 2.78499 1.71146 2.73059Q1.6823 2.67619 1.65682 2.61997Q1.63134 2.56375 1.60966 2.50596Q1.58797 2.44817 1.57018 2.38907Q1.55239 2.32996 1.53856 2.26981Q1.52474 2.20965 1.51494 2.14871Q1.50515 2.08776 1.49943 2.02631Q1.49371 1.96485 1.49209 1.90314Q1.49047 1.84144 1.49296 1.77977Q1.49544 1.71809 1.50203 1.65672Q1.50861 1.59535 1.51926 1.53455Q1.5299 1.47375 1.54457 1.41379Q1.55924 1.35384 1.57786 1.29499Q1.59648 1.23614 1.61898 1.17866Q1.64147 1.12118 1.66774 1.06532Q1.694 1.00947 1.72392 0.955481Q1.75385 0.901494 1.78729 0.849616Q1.82074 0.797739 1.85756 0.7482Q1.89438 0.698661 1.93441 0.651681Q1.97445 0.6047 2.01752 0.560485Q2.06058 0.51627 2.1065 0.475017Q2.15241 0.433764 2.20097 0.395655Q2.24952 0.357547 2.3005 0.322751Q2.35149 0.287955 2.40467 0.256627Q2.45785 0.225298 2.513 0.197575Q2.56815 0.169852 2.62502 0.145857Q2.68189 0.121863 2.74023 0.101703Q2.79857 0.0815426 2.85812 0.0653065Q2.91767 0.0490704 2.97817 0.03683Q3.03866 0.0245896 3.09984 0.0163991Q3.16102 0.00820865 3.22261 0.00410433Q3.2842 5.83391e-16 3.34592 5.94355e-16L3.34592 5.94355e-16Z" transform="matrix(-4.371139E-08 -1 1 -4.371139E-08 28.4375 18.75)" id="Rectangle-Copy-13" fill="#CF3272" stroke="none" />
      <path d="M1.51242 8.25288L14.6127 0.83354Q14.7803 0.738648 14.9587 0.66612Q15.137 0.593592 15.3233 0.544634Q15.5095 0.495677 15.7005 0.471105Q15.8914 0.446533 16.084 0.446756Q16.2765 0.446978 16.4675 0.471992Q16.6584 0.497006 16.8445 0.546394Q17.0306 0.595782 17.2088 0.668723Q17.387 0.741664 17.5544 0.836942L30.6397 8.28783Q30.8101 8.38489 30.9664 8.50346Q31.1226 8.62204 31.262 8.76008Q31.4013 8.89812 31.5214 9.05325Q31.6414 9.20838 31.7401 9.37791Q31.8388 9.54744 31.9144 9.72844Q31.9899 9.90945 32.0411 10.0988Q32.0923 10.2882 32.1183 10.4826Q32.1442 10.677 32.1444 10.8732L32.1521 18.6614L32.1597 26.2674Q32.1599 26.4638 32.1343 26.6586Q32.1087 26.8533 32.0578 27.043Q32.0068 27.2327 31.9314 27.4141Q31.856 27.5954 31.7574 27.7653Q31.6588 27.9352 31.5387 28.0907Q31.4187 28.2462 31.2793 28.3845Q31.1399 28.5229 30.9835 28.6417Q30.8271 28.7606 30.6565 28.8579L17.6531 36.2716Q17.4858 36.367 17.3077 36.44Q17.1295 36.5131 16.9434 36.5625Q16.7573 36.612 16.5664 36.6372Q16.3755 36.6623 16.1829 36.6626Q15.9904 36.6629 15.7994 36.6385Q15.6084 36.614 15.4221 36.5651Q15.2358 36.5163 15.0574 36.4438Q14.879 36.3714 14.7114 36.2766L1.52913 28.82Q1.35794 28.7231 1.20097 28.6046Q1.04399 28.4861 0.903968 28.348Q0.763941 28.2099 0.643292 28.0545Q0.522643 27.8992 0.423467 27.7294Q0.324291 27.5595 0.24831 27.3781Q0.172329 27.1967 0.120863 27.0068Q0.0693971 26.817 0.0433397 26.6221Q0.0172823 26.4271 0.017086 26.2304L0.00940922 18.538L0.00173457 10.8476Q0.00153802 10.6506 0.027278 10.4553Q0.0530181 10.2601 0.104246 10.0699Q0.155475 9.87972 0.231299 9.69794Q0.307124 9.51616 0.406224 9.34595Q0.505325 9.17574 0.625975 9.02006Q0.746625 8.86438 0.886724 8.72595Q1.02682 8.58751 1.18393 8.46873Q1.34104 8.34994 1.51242 8.25288L1.51242 8.25288Z" transform="matrix(-0.9902681 -0.1391731 -0.1391731 0.9902681 37.01309 87.17565)" id="Mask-Copy-41" fill="none" stroke="#00257A" stroke-width="3.125" />
      <path d="M1.85447 5.91742e-13L16.8955 4.94888e-13Q16.9866 4.94302e-13 17.0773 0.00892977Q17.168 0.0178595 17.2573 0.0356331Q17.3467 0.0534066 17.4339 0.0798528Q17.521 0.106299 17.6052 0.141163Q17.6894 0.176027 17.7697 0.218973Q17.8501 0.26192 17.9258 0.312534Q18.0016 0.363149 18.072 0.420945Q18.1424 0.478741 18.2068 0.543161Q18.2713 0.607582 18.3291 0.678006Q18.3868 0.748431 18.4375 0.824181Q18.4881 0.899931 18.531 0.980278Q18.574 1.06062 18.6088 1.14479Q18.6437 1.22896 18.6701 1.31614Q18.6966 1.40333 18.7144 1.49268Q18.7321 1.58203 18.7411 1.6727Q18.75 1.76336 18.75 1.85447L18.75 16.8955Q18.75 16.9866 18.7411 17.0773Q18.7321 17.168 18.7144 17.2573Q18.6966 17.3467 18.6701 17.4339Q18.6437 17.521 18.6088 17.6052Q18.574 17.6894 18.531 17.7697Q18.4881 17.8501 18.4375 17.9258Q18.3869 18.0016 18.3291 18.072Q18.2713 18.1424 18.2068 18.2068Q18.1424 18.2713 18.072 18.3291Q18.0016 18.3868 17.9258 18.4375Q17.8501 18.4881 17.7697 18.531Q17.6894 18.574 17.6052 18.6088Q17.521 18.6437 17.4339 18.6701Q17.3467 18.6966 17.2573 18.7144Q17.168 18.7321 17.0773 18.7411Q16.9866 18.75 16.8955 18.75L1.85447 18.75Q1.76336 18.75 1.6727 18.7411Q1.58203 18.7321 1.49268 18.7144Q1.40333 18.6966 1.31614 18.6701Q1.22896 18.6437 1.14479 18.6088Q1.06062 18.574 0.980278 18.531Q0.899931 18.4881 0.824181 18.4375Q0.748431 18.3869 0.678006 18.3291Q0.607582 18.2713 0.543161 18.2068Q0.478741 18.1424 0.420945 18.072Q0.363149 18.0016 0.312534 17.9258Q0.261919 17.8501 0.218973 17.7697Q0.176027 17.6894 0.141163 17.6052Q0.106299 17.521 0.0798528 17.4339Q0.0534066 17.3467 0.0356331 17.2573Q0.0178595 17.168 0.00892977 17.0773Q8.41823e-15 16.9866 8.85316e-15 16.8955L8.06586e-14 1.85447Q8.10935e-14 1.76336 0.00892977 1.6727Q0.0178595 1.58203 0.0356331 1.49268Q0.0534066 1.40333 0.0798528 1.31614Q0.106299 1.22896 0.141163 1.14479Q0.176027 1.06062 0.218973 0.980278Q0.26192 0.899931 0.312534 0.824181Q0.363149 0.748431 0.420945 0.678006Q0.478741 0.607582 0.543161 0.543161Q0.607582 0.478741 0.678006 0.420945Q0.748431 0.363149 0.824181 0.312534Q0.899931 0.261919 0.980278 0.218973Q1.06062 0.176027 1.14479 0.141163Q1.22896 0.106299 1.31614 0.0798528Q1.40333 0.0534066 1.49268 0.0356331Q1.58203 0.0178595 1.6727 0.00892977Q1.76336 5.92329e-13 1.85447 5.91742e-13L1.85447 5.91742e-13Z" transform="matrix(0.6156615 -0.7880107 0.7880107 0.6156615 36.24669 50.67828)" id="Rectangle" fill="#00A8FF" stroke="none" />
      <path d="M3.478 1.88179e-13L3.48 1.8818e-13Q3.65087 1.88286e-13 3.82091 0.0167475Q3.99095 0.0334951 4.15853 0.0668289Q4.32611 0.100163 4.48961 0.149762Q4.65312 0.199361 4.81098 0.264747Q4.96883 0.330134 5.11952 0.410678Q5.27021 0.491223 5.41228 0.586149Q5.55435 0.681076 5.68643 0.78947Q5.8185 0.897865 5.93932 1.01868Q6.06014 1.1395 6.16854 1.27158Q6.27693 1.40366 6.37186 1.54573Q6.46678 1.6878 6.54733 1.83848Q6.62787 1.98917 6.69326 2.14703Q6.75865 2.30489 6.80825 2.46839Q6.85784 2.6319 6.89118 2.79948Q6.92451 2.96706 6.94126 3.1371Q6.95801 3.30714 6.95801 3.478L6.95801 35.4868Q6.95801 35.6577 6.94126 35.8277Q6.92451 35.9978 6.89118 36.1654Q6.85784 36.3329 6.80825 36.4964Q6.75865 36.66 6.69326 36.8178Q6.62787 36.9757 6.54733 37.1264Q6.46678 37.277 6.37186 37.4191Q6.27693 37.5612 6.16854 37.6933Q6.06014 37.8253 5.93932 37.9462Q5.8185 38.067 5.68643 38.1754Q5.55435 38.2838 5.41228 38.3787Q5.27021 38.4736 5.11952 38.5542Q4.96883 38.6347 4.81098 38.7001Q4.65312 38.7655 4.48961 38.8151Q4.32611 38.8647 4.15853 38.898Q3.99095 38.9314 3.82091 38.9481Q3.65087 38.9648 3.48 38.9648L3.478 38.9648Q3.30714 38.9648 3.1371 38.9481Q2.96706 38.9314 2.79948 38.898Q2.6319 38.8647 2.46839 38.8151Q2.30489 38.7655 2.14703 38.7001Q1.98917 38.6347 1.83848 38.5542Q1.6878 38.4736 1.54573 38.3787Q1.40366 38.2838 1.27158 38.1754Q1.1395 38.067 1.01868 37.9462Q0.897865 37.8253 0.78947 37.6933Q0.681076 37.5612 0.586149 37.4191Q0.491223 37.277 0.410678 37.1264Q0.330134 36.9757 0.264747 36.8178Q0.199361 36.66 0.149762 36.4964Q0.100163 36.3329 0.0668289 36.1654Q0.0334951 35.9978 0.0167475 35.8277Q7.16932e-13 35.6577 7.17094e-13 35.4868L7.47554e-13 3.478Q7.47717e-13 3.30714 0.0167475 3.1371Q0.0334951 2.96706 0.0668289 2.79948Q0.100163 2.6319 0.149762 2.46839Q0.199361 2.30489 0.264747 2.14703Q0.330134 1.98917 0.410678 1.83848Q0.491223 1.6878 0.586149 1.54573Q0.681076 1.40366 0.78947 1.27158Q0.897865 1.1395 1.01868 1.01868Q1.1395 0.897865 1.27158 0.78947Q1.40366 0.681076 1.54573 0.586149Q1.6878 0.491223 1.83848 0.410678Q1.98917 0.330134 2.14703 0.264747Q2.30489 0.199361 2.46839 0.149762Q2.6319 0.100163 2.79948 0.0668289Q2.96706 0.0334951 3.1371 0.0167475Q3.30714 1.88073e-13 3.478 1.88179e-13L3.478 1.88179e-13Z" transform="matrix(-0.515038 -0.8571673 0.8571673 -0.515038 35.80226 165.7201)" id="Rectangle-Copy-28" fill="url(#gradient_1)" stroke="none" />
    </g>
  </g>
</svg>