<?xml version="1.0" encoding="utf-8"?>
<svg width="75px" height="117px" viewBox="0 0 75 117" version="1.1" xmlns:xlink="http://www.w3.org/1999/xlink" xmlns="http://www.w3.org/2000/svg">
  <desc>Created with Lunacy</desc>
  <g id="Group-2" transform="translate(1.5625 1.5625)">
    <g id="Wonder-Sparks-Right">
      <path d="M1.51242 9.16383L16.2212 0.833539Q16.3887 0.738648 16.5671 0.66612Q16.7455 0.593592 16.9317 0.544634Q17.1179 0.495677 17.3089 0.471105Q17.4999 0.446533 17.6924 0.446755Q17.885 0.446978 18.0759 0.471992Q18.2668 0.497006 18.453 0.546394Q18.6391 0.595782 18.8173 0.668723Q18.9955 0.741663 19.1628 0.836942L33.8539 9.20219Q34.0244 9.29925 34.1806 9.41782Q34.3369 9.5364 34.4763 9.67444Q34.6156 9.81248 34.7357 9.96761Q34.8557 10.1227 34.9544 10.2923Q35.053 10.4618 35.1286 10.6428Q35.2042 10.8238 35.2554 11.0132Q35.3066 11.2025 35.3325 11.397Q35.3584 11.5914 35.3586 11.7875L35.3673 20.5276L35.3759 29.0674Q35.3761 29.2638 35.3505 29.4586Q35.3249 29.6533 35.2739 29.843Q35.223 30.0327 35.1475 30.2141Q35.0721 30.3954 34.9735 30.5653Q34.8749 30.7352 34.7549 30.8907Q34.6349 31.0461 34.4954 31.1845Q34.356 31.3229 34.1996 31.4417Q34.0432 31.5606 33.8726 31.6579L19.2715 39.9825Q19.1042 40.0779 18.926 40.151Q18.7479 40.224 18.5618 40.2735Q18.3757 40.323 18.1848 40.3481Q17.9938 40.3732 17.8013 40.3735Q17.6087 40.3739 17.4177 40.3494Q17.2267 40.3249 17.0405 40.2761Q16.8542 40.2272 16.6758 40.1548Q16.4974 40.0823 16.3298 39.9875L1.53101 31.6165Q1.35982 31.5197 1.20285 31.4012Q1.04588 31.2827 0.905849 31.1445Q0.765823 31.0064 0.645174 30.8511Q0.524525 30.6958 0.425348 30.5259Q0.326172 30.3561 0.250192 30.1747Q0.174211 29.9932 0.122745 29.8034Q0.0712789 29.6136 0.0452215 29.4186Q0.0191641 29.2237 0.0189678 29.027L0.0103501 20.3918L0.00173457 11.7585Q0.00153802 11.5616 0.0272781 11.3663Q0.0530181 11.171 0.104246 10.9808Q0.155475 10.7907 0.231299 10.6089Q0.307124 10.4271 0.406224 10.2569Q0.505325 10.0867 0.625975 9.93101Q0.746625 9.77533 0.886724 9.63689Q1.02682 9.49846 1.18393 9.37967Q1.34104 9.26089 1.51242 9.16383Z" transform="matrix(-0.9848077 0.1736482 0.1736482 0.9848077 35.00219 66.44833)" id="Mask-Copy-42" fill="#00A8FF" stroke="none" />
      <path d="M11.1328 22.2656C17.2813 22.2656 22.2656 17.2813 22.2656 11.1328C22.2656 4.98433 17.2813 0 11.1328 0C4.98433 0 0 4.98433 0 11.1328C0 17.2813 4.98433 22.2656 11.1328 22.2656Z" transform="translate(48.0002 42.5)" id="Oval-Copy-12" fill="none" stroke="#CF3272" stroke-width="3.125" />
      <path d="M3.34592 5.94355e-16L15.4041 2.73631e-15Q15.4658 2.74728e-15 15.5274 0.00410433Q15.589 0.00820865 15.6502 0.0163991Q15.7113 0.0245896 15.7718 0.03683Q15.8323 0.0490704 15.8919 0.0653065Q15.9514 0.0815426 16.0098 0.101703Q16.0681 0.121863 16.125 0.145857Q16.1819 0.169852 16.237 0.197575Q16.2921 0.225298 16.3453 0.256627Q16.3985 0.287955 16.4495 0.322751Q16.5005 0.357547 16.549 0.395655Q16.5976 0.433764 16.6435 0.475017Q16.6894 0.51627 16.7325 0.560485Q16.7756 0.6047 16.8156 0.65168Q16.8556 0.698661 16.8924 0.7482Q16.9293 0.797739 16.9627 0.849616Q16.9962 0.901494 17.0261 0.955481Q17.056 1.00947 17.0823 1.06532Q17.1085 1.12118 17.131 1.17866Q17.1535 1.23614 17.1721 1.29499Q17.1908 1.35384 17.2054 1.41379Q17.2201 1.47375 17.2307 1.53455Q17.2414 1.59535 17.248 1.65672Q17.2546 1.71809 17.257 1.77977Q17.2595 1.84144 17.2579 1.90314Q17.2563 1.96485 17.2506 2.02631Q17.2448 2.08776 17.2351 2.14871Q17.2253 2.20965 17.2114 2.26981Q17.1976 2.32996 17.1798 2.38907Q17.162 2.44817 17.1403 2.50596Q17.1187 2.56375 17.0932 2.61997Q17.0677 2.67619 17.0385 2.73059Q17.0094 2.78499 16.9767 2.83734L10.9476 12.4839Q10.9165 12.5336 10.8823 12.5813Q10.8481 12.629 10.811 12.6744Q10.7739 12.7199 10.7339 12.7629Q10.694 12.8059 10.6514 12.8463Q10.6089 12.8867 10.5638 12.9243Q10.5188 12.9619 10.4715 12.9966Q10.4242 13.0313 10.3747 13.0629Q10.3253 13.0945 10.274 13.123Q10.2227 13.1514 10.1696 13.1766Q10.1166 13.2017 10.0621 13.2235Q10.0076 13.2452 9.95186 13.2635Q9.89609 13.2817 9.83928 13.2964Q9.78247 13.3111 9.72484 13.3222Q9.66722 13.3332 9.60901 13.3406Q9.5508 13.348 9.49224 13.3518Q9.43368 13.3555 9.375 13.3555Q9.31632 13.3555 9.25776 13.3518Q9.1992 13.348 9.14099 13.3406Q9.08278 13.3332 9.02515 13.3222Q8.96753 13.3111 8.91072 13.2964Q8.85391 13.2817 8.79814 13.2635Q8.74237 13.2452 8.68787 13.2235Q8.63337 13.2017 8.58035 13.1766Q8.52734 13.1514 8.47601 13.123Q8.42469 13.0945 8.37527 13.0629Q8.32585 13.0313 8.27852 12.9966Q8.2312 12.9619 8.18616 12.9243Q8.14113 12.8867 8.09856 12.8463Q8.05599 12.8059 8.01607 12.7629Q7.97614 12.7199 7.93901 12.6744Q7.90188 12.629 7.8677 12.5813Q7.83351 12.5336 7.80241 12.4839L1.77333 2.83734Q1.74062 2.78499 1.71146 2.73059Q1.6823 2.67619 1.65682 2.61997Q1.63134 2.56375 1.60966 2.50596Q1.58797 2.44817 1.57018 2.38907Q1.55239 2.32996 1.53856 2.26981Q1.52474 2.20965 1.51494 2.14871Q1.50515 2.08776 1.49943 2.02631Q1.49371 1.96485 1.49209 1.90314Q1.49047 1.84144 1.49296 1.77977Q1.49544 1.71809 1.50203 1.65672Q1.50861 1.59535 1.51926 1.53455Q1.5299 1.47375 1.54457 1.41379Q1.55924 1.35384 1.57786 1.29499Q1.59648 1.23614 1.61898 1.17866Q1.64147 1.12118 1.66774 1.06532Q1.694 1.00947 1.72392 0.955481Q1.75385 0.901494 1.78729 0.849616Q1.82074 0.797739 1.85756 0.7482Q1.89438 0.698661 1.93441 0.651681Q1.97445 0.6047 2.01752 0.560485Q2.06058 0.51627 2.1065 0.475017Q2.15241 0.433764 2.20097 0.395655Q2.24952 0.357547 2.3005 0.322751Q2.35149 0.287955 2.40467 0.256627Q2.45785 0.225298 2.513 0.197575Q2.56815 0.169852 2.62502 0.145857Q2.68189 0.121863 2.74023 0.101703Q2.79857 0.0815426 2.85812 0.0653065Q2.91767 0.0490704 2.97817 0.03683Q3.03866 0.0245896 3.09984 0.0163991Q3.16102 0.00820865 3.22261 0.00410433Q3.2842 5.83391e-16 3.34592 5.94355e-16L3.34592 5.94355e-16Z" transform="matrix(-4.371139E-08 -1 1 -4.371139E-08 38.10762 18.75)" id="Rectangle-Copy-13" fill="#8132D2" stroke="none" />
    </g>
  </g>
</svg>